<?xml version="1.0" encoding="UTF-8" standalone="no"?>
<svg
   xmlns:dc="http://purl.org/dc/elements/1.1/"
   xmlns:cc="http://creativecommons.org/ns#"
   xmlns:rdf="http://www.w3.org/1999/02/22-rdf-syntax-ns#"
   xmlns:svg="http://www.w3.org/2000/svg"
   xmlns="http://www.w3.org/2000/svg"
   viewBox="0 0 218.12933 218.12933"
   height="218.12933"
   width="218.12933"
   xml:space="preserve"
   id="svg2"
   version="1.1"><metadata
     id="metadata8"><rdf:RDF><cc:Work
         rdf:about=""><dc:format>image/svg+xml</dc:format><dc:type
           rdf:resource="http://purl.org/dc/dcmitype/StillImage" /><dc:title></dc:title></cc:Work></rdf:RDF></metadata><defs
     id="defs6" /><g
     transform="matrix(1.3333333,0,0,-1.3333333,0,218.12933)"
     id="g10"><g
       transform="translate(25.106,25.106)"
       id="g12"><g
         id="g14"><g
           id="g16" /><g
           id="g18"><g
             id="g20"><g
               id="g22"><path
                 id="path24"
                 style="fill:none;stroke:#595959;stroke-width:0.3985;stroke-linecap:butt;stroke-linejoin:miter;stroke-miterlimit:10;stroke-dasharray:none;stroke-opacity:1"
                 d="m 9.96277,113.38724 c 0,5.50235 -4.46042,9.96276 -9.96277,9.96276 -5.50235,0 -9.96277,-4.46041 -9.96277,-9.96276 0,-5.50237 4.46042,-9.96277 9.96277,-9.96277 5.50235,0 9.96277,4.4604 9.96277,9.96277 z" /></g><g
               transform="translate(0,113.386)"
               id="g26"><g
                 id="g28" /><g
                 transform="translate(0,-113.386)"
                 id="g30" /></g></g><g
             id="g32"><g
               id="g34"><path
                 id="path36"
                 style="fill:none;stroke:#595959;stroke-width:0.3985;stroke-linecap:butt;stroke-linejoin:miter;stroke-miterlimit:10;stroke-dasharray:none;stroke-opacity:1"
                 d="m 66.65639,113.38724 c 0,5.50235 -4.46042,9.96276 -9.96277,9.96276 -5.50237,0 -9.96277,-4.46041 -9.96277,-9.96276 0,-5.50237 4.4604,-9.96277 9.96277,-9.96277 5.50235,0 9.96277,4.4604 9.96277,9.96277 z" /></g><g
               transform="translate(56.693,113.386)"
               id="g38"><g
                 id="g40" /><g
                 transform="translate(-56.693,-113.386)"
                 id="g42" /></g></g><g
             id="g44"><g
               id="g46"><path
                 id="path48"
                 style="fill:none;stroke:#595959;stroke-width:0.3985;stroke-linecap:butt;stroke-linejoin:miter;stroke-miterlimit:10;stroke-dasharray:none;stroke-opacity:1"
                 d="m 123.35,113.38724 c 0,5.50235 -4.46041,9.96276 -9.96276,9.96276 -5.50237,0 -9.96277,-4.46041 -9.96277,-9.96276 0,-5.50237 4.4604,-9.96277 9.96277,-9.96277 5.50235,0 9.96276,4.4604 9.96276,9.96277 z" /></g><g
               transform="translate(113.386,113.386)"
               id="g50"><g
                 id="g52" /><g
                 transform="translate(-113.386,-113.386)"
                 id="g54" /></g></g><g
             id="g56"><g
               id="g58"><path
                 id="path60"
                 style="fill:none;stroke:#595959;stroke-width:0.3985;stroke-linecap:butt;stroke-linejoin:miter;stroke-miterlimit:10;stroke-dasharray:none;stroke-opacity:1"
                 d="m 9.96277,56.69362 c 0,5.50235 -4.46042,9.96277 -9.96277,9.96277 -5.50235,0 -9.96277,-4.46042 -9.96277,-9.96277 0,-5.50237 4.46042,-9.96277 9.96277,-9.96277 5.50235,0 9.96277,4.4604 9.96277,9.96277 z" /></g><g
               transform="translate(0,56.693)"
               id="g62"><g
                 id="g64" /><g
                 transform="translate(0,-56.693)"
                 id="g66" /></g></g><g
             id="g68"><g
               id="g70"><path
                 id="path72"
                 style="fill:none;stroke:#595959;stroke-width:0.3985;stroke-linecap:butt;stroke-linejoin:miter;stroke-miterlimit:10;stroke-dasharray:none;stroke-opacity:1"
                 d="m 66.65639,56.69362 c 0,5.50235 -4.46042,9.96277 -9.96277,9.96277 -5.50237,0 -9.96277,-4.46042 -9.96277,-9.96277 0,-5.50237 4.4604,-9.96277 9.96277,-9.96277 5.50235,0 9.96277,4.4604 9.96277,9.96277 z" /></g><g
               transform="translate(56.693,56.693)"
               id="g74"><g
                 id="g76" /><g
                 transform="translate(-56.693,-56.693)"
                 id="g78" /></g></g><g
             id="g80"><g
               id="g82"><path
                 id="path84"
                 style="fill:none;stroke:#595959;stroke-width:0.3985;stroke-linecap:butt;stroke-linejoin:miter;stroke-miterlimit:10;stroke-dasharray:none;stroke-opacity:1"
                 d="m 123.35,56.69362 c 0,5.50235 -4.46041,9.96277 -9.96276,9.96277 -5.50237,0 -9.96277,-4.46042 -9.96277,-9.96277 0,-5.50237 4.4604,-9.96277 9.96277,-9.96277 5.50235,0 9.96276,4.4604 9.96276,9.96277 z" /></g><g
               transform="translate(113.386,56.693)"
               id="g86"><g
                 id="g88" /><g
                 transform="translate(-113.386,-56.693)"
                 id="g90" /></g></g><g
             id="g92"><g
               id="g94"><path
                 id="path96"
                 style="fill:none;stroke:#595959;stroke-width:0.3985;stroke-linecap:butt;stroke-linejoin:miter;stroke-miterlimit:10;stroke-dasharray:none;stroke-opacity:1"
                 d="M 9.96277,0 C 9.96277,5.50235 5.50235,9.96277 0,9.96277 -5.50235,9.96277 -9.96277,5.50235 -9.96277,0 c 0,-5.50235 4.46042,-9.96277 9.96277,-9.96277 5.50235,0 9.96277,4.46042 9.96277,9.96277 z" /></g><g
               id="g98"><g
                 id="g100" /></g></g><g
             id="g102"><g
               id="g104"><path
                 id="path106"
                 style="fill:none;stroke:#595959;stroke-width:0.3985;stroke-linecap:butt;stroke-linejoin:miter;stroke-miterlimit:10;stroke-dasharray:none;stroke-opacity:1"
                 d="m 66.65639,0 c 0,5.50235 -4.46042,9.96277 -9.96277,9.96277 -5.50237,0 -9.96277,-4.46042 -9.96277,-9.96277 0,-5.50235 4.4604,-9.96277 9.96277,-9.96277 5.50235,0 9.96277,4.46042 9.96277,9.96277 z" /></g><g
               transform="translate(56.693)"
               id="g108"><g
                 id="g110" /><g
                 transform="translate(-56.693)"
                 id="g112" /></g></g><g
             id="g114"><g
               id="g116"><path
                 id="path118"
                 style="fill:none;stroke:#595959;stroke-width:0.3985;stroke-linecap:butt;stroke-linejoin:miter;stroke-miterlimit:10;stroke-dasharray:none;stroke-opacity:1"
                 d="m 123.35,0 c 0,5.50235 -4.46041,9.96277 -9.96276,9.96277 -5.50237,0 -9.96277,-4.46042 -9.96277,-9.96277 0,-5.50235 4.4604,-9.96277 9.96277,-9.96277 5.50235,0 9.96276,4.46042 9.96276,9.96277 z" /></g><g
               transform="translate(113.386)"
               id="g120"><g
                 id="g122" /><g
                 transform="translate(-113.386)"
                 id="g124" /></g></g><g
             id="g126"><g
               id="g128"><path
                 id="path130"
                 style="fill:none;stroke:#000000;stroke-width:0.79701;stroke-linecap:butt;stroke-linejoin:miter;stroke-miterlimit:10;stroke-dasharray:none;stroke-opacity:1"
                 d="M 56.69362,103.22519 V 66.85562" /><g
                 id="g132"><g
                   transform="translate(55.796,85.039)"
                   id="g134"><g
                     id="g136" /><g
                     transform="translate(-55.796,-85.039)"
                     id="g138" /></g></g></g></g><g
             id="g140"><g
               id="g142"><path
                 id="path144"
                 style="fill:none;stroke:#000000;stroke-width:0.79701;stroke-linecap:butt;stroke-linejoin:miter;stroke-miterlimit:10;stroke-dasharray:none;stroke-opacity:1"
                 d="M 10.162,56.69362 H 46.53157" /><g
                 id="g146"><g
                   transform="translate(28.346,55.796)"
                   id="g148"><g
                     id="g150" /><g
                     transform="translate(-28.346,-55.796)"
                     id="g152" /></g></g></g></g><g
             id="g154"><g
               id="g156"><path
                 id="path158"
                 style="fill:none;stroke:#000000;stroke-width:0.79701;stroke-linecap:butt;stroke-linejoin:miter;stroke-miterlimit:10;stroke-dasharray:none;stroke-opacity:1"
                 d="m 66.85562,56.69362 h 36.36957" /><g
                 id="g160"><g
                   transform="translate(85.039,55.796)"
                   id="g162"><g
                     id="g164" /><g
                     transform="translate(-85.039,-55.796)"
                     id="g166" /></g></g></g></g><g
             id="g168"><g
               id="g170"><path
                 id="path172"
                 style="fill:none;stroke:#000000;stroke-width:0.79701;stroke-linecap:butt;stroke-linejoin:miter;stroke-miterlimit:10;stroke-dasharray:none;stroke-opacity:1"
                 d="M 56.69362,46.53157 V 10.162" /><g
                 id="g174"><g
                   transform="translate(55.796,28.346)"
                   id="g176"><g
                     id="g178" /><g
                     transform="translate(-55.796,-28.346)"
                     id="g180" /></g></g></g></g><g
             id="g182"><g
               id="g184"><path
                 id="path186"
                 style="fill:#ffc2c2;fill-opacity:1;fill-rule:nonzero;stroke:none"
                 d="m 66.65639,113.38724 c 0,5.50235 -4.46042,9.96276 -9.96277,9.96276 -5.50237,0 -9.96277,-4.46041 -9.96277,-9.96276 0,-5.50237 4.4604,-9.96277 9.96277,-9.96277 5.50235,0 9.96277,4.4604 9.96277,9.96277 z" /></g><g
               transform="translate(56.693,113.386)"
               id="g188"><g
                 id="g190" /><g
                 transform="translate(-56.693,-113.386)"
                 id="g192" /></g></g><g
             id="g194"><g
               id="g196"><path
                 id="path198"
                 style="fill:#ffc2c2;fill-opacity:1;fill-rule:nonzero;stroke:none"
                 d="m 9.96277,56.69362 c 0,5.50235 -4.46042,9.96277 -9.96277,9.96277 -5.50235,0 -9.96277,-4.46042 -9.96277,-9.96277 0,-5.50237 4.46042,-9.96277 9.96277,-9.96277 5.50235,0 9.96277,4.4604 9.96277,9.96277 z" /></g><g
               transform="translate(0,56.693)"
               id="g200"><g
                 id="g202" /><g
                 transform="translate(0,-56.693)"
                 id="g204" /></g></g><g
             id="g206"><g
               id="g208"><path
                 id="path210"
                 style="fill:#ffc2c2;fill-opacity:1;fill-rule:nonzero;stroke:none"
                 d="m 123.35,56.69362 c 0,5.50235 -4.46041,9.96277 -9.96276,9.96277 -5.50237,0 -9.96277,-4.46042 -9.96277,-9.96277 0,-5.50237 4.4604,-9.96277 9.96277,-9.96277 5.50235,0 9.96276,4.4604 9.96276,9.96277 z" /></g><g
               transform="translate(113.386,56.693)"
               id="g212"><g
                 id="g214" /><g
                 transform="translate(-113.386,-56.693)"
                 id="g216" /></g></g><g
             id="g218"><g
               id="g220"><path
                 id="path222"
                 style="fill:#ffc2c2;fill-opacity:1;fill-rule:nonzero;stroke:none"
                 d="m 66.65639,0 c 0,5.50235 -4.46042,9.96277 -9.96277,9.96277 -5.50237,0 -9.96277,-4.46042 -9.96277,-9.96277 0,-5.50235 4.4604,-9.96277 9.96277,-9.96277 5.50235,0 9.96277,4.46042 9.96277,9.96277 z" /></g><g
               transform="translate(56.693)"
               id="g224"><g
                 id="g226" /><g
                 transform="translate(-56.693)"
                 id="g228" /></g></g><g
             id="g230"><g
               id="g232"><path
                 id="path234"
                 style="fill:#8080ff;fill-opacity:1;fill-rule:nonzero;stroke:none"
                 d="m 66.65639,56.69362 c 0,5.50235 -4.46042,9.96277 -9.96277,9.96277 -5.50237,0 -9.96277,-4.46042 -9.96277,-9.96277 0,-5.50237 4.4604,-9.96277 9.96277,-9.96277 5.50235,0 9.96277,4.4604 9.96277,9.96277 z" /></g><g
               transform="translate(56.693,56.693)"
               id="g236"><g
                 id="g238" /><g
                 transform="translate(-56.693,-56.693)"
                 id="g240" /></g></g><g
             id="g242"><g
               id="g244"><path
                 id="path246"
                 style="fill:none;stroke:#ff0000;stroke-width:1.99255002;stroke-linecap:butt;stroke-linejoin:miter;stroke-miterlimit:10;stroke-dasharray:2.98883, 2.98883;stroke-dashoffset:0;stroke-opacity:1"
                 d="m 113.97954,56.69362 c 0,31.63853 -25.64739,57.28592 -57.28592,57.28592 -31.63855,0 -57.28591,-25.64739 -57.28591,-57.28592 0,-31.63855 25.64736,-57.28591 57.28591,-57.28591 31.63853,0 57.28592,25.64736 57.28592,57.28591 z" /></g><g
               transform="translate(56.693,56.693)"
               id="g248"><g
                 id="g250" /><g
                 transform="translate(-56.693,-56.693)"
                 id="g252" /></g></g></g></g></g></g></svg>