<?xml version="1.0" encoding="UTF-8" standalone="no"?>
<svg
   xmlns:dc="http://purl.org/dc/elements/1.1/"
   xmlns:cc="http://creativecommons.org/ns#"
   xmlns:rdf="http://www.w3.org/1999/02/22-rdf-syntax-ns#"
   xmlns:svg="http://www.w3.org/2000/svg"
   xmlns="http://www.w3.org/2000/svg"
   viewBox="0 0 317.63068 317.63068"
   height="317.63068"
   width="317.63068"
   xml:space="preserve"
   id="svg2"
   version="1.1"><metadata
     id="metadata8"><rdf:RDF><cc:Work
         rdf:about=""><dc:format>image/svg+xml</dc:format><dc:type
           rdf:resource="http://purl.org/dc/dcmitype/StillImage" /><dc:title></dc:title></cc:Work></rdf:RDF></metadata><defs
     id="defs6" /><g
     transform="matrix(1.3333333,0,0,-1.3333333,0,317.63067)"
     id="g10"><g
       transform="translate(90.765,90.765)"
       id="g12"><g
         id="g14"><g
           id="g16" /><g
           id="g18"><g
             id="g20"><path
               id="path22"
               style="fill:none;stroke:#cccccc;stroke-width:0.3985;stroke-linecap:butt;stroke-linejoin:miter;stroke-miterlimit:10;stroke-dasharray:none;stroke-opacity:1"
               d="M 0,0 V 113.38724 H 113.38724 V 0 Z" /></g><g
             id="g24"><path
               id="path26"
               style="fill:none;stroke:#cccccc;stroke-width:0.3985;stroke-linecap:butt;stroke-linejoin:miter;stroke-miterlimit:10;stroke-dasharray:none;stroke-opacity:1"
               d="M -56.69362,-56.69362 V 56.69362 H 56.69362 V -56.69362 Z" /></g><g
             id="g28"><path
               id="path30"
               style="fill:none;stroke:#cccccc;stroke-width:0.3985;stroke-linecap:butt;stroke-linejoin:miter;stroke-miterlimit:10;stroke-dasharray:none;stroke-opacity:1"
               d="M -56.69362,-56.69362 56.69362,56.69362" /></g><g
             id="g32"><path
               id="path34"
               style="fill:none;stroke:#cccccc;stroke-width:0.3985;stroke-linecap:butt;stroke-linejoin:miter;stroke-miterlimit:10;stroke-dasharray:none;stroke-opacity:1"
               d="M 56.69362,-56.69362 113.38724,0" /></g><g
             id="g36"><path
               id="path38"
               style="fill:none;stroke:#cccccc;stroke-width:0.3985;stroke-linecap:butt;stroke-linejoin:miter;stroke-miterlimit:10;stroke-dasharray:none;stroke-opacity:1"
               d="m 56.69362,56.69362 56.69362,56.69362" /></g><g
             id="g40"><path
               id="path42"
               style="fill:none;stroke:#cccccc;stroke-width:0.3985;stroke-linecap:butt;stroke-linejoin:miter;stroke-miterlimit:10;stroke-dasharray:none;stroke-opacity:1"
               d="M -56.69362,56.69362 0,113.38724" /></g><g
             id="g44"><g
               id="g46"><path
                 id="path48"
                 style="fill:#ffffff;fill-opacity:1;fill-rule:nonzero;stroke:#595959;stroke-width:0.3985;stroke-linecap:butt;stroke-linejoin:miter;stroke-miterlimit:10;stroke-dasharray:none;stroke-opacity:1"
                 d="m 9.96277,113.38724 c 0,5.50235 -4.46042,9.96276 -9.96277,9.96276 -5.50235,0 -9.96277,-4.46041 -9.96277,-9.96276 0,-5.50237 4.46042,-9.96277 9.96277,-9.96277 5.50235,0 9.96277,4.4604 9.96277,9.96277 z" /></g><g
               transform="translate(0,113.386)"
               id="g50"><g
                 id="g52" /><g
                 transform="translate(0,-113.386)"
                 id="g54" /></g></g><g
             id="g56"><g
               id="g58"><path
                 id="path60"
                 style="fill:#ffffff;fill-opacity:1;fill-rule:nonzero;stroke:#595959;stroke-width:0.3985;stroke-linecap:butt;stroke-linejoin:miter;stroke-miterlimit:10;stroke-dasharray:none;stroke-opacity:1"
                 d="m 66.65639,113.38724 c 0,5.50235 -4.46042,9.96276 -9.96277,9.96276 -5.50237,0 -9.96277,-4.46041 -9.96277,-9.96276 0,-5.50237 4.4604,-9.96277 9.96277,-9.96277 5.50235,0 9.96277,4.4604 9.96277,9.96277 z" /></g><g
               transform="translate(56.693,113.386)"
               id="g62"><g
                 id="g64" /><g
                 transform="translate(-56.693,-113.386)"
                 id="g66" /></g></g><g
             id="g68"><g
               id="g70"><path
                 id="path72"
                 style="fill:#ffffff;fill-opacity:1;fill-rule:nonzero;stroke:#595959;stroke-width:0.3985;stroke-linecap:butt;stroke-linejoin:miter;stroke-miterlimit:10;stroke-dasharray:none;stroke-opacity:1"
                 d="m 123.35,113.38724 c 0,5.50235 -4.46041,9.96276 -9.96276,9.96276 -5.50237,0 -9.96277,-4.46041 -9.96277,-9.96276 0,-5.50237 4.4604,-9.96277 9.96277,-9.96277 5.50235,0 9.96276,4.4604 9.96276,9.96277 z" /></g><g
               transform="translate(113.386,113.386)"
               id="g74"><g
                 id="g76" /><g
                 transform="translate(-113.386,-113.386)"
                 id="g78" /></g></g><g
             id="g80"><g
               id="g82"><path
                 id="path84"
                 style="fill:#ffffff;fill-opacity:1;fill-rule:nonzero;stroke:#595959;stroke-width:0.3985;stroke-linecap:butt;stroke-linejoin:miter;stroke-miterlimit:10;stroke-dasharray:none;stroke-opacity:1"
                 d="m 9.96277,56.69362 c 0,5.50235 -4.46042,9.96277 -9.96277,9.96277 -5.50235,0 -9.96277,-4.46042 -9.96277,-9.96277 0,-5.50237 4.46042,-9.96277 9.96277,-9.96277 5.50235,0 9.96277,4.4604 9.96277,9.96277 z" /></g><g
               transform="translate(0,56.693)"
               id="g86"><g
                 id="g88" /><g
                 transform="translate(0,-56.693)"
                 id="g90" /></g></g><g
             id="g92"><g
               id="g94"><path
                 id="path96"
                 style="fill:#ffffff;fill-opacity:1;fill-rule:nonzero;stroke:#595959;stroke-width:0.3985;stroke-linecap:butt;stroke-linejoin:miter;stroke-miterlimit:10;stroke-dasharray:none;stroke-opacity:1"
                 d="m 66.65639,56.69362 c 0,5.50235 -4.46042,9.96277 -9.96277,9.96277 -5.50237,0 -9.96277,-4.46042 -9.96277,-9.96277 0,-5.50237 4.4604,-9.96277 9.96277,-9.96277 5.50235,0 9.96277,4.4604 9.96277,9.96277 z" /></g><g
               transform="translate(56.693,56.693)"
               id="g98"><g
                 id="g100" /><g
                 transform="translate(-56.693,-56.693)"
                 id="g102" /></g></g><g
             id="g104"><g
               id="g106"><path
                 id="path108"
                 style="fill:#ffffff;fill-opacity:1;fill-rule:nonzero;stroke:#595959;stroke-width:0.3985;stroke-linecap:butt;stroke-linejoin:miter;stroke-miterlimit:10;stroke-dasharray:none;stroke-opacity:1"
                 d="m 123.35,56.69362 c 0,5.50235 -4.46041,9.96277 -9.96276,9.96277 -5.50237,0 -9.96277,-4.46042 -9.96277,-9.96277 0,-5.50237 4.4604,-9.96277 9.96277,-9.96277 5.50235,0 9.96276,4.4604 9.96276,9.96277 z" /></g><g
               transform="translate(113.386,56.693)"
               id="g110"><g
                 id="g112" /><g
                 transform="translate(-113.386,-56.693)"
                 id="g114" /></g></g><g
             id="g116"><g
               id="g118"><path
                 id="path120"
                 style="fill:#ffffff;fill-opacity:1;fill-rule:nonzero;stroke:#595959;stroke-width:0.3985;stroke-linecap:butt;stroke-linejoin:miter;stroke-miterlimit:10;stroke-dasharray:none;stroke-opacity:1"
                 d="M 9.96277,0 C 9.96277,5.50235 5.50235,9.96277 0,9.96277 -5.50235,9.96277 -9.96277,5.50235 -9.96277,0 c 0,-5.50235 4.46042,-9.96277 9.96277,-9.96277 5.50235,0 9.96277,4.46042 9.96277,9.96277 z" /></g><g
               id="g122"><g
                 id="g124" /></g></g><g
             id="g126"><g
               id="g128"><path
                 id="path130"
                 style="fill:#ffffff;fill-opacity:1;fill-rule:nonzero;stroke:#595959;stroke-width:0.3985;stroke-linecap:butt;stroke-linejoin:miter;stroke-miterlimit:10;stroke-dasharray:none;stroke-opacity:1"
                 d="m 66.65639,0 c 0,5.50235 -4.46042,9.96277 -9.96277,9.96277 -5.50237,0 -9.96277,-4.46042 -9.96277,-9.96277 0,-5.50235 4.4604,-9.96277 9.96277,-9.96277 5.50235,0 9.96277,4.46042 9.96277,9.96277 z" /></g><g
               transform="translate(56.693)"
               id="g132"><g
                 id="g134" /><g
                 transform="translate(-56.693)"
                 id="g136" /></g></g><g
             id="g138"><g
               id="g140"><path
                 id="path142"
                 style="fill:#ffffff;fill-opacity:1;fill-rule:nonzero;stroke:#595959;stroke-width:0.3985;stroke-linecap:butt;stroke-linejoin:miter;stroke-miterlimit:10;stroke-dasharray:none;stroke-opacity:1"
                 d="m 123.35,0 c 0,5.50235 -4.46041,9.96277 -9.96276,9.96277 -5.50237,0 -9.96277,-4.46042 -9.96277,-9.96277 0,-5.50235 4.4604,-9.96277 9.96277,-9.96277 5.50235,0 9.96276,4.46042 9.96276,9.96277 z" /></g><g
               transform="translate(113.386)"
               id="g144"><g
                 id="g146" /><g
                 transform="translate(-113.386)"
                 id="g148" /></g></g><g
             id="g150"><g
               id="g152"><path
                 id="path154"
                 style="fill:#ffffff;fill-opacity:1;fill-rule:nonzero;stroke:#595959;stroke-width:0.3985;stroke-linecap:butt;stroke-linejoin:miter;stroke-miterlimit:10;stroke-dasharray:none;stroke-opacity:1"
                 d="m -18.38402,85.0404 c 0,5.50237 -4.46042,9.96277 -9.96277,9.96277 -5.50235,0 -9.96277,-4.4604 -9.96277,-9.96277 0,-5.50234 4.46042,-9.96276 9.96277,-9.96276 5.50235,0 9.96277,4.46042 9.96277,9.96276 z" /></g><g
               transform="translate(-28.346,85.039)"
               id="g156"><g
                 id="g158" /><g
                 transform="translate(28.346,-85.039)"
                 id="g160" /></g></g><g
             id="g162"><g
               id="g164"><path
                 id="path166"
                 style="fill:#ffffff;fill-opacity:1;fill-rule:nonzero;stroke:#595959;stroke-width:0.3985;stroke-linecap:butt;stroke-linejoin:miter;stroke-miterlimit:10;stroke-dasharray:none;stroke-opacity:1"
                 d="m 38.30956,85.0404 c 0,5.50237 -4.46042,9.96277 -9.96277,9.96277 -5.50235,0 -9.96277,-4.4604 -9.96277,-9.96277 0,-5.50234 4.46042,-9.96276 9.96277,-9.96276 5.50235,0 9.96277,4.46042 9.96277,9.96276 z" /></g><g
               transform="translate(28.347,85.039)"
               id="g168"><g
                 id="g170" /><g
                 transform="translate(-28.347,-85.039)"
                 id="g172" /></g></g><g
             id="g174"><g
               id="g176"><path
                 id="path178"
                 style="fill:#ffffff;fill-opacity:1;fill-rule:nonzero;stroke:#595959;stroke-width:0.3985;stroke-linecap:butt;stroke-linejoin:miter;stroke-miterlimit:10;stroke-dasharray:none;stroke-opacity:1"
                 d="m 95.00317,85.0404 c 0,5.50237 -4.4604,9.96277 -9.96277,9.96277 -5.50234,0 -9.96276,-4.4604 -9.96276,-9.96277 0,-5.50234 4.46042,-9.96276 9.96276,-9.96276 5.50237,0 9.96277,4.46042 9.96277,9.96276 z" /></g><g
               transform="translate(85.039,85.039)"
               id="g180"><g
                 id="g182" /><g
                 transform="translate(-85.039,-85.039)"
                 id="g184" /></g></g><g
             id="g186"><g
               id="g188"><path
                 id="path190"
                 style="fill:#ffffff;fill-opacity:1;fill-rule:nonzero;stroke:#595959;stroke-width:0.3985;stroke-linecap:butt;stroke-linejoin:miter;stroke-miterlimit:10;stroke-dasharray:none;stroke-opacity:1"
                 d="m -18.38402,28.34679 c 0,5.50235 -4.46042,9.96277 -9.96277,9.96277 -5.50235,0 -9.96277,-4.46042 -9.96277,-9.96277 0,-5.50235 4.46042,-9.96277 9.96277,-9.96277 5.50235,0 9.96277,4.46042 9.96277,9.96277 z" /></g><g
               transform="translate(-28.346,28.346)"
               id="g192"><g
                 id="g194" /><g
                 transform="translate(28.346,-28.346)"
                 id="g196" /></g></g><g
             id="g198"><g
               id="g200"><path
                 id="path202"
                 style="fill:#ffffff;fill-opacity:1;fill-rule:nonzero;stroke:#595959;stroke-width:0.3985;stroke-linecap:butt;stroke-linejoin:miter;stroke-miterlimit:10;stroke-dasharray:none;stroke-opacity:1"
                 d="m 38.30956,28.34679 c 0,5.50235 -4.46042,9.96277 -9.96277,9.96277 -5.50235,0 -9.96277,-4.46042 -9.96277,-9.96277 0,-5.50235 4.46042,-9.96277 9.96277,-9.96277 5.50235,0 9.96277,4.46042 9.96277,9.96277 z" /></g><g
               transform="translate(28.347,28.346)"
               id="g204"><g
                 id="g206" /><g
                 transform="translate(-28.347,-28.346)"
                 id="g208" /></g></g><g
             id="g210"><g
               id="g212"><path
                 id="path214"
                 style="fill:#ffffff;fill-opacity:1;fill-rule:nonzero;stroke:#595959;stroke-width:0.3985;stroke-linecap:butt;stroke-linejoin:miter;stroke-miterlimit:10;stroke-dasharray:none;stroke-opacity:1"
                 d="m 95.00317,28.34679 c 0,5.50235 -4.4604,9.96277 -9.96277,9.96277 -5.50234,0 -9.96276,-4.46042 -9.96276,-9.96277 0,-5.50235 4.46042,-9.96277 9.96276,-9.96277 5.50237,0 9.96277,4.46042 9.96277,9.96277 z" /></g><g
               transform="translate(85.039,28.346)"
               id="g216"><g
                 id="g218" /><g
                 transform="translate(-85.039,-28.346)"
                 id="g220" /></g></g><g
             id="g222"><g
               id="g224"><path
                 id="path226"
                 style="fill:#ffffff;fill-opacity:1;fill-rule:nonzero;stroke:#595959;stroke-width:0.3985;stroke-linecap:butt;stroke-linejoin:miter;stroke-miterlimit:10;stroke-dasharray:none;stroke-opacity:1"
                 d="m -18.38402,-28.34679 c 0,5.50235 -4.46042,9.96277 -9.96277,9.96277 -5.50235,0 -9.96277,-4.46042 -9.96277,-9.96277 0,-5.50235 4.46042,-9.96277 9.96277,-9.96277 5.50235,0 9.96277,4.46042 9.96277,9.96277 z" /></g><g
               transform="translate(-28.346,-28.346)"
               id="g228"><g
                 id="g230" /><g
                 transform="translate(28.346,28.346)"
                 id="g232" /></g></g><g
             id="g234"><g
               id="g236"><path
                 id="path238"
                 style="fill:#ffffff;fill-opacity:1;fill-rule:nonzero;stroke:#595959;stroke-width:0.3985;stroke-linecap:butt;stroke-linejoin:miter;stroke-miterlimit:10;stroke-dasharray:none;stroke-opacity:1"
                 d="m 38.30956,-28.34679 c 0,5.50235 -4.46042,9.96277 -9.96277,9.96277 -5.50235,0 -9.96277,-4.46042 -9.96277,-9.96277 0,-5.50235 4.46042,-9.96277 9.96277,-9.96277 5.50235,0 9.96277,4.46042 9.96277,9.96277 z" /></g><g
               transform="translate(28.346,-28.346)"
               id="g240"><g
                 id="g242" /><g
                 transform="translate(-28.346,28.346)"
                 id="g244" /></g></g><g
             id="g246"><g
               id="g248"><path
                 id="path250"
                 style="fill:#ffffff;fill-opacity:1;fill-rule:nonzero;stroke:#595959;stroke-width:0.3985;stroke-linecap:butt;stroke-linejoin:miter;stroke-miterlimit:10;stroke-dasharray:none;stroke-opacity:1"
                 d="m 95.00317,-28.34679 c 0,5.50235 -4.4604,9.96277 -9.96277,9.96277 -5.50234,0 -9.96276,-4.46042 -9.96276,-9.96277 0,-5.50235 4.46042,-9.96277 9.96276,-9.96277 5.50237,0 9.96277,4.46042 9.96277,9.96277 z" /></g><g
               transform="translate(85.039,-28.346)"
               id="g252"><g
                 id="g254" /><g
                 transform="translate(-85.039,28.346)"
                 id="g256" /></g></g><g
             id="g258"><g
               id="g260"><path
                 id="path262"
                 style="fill:#ffffff;fill-opacity:1;fill-rule:nonzero;stroke:#595959;stroke-width:0.3985;stroke-linecap:butt;stroke-linejoin:miter;stroke-miterlimit:10;stroke-dasharray:none;stroke-opacity:1"
                 d="m -46.73085,56.69362 c 0,5.50235 -4.4604,9.96277 -9.96277,9.96277 -5.50235,0 -9.96277,-4.46042 -9.96277,-9.96277 0,-5.50237 4.46042,-9.96277 9.96277,-9.96277 5.50237,0 9.96277,4.4604 9.96277,9.96277 z" /></g><g
               transform="translate(-56.693,56.693)"
               id="g264"><g
                 id="g266" /><g
                 transform="translate(56.693,-56.693)"
                 id="g268" /></g></g><g
             id="g270"><g
               id="g272"><path
                 id="path274"
                 style="fill:#ffffff;fill-opacity:1;fill-rule:nonzero;stroke:#595959;stroke-width:0.3985;stroke-linecap:butt;stroke-linejoin:miter;stroke-miterlimit:10;stroke-dasharray:none;stroke-opacity:1"
                 d="m 9.96277,56.69362 c 0,5.50235 -4.46042,9.96277 -9.96277,9.96277 -5.50235,0 -9.96277,-4.46042 -9.96277,-9.96277 0,-5.50237 4.46042,-9.96277 9.96277,-9.96277 5.50235,0 9.96277,4.4604 9.96277,9.96277 z" /></g><g
               transform="translate(0,56.693)"
               id="g276"><g
                 id="g278" /><g
                 transform="translate(0,-56.693)"
                 id="g280" /></g></g><g
             id="g282"><g
               id="g284"><path
                 id="path286"
                 style="fill:#ffffff;fill-opacity:1;fill-rule:nonzero;stroke:#595959;stroke-width:0.3985;stroke-linecap:butt;stroke-linejoin:miter;stroke-miterlimit:10;stroke-dasharray:none;stroke-opacity:1"
                 d="m 66.65639,56.69362 c 0,5.50235 -4.46042,9.96277 -9.96277,9.96277 -5.50237,0 -9.96277,-4.46042 -9.96277,-9.96277 0,-5.50237 4.4604,-9.96277 9.96277,-9.96277 5.50235,0 9.96277,4.4604 9.96277,9.96277 z" /></g><g
               transform="translate(56.693,56.693)"
               id="g288"><g
                 id="g290" /><g
                 transform="translate(-56.693,-56.693)"
                 id="g292" /></g></g><g
             id="g294"><g
               id="g296"><path
                 id="path298"
                 style="fill:#ffffff;fill-opacity:1;fill-rule:nonzero;stroke:#595959;stroke-width:0.3985;stroke-linecap:butt;stroke-linejoin:miter;stroke-miterlimit:10;stroke-dasharray:none;stroke-opacity:1"
                 d="m -46.73085,0 c 0,5.50235 -4.4604,9.96277 -9.96277,9.96277 -5.50235,0 -9.96277,-4.46042 -9.96277,-9.96277 0,-5.50235 4.46042,-9.96277 9.96277,-9.96277 5.50237,0 9.96277,4.46042 9.96277,9.96277 z" /></g><g
               transform="translate(-56.693)"
               id="g300"><g
                 id="g302" /><g
                 transform="translate(56.693)"
                 id="g304" /></g></g><g
             id="g306"><g
               id="g308"><path
                 id="path310"
                 style="fill:#ffffff;fill-opacity:1;fill-rule:nonzero;stroke:#595959;stroke-width:0.3985;stroke-linecap:butt;stroke-linejoin:miter;stroke-miterlimit:10;stroke-dasharray:none;stroke-opacity:1"
                 d="M 9.96277,0 C 9.96277,5.50235 5.50235,9.96277 0,9.96277 -5.50235,9.96277 -9.96277,5.50235 -9.96277,0 c 0,-5.50235 4.46042,-9.96277 9.96277,-9.96277 5.50235,0 9.96277,4.46042 9.96277,9.96277 z" /></g><g
               id="g312"><g
                 id="g314" /></g></g><g
             id="g316"><g
               id="g318"><path
                 id="path320"
                 style="fill:#ffffff;fill-opacity:1;fill-rule:nonzero;stroke:#595959;stroke-width:0.3985;stroke-linecap:butt;stroke-linejoin:miter;stroke-miterlimit:10;stroke-dasharray:none;stroke-opacity:1"
                 d="m 66.65639,0 c 0,5.50235 -4.46042,9.96277 -9.96277,9.96277 -5.50237,0 -9.96277,-4.46042 -9.96277,-9.96277 0,-5.50235 4.4604,-9.96277 9.96277,-9.96277 5.50235,0 9.96277,4.46042 9.96277,9.96277 z" /></g><g
               transform="translate(56.693)"
               id="g322"><g
                 id="g324" /><g
                 transform="translate(-56.693)"
                 id="g326" /></g></g><g
             id="g328"><g
               id="g330"><path
                 id="path332"
                 style="fill:#ffffff;fill-opacity:1;fill-rule:nonzero;stroke:#595959;stroke-width:0.3985;stroke-linecap:butt;stroke-linejoin:miter;stroke-miterlimit:10;stroke-dasharray:none;stroke-opacity:1"
                 d="m -46.73085,-56.69362 c 0,5.50237 -4.4604,9.96277 -9.96277,9.96277 -5.50235,0 -9.96277,-4.4604 -9.96277,-9.96277 0,-5.50235 4.46042,-9.96277 9.96277,-9.96277 5.50237,0 9.96277,4.46042 9.96277,9.96277 z" /></g><g
               transform="translate(-56.693,-56.693)"
               id="g334"><g
                 id="g336" /><g
                 transform="translate(56.693,56.693)"
                 id="g338" /></g></g><g
             id="g340"><g
               id="g342"><path
                 id="path344"
                 style="fill:#ffffff;fill-opacity:1;fill-rule:nonzero;stroke:#595959;stroke-width:0.3985;stroke-linecap:butt;stroke-linejoin:miter;stroke-miterlimit:10;stroke-dasharray:none;stroke-opacity:1"
                 d="m 9.96277,-56.69362 c 0,5.50237 -4.46042,9.96277 -9.96277,9.96277 -5.50235,0 -9.96277,-4.4604 -9.96277,-9.96277 0,-5.50235 4.46042,-9.96277 9.96277,-9.96277 5.50235,0 9.96277,4.46042 9.96277,9.96277 z" /></g><g
               transform="translate(0,-56.693)"
               id="g346"><g
                 id="g348" /><g
                 transform="translate(0,56.693)"
                 id="g350" /></g></g><g
             id="g352"><g
               id="g354"><path
                 id="path356"
                 style="fill:#ffffff;fill-opacity:1;fill-rule:nonzero;stroke:#595959;stroke-width:0.3985;stroke-linecap:butt;stroke-linejoin:miter;stroke-miterlimit:10;stroke-dasharray:none;stroke-opacity:1"
                 d="m 66.65639,-56.69362 c 0,5.50237 -4.46042,9.96277 -9.96277,9.96277 -5.50237,0 -9.96277,-4.4604 -9.96277,-9.96277 0,-5.50235 4.4604,-9.96277 9.96277,-9.96277 5.50235,0 9.96277,4.46042 9.96277,9.96277 z" /></g><g
               transform="translate(56.693,-56.693)"
               id="g358"><g
                 id="g360" /><g
                 transform="translate(-56.693,56.693)"
                 id="g362" /></g></g><g
             id="g364"><g
               id="g366"><path
                 id="path368"
                 style="fill:none;stroke:#000000;stroke-width:0.79701;stroke-linecap:butt;stroke-linejoin:miter;stroke-miterlimit:10;stroke-dasharray:none;stroke-opacity:1"
                 d="M 49.50766,49.50797 35.53258,35.53242" /><g
                 id="g370"><g
                   transform="translate(41.623,43.416)"
                   id="g372"><g
                     id="g374" /><g
                     transform="translate(-41.623,-43.416)"
                     id="g376" /></g></g></g></g><g
             id="g378"><g
               id="g380"><path
                 id="path382"
                 style="fill:none;stroke:#000000;stroke-width:0.79701;stroke-linecap:butt;stroke-linejoin:miter;stroke-miterlimit:10;stroke-dasharray:none;stroke-opacity:1"
                 d="M 28.34679,74.87837 V 38.50879" /><g
                 id="g384"><g
                   transform="translate(27.45,56.693)"
                   id="g386"><g
                     id="g388" /><g
                     transform="translate(-27.45,-56.693)"
                     id="g390" /></g></g></g></g><g
             id="g392"><g
               id="g394"><path
                 id="path396"
                 style="fill:none;stroke:#000000;stroke-width:0.79701;stroke-linecap:butt;stroke-linejoin:miter;stroke-miterlimit:10;stroke-dasharray:none;stroke-opacity:1"
                 d="m 28.34679,-18.18475 v 36.3695" /><g
                 id="g398"><g
                   transform="translate(29.243)"
                   id="g400"><g
                     id="g402" /><g
                     transform="translate(-29.243)"
                     id="g404" /></g></g></g></g><g
             id="g406"><g
               id="g408"><path
                 id="path410"
                 style="fill:none;stroke:#000000;stroke-width:0.79701;stroke-linecap:butt;stroke-linejoin:miter;stroke-miterlimit:10;stroke-dasharray:none;stroke-opacity:1"
                 d="M 74.87837,28.34679 H 38.50879" /><g
                 id="g412"><g
                   transform="translate(56.693,29.243)"
                   id="g414"><g
                     id="g416" /><g
                     transform="translate(-56.693,-29.243)"
                     id="g418" /></g></g></g></g><g
             id="g420"><g
               id="g422"><path
                 id="path424"
                 style="fill:none;stroke:#000000;stroke-width:0.79701;stroke-linecap:butt;stroke-linejoin:miter;stroke-miterlimit:10;stroke-dasharray:none;stroke-opacity:1"
                 d="m -18.18475,28.34679 h 36.3695" /><g
                 id="g426"><g
                   transform="translate(0,27.45)"
                   id="g428"><g
                     id="g430" /><g
                     transform="translate(0,-27.45)"
                     id="g432" /></g></g></g></g><g
             id="g434"><g
               id="g436"><path
                 id="path438"
                 style="fill:none;stroke:#000000;stroke-width:0.79701;stroke-linecap:butt;stroke-linejoin:miter;stroke-miterlimit:10;stroke-dasharray:none;stroke-opacity:1"
                 d="M 7.18594,7.18564 21.161,21.16115" /><g
                 id="g440"><g
                   transform="translate(15.07,13.277)"
                   id="g442"><g
                     id="g444" /><g
                     transform="translate(-15.07,-13.277)"
                     id="g446" /></g></g></g></g><g
             id="g448"><g
               id="g450"><path
                 id="path452"
                 style="fill:#ffc2c2;fill-opacity:1;fill-rule:nonzero;stroke:none"
                 d="m 66.65639,56.69362 c 0,5.50235 -4.46042,9.96277 -9.96277,9.96277 -5.50237,0 -9.96277,-4.46042 -9.96277,-9.96277 0,-5.50237 4.4604,-9.96277 9.96277,-9.96277 5.50235,0 9.96277,4.4604 9.96277,9.96277 z" /></g><g
               transform="translate(56.693,56.693)"
               id="g454"><g
                 id="g456" /><g
                 transform="translate(-56.693,-56.693)"
                 id="g458" /></g></g><g
             id="g460"><g
               id="g462"><path
                 id="path464"
                 style="fill:#ffc2c2;fill-opacity:1;fill-rule:nonzero;stroke:none"
                 d="m 38.30956,85.0404 c 0,5.50237 -4.46042,9.96277 -9.96277,9.96277 -5.50235,0 -9.96277,-4.4604 -9.96277,-9.96277 0,-5.50234 4.46042,-9.96276 9.96277,-9.96276 5.50235,0 9.96277,4.46042 9.96277,9.96276 z" /></g><g
               transform="translate(28.346,85.039)"
               id="g466"><g
                 id="g468" /><g
                 transform="translate(-28.346,-85.039)"
                 id="g470" /></g></g><g
             id="g472"><g
               id="g474"><path
                 id="path476"
                 style="fill:#ffc2c2;fill-opacity:1;fill-rule:nonzero;stroke:none"
                 d="m 38.30956,-28.34679 c 0,5.50235 -4.46042,9.96277 -9.96277,9.96277 -5.50235,0 -9.96277,-4.46042 -9.96277,-9.96277 0,-5.50235 4.46042,-9.96277 9.96277,-9.96277 5.50235,0 9.96277,4.46042 9.96277,9.96277 z" /></g><g
               transform="translate(28.346,-28.346)"
               id="g478"><g
                 id="g480" /><g
                 transform="translate(-28.346,28.346)"
                 id="g482" /></g></g><g
             id="g484"><g
               id="g486"><path
                 id="path488"
                 style="fill:#ffc2c2;fill-opacity:1;fill-rule:nonzero;stroke:none"
                 d="m 95.00317,28.34679 c 0,5.50235 -4.4604,9.96277 -9.96277,9.96277 -5.50234,0 -9.96276,-4.46042 -9.96276,-9.96277 0,-5.50235 4.46042,-9.96277 9.96276,-9.96277 5.50237,0 9.96277,4.46042 9.96277,9.96277 z" /></g><g
               transform="translate(85.039,28.346)"
               id="g490"><g
                 id="g492" /><g
                 transform="translate(-85.039,-28.346)"
                 id="g494" /></g></g><g
             id="g496"><g
               id="g498"><path
                 id="path500"
                 style="fill:#ffc2c2;fill-opacity:1;fill-rule:nonzero;stroke:none"
                 d="m -18.38402,28.34679 c 0,5.50235 -4.46042,9.96277 -9.96277,9.96277 -5.50235,0 -9.96277,-4.46042 -9.96277,-9.96277 0,-5.50235 4.46042,-9.96277 9.96277,-9.96277 5.50235,0 9.96277,4.46042 9.96277,9.96277 z" /></g><g
               transform="translate(-28.346,28.346)"
               id="g502"><g
                 id="g504" /><g
                 transform="translate(28.346,-28.346)"
                 id="g506" /></g></g><g
             id="g508"><g
               id="g510"><path
                 id="path512"
                 style="fill:#ffc2c2;fill-opacity:1;fill-rule:nonzero;stroke:none"
                 d="M 9.96277,0 C 9.96277,5.50235 5.50235,9.96277 0,9.96277 -5.50235,9.96277 -9.96277,5.50235 -9.96277,0 c 0,-5.50235 4.46042,-9.96277 9.96277,-9.96277 5.50235,0 9.96277,4.46042 9.96277,9.96277 z" /></g><g
               id="g514"><g
                 id="g516" /></g></g><g
             id="g518"><g
               id="g520"><path
                 id="path522"
                 style="fill:#8080ff;fill-opacity:1;fill-rule:nonzero;stroke:none"
                 d="m 38.30956,28.34679 c 0,5.50235 -4.46042,9.96277 -9.96277,9.96277 -5.50235,0 -9.96277,-4.46042 -9.96277,-9.96277 0,-5.50235 4.46042,-9.96277 9.96277,-9.96277 5.50235,0 9.96277,4.46042 9.96277,9.96277 z" /></g><g
               transform="translate(28.346,28.346)"
               id="g524"><g
                 id="g526" /><g
                 transform="translate(-28.346,-28.346)"
                 id="g528" /></g></g><g
             id="g530"><g
               id="g532"><path
                 id="path534"
                 style="fill:none;stroke:#ff0000;stroke-width:0.3985;stroke-linecap:butt;stroke-linejoin:miter;stroke-miterlimit:10;stroke-dasharray:2.98883, 2.98883;stroke-dashoffset:0;stroke-opacity:1"
                 d="m 90.61409,28.34679 c 0,34.38972 -27.87758,62.2673 -62.2673,62.2673 -34.38971,0 -62.26729,-27.87758 -62.26729,-62.2673 0,-34.38971 27.87758,-62.26729 62.26729,-62.26729 34.38972,0 62.2673,27.87758 62.2673,62.26729 z" /></g><g
               transform="translate(28.346,28.346)"
               id="g536"><g
                 id="g538" /><g
                 transform="translate(-28.346,-28.346)"
                 id="g540" /></g></g><g
             id="g542"><path
               id="path544"
               style="fill:none;stroke:#ff0000;stroke-width:0.3985;stroke-linecap:butt;stroke-linejoin:miter;stroke-miterlimit:10;stroke-dasharray:2.98883, 2.98883;stroke-dashoffset:0;stroke-opacity:1"
               d="m 90.71014,28.34679 c 0,15.6557 -27.92059,28.3468 -62.36335,28.3468 -34.44275,0 -62.36333,-12.6911 -62.36333,-28.3468 C -34.01654,12.69109 -6.09596,0 28.34679,0 62.78955,0 90.71014,12.69109 90.71014,28.34679 Z" /></g><g
             id="g546"><path
               id="path548"
               style="fill:none;stroke:#ff0000;stroke-width:0.3985;stroke-linecap:butt;stroke-linejoin:miter;stroke-miterlimit:10;stroke-dasharray:2.98883, 2.98883;stroke-dashoffset:0;stroke-opacity:1"
               d="m 56.69359,28.34679 c 0,34.44276 -12.6911,62.36335 -28.3468,62.36335 C 12.69109,90.71014 0,62.78955 0,28.34679 0,-6.09596 12.69109,-34.01654 28.34679,-34.01654 c 15.6557,0 28.3468,27.92058 28.3468,62.36333 z" /></g></g></g></g></g></svg>