<?xml version="1.0" encoding="UTF-8" standalone="no"?>
<svg
   xmlns:dc="http://purl.org/dc/elements/1.1/"
   xmlns:cc="http://creativecommons.org/ns#"
   xmlns:rdf="http://www.w3.org/1999/02/22-rdf-syntax-ns#"
   xmlns:svg="http://www.w3.org/2000/svg"
   xmlns="http://www.w3.org/2000/svg"
   viewBox="0 0 221.83467 221.83467"
   height="221.83467"
   width="221.83467"
   xml:space="preserve"
   id="svg2"
   version="1.1"><metadata
     id="metadata8"><rdf:RDF><cc:Work
         rdf:about=""><dc:format>image/svg+xml</dc:format><dc:type
           rdf:resource="http://purl.org/dc/dcmitype/StillImage" /><dc:title></dc:title></cc:Work></rdf:RDF></metadata><defs
     id="defs6" /><g
     transform="matrix(1.3333333,0,0,-1.3333333,0,221.83467)"
     id="g10"><g
       transform="translate(26.495,26.495)"
       id="g12"><g
         id="g14"><g
           id="g16" /><g
           id="g18"><g
             id="g20"><g
               id="g22"><path
                 id="path24"
                 style="fill:none;stroke:#595959;stroke-width:0.3985;stroke-linecap:butt;stroke-linejoin:miter;stroke-miterlimit:10;stroke-dasharray:none;stroke-opacity:1"
                 d="m 9.96277,113.38724 c 0,5.50235 -4.46042,9.96276 -9.96277,9.96276 -5.50235,0 -9.96277,-4.46041 -9.96277,-9.96276 0,-5.50237 4.46042,-9.96277 9.96277,-9.96277 5.50235,0 9.96277,4.4604 9.96277,9.96277 z" /></g><g
               transform="translate(0,113.386)"
               id="g26"><g
                 id="g28" /><g
                 transform="translate(0,-113.386)"
                 id="g30" /></g></g><g
             id="g32"><g
               id="g34"><path
                 id="path36"
                 style="fill:none;stroke:#595959;stroke-width:0.3985;stroke-linecap:butt;stroke-linejoin:miter;stroke-miterlimit:10;stroke-dasharray:none;stroke-opacity:1"
                 d="m 66.65639,113.38724 c 0,5.50235 -4.46042,9.96276 -9.96277,9.96276 -5.50237,0 -9.96277,-4.46041 -9.96277,-9.96276 0,-5.50237 4.4604,-9.96277 9.96277,-9.96277 5.50235,0 9.96277,4.4604 9.96277,9.96277 z" /></g><g
               transform="translate(56.693,113.386)"
               id="g38"><g
                 id="g40" /><g
                 transform="translate(-56.693,-113.386)"
                 id="g42" /></g></g><g
             id="g44"><g
               id="g46"><path
                 id="path48"
                 style="fill:none;stroke:#595959;stroke-width:0.3985;stroke-linecap:butt;stroke-linejoin:miter;stroke-miterlimit:10;stroke-dasharray:none;stroke-opacity:1"
                 d="m 123.35,113.38724 c 0,5.50235 -4.46041,9.96276 -9.96276,9.96276 -5.50237,0 -9.96277,-4.46041 -9.96277,-9.96276 0,-5.50237 4.4604,-9.96277 9.96277,-9.96277 5.50235,0 9.96276,4.4604 9.96276,9.96277 z" /></g><g
               transform="translate(113.386,113.386)"
               id="g50"><g
                 id="g52" /><g
                 transform="translate(-113.386,-113.386)"
                 id="g54" /></g></g><g
             id="g56"><g
               id="g58"><path
                 id="path60"
                 style="fill:none;stroke:#595959;stroke-width:0.3985;stroke-linecap:butt;stroke-linejoin:miter;stroke-miterlimit:10;stroke-dasharray:none;stroke-opacity:1"
                 d="m 9.96277,56.69362 c 0,5.50235 -4.46042,9.96277 -9.96277,9.96277 -5.50235,0 -9.96277,-4.46042 -9.96277,-9.96277 0,-5.50237 4.46042,-9.96277 9.96277,-9.96277 5.50235,0 9.96277,4.4604 9.96277,9.96277 z" /></g><g
               transform="translate(0,56.693)"
               id="g62"><g
                 id="g64" /><g
                 transform="translate(0,-56.693)"
                 id="g66" /></g></g><g
             id="g68"><g
               id="g70"><path
                 id="path72"
                 style="fill:none;stroke:#595959;stroke-width:0.3985;stroke-linecap:butt;stroke-linejoin:miter;stroke-miterlimit:10;stroke-dasharray:none;stroke-opacity:1"
                 d="m 66.65639,56.69362 c 0,5.50235 -4.46042,9.96277 -9.96277,9.96277 -5.50237,0 -9.96277,-4.46042 -9.96277,-9.96277 0,-5.50237 4.4604,-9.96277 9.96277,-9.96277 5.50235,0 9.96277,4.4604 9.96277,9.96277 z" /></g><g
               transform="translate(56.693,56.693)"
               id="g74"><g
                 id="g76" /><g
                 transform="translate(-56.693,-56.693)"
                 id="g78" /></g></g><g
             id="g80"><g
               id="g82"><path
                 id="path84"
                 style="fill:none;stroke:#595959;stroke-width:0.3985;stroke-linecap:butt;stroke-linejoin:miter;stroke-miterlimit:10;stroke-dasharray:none;stroke-opacity:1"
                 d="m 123.35,56.69362 c 0,5.50235 -4.46041,9.96277 -9.96276,9.96277 -5.50237,0 -9.96277,-4.46042 -9.96277,-9.96277 0,-5.50237 4.4604,-9.96277 9.96277,-9.96277 5.50235,0 9.96276,4.4604 9.96276,9.96277 z" /></g><g
               transform="translate(113.386,56.693)"
               id="g86"><g
                 id="g88" /><g
                 transform="translate(-113.386,-56.693)"
                 id="g90" /></g></g><g
             id="g92"><g
               id="g94"><path
                 id="path96"
                 style="fill:none;stroke:#595959;stroke-width:0.3985;stroke-linecap:butt;stroke-linejoin:miter;stroke-miterlimit:10;stroke-dasharray:none;stroke-opacity:1"
                 d="M 9.96277,0 C 9.96277,5.50235 5.50235,9.96277 0,9.96277 -5.50235,9.96277 -9.96277,5.50235 -9.96277,0 c 0,-5.50235 4.46042,-9.96277 9.96277,-9.96277 5.50235,0 9.96277,4.46042 9.96277,9.96277 z" /></g><g
               id="g98"><g
                 id="g100" /></g></g><g
             id="g102"><g
               id="g104"><path
                 id="path106"
                 style="fill:none;stroke:#595959;stroke-width:0.3985;stroke-linecap:butt;stroke-linejoin:miter;stroke-miterlimit:10;stroke-dasharray:none;stroke-opacity:1"
                 d="m 66.65639,0 c 0,5.50235 -4.46042,9.96277 -9.96277,9.96277 -5.50237,0 -9.96277,-4.46042 -9.96277,-9.96277 0,-5.50235 4.4604,-9.96277 9.96277,-9.96277 5.50235,0 9.96277,4.46042 9.96277,9.96277 z" /></g><g
               transform="translate(56.693)"
               id="g108"><g
                 id="g110" /><g
                 transform="translate(-56.693)"
                 id="g112" /></g></g><g
             id="g114"><g
               id="g116"><path
                 id="path118"
                 style="fill:none;stroke:#595959;stroke-width:0.3985;stroke-linecap:butt;stroke-linejoin:miter;stroke-miterlimit:10;stroke-dasharray:none;stroke-opacity:1"
                 d="m 123.35,0 c 0,5.50235 -4.46041,9.96277 -9.96276,9.96277 -5.50237,0 -9.96277,-4.46042 -9.96277,-9.96277 0,-5.50235 4.4604,-9.96277 9.96277,-9.96277 5.50235,0 9.96276,4.46042 9.96276,9.96277 z" /></g><g
               transform="translate(113.386)"
               id="g120"><g
                 id="g122" /><g
                 transform="translate(-113.386)"
                 id="g124" /></g></g><g
             id="g126"><g
               id="g128"><path
                 id="path130"
                 style="fill:none;stroke:#000000;stroke-width:0.79701;stroke-linecap:butt;stroke-linejoin:miter;stroke-miterlimit:10;stroke-dasharray:none;stroke-opacity:1"
                 d="M 56.69362,103.22519 V 66.85562" /><g
                 id="g132"><g
                   transform="translate(55.796,85.039)"
                   id="g134"><g
                     id="g136" /><g
                     transform="translate(-55.796,-85.039)"
                     id="g138" /></g></g></g></g><g
             id="g140"><g
               id="g142"><path
                 id="path144"
                 style="fill:none;stroke:#000000;stroke-width:0.79701;stroke-linecap:butt;stroke-linejoin:miter;stroke-miterlimit:10;stroke-dasharray:none;stroke-opacity:1"
                 d="M 10.162,56.69362 H 46.53157" /><g
                 id="g146"><g
                   transform="translate(28.347,55.796)"
                   id="g148"><g
                     id="g150" /><g
                     transform="translate(-28.347,-55.796)"
                     id="g152" /></g></g></g></g><g
             id="g154"><g
               id="g156"><path
                 id="path158"
                 style="fill:none;stroke:#000000;stroke-width:0.79701;stroke-linecap:butt;stroke-linejoin:miter;stroke-miterlimit:10;stroke-dasharray:none;stroke-opacity:1"
                 d="m 66.85562,56.69362 h 36.36957" /><g
                 id="g160"><g
                   transform="translate(85.039,55.796)"
                   id="g162"><g
                     id="g164" /><g
                     transform="translate(-85.039,-55.796)"
                     id="g166" /></g></g></g></g><g
             id="g168"><g
               id="g170"><path
                 id="path172"
                 style="fill:none;stroke:#000000;stroke-width:0.79701;stroke-linecap:butt;stroke-linejoin:miter;stroke-miterlimit:10;stroke-dasharray:none;stroke-opacity:1"
                 d="M 56.69362,46.53157 V 10.162" /><g
                 id="g174"><g
                   transform="translate(55.796,28.347)"
                   id="g176"><g
                     id="g178" /><g
                     transform="translate(-55.796,-28.347)"
                     id="g180" /></g></g></g></g><g
             id="g182"><g
               id="g184"><path
                 id="path186"
                 style="fill:none;stroke:#000000;stroke-width:0.79701;stroke-linecap:butt;stroke-linejoin:miter;stroke-miterlimit:10;stroke-dasharray:none;stroke-opacity:1"
                 d="M 7.1861,106.20158 49.50781,63.87926" /><g
                 id="g188"><g
                   transform="translate(27.45,84.143)"
                   id="g190"><g
                     id="g192" /><g
                     transform="translate(-27.45,-84.143)"
                     id="g194" /></g></g></g></g><g
             id="g196"><g
               id="g198"><path
                 id="path200"
                 style="fill:none;stroke:#000000;stroke-width:0.79701;stroke-linecap:butt;stroke-linejoin:miter;stroke-miterlimit:10;stroke-dasharray:none;stroke-opacity:1"
                 d="M 106.20114,106.20158 63.87941,63.87926" /><g
                 id="g202"><g
                   transform="translate(84.143,85.936)"
                   id="g204"><g
                     id="g206" /><g
                     transform="translate(-84.143,-85.936)"
                     id="g208" /></g></g></g></g><g
             id="g210"><g
               id="g212"><path
                 id="path214"
                 style="fill:none;stroke:#000000;stroke-width:0.79701;stroke-linecap:butt;stroke-linejoin:miter;stroke-miterlimit:10;stroke-dasharray:none;stroke-opacity:1"
                 d="M 7.1861,7.18564 49.50781,49.50797" /><g
                 id="g216"><g
                   transform="translate(29.243,27.45)"
                   id="g218"><g
                     id="g220" /><g
                     transform="translate(-29.243,-27.45)"
                     id="g222" /></g></g></g></g><g
             id="g224"><g
               id="g226"><path
                 id="path228"
                 style="fill:none;stroke:#000000;stroke-width:0.79701;stroke-linecap:butt;stroke-linejoin:miter;stroke-miterlimit:10;stroke-dasharray:none;stroke-opacity:1"
                 d="M 106.20114,7.18564 63.87941,49.50797" /><g
                 id="g230"><g
                   transform="translate(85.936,29.243)"
                   id="g232"><g
                     id="g234" /><g
                     transform="translate(-85.936,-29.243)"
                     id="g236" /></g></g></g></g><g
             id="g238"><g
               id="g240"><path
                 id="path242"
                 style="fill:#ffc2c2;fill-opacity:1;fill-rule:nonzero;stroke:none"
                 d="m 66.65639,113.38724 c 0,5.50235 -4.46042,9.96276 -9.96277,9.96276 -5.50237,0 -9.96277,-4.46041 -9.96277,-9.96276 0,-5.50237 4.4604,-9.96277 9.96277,-9.96277 5.50235,0 9.96277,4.4604 9.96277,9.96277 z" /></g><g
               transform="translate(56.693,113.386)"
               id="g244"><g
                 id="g246" /><g
                 transform="translate(-56.693,-113.386)"
                 id="g248" /></g></g><g
             id="g250"><g
               id="g252"><path
                 id="path254"
                 style="fill:#ffc2c2;fill-opacity:1;fill-rule:nonzero;stroke:none"
                 d="m 9.96277,56.69362 c 0,5.50235 -4.46042,9.96277 -9.96277,9.96277 -5.50235,0 -9.96277,-4.46042 -9.96277,-9.96277 0,-5.50237 4.46042,-9.96277 9.96277,-9.96277 5.50235,0 9.96277,4.4604 9.96277,9.96277 z" /></g><g
               transform="translate(0,56.693)"
               id="g256"><g
                 id="g258" /><g
                 transform="translate(0,-56.693)"
                 id="g260" /></g></g><g
             id="g262"><g
               id="g264"><path
                 id="path266"
                 style="fill:#ffc2c2;fill-opacity:1;fill-rule:nonzero;stroke:none"
                 d="m 123.35,56.69362 c 0,5.50235 -4.46041,9.96277 -9.96276,9.96277 -5.50237,0 -9.96277,-4.46042 -9.96277,-9.96277 0,-5.50237 4.4604,-9.96277 9.96277,-9.96277 5.50235,0 9.96276,4.4604 9.96276,9.96277 z" /></g><g
               transform="translate(113.386,56.693)"
               id="g268"><g
                 id="g270" /><g
                 transform="translate(-113.386,-56.693)"
                 id="g272" /></g></g><g
             id="g274"><g
               id="g276"><path
                 id="path278"
                 style="fill:#ffc2c2;fill-opacity:1;fill-rule:nonzero;stroke:none"
                 d="m 66.65639,0 c 0,5.50235 -4.46042,9.96277 -9.96277,9.96277 -5.50237,0 -9.96277,-4.46042 -9.96277,-9.96277 0,-5.50235 4.4604,-9.96277 9.96277,-9.96277 5.50235,0 9.96277,4.46042 9.96277,9.96277 z" /></g><g
               transform="translate(56.693)"
               id="g280"><g
                 id="g282" /><g
                 transform="translate(-56.693)"
                 id="g284" /></g></g><g
             id="g286"><g
               id="g288"><path
                 id="path290"
                 style="fill:#ffc2c2;fill-opacity:1;fill-rule:nonzero;stroke:none"
                 d="m 9.96277,113.38724 c 0,5.50235 -4.46042,9.96276 -9.96277,9.96276 -5.50235,0 -9.96277,-4.46041 -9.96277,-9.96276 0,-5.50237 4.46042,-9.96277 9.96277,-9.96277 5.50235,0 9.96277,4.4604 9.96277,9.96277 z" /></g><g
               transform="translate(0,113.386)"
               id="g292"><g
                 id="g294" /><g
                 transform="translate(0,-113.386)"
                 id="g296" /></g></g><g
             id="g298"><g
               id="g300"><path
                 id="path302"
                 style="fill:#ffc2c2;fill-opacity:1;fill-rule:nonzero;stroke:none"
                 d="m 123.35,113.38724 c 0,5.50235 -4.46041,9.96276 -9.96276,9.96276 -5.50237,0 -9.96277,-4.46041 -9.96277,-9.96276 0,-5.50237 4.4604,-9.96277 9.96277,-9.96277 5.50235,0 9.96276,4.4604 9.96276,9.96277 z" /></g><g
               transform="translate(113.386,113.386)"
               id="g304"><g
                 id="g306" /><g
                 transform="translate(-113.386,-113.386)"
                 id="g308" /></g></g><g
             id="g310"><g
               id="g312"><path
                 id="path314"
                 style="fill:#ffc2c2;fill-opacity:1;fill-rule:nonzero;stroke:none"
                 d="M 9.96277,0 C 9.96277,5.50235 5.50235,9.96277 0,9.96277 -5.50235,9.96277 -9.96277,5.50235 -9.96277,0 c 0,-5.50235 4.46042,-9.96277 9.96277,-9.96277 5.50235,0 9.96277,4.46042 9.96277,9.96277 z" /></g><g
               id="g316"><g
                 id="g318" /></g></g><g
             id="g320"><g
               id="g322"><path
                 id="path324"
                 style="fill:#ffc2c2;fill-opacity:1;fill-rule:nonzero;stroke:none"
                 d="m 123.35,0 c 0,5.50235 -4.46041,9.96277 -9.96276,9.96277 -5.50237,0 -9.96277,-4.46042 -9.96277,-9.96277 0,-5.50235 4.4604,-9.96277 9.96277,-9.96277 5.50235,0 9.96276,4.46042 9.96276,9.96277 z" /></g><g
               transform="translate(113.386)"
               id="g326"><g
                 id="g328" /><g
                 transform="translate(-113.386)"
                 id="g330" /></g></g><g
             id="g332"><g
               id="g334"><path
                 id="path336"
                 style="fill:#8080ff;fill-opacity:1;fill-rule:nonzero;stroke:none"
                 d="m 66.65639,56.69362 c 0,5.50235 -4.46042,9.96277 -9.96277,9.96277 -5.50237,0 -9.96277,-4.46042 -9.96277,-9.96277 0,-5.50237 4.4604,-9.96277 9.96277,-9.96277 5.50235,0 9.96277,4.4604 9.96277,9.96277 z" /></g><g
               transform="translate(56.693,56.693)"
               id="g338"><g
                 id="g340" /><g
                 transform="translate(-56.693,-56.693)"
                 id="g342" /></g></g><g
             id="g344"><g
               id="g346"><path
                 id="path348"
                 style="fill:none;stroke:#ff0000;stroke-width:1.99255002;stroke-linecap:butt;stroke-linejoin:miter;stroke-miterlimit:10;stroke-dasharray:2.98883, 2.98883;stroke-dashoffset:0;stroke-opacity:1"
                 d="m 138.88646,56.69362 c 0,45.39442 -36.79842,82.19284 -82.19284,82.19284 -45.39444,0 -82.19282,-36.79842 -82.19282,-82.19284 0,-45.39444 36.79838,-82.19282 82.19282,-82.19282 45.39442,0 82.19284,36.79838 82.19284,82.19282 z" /></g><g
               transform="translate(56.693,56.693)"
               id="g350"><g
                 id="g352" /><g
                 transform="translate(-56.693,-56.693)"
                 id="g354" /></g></g></g></g></g></g></svg>