<?xml version="1.0" encoding="UTF-8" standalone="no"?>
<!-- Created with Inkscape (http://www.inkscape.org/) -->

<svg
   xmlns:dc="http://purl.org/dc/elements/1.1/"
   xmlns:cc="http://creativecommons.org/ns#"
   xmlns:rdf="http://www.w3.org/1999/02/22-rdf-syntax-ns#"
   xmlns:svg="http://www.w3.org/2000/svg"
   xmlns="http://www.w3.org/2000/svg"
   xmlns:sodipodi="http://sodipodi.sourceforge.net/DTD/sodipodi-0.dtd"
   xmlns:inkscape="http://www.inkscape.org/namespaces/inkscape"
   width="43.62936mm"
   height="30.140963mm"
   viewBox="0 0 43.62936 30.140962"
   version="1.1"
   id="svg9919"
   inkscape:version="0.92.1 r15371"
   sodipodi:docname="aorfc_noift3.svg">
  <defs
     id="defs9913" />
  <sodipodi:namedview
     id="base"
     pagecolor="#ffffff"
     bordercolor="#666666"
     borderopacity="1.0"
     inkscape:pageopacity="0.0"
     inkscape:pageshadow="2"
     inkscape:zoom="1.4"
     inkscape:cx="-28.001341"
     inkscape:cy="108.0607"
     inkscape:document-units="mm"
     inkscape:current-layer="layer1"
     showgrid="false"
     fit-margin-top="0"
     fit-margin-left="0"
     fit-margin-right="0"
     fit-margin-bottom="0"
     inkscape:window-width="1366"
     inkscape:window-height="716"
     inkscape:window-x="-8"
     inkscape:window-y="-8"
     inkscape:window-maximized="1" />
  <metadata
     id="metadata9916">
    <rdf:RDF>
      <cc:Work
         rdf:about="">
        <dc:format>image/svg+xml</dc:format>
        <dc:type
           rdf:resource="http://purl.org/dc/dcmitype/StillImage" />
        <dc:title />
      </cc:Work>
    </rdf:RDF>
  </metadata>
  <g
     inkscape:label="Camada 1"
     inkscape:groupmode="layer"
     id="layer1"
     transform="translate(89.850394,-300.57831)">
    <path
       d="m -50.849821,315.64879 c 0,-8.28447 -8.058862,-15.00019 -18.000256,-15.00019 -9.941394,0 -18.000256,6.71572 -18.000256,15.00019 0,8.28447 8.058862,15.00019 18.000256,15.00019 9.941394,0 18.000256,-6.71572 18.000256,-15.00019 z"
       style="fill:#99d9f2;fill-opacity:1;fill-rule:nonzero;stroke:#000000;stroke-width:0.14058194;stroke-linecap:butt;stroke-linejoin:miter;stroke-miterlimit:10;stroke-dasharray:none;stroke-opacity:1"
       id="path10482"
       inkscape:connector-curvature="0" />
    <path
       d="m -58.849956,315.64879 c 0,-4.4184 -4.477138,-8.00013 -10.000121,-8.00013 -5.522983,0 -10.000121,3.58173 -10.000121,8.00013 0,4.4184 4.477138,8.00013 10.000121,8.00013 5.522983,0 10.000121,-3.58173 10.000121,-8.00013 z"
       style="fill:#ffffff;fill-opacity:1;fill-rule:nonzero;stroke:#000000;stroke-width:0.14058194;stroke-linecap:butt;stroke-linejoin:miter;stroke-miterlimit:10;stroke-dasharray:none;stroke-opacity:1"
       id="path10486"
       inkscape:connector-curvature="0" />
    <path
       inkscape:connector-curvature="0"
       id="path10488"
       style="fill:none;stroke:#000000;stroke-width:0.14058194;stroke-linecap:butt;stroke-linejoin:miter;stroke-miterlimit:10;stroke-dasharray:none;stroke-opacity:1"
       d="m -72.850065,315.64879 h -3.734806" />
    <path
       inkscape:connector-curvature="0"
       id="path10494"
       style="fill:#000000;fill-opacity:1;fill-rule:nonzero;stroke:none;stroke-width:0.35277778"
       d="m -77.850119,315.64879 c 0.374897,0.0703 0.984084,0.28116 1.40583,0.52718 v -1.05436 c -0.421746,0.24602 -1.030933,0.45689 -1.40583,0.52718" />
    <path
       inkscape:connector-curvature="0"
       id="path10496"
       style="fill:none;stroke:#000000;stroke-width:0.14058194;stroke-linecap:butt;stroke-linejoin:miter;stroke-miterlimit:10;stroke-dasharray:none;stroke-opacity:1"
       d="m -77.850119,314.64872 h 3.734806" />
    <path
       inkscape:connector-curvature="0"
       id="path10502"
       style="fill:#000000;fill-opacity:1;fill-rule:nonzero;stroke:none;stroke-width:0.35277778"
       d="m -72.850065,314.64872 c -0.374897,-0.0703 -0.984084,-0.28116 -1.40583,-0.52718 v 1.05436 c 0.421746,-0.24602 1.030933,-0.45689 1.40583,-0.52718" />
    <g
       id="g10510"
       transform="matrix(0.35277777,0,0,-0.35277777,-90.278857,333.21924)">
      <text
         transform="matrix(1,0,0,-1,37.337,40.699)"
         style="font-variant:normal;font-size:9.96259975px;font-family:URWPalladioL;-inkscape-font-specification:URWPalladioL-Roma;writing-mode:lr-tb;fill:#000000;fill-opacity:1;fill-rule:nonzero;stroke:none"
         id="text10514">
        <tspan
           x="0 4.9812999"
           y="0"
           sodipodi:role="line"
           id="tspan10512">11</tspan>
      </text>
      <g
         id="g10516"
         transform="translate(37.337,40.699)" />
    </g>
    <g
       id="g10526"
       transform="matrix(0.35277777,0,0,-0.35277777,-90.278857,333.21924)">
      <text
         transform="matrix(1,0,0,-1,37.337,54.872)"
         style="font-variant:normal;font-size:9.96259975px;font-family:URWPalladioL;-inkscape-font-specification:URWPalladioL-Roma;writing-mode:lr-tb;fill:#000000;fill-opacity:1;fill-rule:nonzero;stroke:none"
         id="text10530">
        <tspan
           x="0 4.9812999"
           y="0"
           sodipodi:role="line"
           id="tspan10528">11</tspan>
      </text>
      <g
         id="g10532"
         transform="translate(37.337,54.872)" />
    </g>
    <path
       inkscape:connector-curvature="0"
       id="path10536"
       style="fill:none;stroke:#000000;stroke-width:0.14058194;stroke-linecap:butt;stroke-linejoin:miter;stroke-miterlimit:10;stroke-dasharray:none;stroke-opacity:1"
       d="m -84.850334,326.64899 h -3.734805" />
    <path
       inkscape:connector-curvature="0"
       id="path10542"
       style="fill:#000000;fill-opacity:1;fill-rule:nonzero;stroke:none;stroke-width:0.35277778"
       d="m -89.850387,326.64899 c 0.374897,0.0703 0.984084,0.28116 1.40583,0.52718 v -1.05436 c -0.421746,0.24602 -1.030933,0.45689 -1.40583,0.52718" />
    <g
       id="g10550"
       transform="matrix(0.35277777,0,0,-0.35277777,-90.278857,333.21924)">
      <text
         transform="matrix(1,0,0,-1,3.321,24.166)"
         style="font-variant:normal;font-size:9.96259975px;font-family:URWPalladioL;-inkscape-font-specification:URWPalladioL-Roma;writing-mode:lr-tb;fill:#000000;fill-opacity:1;fill-rule:nonzero;stroke:none"
         id="text10554">
        <tspan
           style="font-style:normal;font-variant:normal;font-weight:normal;font-stretch:normal;font-family:Montserrat;-inkscape-font-specification:Montserrat"
           x="0 4.9812999"
           y="0"
           sodipodi:role="line"
           id="tspan10552">11</tspan>
      </text>
      <g
         id="g10556"
         transform="translate(3.321,24.166)" />
    </g>
    <path
       inkscape:connector-curvature="0"
       id="path10560"
       style="fill:none;stroke:#000000;stroke-width:0.14058194;stroke-linecap:butt;stroke-linejoin:miter;stroke-miterlimit:10;stroke-dasharray:none;stroke-opacity:1"
       d="m -89.850394,325.64891 h 3.734808" />
    <path
       inkscape:connector-curvature="0"
       id="path10566"
       style="fill:#000000;fill-opacity:1;fill-rule:nonzero;stroke:none;stroke-width:0.35277778"
       d="m -84.850338,325.64891 c -0.374897,-0.0703 -0.984084,-0.28116 -1.40583,-0.52718 v 1.05436 c 0.421746,-0.24602 1.030933,-0.45689 1.40583,-0.52718" />
    <g
       id="g10574"
       transform="matrix(0.35277777,0,0,-0.35277777,-90.278857,333.21924)">
      <text
         transform="matrix(1,0,0,-1,3.321,9.043)"
         style="font-variant:normal;font-size:9.96259975px;font-family:URWPalladioL;-inkscape-font-specification:URWPalladioL-Roma;writing-mode:lr-tb;fill:#000000;fill-opacity:1;fill-rule:nonzero;stroke:none"
         id="text10578">
        <tspan
           style="font-style:normal;font-variant:normal;font-weight:normal;font-stretch:normal;font-family:Montserrat;-inkscape-font-specification:Montserrat"
           x="0 4.9812999"
           y="0"
           sodipodi:role="line"
           id="tspan10576">11</tspan>
      </text>
      <g
         id="g10580"
         transform="translate(3.321,9.043)" />
    </g>
    <path
       inkscape:connector-curvature="0"
       id="path10584"
       style="fill:none;stroke:#000000;stroke-width:0.14058194;stroke-linecap:butt;stroke-linejoin:miter;stroke-miterlimit:10;stroke-dasharray:none;stroke-opacity:1"
       d="m -81.350225,315.64879 h -3.734816" />
    <path
       inkscape:connector-curvature="0"
       id="path10590"
       style="fill:#000000;fill-opacity:1;fill-rule:nonzero;stroke:none;stroke-width:0.35277778"
       d="m -86.350289,315.64879 c 0.374897,0.0703 0.984084,0.28116 1.40583,0.52718 v -1.05436 c -0.421746,0.24602 -1.030933,0.45689 -1.40583,0.52718" />
    <path
       inkscape:connector-curvature="0"
       id="path10592"
       style="fill:none;stroke:#000000;stroke-width:0.14058194;stroke-linecap:butt;stroke-linejoin:miter;stroke-miterlimit:10;stroke-dasharray:none;stroke-opacity:1"
       d="m -86.350289,314.64872 h 3.734813" />
    <path
       inkscape:connector-curvature="0"
       id="path10598"
       style="fill:#000000;fill-opacity:1;fill-rule:nonzero;stroke:none;stroke-width:0.35277778"
       d="m -81.350228,314.64872 c -0.374897,-0.0703 -0.984084,-0.28116 -1.40583,-0.52718 v 1.05436 c 0.421746,-0.24602 1.030933,-0.45689 1.40583,-0.52718" />
    <g
       id="g10606"
       transform="matrix(0.35277777,0,0,-0.35277777,-90.278857,333.21924)">
      <text
         transform="matrix(1,0,0,-1,13.242,40.699)"
         style="font-variant:normal;font-size:9.96259975px;font-family:URWPalladioL;-inkscape-font-specification:URWPalladioL-Roma;writing-mode:lr-tb;fill:#000000;fill-opacity:1;fill-rule:nonzero;stroke:none"
         id="text10610">
        <tspan
           style="font-style:normal;font-variant:normal;font-weight:normal;font-stretch:normal;font-family:Montserrat;-inkscape-font-specification:Montserrat"
           x="0 4.9812999"
           y="0"
           sodipodi:role="line"
           id="tspan10608">11</tspan>
      </text>
      <g
         id="g10612"
         transform="translate(13.242,40.699)" />
    </g>
    <g
       id="g10622"
       transform="matrix(0.35277777,0,0,-0.35277777,-90.278857,333.21924)">
      <text
         transform="matrix(1,0,0,-1,13.242,54.872)"
         style="font-variant:normal;font-size:9.96259975px;font-family:URWPalladioL;-inkscape-font-specification:URWPalladioL-Roma;writing-mode:lr-tb;fill:#000000;fill-opacity:1;fill-rule:nonzero;stroke:none"
         id="text10626">
        <tspan
           style="font-style:normal;font-variant:normal;font-weight:normal;font-stretch:normal;font-family:Montserrat;-inkscape-font-specification:Montserrat"
           x="0 4.9812999"
           y="0"
           sodipodi:role="line"
           id="tspan10624">11</tspan>
      </text>
      <g
         id="g10628"
         transform="translate(13.242,54.872)" />
    </g>
    <path
       inkscape:connector-curvature="0"
       id="path10632"
       style="fill:none;stroke:#000000;stroke-width:0.14058194;stroke-linecap:butt;stroke-linejoin:miter;stroke-miterlimit:10;stroke-dasharray:none;stroke-opacity:1"
       d="m -52.84982,306.64875 -1.944081,1.29599" />
    <path
       inkscape:connector-curvature="0"
       id="path10638"
       style="fill:#000000;fill-opacity:1;fill-rule:nonzero;stroke:none;stroke-width:0.35386369"
       d="m -55.84989,308.64874 c 0.352004,-0.14993 0.977769,-0.3129 1.466651,-0.34223 l -0.586661,-0.87998 c -0.215106,0.43999 -0.606208,0.95494 -0.87999,1.22221" />
    <path
       inkscape:connector-curvature="0"
       id="path10640"
       style="fill:none;stroke:#000000;stroke-width:0.14058194;stroke-linecap:butt;stroke-linejoin:miter;stroke-miterlimit:10;stroke-dasharray:none;stroke-opacity:1"
       d="m -54.849968,309.64866 1.94407,-1.296" />
    <path
       inkscape:connector-curvature="0"
       id="path10646"
       style="fill:#000000;fill-opacity:1;fill-rule:nonzero;stroke:none;stroke-width:0.35386369"
       d="m -51.849909,307.64867 c -0.352004,0.14993 -0.977769,0.3129 -1.466651,0.34223 l 0.586661,0.87998 c 0.215106,-0.43999 0.606208,-0.95494 0.87999,-1.22221" />
    <g
       id="g10654"
       transform="matrix(0.35277777,0,0,-0.35277777,-90.278857,333.21924)">
      <text
         transform="matrix(1,0,0,-1,92.268,71.972)"
         style="font-variant:normal;font-size:9.96259975px;font-family:URWPalladioL;-inkscape-font-specification:URWPalladioL-Roma;writing-mode:lr-tb;fill:#000000;fill-opacity:1;fill-rule:nonzero;stroke:none"
         id="text10658">
        <tspan
           style="font-style:normal;font-variant:normal;font-weight:normal;font-stretch:normal;font-family:Montserrat;-inkscape-font-specification:Montserrat"
           x="0"
           y="0"
           id="tspan10656">9</tspan>
      </text>
      <g
         id="g10660"
         transform="translate(92.268,71.972)" />
    </g>
    <g
       id="g10670"
       transform="matrix(0.35277777,0,0,-0.35277777,-90.278857,333.21924)">
      <text
         transform="matrix(1,0,0,-1,99.355,59.216)"
         style="font-variant:normal;font-size:9.96259975px;font-family:URWPalladioL;-inkscape-font-specification:URWPalladioL-Roma;writing-mode:lr-tb;fill:#000000;fill-opacity:1;fill-rule:nonzero;stroke:none"
         id="text10674">
        <tspan
           style="font-style:normal;font-variant:normal;font-weight:normal;font-stretch:normal;font-family:Montserrat;-inkscape-font-specification:Montserrat"
           x="0"
           y="0"
           id="tspan10672">8</tspan>
      </text>
      <g
         id="g10676"
         transform="translate(99.355,59.216)" />
    </g>
    <path
       inkscape:connector-curvature="0"
       id="path10680"
       style="fill:none;stroke:#000000;stroke-width:0.14058194;stroke-linecap:butt;stroke-linejoin:miter;stroke-miterlimit:10;stroke-dasharray:none;stroke-opacity:1"
       d="m -59.349994,310.1487 -1.944074,1.29599" />
    <path
       inkscape:connector-curvature="0"
       id="path10686"
       style="fill:#000000;fill-opacity:1;fill-rule:nonzero;stroke:none;stroke-width:0.35386369"
       d="m -62.350057,312.14869 c 0.352004,-0.14993 0.977769,-0.3129 1.466651,-0.34223 l -0.586661,-0.87998 c -0.215106,0.43999 -0.606208,0.95494 -0.87999,1.22221" />
    <path
       inkscape:connector-curvature="0"
       id="path10688"
       style="fill:none;stroke:#000000;stroke-width:0.14058194;stroke-linecap:butt;stroke-linejoin:miter;stroke-miterlimit:10;stroke-dasharray:none;stroke-opacity:1"
       d="m -61.349986,313.14876 1.944073,-1.29599" />
    <path
       inkscape:connector-curvature="0"
       id="path10694"
       style="fill:#000000;fill-opacity:1;fill-rule:nonzero;stroke:none;stroke-width:0.35386369"
       d="m -58.349924,311.14877 c -0.352004,0.14993 -0.977769,0.3129 -1.466651,0.34223 l 0.586661,0.87998 c 0.215106,-0.43999 0.606208,-0.95494 0.87999,-1.22221" />
    <g
       id="g10702"
       transform="matrix(0.35277777,0,0,-0.35277777,-90.278857,333.21924)">
      <text
         transform="matrix(1,0,0,-1,68.517,59.216)"
         style="font-variant:normal;font-size:9.96259975px;font-family:URWPalladioL;-inkscape-font-specification:URWPalladioL-Roma;writing-mode:lr-tb;fill:#000000;fill-opacity:1;fill-rule:nonzero;stroke:none"
         id="text10706">
        <tspan
           style="font-style:normal;font-variant:normal;font-weight:normal;font-stretch:normal;font-family:Montserrat;-inkscape-font-specification:Montserrat"
           x="0 4.9812999"
           y="0"
           sodipodi:role="line"
           id="tspan10704">10</tspan>
      </text>
      <g
         id="g10708"
         transform="translate(68.517,59.216)" />
    </g>
    <g
       id="g10718"
       transform="matrix(0.35277777,0,0,-0.35277777,-90.278857,333.21924)">
      <text
         transform="matrix(1,0,0,-1,80.93,49.295)"
         style="font-variant:normal;font-size:9.96259975px;font-family:URWPalladioL;-inkscape-font-specification:URWPalladioL-Roma;writing-mode:lr-tb;fill:#000000;fill-opacity:1;fill-rule:nonzero;stroke:none"
         id="text10722">
        <tspan
           style="font-style:normal;font-variant:normal;font-weight:normal;font-stretch:normal;font-family:Montserrat;-inkscape-font-specification:Montserrat"
           x="0"
           y="0"
           id="tspan10720">0</tspan>
      </text>
      <g
         id="g10724"
         transform="translate(80.93,49.295)" />
    </g>
    <g
       id="g10734"
       transform="matrix(0.35277777,0,0,-0.35277777,-90.278857,333.21924)">
      <text
         transform="matrix(1,0,0,-1,113.417,70.992)"
         style="font-variant:normal;font-size:20.66250038px;font-family:URWPalladioL;-inkscape-font-specification:URWPalladioL-Roma;writing-mode:lr-tb;fill:#cc0000;fill-opacity:1;fill-rule:nonzero;stroke:none"
         id="text10738">
        <tspan
           x="0"
           y="0"
           id="tspan10736">*</tspan>
      </text>
      <g
         id="g10740"
         transform="translate(113.417,70.992)" />
    </g>
    <g
       id="g10750"
       transform="matrix(0.35277777,0,0,-0.35277777,-90.278857,333.21923)">
      <text
         transform="matrix(1,0,0,-1,46.429,80.084)"
         style="font-variant:normal;font-weight:normal;font-size:14.94869995px;font-family:Arial;-inkscape-font-specification:Arial;writing-mode:lr-tb;fill:#0000cc;fill-opacity:1;fill-rule:nonzero;stroke:none"
         id="text10754">
        <tspan
           x="0"
           y="0"
           id="tspan10752" />
      </text>
      <g
         id="g10756"
         transform="translate(46.25,80.084)" />
    </g>
    <g
       aria-label="S"
       style="font-variant:normal;font-size:3.51458383px;font-family:URWPalladioL;-inkscape-font-specification:URWPalladioL-Ital;writing-mode:lr-tb;fill:#0000cc;fill-opacity:1;fill-rule:nonzero;stroke:none;stroke-width:0.35277778"
       id="text10770">
      <path
         d="m -68.365238,303.82211 q 0,0.1493 -0.07036,0.29517 -0.06864,0.14587 -0.19392,0.24712 -0.137288,0.10983 -0.320912,0.17161 -0.181907,0.0618 -0.439323,0.0618 -0.276293,0 -0.49767,-0.0515 -0.219662,-0.0515 -0.447904,-0.15273 v -0.42559 h 0.02403 q 0.19392,0.16131 0.447903,0.24883 0.253984,0.0875 0.477078,0.0875 0.315763,0 0.490806,-0.11841 0.176759,-0.11841 0.176759,-0.31576 0,-0.1699 -0.08409,-0.25055 -0.08237,-0.0807 -0.252268,-0.12528 -0.128708,-0.0343 -0.279725,-0.0566 -0.149301,-0.0223 -0.31748,-0.0566 -0.339789,-0.0721 -0.504535,-0.2454 -0.16303,-0.17505 -0.16303,-0.45477 0,-0.32091 0.271145,-0.52513 0.271145,-0.20593 0.688158,-0.20593 0.269429,0 0.494239,0.0515 0.224809,0.0515 0.398136,0.12699 v 0.40157 h -0.02402 q -0.145869,-0.12356 -0.384408,-0.20422 -0.236823,-0.0824 -0.485658,-0.0824 -0.272861,0 -0.439323,0.11326 -0.164746,0.11327 -0.164746,0.29174 0,0.1596 0.08237,0.25055 0.08237,0.091 0.290022,0.13901 0.109831,0.024 0.312331,0.0584 0.202501,0.0343 0.343221,0.0704 0.284874,0.0755 0.429027,0.22824 0.144152,0.15273 0.144152,0.42731 z"
         style="stroke-width:0.35277778"
         id="path5990" />
    </g>
    <g
       aria-label="1"
       style="font-variant:normal;font-size:2.67109203px;font-family:URWPalladioL;-inkscape-font-specification:URWPalladioL-Roma;writing-mode:lr-tb;fill:#0000cc;fill-opacity:1;fill-rule:nonzero;stroke:none;stroke-width:0.35277778"
       id="text10774">
      <path
         d="m -67.188624,305.20657 h -1.051221 v -0.19824 h 0.404316 v -1.30164 h -0.404316 v -0.17737 q 0.08217,0 0.176073,-0.013 0.09391,-0.0143 0.142163,-0.0404 0.06,-0.0326 0.09391,-0.0822 0.03521,-0.0509 0.04043,-0.13564 h 0.202158 v 1.7503 h 0.39649 z"
         style="stroke-width:0.35277778"
         id="path5993" />
    </g>
  </g>
</svg>
