<?xml version="1.0" encoding="UTF-8" standalone="no"?>
<!-- Created with Inkscape (http://www.inkscape.org/) -->

<svg
   xmlns:dc="http://purl.org/dc/elements/1.1/"
   xmlns:cc="http://creativecommons.org/ns#"
   xmlns:rdf="http://www.w3.org/1999/02/22-rdf-syntax-ns#"
   xmlns:svg="http://www.w3.org/2000/svg"
   xmlns="http://www.w3.org/2000/svg"
   xmlns:sodipodi="http://sodipodi.sourceforge.net/DTD/sodipodi-0.dtd"
   xmlns:inkscape="http://www.inkscape.org/namespaces/inkscape"
   width="43.62936mm"
   height="30.140963mm"
   viewBox="0 0 43.62936 30.140962"
   version="1.1"
   id="svg7083"
   inkscape:version="0.92.1 r15371"
   sodipodi:docname="aorfc_noift1.svg">
  <defs
     id="defs7077" />
  <sodipodi:namedview
     id="base"
     pagecolor="#ffffff"
     bordercolor="#666666"
     borderopacity="1.0"
     inkscape:pageopacity="0.0"
     inkscape:pageshadow="2"
     inkscape:zoom="5.6"
     inkscape:cx="46.787541"
     inkscape:cy="94.217726"
     inkscape:document-units="mm"
     inkscape:current-layer="layer1"
     showgrid="false"
     fit-margin-top="0"
     fit-margin-left="0"
     fit-margin-right="0"
     fit-margin-bottom="0"
     inkscape:window-width="1366"
     inkscape:window-height="716"
     inkscape:window-x="-8"
     inkscape:window-y="-8"
     inkscape:window-maximized="1" />
  <metadata
     id="metadata7080">
    <rdf:RDF>
      <cc:Work
         rdf:about="">
        <dc:format>image/svg+xml</dc:format>
        <dc:type
           rdf:resource="http://purl.org/dc/dcmitype/StillImage" />
        <dc:title />
      </cc:Work>
    </rdf:RDF>
  </metadata>
  <g
     inkscape:label="Camada 1"
     inkscape:groupmode="layer"
     id="layer1"
     transform="translate(44.115275,-133.51283)">
    <path
       d="m -5.1147016,148.58331 c 0,-8.28447 -8.0588624,-15.00019 -18.0002564,-15.00019 -9.941394,0 -18.000256,6.71572 -18.000256,15.00019 0,8.28447 8.058862,15.00019 18.000256,15.00019 9.941394,0 18.0002564,-6.71572 18.0002564,-15.00019 z"
       style="fill:#b3ff4c;fill-opacity:1;fill-rule:nonzero;stroke:#000000;stroke-width:0.14058194;stroke-linecap:butt;stroke-linejoin:miter;stroke-miterlimit:10;stroke-dasharray:none;stroke-opacity:1"
       id="path7646"
       inkscape:connector-curvature="0" />
    <path
       d="m -13.114837,148.58331 c 0,-4.4184 -4.477138,-8.00013 -10.000121,-8.00013 -5.522983,0 -10.000121,3.58173 -10.000121,8.00013 0,4.4184 4.477138,8.00013 10.000121,8.00013 5.522983,0 10.000121,-3.58173 10.000121,-8.00013 z"
       style="fill:#b3ff4c;fill-opacity:1;fill-rule:nonzero;stroke:#000000;stroke-width:0.14058194;stroke-linecap:butt;stroke-linejoin:miter;stroke-miterlimit:10;stroke-dasharray:none;stroke-opacity:1"
       id="path7650"
       inkscape:connector-curvature="0" />
    <path
       inkscape:connector-curvature="0"
       id="path7652"
       style="fill:none;stroke:#000000;stroke-width:0.14058194;stroke-linecap:butt;stroke-linejoin:miter;stroke-miterlimit:10;stroke-dasharray:none;stroke-opacity:1"
       d="m -27.114946,148.58331 h -3.734806" />
    <g
       id="g7656"
       transform="matrix(-0.35277777,0,0,0.35277777,-30.849752,148.58331)">
      <path
         d="M 3.58653,0 C 2.52383,0.19925 0.797,0.797 -0.3985,1.49438 V -1.49438 C 0.797,-0.797 2.52383,-0.19925 3.58653,0"
         style="fill:#000000;fill-opacity:1;fill-rule:nonzero;stroke:none"
         id="path7658"
         inkscape:connector-curvature="0" />
    </g>
    <path
       inkscape:connector-curvature="0"
       id="path7660"
       style="fill:none;stroke:#000000;stroke-width:0.14058194;stroke-linecap:butt;stroke-linejoin:miter;stroke-miterlimit:10;stroke-dasharray:none;stroke-opacity:1"
       d="m -32.115,147.58324 h 3.734806" />
    <g
       id="g7664"
       transform="matrix(0.35277777,0,0,-0.35277777,-28.380194,147.58324)">
      <path
         d="M 3.58653,0 C 2.52383,0.19925 0.797,0.797 -0.3985,1.49438 V -1.49438 C 0.797,-0.797 2.52383,-0.19925 3.58653,0"
         style="fill:#000000;fill-opacity:1;fill-rule:nonzero;stroke:none"
         id="path7666"
         inkscape:connector-curvature="0" />
    </g>
    <g
       id="g7670"
       transform="matrix(0.35277777,0,0,-0.35277777,-31.372074,151.79606)">
      <g
         id="g7672">
        <g
           id="g7674"
           transform="translate(-37.337,-40.699)">
          <text
             transform="matrix(1,0,0,-1,37.337,40.699)"
             style="font-variant:normal;font-size:9.96259975px;font-family:URWPalladioL;-inkscape-font-specification:URWPalladioL-Roma;writing-mode:lr-tb;fill:#000000;fill-opacity:1;fill-rule:nonzero;stroke:none"
             id="text7678">
            <tspan
               x="0 4.9812999"
               y="0"
               sodipodi:role="line"
               id="tspan7676"
               style="font-style:normal;font-variant:normal;font-weight:normal;font-stretch:normal;font-family:Montserrat;-inkscape-font-specification:Montserrat">11</tspan>
          </text>
          <g
             id="g7680"
             transform="translate(37.337,40.699)" />
        </g>
      </g>
      <g
         id="g7682"
         transform="translate(23.406,9.107)" />
    </g>
    <g
       id="g7686"
       transform="matrix(0.35277777,0,0,-0.35277777,-31.372074,146.79614)">
      <g
         id="g7688">
        <g
           id="g7690"
           transform="translate(-37.337,-54.872)">
          <text
             transform="matrix(1,0,0,-1,37.337,54.872)"
             style="font-variant:normal;font-size:9.96259975px;font-family:URWPalladioL;-inkscape-font-specification:URWPalladioL-Roma;writing-mode:lr-tb;fill:#000000;fill-opacity:1;fill-rule:nonzero;stroke:none"
             id="text7694">
            <tspan
               x="0 4.9812999"
               y="0"
               sodipodi:role="line"
               id="tspan7692"
               style="font-style:normal;font-variant:normal;font-weight:normal;font-stretch:normal;font-family:Montserrat;-inkscape-font-specification:Montserrat">11</tspan>
          </text>
          <g
             id="g7696"
             transform="translate(37.337,54.872)" />
        </g>
      </g>
      <g
         id="g7698"
         transform="translate(23.406,-5.066)" />
    </g>
    <path
       inkscape:connector-curvature="0"
       id="path7700"
       style="fill:none;stroke:#000000;stroke-width:0.14058194;stroke-linecap:butt;stroke-linejoin:miter;stroke-miterlimit:10;stroke-dasharray:none;stroke-opacity:1"
       d="M -39.115215,159.58351 H -42.85002" />
    <g
       id="g7704"
       transform="matrix(-0.35277777,0,0,0.35277777,-42.85002,159.58351)">
      <path
         d="M 3.58653,0 C 2.52383,0.19925 0.797,0.797 -0.3985,1.49438 V -1.49438 C 0.797,-0.797 2.52383,-0.19925 3.58653,0"
         style="fill:#000000;fill-opacity:1;fill-rule:nonzero;stroke:none"
         id="path7706"
         inkscape:connector-curvature="0" />
    </g>
    <g
       id="g7710"
       transform="matrix(0.35277777,0,0,-0.35277777,-43.372163,157.62853)">
      <g
         id="g7712">
        <g
           id="g7714"
           transform="translate(-3.321,-24.166)">
          <text
             transform="matrix(1,0,0,-1,3.321,24.166)"
             style="font-variant:normal;font-size:9.96259975px;font-family:URWPalladioL;-inkscape-font-specification:URWPalladioL-Roma;writing-mode:lr-tb;fill:#000000;fill-opacity:1;fill-rule:nonzero;stroke:none"
             id="text7718">
            <tspan
               x="0 4.9812999"
               y="0"
               sodipodi:role="line"
               id="tspan7716"
               style="font-style:normal;font-variant:normal;font-weight:normal;font-stretch:normal;font-family:Montserrat;-inkscape-font-specification:Montserrat">11</tspan>
          </text>
          <g
             id="g7720"
             transform="translate(3.321,24.166)" />
        </g>
      </g>
      <g
         id="g7722"
         transform="translate(57.422,25.64)" />
    </g>
    <path
       inkscape:connector-curvature="0"
       id="path7724"
       style="fill:none;stroke:#000000;stroke-width:0.14058194;stroke-linecap:butt;stroke-linejoin:miter;stroke-miterlimit:10;stroke-dasharray:none;stroke-opacity:1"
       d="m -44.115275,158.58343 h 3.734808" />
    <g
       id="g7728"
       transform="matrix(0.35277777,0,0,-0.35277777,-40.380467,158.58343)">
      <path
         d="M 3.58653,0 C 2.52383,0.19925 0.797,0.797 -0.3985,1.49438 V -1.49438 C 0.797,-0.797 2.52383,-0.19925 3.58653,0"
         style="fill:#000000;fill-opacity:1;fill-rule:nonzero;stroke:none"
         id="path7730"
         inkscape:connector-curvature="0" />
    </g>
    <g
       id="g7734"
       transform="matrix(0.35277777,0,0,-0.35277777,-43.372163,162.96359)">
      <g
         id="g7736">
        <g
           id="g7738"
           transform="translate(-3.321,-9.043)">
          <text
             transform="matrix(1,0,0,-1,3.321,9.043)"
             style="font-variant:normal;font-size:9.96259975px;font-family:URWPalladioL;-inkscape-font-specification:URWPalladioL-Roma;writing-mode:lr-tb;fill:#000000;fill-opacity:1;fill-rule:nonzero;stroke:none"
             id="text7742">
            <tspan
               x="0 4.9812999"
               y="0"
               sodipodi:role="line"
               id="tspan7740"
               style="font-style:normal;font-variant:normal;font-weight:normal;font-stretch:normal;font-family:Montserrat;-inkscape-font-specification:Montserrat">11</tspan>
          </text>
          <g
             id="g7744"
             transform="translate(3.321,9.043)" />
        </g>
      </g>
      <g
         id="g7746"
         transform="translate(57.422,40.763)" />
    </g>
    <path
       inkscape:connector-curvature="0"
       id="path7748"
       style="fill:none;stroke:#000000;stroke-width:0.14058194;stroke-linecap:butt;stroke-linejoin:miter;stroke-miterlimit:10;stroke-dasharray:none;stroke-opacity:1"
       d="m -35.615106,148.58331 h -3.734816" />
    <g
       id="g7752"
       transform="matrix(-0.35277777,0,0,0.35277777,-39.349922,148.58331)">
      <path
         d="M 3.58653,0 C 2.52383,0.19925 0.797,0.797 -0.3985,1.49438 V -1.49438 C 0.797,-0.797 2.52383,-0.19925 3.58653,0"
         style="fill:#000000;fill-opacity:1;fill-rule:nonzero;stroke:none"
         id="path7754"
         inkscape:connector-curvature="0" />
    </g>
    <path
       inkscape:connector-curvature="0"
       id="path7756"
       style="fill:none;stroke:#000000;stroke-width:0.14058194;stroke-linecap:butt;stroke-linejoin:miter;stroke-miterlimit:10;stroke-dasharray:none;stroke-opacity:1"
       d="m -40.61517,147.58324 h 3.734813" />
    <g
       id="g7760"
       transform="matrix(0.35277777,0,0,-0.35277777,-36.880357,147.58324)">
      <path
         d="M 3.58653,0 C 2.52383,0.19925 0.797,0.797 -0.3985,1.49438 V -1.49438 C 0.797,-0.797 2.52383,-0.19925 3.58653,0"
         style="fill:#000000;fill-opacity:1;fill-rule:nonzero;stroke:none"
         id="path7762"
         inkscape:connector-curvature="0" />
    </g>
    <g
       id="g7766"
       transform="matrix(0.35277777,0,0,-0.35277777,-39.872255,151.79606)"
       style="opacity:1;vector-effect:none;fill:#000000;fill-opacity:1;stroke-width:1;stroke-linecap:butt;stroke-linejoin:miter;stroke-miterlimit:4;stroke-dasharray:none;stroke-dashoffset:0;stroke-opacity:1">
      <g
         id="g7768"
         style="vector-effect:none;fill:#000000;fill-opacity:1;stroke-width:1;stroke-linecap:butt;stroke-linejoin:miter;stroke-miterlimit:4;stroke-dasharray:none;stroke-dashoffset:0;stroke-opacity:1">
        <g
           id="g7770"
           transform="translate(-13.242,-40.699)"
           style="vector-effect:none;fill:#000000;fill-opacity:1;stroke-width:1;stroke-linecap:butt;stroke-linejoin:miter;stroke-miterlimit:4;stroke-dasharray:none;stroke-dashoffset:0;stroke-opacity:1">
          <text
             transform="matrix(1,0,0,-1,13.242,40.699)"
             style="font-variant:normal;font-size:9.96259975px;font-family:URWPalladioL;-inkscape-font-specification:URWPalladioL-Roma;writing-mode:lr-tb;vector-effect:none;fill:#000000;fill-opacity:1;fill-rule:nonzero;stroke:none;stroke-width:1;stroke-linecap:butt;stroke-linejoin:miter;stroke-miterlimit:4;stroke-dasharray:none;stroke-dashoffset:0;stroke-opacity:1"
             id="text7774">
            <tspan
               x="0 4.9812999"
               y="0"
               sodipodi:role="line"
               id="tspan7772"
               style="font-style:normal;font-variant:normal;font-weight:normal;font-stretch:normal;font-family:Montserrat;-inkscape-font-specification:Montserrat">11</tspan>
          </text>
          <g
             id="g7776"
             transform="translate(13.242,40.699)"
             style="vector-effect:none;fill:#000000;fill-opacity:1;stroke-width:1;stroke-linecap:butt;stroke-linejoin:miter;stroke-miterlimit:4;stroke-dasharray:none;stroke-dashoffset:0;stroke-opacity:1" />
        </g>
      </g>
      <g
         id="g7778"
         transform="translate(47.501,9.107)"
         style="vector-effect:none;fill:#000000;fill-opacity:1;stroke-width:1;stroke-linecap:butt;stroke-linejoin:miter;stroke-miterlimit:4;stroke-dasharray:none;stroke-dashoffset:0;stroke-opacity:1" />
    </g>
    <g
       id="g7782"
       transform="matrix(0.35277777,0,0,-0.35277777,-39.872255,146.79614)">
      <g
         id="g7784">
        <g
           id="g7786"
           transform="translate(-13.242,-54.872)">
          <text
             transform="matrix(1,0,0,-1,13.242,54.872)"
             style="font-variant:normal;font-size:9.96259975px;font-family:URWPalladioL;-inkscape-font-specification:URWPalladioL-Roma;writing-mode:lr-tb;fill:#000000;fill-opacity:1;fill-rule:nonzero;stroke:none"
             id="text7790">
            <tspan
               x="0 4.9812999"
               y="0"
               sodipodi:role="line"
               id="tspan7788"
               style="font-style:normal;font-variant:normal;font-weight:normal;font-stretch:normal;font-family:Montserrat;-inkscape-font-specification:Montserrat">11</tspan>
          </text>
          <g
             id="g7792"
             transform="translate(13.242,54.872)" />
        </g>
      </g>
      <g
         id="g7794"
         transform="translate(47.501,-5.066)" />
    </g>
    <path
       inkscape:connector-curvature="0"
       id="path7796"
       style="fill:none;stroke:#000000;stroke-width:0.14058194;stroke-linecap:butt;stroke-linejoin:miter;stroke-miterlimit:10;stroke-dasharray:none;stroke-opacity:1"
       d="m -7.1147011,139.58327 -1.9440807,1.29599" />
    <g
       id="g7800"
       transform="matrix(-0.29443185,0.19628908,0.19628908,0.29443185,-9.0587818,140.87926)">
      <path
         d="M 3.58653,0 C 2.52383,0.19925 0.797,0.797 -0.3985,1.49438 V -1.49438 C 0.797,-0.797 2.52383,-0.19925 3.58653,0"
         style="fill:#000000;fill-opacity:1;fill-rule:nonzero;stroke:none"
         id="path7802"
         inkscape:connector-curvature="0" />
    </g>
    <path
       inkscape:connector-curvature="0"
       id="path7804"
       style="fill:none;stroke:#000000;stroke-width:0.14058194;stroke-linecap:butt;stroke-linejoin:miter;stroke-miterlimit:10;stroke-dasharray:none;stroke-opacity:1"
       d="m -9.1148487,142.58318 1.9440701,-1.296" />
    <g
       id="g7808"
       transform="matrix(0.29443185,-0.19628908,-0.19628908,-0.29443185,-7.1707786,141.28719)">
      <path
         d="M 3.58653,0 C 2.52383,0.19925 0.797,0.797 -0.3985,1.49438 V -1.49438 C 0.797,-0.797 2.52383,-0.19925 3.58653,0"
         style="fill:#000000;fill-opacity:1;fill-rule:nonzero;stroke:none"
         id="path7810"
         inkscape:connector-curvature="0" />
    </g>
    <g
       id="g7814"
       transform="matrix(0.35277777,0,0,-0.35277777,-11.993639,140.76364)">
      <g
         id="g7816">
        <g
           id="g7818"
           transform="translate(-92.268,-71.972)">
          <text
             transform="matrix(1,0,0,-1,92.268,71.972)"
             style="font-variant:normal;font-size:9.96259975px;font-family:URWPalladioL;-inkscape-font-specification:URWPalladioL-Roma;writing-mode:lr-tb;fill:#000000;fill-opacity:1;fill-rule:nonzero;stroke:none"
             id="text7822">
            <tspan
               x="0"
               y="0"
               id="tspan7820"
               style="font-style:normal;font-variant:normal;font-weight:normal;font-stretch:normal;font-family:Montserrat;-inkscape-font-specification:Montserrat">9</tspan>
          </text>
          <g
             id="g7824"
             transform="translate(92.268,71.972)" />
        </g>
      </g>
      <g
         id="g7826"
         transform="translate(-31.525,-22.166)" />
    </g>
    <g
       id="g7830"
       transform="matrix(0.35277777,0,0,-0.35277777,-9.4935027,145.26367)">
      <g
         id="g7832">
        <g
           id="g7834"
           transform="translate(-99.355,-59.216)">
          <text
             transform="matrix(1,0,0,-1,99.355,59.216)"
             style="font-variant:normal;font-size:9.96259975px;font-family:URWPalladioL;-inkscape-font-specification:URWPalladioL-Roma;writing-mode:lr-tb;fill:#000000;fill-opacity:1;fill-rule:nonzero;stroke:none"
             id="text7838">
            <tspan
               x="0"
               y="0"
               id="tspan7836"
               style="font-style:normal;font-variant:normal;font-weight:normal;font-stretch:normal;font-family:Montserrat;-inkscape-font-specification:Montserrat">8</tspan>
          </text>
          <g
             id="g7840"
             transform="translate(99.355,59.216)" />
        </g>
      </g>
      <g
         id="g7842"
         transform="translate(-38.612,-9.41)" />
    </g>
    <path
       inkscape:connector-curvature="0"
       id="path7844"
       style="fill:none;stroke:#000000;stroke-width:0.14058194;stroke-linecap:butt;stroke-linejoin:miter;stroke-miterlimit:10;stroke-dasharray:none;stroke-opacity:1"
       d="m -13.614875,143.08322 -1.944074,1.29599" />
    <g
       id="g7848"
       transform="matrix(-0.29443185,0.19628908,0.19628908,0.29443185,-15.558949,144.37921)">
      <path
         d="M 3.58653,0 C 2.52383,0.19925 0.797,0.797 -0.3985,1.49438 V -1.49438 C 0.797,-0.797 2.52383,-0.19925 3.58653,0"
         style="fill:#000000;fill-opacity:1;fill-rule:nonzero;stroke:none"
         id="path7850"
         inkscape:connector-curvature="0" />
    </g>
    <path
       inkscape:connector-curvature="0"
       id="path7852"
       style="fill:none;stroke:#000000;stroke-width:0.14058194;stroke-linecap:butt;stroke-linejoin:miter;stroke-miterlimit:10;stroke-dasharray:none;stroke-opacity:1"
       d="m -15.614867,146.08328 1.944073,-1.29599" />
    <g
       id="g7856"
       transform="matrix(0.29443185,-0.19628908,-0.19628908,-0.29443185,-13.670794,144.78729)">
      <path
         d="M 3.58653,0 C 2.52383,0.19925 0.797,0.797 -0.3985,1.49438 V -1.49438 C 0.797,-0.797 2.52383,-0.19925 3.58653,0"
         style="fill:#000000;fill-opacity:1;fill-rule:nonzero;stroke:none"
         id="path7858"
         inkscape:connector-curvature="0" />
    </g>
    <g
       id="g7862"
       transform="matrix(0.35277777,0,0,-0.35277777,-20.372464,145.26367)">
      <g
         id="g7864">
        <g
           id="g7866"
           transform="translate(-68.517,-59.216)">
          <text
             transform="matrix(1,0,0,-1,68.517,59.216)"
             style="font-variant:normal;font-size:9.96259975px;font-family:URWPalladioL;-inkscape-font-specification:URWPalladioL-Roma;writing-mode:lr-tb;fill:#000000;fill-opacity:1;fill-rule:nonzero;stroke:none"
             id="text7870">
            <tspan
               x="0 4.9812999"
               y="0"
               sodipodi:role="line"
               id="tspan7868"
               style="font-style:normal;font-variant:normal;font-weight:normal;font-stretch:normal;font-family:Montserrat;-inkscape-font-specification:Montserrat">10</tspan>
          </text>
          <g
             id="g7872"
             transform="translate(68.517,59.216)" />
        </g>
      </g>
      <g
         id="g7874"
         transform="translate(-7.774,-9.41)" />
    </g>
    <g
       id="g7878"
       transform="matrix(0.35277777,0,0,-0.35277777,-15.993433,148.76358)">
      <g
         id="g7880">
        <g
           id="g7882"
           transform="translate(-80.93,-49.295)">
          <text
             transform="matrix(1,0,0,-1,80.93,49.295)"
             style="font-variant:normal;font-size:9.96259975px;font-family:URWPalladioL;-inkscape-font-specification:URWPalladioL-Roma;writing-mode:lr-tb;fill:#000000;fill-opacity:1;fill-rule:nonzero;stroke:none"
             id="text7886">
            <tspan
               x="0"
               y="0"
               id="tspan7884"
               style="font-style:normal;font-variant:normal;font-weight:normal;font-stretch:normal;font-family:Montserrat;-inkscape-font-specification:Montserrat">0</tspan>
          </text>
          <g
             id="g7888"
             transform="translate(80.93,49.295)" />
        </g>
      </g>
      <g
         id="g7890"
         transform="translate(-20.187,0.511)" />
    </g>
    <g
       id="g7894"
       transform="matrix(0.35277777,0,0,-0.35277777,-4.5327417,141.10936)">
      <g
         id="g7896">
        <g
           id="g7898"
           transform="translate(-113.417,-70.992)">
          <text
             transform="matrix(1,0,0,-1,113.417,70.992)"
             style="font-variant:normal;font-size:20.66250038px;font-family:URWPalladioL;-inkscape-font-specification:URWPalladioL-Roma;writing-mode:lr-tb;fill:#cc0000;fill-opacity:1;fill-rule:nonzero;stroke:none"
             id="text7902">
            <tspan
               x="0"
               y="0"
               id="tspan7900">*</tspan>
          </text>
          <g
             id="g7904"
             transform="translate(113.417,70.992)" />
        </g>
      </g>
      <g
         id="g7906"
         transform="translate(-52.674,-21.186)" />
    </g>
    <g
       id="g7910"
       transform="matrix(0.35277777,0,0,-0.35277777,-28.227766,137.9019)">
      <g
         id="g7912">
        <g
           id="g7914"
           transform="translate(-46.25,-80.084)">
          <text
             transform="matrix(1,0,0,-1,46.429,80.084)"
             style="font-variant:normal;font-weight:normal;font-size:14.94869995px;font-family:Arial;-inkscape-font-specification:Arial;writing-mode:lr-tb;fill:#0000cc;fill-opacity:1;fill-rule:nonzero;stroke:none"
             id="text7918">
            <tspan
               x="0"
               y="0"
               id="tspan7916" />
          </text>
          <g
             id="g7920"
             transform="translate(46.25,80.084)" />
        </g>
      </g>
      <g
         id="g7922"
         transform="translate(14.493,-30.278)" />
    </g>
    <g
       aria-label="S"
       style="font-variant:normal;font-size:3.51458383px;font-family:URWPalladioL;-inkscape-font-specification:URWPalladioL-Ital;writing-mode:lr-tb;fill:#0000cc;fill-opacity:1;fill-rule:nonzero;stroke:none;stroke-width:0.35277778"
       id="text7934">
      <path
         d="m -22.630115,136.75663 q 0,0.1493 -0.07036,0.29517 -0.06864,0.14587 -0.19392,0.24712 -0.137289,0.10983 -0.320912,0.17161 -0.181907,0.0618 -0.439323,0.0618 -0.276293,0 -0.49767,-0.0515 -0.219662,-0.0515 -0.447904,-0.15273 v -0.4256 h 0.02403 q 0.193919,0.16132 0.447903,0.24884 0.253984,0.0875 0.477077,0.0875 0.315764,0 0.490806,-0.11841 0.176759,-0.11841 0.176759,-0.31577 0,-0.16989 -0.08409,-0.25055 -0.08237,-0.0807 -0.252267,-0.12527 -0.128708,-0.0343 -0.279725,-0.0566 -0.149302,-0.0223 -0.31748,-0.0566 -0.339789,-0.0721 -0.504535,-0.2454 -0.16303,-0.17504 -0.16303,-0.45477 0,-0.32091 0.271145,-0.52513 0.271144,-0.20593 0.688158,-0.20593 0.269428,0 0.494238,0.0515 0.22481,0.0515 0.398137,0.127 v 0.40157 h -0.02403 q -0.145869,-0.12356 -0.384407,-0.20422 -0.236823,-0.0824 -0.485658,-0.0824 -0.272861,0 -0.439323,0.11326 -0.164746,0.11326 -0.164746,0.29174 0,0.15959 0.08237,0.25055 0.08237,0.0909 0.290022,0.139 0.10983,0.024 0.312331,0.0583 0.2025,0.0343 0.343221,0.0704 0.284873,0.0755 0.429026,0.22824 0.144153,0.15274 0.144153,0.42731 z"
         style="stroke-width:0.35277778"
         id="path6015" />
    </g>
    <g
       aria-label="1"
       style="font-variant:normal;font-size:2.67109203px;font-family:URWPalladioL;-inkscape-font-specification:URWPalladioL-Roma;writing-mode:lr-tb;fill:#0000cc;fill-opacity:1;fill-rule:nonzero;stroke:none;stroke-width:0.35277778"
       id="text7938">
      <path
         d="m -21.453507,138.14108 h -1.051221 v -0.19824 h 0.404316 v -1.30164 h -0.404316 v -0.17738 q 0.08217,0 0.176073,-0.013 0.09391,-0.0143 0.142163,-0.0404 0.06,-0.0326 0.0939,-0.0822 0.03522,-0.0509 0.04043,-0.13564 h 0.202158 v 1.7503 h 0.39649 z"
         style="stroke-width:0.35277778"
         id="path6018" />
    </g>
  </g>
</svg>
