<?xml version="1.0" encoding="UTF-8" standalone="no"?>
<!-- Created with Inkscape (http://www.inkscape.org/) -->

<svg
   xmlns:dc="http://purl.org/dc/elements/1.1/"
   xmlns:cc="http://creativecommons.org/ns#"
   xmlns:rdf="http://www.w3.org/1999/02/22-rdf-syntax-ns#"
   xmlns:svg="http://www.w3.org/2000/svg"
   xmlns="http://www.w3.org/2000/svg"
   xmlns:xlink="http://www.w3.org/1999/xlink"
   xmlns:sodipodi="http://sodipodi.sourceforge.net/DTD/sodipodi-0.dtd"
   xmlns:inkscape="http://www.inkscape.org/namespaces/inkscape"
   version="1.1"
   id="svg4539"
   xml:space="preserve"
   width="697.55603"
   height="221.87199"
   viewBox="0 0 697.55603 221.87199"
   sodipodi:docname="digital_image.svg"
   inkscape:version="0.92.1 r"><metadata
     id="metadata4545"><rdf:RDF><cc:Work
         rdf:about=""><dc:format>image/svg+xml</dc:format><dc:type
           rdf:resource="http://purl.org/dc/dcmitype/StillImage" /><dc:title></dc:title></cc:Work></rdf:RDF></metadata><defs
     id="defs4543"><mask
       maskUnits="userSpaceOnUse"
       x="0"
       y="0"
       width="1"
       height="1"
       id="mask4565"><image
         sodipodi:absref="/home/acmt/Documentos/git/tese/figs/digital_image_img0.png"
         xlink:href="digital_image_img0.png"
         id="image4567"
         preserveAspectRatio="none"
         style="image-rendering:optimizeSpeed"
         height="1"
         width="1" /></mask><clipPath
       clipPathUnits="userSpaceOnUse"
       id="clipPath4643"><path
         d="M 0,0 H 320 V 293.60001 H 0 Z"
         id="path4641"
         inkscape:connector-curvature="0" /></clipPath></defs><sodipodi:namedview
     pagecolor="#ffffff"
     bordercolor="#666666"
     borderopacity="1"
     objecttolerance="10"
     gridtolerance="10"
     guidetolerance="10"
     inkscape:pageopacity="0"
     inkscape:pageshadow="2"
     inkscape:window-width="1366"
     inkscape:window-height="768"
     id="namedview4541"
     showgrid="false"
     inkscape:zoom="1.1195275"
     inkscape:cx="356.6877"
     inkscape:cy="60.698456"
     inkscape:window-x="0"
     inkscape:window-y="0"
     inkscape:window-maximized="0"
     inkscape:current-layer="g4547" /><g
     id="g4547"
     inkscape:groupmode="layer"
     inkscape:label="digital_image"
     transform="matrix(1.3333333,0,0,-1.3333333,0,221.872)"><g
       id="g4561"
       transform="matrix(0.22047,0,0,0.22047,2.922,22.951)"><g
         id="g4563"
         transform="scale(900,626)"><image
           sodipodi:absref="/home/acmt/Documentos/git/tese/figs/3D.png"
           xlink:href="3D.png"
           id="image4569"
           mask="url(#mask4565)"
           transform="matrix(1,0,0,-1,0,1)"
           preserveAspectRatio="none"
           style="image-rendering:optimizeSpeed"
           height="1"
           width="1" /></g></g><image
       sodipodi:absref="/home/acmt/Documentos/git/tese/figs/flower_blue.png"
       xlink:href="flower_blue.png"
       y="-161.8508"
       x="215.52"
       id="image4583"
       transform="scale(1,-1)"
       preserveAspectRatio="none"
       style="image-rendering:optimizeSpeed"
       height="83.098801"
       width="141.696" /><image
       sodipodi:absref="/home/acmt/Documentos/git/tese/figs/flower_green.png"
       xlink:href="flower_green.png"
       y="-147.6778"
       x="201.347"
       id="image4597"
       transform="scale(1,-1)"
       preserveAspectRatio="none"
       style="image-rendering:optimizeSpeed"
       height="83.098801"
       width="141.696" /><image
       sodipodi:absref="/home/acmt/Documentos/git/tese/figs/flower_red.png"
       xlink:href="flower_red.png"
       y="-133.50481"
       x="187.174"
       id="image4611"
       transform="scale(1,-1)"
       preserveAspectRatio="none"
       style="image-rendering:optimizeSpeed"
       height="83.098801"
       width="141.696" /><image
       sodipodi:absref="/home/acmt/Documentos/git/tese/figs/flower.png"
       xlink:href="flower.png"
       y="-119.3318"
       x="173.00101"
       id="image4625"
       transform="scale(1,-1)"
       preserveAspectRatio="none"
       style="image-rendering:optimizeSpeed"
       height="83.098801"
       width="141.696" /><g
       id="g4635"
       transform="matrix(0.48721,0,0,0.48721,364.339,20.436)"><g
         id="g4637"><g
           id="g4639" /><g
           id="g4975"><g
             clip-path="url(#clipPath4643)"
             id="g4973"><g
               id="g4971"><g
                 transform="matrix(1,0,0,-1,0,293.60001)"
                 id="g4647"><path
                   d="m 67.625,213.465 v -21.332 l 18.453,10.668 v 21.332 z"
                   style="fill:#ff0000;fill-opacity:1;fill-rule:nonzero;stroke:#000000;stroke-width:0.533333;stroke-linecap:butt;stroke-linejoin:miter;stroke-miterlimit:4;stroke-dasharray:none;stroke-opacity:1"
                   id="path4645"
                   inkscape:connector-curvature="0" /></g><g
                 transform="matrix(1,0,0,-1,0,293.60001)"
                 id="g4651"><path
                   d="m 86.078,224.133 v -21.332 l 18.457,10.664 v 21.336 z"
                   style="fill:#ff4000;fill-opacity:1;fill-rule:nonzero;stroke:#000000;stroke-width:0.533333;stroke-linecap:butt;stroke-linejoin:miter;stroke-miterlimit:4;stroke-dasharray:none;stroke-opacity:1"
                   id="path4649"
                   inkscape:connector-curvature="0" /></g><g
                 transform="matrix(1,0,0,-1,0,293.60001)"
                 id="g4655"><path
                   d="m 104.535,234.801 v -21.336 l 18.559,10.668 v 21.332 z"
                   style="fill:#ff8000;fill-opacity:1;fill-rule:nonzero;stroke:#000000;stroke-width:0.533333;stroke-linecap:butt;stroke-linejoin:miter;stroke-miterlimit:4;stroke-dasharray:none;stroke-opacity:1"
                   id="path4653"
                   inkscape:connector-curvature="0" /></g><g
                 transform="matrix(1,0,0,-1,0,293.60001)"
                 id="g4659"><path
                   d="m 123.094,245.465 v -21.332 l 18.453,10.668 v 21.332 z"
                   style="fill:#ffc000;fill-opacity:1;fill-rule:nonzero;stroke:#000000;stroke-width:0.533333;stroke-linecap:butt;stroke-linejoin:miter;stroke-miterlimit:4;stroke-dasharray:none;stroke-opacity:1"
                   id="path4657"
                   inkscape:connector-curvature="0" /></g><g
                 transform="matrix(1,0,0,-1,0,293.60001)"
                 id="g4663"><path
                   d="M 141.547,256.133 V 234.801 L 160,245.465 v 21.336 z"
                   style="fill:#ffff00;fill-opacity:1;fill-rule:nonzero;stroke:#000000;stroke-width:0.533333;stroke-linecap:butt;stroke-linejoin:miter;stroke-miterlimit:4;stroke-dasharray:none;stroke-opacity:1"
                   id="path4661"
                   inkscape:connector-curvature="0" /></g><g
                 transform="matrix(1,0,0,-1,0,293.60001)"
                 id="g4667"><path
                   d="m 160,266.801 v -21.336 l 18.453,-10.664 v 21.332 z"
                   style="fill:#ffff00;fill-opacity:1;fill-rule:nonzero;stroke:#000000;stroke-width:0.533333;stroke-linecap:butt;stroke-linejoin:miter;stroke-miterlimit:4;stroke-dasharray:none;stroke-opacity:1"
                   id="path4665"
                   inkscape:connector-curvature="0" /></g><g
                 transform="matrix(1,0,0,-1,0,293.60001)"
                 id="g4671"><path
                   d="m 178.453,256.133 v -21.332 l 18.453,-10.668 v 21.332 z"
                   style="fill:#c0ff00;fill-opacity:1;fill-rule:nonzero;stroke:#000000;stroke-width:0.533333;stroke-linecap:butt;stroke-linejoin:miter;stroke-miterlimit:4;stroke-dasharray:none;stroke-opacity:1"
                   id="path4669"
                   inkscape:connector-curvature="0" /></g><g
                 transform="matrix(1,0,0,-1,0,293.60001)"
                 id="g4675"><path
                   d="m 196.906,245.465 v -21.332 l 18.559,-10.668 v 21.336 z"
                   style="fill:#80ff00;fill-opacity:1;fill-rule:nonzero;stroke:#000000;stroke-width:0.533333;stroke-linecap:butt;stroke-linejoin:miter;stroke-miterlimit:4;stroke-dasharray:none;stroke-opacity:1"
                   id="path4673"
                   inkscape:connector-curvature="0" /></g><g
                 transform="matrix(1,0,0,-1,0,293.60001)"
                 id="g4679"><path
                   d="m 215.465,234.801 v -21.336 l 18.457,-10.664 v 21.332 z"
                   style="fill:#40ff00;fill-opacity:1;fill-rule:nonzero;stroke:#000000;stroke-width:0.533333;stroke-linecap:butt;stroke-linejoin:miter;stroke-miterlimit:4;stroke-dasharray:none;stroke-opacity:1"
                   id="path4677"
                   inkscape:connector-curvature="0" /></g><g
                 transform="matrix(1,0,0,-1,0,293.60001)"
                 id="g4683"><path
                   d="m 233.922,224.133 v -21.332 l 18.453,-10.668 v 21.332 z"
                   style="fill:#00ff00;fill-opacity:1;fill-rule:nonzero;stroke:#000000;stroke-width:0.533333;stroke-linecap:butt;stroke-linejoin:miter;stroke-miterlimit:4;stroke-dasharray:none;stroke-opacity:1"
                   id="path4681"
                   inkscape:connector-curvature="0" /></g><g
                 transform="matrix(1,0,0,-1,0,293.60001)"
                 id="g4687"><path
                   d="m 233.922,202.801 v -21.336 l 18.453,-10.664 v 21.332 z"
                   style="fill:#00ff40;fill-opacity:1;fill-rule:nonzero;stroke:#000000;stroke-width:0.533333;stroke-linecap:butt;stroke-linejoin:miter;stroke-miterlimit:4;stroke-dasharray:none;stroke-opacity:1"
                   id="path4685"
                   inkscape:connector-curvature="0" /></g><g
                 transform="matrix(1,0,0,-1,0,293.60001)"
                 id="g4691"><path
                   d="m 233.922,181.465 v -21.332 l 18.453,-10.668 v 21.336 z"
                   style="fill:#00ff80;fill-opacity:1;fill-rule:nonzero;stroke:#000000;stroke-width:0.533333;stroke-linecap:butt;stroke-linejoin:miter;stroke-miterlimit:4;stroke-dasharray:none;stroke-opacity:1"
                   id="path4689"
                   inkscape:connector-curvature="0" /></g><g
                 transform="matrix(1,0,0,-1,0,293.60001)"
                 id="g4695"><path
                   d="m 233.922,160.133 v -21.332 l 18.453,-10.668 v 21.332 z"
                   style="fill:#00ffc0;fill-opacity:1;fill-rule:nonzero;stroke:#000000;stroke-width:0.533333;stroke-linecap:butt;stroke-linejoin:miter;stroke-miterlimit:4;stroke-dasharray:none;stroke-opacity:1"
                   id="path4693"
                   inkscape:connector-curvature="0" /></g><g
                 transform="matrix(1,0,0,-1,0,293.60001)"
                 id="g4699"><path
                   d="m 233.922,138.801 v -21.336 l 18.453,-10.664 v 21.332 z"
                   style="fill:#00ffff;fill-opacity:1;fill-rule:nonzero;stroke:#000000;stroke-width:0.533333;stroke-linecap:butt;stroke-linejoin:miter;stroke-miterlimit:4;stroke-dasharray:none;stroke-opacity:1"
                   id="path4697"
                   inkscape:connector-curvature="0" /></g><g
                 transform="matrix(1,0,0,-1,0,293.60001)"
                 id="g4703"><path
                   d="m 233.922,117.465 -18.457,-10.664 18.457,-10.668 18.453,10.668 z"
                   style="fill:#00ffff;fill-opacity:1;fill-rule:nonzero;stroke:#000000;stroke-width:0.533333;stroke-linecap:butt;stroke-linejoin:miter;stroke-miterlimit:4;stroke-dasharray:none;stroke-opacity:1"
                   id="path4701"
                   inkscape:connector-curvature="0" /></g><g
                 transform="matrix(1,0,0,-1,0,293.60001)"
                 id="g4707"><path
                   d="M 215.465,106.801 196.906,96.133 215.465,85.465 233.922,96.133 Z"
                   style="fill:#00c0ff;fill-opacity:1;fill-rule:nonzero;stroke:#000000;stroke-width:0.533333;stroke-linecap:butt;stroke-linejoin:miter;stroke-miterlimit:4;stroke-dasharray:none;stroke-opacity:1"
                   id="path4705"
                   inkscape:connector-curvature="0" /></g><g
                 transform="matrix(1,0,0,-1,0,293.60001)"
                 id="g4711"><path
                   d="M 196.906,96.133 178.453,85.465 196.906,74.801 215.465,85.465 Z"
                   style="fill:#0080ff;fill-opacity:1;fill-rule:nonzero;stroke:#000000;stroke-width:0.533333;stroke-linecap:butt;stroke-linejoin:miter;stroke-miterlimit:4;stroke-dasharray:none;stroke-opacity:1"
                   id="path4709"
                   inkscape:connector-curvature="0" /></g><g
                 transform="matrix(1,0,0,-1,0,293.60001)"
                 id="g4715"><path
                   d="M 178.453,85.465 160,74.801 178.453,64.133 196.906,74.801 Z"
                   style="fill:#0040ff;fill-opacity:1;fill-rule:nonzero;stroke:#000000;stroke-width:0.533333;stroke-linecap:butt;stroke-linejoin:miter;stroke-miterlimit:4;stroke-dasharray:none;stroke-opacity:1"
                   id="path4713"
                   inkscape:connector-curvature="0" /></g><g
                 transform="matrix(1,0,0,-1,0,293.60001)"
                 id="g4719"><path
                   d="M 160,74.801 141.547,64.133 160,53.465 178.453,64.133 Z"
                   style="fill:#0000ff;fill-opacity:1;fill-rule:nonzero;stroke:#000000;stroke-width:0.533333;stroke-linecap:butt;stroke-linejoin:miter;stroke-miterlimit:4;stroke-dasharray:none;stroke-opacity:1"
                   id="path4717"
                   inkscape:connector-curvature="0" /></g><g
                 transform="matrix(1,0,0,-1,0,293.60001)"
                 id="g4723"><path
                   d="M 141.547,85.465 123.094,74.801 141.547,64.133 160,74.801 Z"
                   style="fill:#4000ff;fill-opacity:1;fill-rule:nonzero;stroke:#000000;stroke-width:0.533333;stroke-linecap:butt;stroke-linejoin:miter;stroke-miterlimit:4;stroke-dasharray:none;stroke-opacity:1"
                   id="path4721"
                   inkscape:connector-curvature="0" /></g><g
                 transform="matrix(1,0,0,-1,0,293.60001)"
                 id="g4727"><path
                   d="M 123.094,96.133 104.535,85.465 123.094,74.801 141.547,85.465 Z"
                   style="fill:#8000ff;fill-opacity:1;fill-rule:nonzero;stroke:#000000;stroke-width:0.533333;stroke-linecap:butt;stroke-linejoin:miter;stroke-miterlimit:4;stroke-dasharray:none;stroke-opacity:1"
                   id="path4725"
                   inkscape:connector-curvature="0" /></g><g
                 transform="matrix(1,0,0,-1,0,293.60001)"
                 id="g4731"><path
                   d="M 104.535,106.801 86.078,96.133 104.535,85.465 123.094,96.133 Z"
                   style="fill:#c000ff;fill-opacity:1;fill-rule:nonzero;stroke:#000000;stroke-width:0.533333;stroke-linecap:butt;stroke-linejoin:miter;stroke-miterlimit:4;stroke-dasharray:none;stroke-opacity:1"
                   id="path4729"
                   inkscape:connector-curvature="0" /></g><g
                 transform="matrix(1,0,0,-1,0,293.60001)"
                 id="g4735"><path
                   d="M 86.078,117.465 67.625,106.801 86.078,96.133 104.535,106.801 Z"
                   style="fill:#ff00ff;fill-opacity:1;fill-rule:nonzero;stroke:#000000;stroke-width:0.533333;stroke-linecap:butt;stroke-linejoin:miter;stroke-miterlimit:4;stroke-dasharray:none;stroke-opacity:1"
                   id="path4733"
                   inkscape:connector-curvature="0" /></g><g
                 transform="matrix(1,0,0,-1,0,293.60001)"
                 id="g4739"><path
                   d="M 86.078,138.801 67.625,128.133 v -21.332 l 18.453,10.664 z"
                   style="fill:#ff00ff;fill-opacity:1;fill-rule:nonzero;stroke:#000000;stroke-width:0.533333;stroke-linecap:butt;stroke-linejoin:miter;stroke-miterlimit:4;stroke-dasharray:none;stroke-opacity:1"
                   id="path4737"
                   inkscape:connector-curvature="0" /></g><g
                 transform="matrix(1,0,0,-1,0,293.60001)"
                 id="g4743"><path
                   d="M 86.078,160.133 67.625,149.465 v -21.332 l 18.453,10.668 z"
                   style="fill:#ff00c0;fill-opacity:1;fill-rule:nonzero;stroke:#000000;stroke-width:0.533333;stroke-linecap:butt;stroke-linejoin:miter;stroke-miterlimit:4;stroke-dasharray:none;stroke-opacity:1"
                   id="path4741"
                   inkscape:connector-curvature="0" /></g><g
                 transform="matrix(1,0,0,-1,0,293.60001)"
                 id="g4747"><path
                   d="M 86.078,181.465 67.625,170.801 v -21.336 l 18.453,10.668 z"
                   style="fill:#ff0080;fill-opacity:1;fill-rule:nonzero;stroke:#000000;stroke-width:0.533333;stroke-linecap:butt;stroke-linejoin:miter;stroke-miterlimit:4;stroke-dasharray:none;stroke-opacity:1"
                   id="path4745"
                   inkscape:connector-curvature="0" /></g><g
                 transform="matrix(1,0,0,-1,0,293.60001)"
                 id="g4751"><path
                   d="M 86.078,202.801 67.625,192.133 v -21.332 l 18.453,10.664 z"
                   style="fill:#ff0040;fill-opacity:1;fill-rule:nonzero;stroke:#000000;stroke-width:0.533333;stroke-linecap:butt;stroke-linejoin:miter;stroke-miterlimit:4;stroke-dasharray:none;stroke-opacity:1"
                   id="path4749"
                   inkscape:connector-curvature="0" /></g><g
                 transform="matrix(1,0,0,-1,0,293.60001)"
                 id="g4755"><path
                   d="m 86.078,202.801 v -21.336 l 18.457,10.668 v 21.332 z"
                   style="fill:#ff4040;fill-opacity:1;fill-rule:nonzero;stroke:#000000;stroke-width:0.533333;stroke-linecap:butt;stroke-linejoin:miter;stroke-miterlimit:4;stroke-dasharray:none;stroke-opacity:1"
                   id="path4753"
                   inkscape:connector-curvature="0" /></g><g
                 transform="matrix(1,0,0,-1,0,293.60001)"
                 id="g4759"><path
                   d="m 104.535,213.465 v -21.332 l 18.559,10.668 v 21.332 z"
                   style="fill:#ff8040;fill-opacity:1;fill-rule:nonzero;stroke:#000000;stroke-width:0.533333;stroke-linecap:butt;stroke-linejoin:miter;stroke-miterlimit:4;stroke-dasharray:none;stroke-opacity:1"
                   id="path4757"
                   inkscape:connector-curvature="0" /></g><g
                 transform="matrix(1,0,0,-1,0,293.60001)"
                 id="g4763"><path
                   d="m 123.094,224.133 v -21.332 l 18.453,10.664 v 21.336 z"
                   style="fill:#ffc040;fill-opacity:1;fill-rule:nonzero;stroke:#000000;stroke-width:0.533333;stroke-linecap:butt;stroke-linejoin:miter;stroke-miterlimit:4;stroke-dasharray:none;stroke-opacity:1"
                   id="path4761"
                   inkscape:connector-curvature="0" /></g><g
                 transform="matrix(1,0,0,-1,0,293.60001)"
                 id="g4767"><path
                   d="M 141.547,234.801 V 213.465 L 160,224.133 v 21.332 z"
                   style="fill:#ffff40;fill-opacity:1;fill-rule:nonzero;stroke:#000000;stroke-width:0.533333;stroke-linecap:butt;stroke-linejoin:miter;stroke-miterlimit:4;stroke-dasharray:none;stroke-opacity:1"
                   id="path4765"
                   inkscape:connector-curvature="0" /></g><g
                 transform="matrix(1,0,0,-1,0,293.60001)"
                 id="g4771"><path
                   d="m 160,245.465 v -21.332 l 18.453,-10.668 v 21.336 z"
                   style="fill:#ffff40;fill-opacity:1;fill-rule:nonzero;stroke:#000000;stroke-width:0.533333;stroke-linecap:butt;stroke-linejoin:miter;stroke-miterlimit:4;stroke-dasharray:none;stroke-opacity:1"
                   id="path4769"
                   inkscape:connector-curvature="0" /></g><g
                 transform="matrix(1,0,0,-1,0,293.60001)"
                 id="g4775"><path
                   d="m 178.453,234.801 v -21.336 l 18.453,-10.664 v 21.332 z"
                   style="fill:#c0ff40;fill-opacity:1;fill-rule:nonzero;stroke:#000000;stroke-width:0.533333;stroke-linecap:butt;stroke-linejoin:miter;stroke-miterlimit:4;stroke-dasharray:none;stroke-opacity:1"
                   id="path4773"
                   inkscape:connector-curvature="0" /></g><g
                 transform="matrix(1,0,0,-1,0,293.60001)"
                 id="g4779"><path
                   d="m 196.906,224.133 v -21.332 l 18.559,-10.668 v 21.332 z"
                   style="fill:#80ff40;fill-opacity:1;fill-rule:nonzero;stroke:#000000;stroke-width:0.533333;stroke-linecap:butt;stroke-linejoin:miter;stroke-miterlimit:4;stroke-dasharray:none;stroke-opacity:1"
                   id="path4777"
                   inkscape:connector-curvature="0" /></g><g
                 transform="matrix(1,0,0,-1,0,293.60001)"
                 id="g4783"><path
                   d="m 215.465,213.465 v -21.332 l 18.457,-10.668 v 21.336 z"
                   style="fill:#40ff40;fill-opacity:1;fill-rule:nonzero;stroke:#000000;stroke-width:0.533333;stroke-linecap:butt;stroke-linejoin:miter;stroke-miterlimit:4;stroke-dasharray:none;stroke-opacity:1"
                   id="path4781"
                   inkscape:connector-curvature="0" /></g><g
                 transform="matrix(1,0,0,-1,0,293.60001)"
                 id="g4787"><path
                   d="m 215.465,192.133 v -21.332 l 18.457,-10.668 v 21.332 z"
                   style="fill:#40ff80;fill-opacity:1;fill-rule:nonzero;stroke:#000000;stroke-width:0.533333;stroke-linecap:butt;stroke-linejoin:miter;stroke-miterlimit:4;stroke-dasharray:none;stroke-opacity:1"
                   id="path4785"
                   inkscape:connector-curvature="0" /></g><g
                 transform="matrix(1,0,0,-1,0,293.60001)"
                 id="g4791"><path
                   d="m 215.465,170.801 v -21.336 l 18.457,-10.664 v 21.332 z"
                   style="fill:#40ffc0;fill-opacity:1;fill-rule:nonzero;stroke:#000000;stroke-width:0.533333;stroke-linecap:butt;stroke-linejoin:miter;stroke-miterlimit:4;stroke-dasharray:none;stroke-opacity:1"
                   id="path4789"
                   inkscape:connector-curvature="0" /></g><g
                 transform="matrix(1,0,0,-1,0,293.60001)"
                 id="g4795"><path
                   d="m 215.465,149.465 v -21.332 l 18.457,-10.668 v 21.336 z"
                   style="fill:#40ffff;fill-opacity:1;fill-rule:nonzero;stroke:#000000;stroke-width:0.533333;stroke-linecap:butt;stroke-linejoin:miter;stroke-miterlimit:4;stroke-dasharray:none;stroke-opacity:1"
                   id="path4793"
                   inkscape:connector-curvature="0" /></g><g
                 transform="matrix(1,0,0,-1,0,293.60001)"
                 id="g4799"><path
                   d="m 215.465,128.133 -18.559,-10.668 18.559,-10.664 18.457,10.664 z"
                   style="fill:#40ffff;fill-opacity:1;fill-rule:nonzero;stroke:#000000;stroke-width:0.533333;stroke-linecap:butt;stroke-linejoin:miter;stroke-miterlimit:4;stroke-dasharray:none;stroke-opacity:1"
                   id="path4797"
                   inkscape:connector-curvature="0" /></g><g
                 transform="matrix(1,0,0,-1,0,293.60001)"
                 id="g4803"><path
                   d="m 196.906,117.465 -18.453,-10.664 18.453,-10.668 18.559,10.668 z"
                   style="fill:#40c0ff;fill-opacity:1;fill-rule:nonzero;stroke:#000000;stroke-width:0.533333;stroke-linecap:butt;stroke-linejoin:miter;stroke-miterlimit:4;stroke-dasharray:none;stroke-opacity:1"
                   id="path4801"
                   inkscape:connector-curvature="0" /></g><g
                 transform="matrix(1,0,0,-1,0,293.60001)"
                 id="g4807"><path
                   d="M 178.453,106.801 160,96.133 178.453,85.465 196.906,96.133 Z"
                   style="fill:#4080ff;fill-opacity:1;fill-rule:nonzero;stroke:#000000;stroke-width:0.533333;stroke-linecap:butt;stroke-linejoin:miter;stroke-miterlimit:4;stroke-dasharray:none;stroke-opacity:1"
                   id="path4805"
                   inkscape:connector-curvature="0" /></g><g
                 transform="matrix(1,0,0,-1,0,293.60001)"
                 id="g4811"><path
                   d="M 160,96.133 141.547,85.465 160,74.801 178.453,85.465 Z"
                   style="fill:#4040ff;fill-opacity:1;fill-rule:nonzero;stroke:#000000;stroke-width:0.533333;stroke-linecap:butt;stroke-linejoin:miter;stroke-miterlimit:4;stroke-dasharray:none;stroke-opacity:1"
                   id="path4809"
                   inkscape:connector-curvature="0" /></g><g
                 transform="matrix(1,0,0,-1,0,293.60001)"
                 id="g4815"><path
                   d="M 141.547,106.801 123.094,96.133 141.547,85.465 160,96.133 Z"
                   style="fill:#8040ff;fill-opacity:1;fill-rule:nonzero;stroke:#000000;stroke-width:0.533333;stroke-linecap:butt;stroke-linejoin:miter;stroke-miterlimit:4;stroke-dasharray:none;stroke-opacity:1"
                   id="path4813"
                   inkscape:connector-curvature="0" /></g><g
                 transform="matrix(1,0,0,-1,0,293.60001)"
                 id="g4819"><path
                   d="m 123.094,117.465 -18.559,-10.664 18.559,-10.668 18.453,10.668 z"
                   style="fill:#c040ff;fill-opacity:1;fill-rule:nonzero;stroke:#000000;stroke-width:0.533333;stroke-linecap:butt;stroke-linejoin:miter;stroke-miterlimit:4;stroke-dasharray:none;stroke-opacity:1"
                   id="path4817"
                   inkscape:connector-curvature="0" /></g><g
                 transform="matrix(1,0,0,-1,0,293.60001)"
                 id="g4823"><path
                   d="m 104.535,128.133 -18.457,-10.668 18.457,-10.664 18.559,10.664 z"
                   style="fill:#ff40ff;fill-opacity:1;fill-rule:nonzero;stroke:#000000;stroke-width:0.533333;stroke-linecap:butt;stroke-linejoin:miter;stroke-miterlimit:4;stroke-dasharray:none;stroke-opacity:1"
                   id="path4821"
                   inkscape:connector-curvature="0" /></g><g
                 transform="matrix(1,0,0,-1,0,293.60001)"
                 id="g4827"><path
                   d="M 104.535,149.465 86.078,138.801 v -21.336 l 18.457,10.668 z"
                   style="fill:#ff40ff;fill-opacity:1;fill-rule:nonzero;stroke:#000000;stroke-width:0.533333;stroke-linecap:butt;stroke-linejoin:miter;stroke-miterlimit:4;stroke-dasharray:none;stroke-opacity:1"
                   id="path4825"
                   inkscape:connector-curvature="0" /></g><g
                 transform="matrix(1,0,0,-1,0,293.60001)"
                 id="g4831"><path
                   d="M 104.535,170.801 86.078,160.133 v -21.332 l 18.457,10.664 z"
                   style="fill:#ff40c0;fill-opacity:1;fill-rule:nonzero;stroke:#000000;stroke-width:0.533333;stroke-linecap:butt;stroke-linejoin:miter;stroke-miterlimit:4;stroke-dasharray:none;stroke-opacity:1"
                   id="path4829"
                   inkscape:connector-curvature="0" /></g><g
                 transform="matrix(1,0,0,-1,0,293.60001)"
                 id="g4835"><path
                   d="M 104.535,192.133 86.078,181.465 v -21.332 l 18.457,10.668 z"
                   style="fill:#ff4080;fill-opacity:1;fill-rule:nonzero;stroke:#000000;stroke-width:0.533333;stroke-linecap:butt;stroke-linejoin:miter;stroke-miterlimit:4;stroke-dasharray:none;stroke-opacity:1"
                   id="path4833"
                   inkscape:connector-curvature="0" /></g><g
                 transform="matrix(1,0,0,-1,0,293.60001)"
                 id="g4839"><path
                   d="m 104.535,192.133 v -21.332 l 9.277,5.332 18.454,-10.668 v 10.668 l 9.281,5.332 -18.453,10.668 v 10.668 z"
                   style="fill:#ff8080;fill-opacity:1;fill-rule:nonzero;stroke:#000000;stroke-width:0.533333;stroke-linecap:butt;stroke-linejoin:miter;stroke-miterlimit:4;stroke-dasharray:none;stroke-opacity:1"
                   id="path4837"
                   inkscape:connector-curvature="0" /></g><g
                 transform="matrix(1,0,0,-1,0,293.60001)"
                 id="g4843"><path
                   d="m 123.094,202.801 v -10.668 l 18.453,-10.668 18.453,10.668 -18.453,10.668 v 10.664 z"
                   style="fill:#ffc080;fill-opacity:1;fill-rule:nonzero;stroke:#000000;stroke-width:0.533333;stroke-linecap:butt;stroke-linejoin:miter;stroke-miterlimit:4;stroke-dasharray:none;stroke-opacity:1"
                   id="path4841"
                   inkscape:connector-curvature="0" /></g><g
                 transform="matrix(1,0,0,-1,0,293.60001)"
                 id="g4847"><path
                   d="M 141.547,213.465 V 202.801 L 160,192.133 l 18.453,10.668 v 10.664 L 160,224.133 Z"
                   style="fill:#ffff80;fill-opacity:1;fill-rule:nonzero;stroke:#000000;stroke-width:0.533333;stroke-linecap:butt;stroke-linejoin:miter;stroke-miterlimit:4;stroke-dasharray:none;stroke-opacity:1"
                   id="path4845"
                   inkscape:connector-curvature="0" /></g><g
                 transform="matrix(1,0,0,-1,0,293.60001)"
                 id="g4851"><path
                   d="M 178.453,213.465 V 202.801 L 160,192.133 l 18.453,-10.668 18.453,10.668 v 10.668 z"
                   style="fill:#c0ff80;fill-opacity:1;fill-rule:nonzero;stroke:#000000;stroke-width:0.533333;stroke-linecap:butt;stroke-linejoin:miter;stroke-miterlimit:4;stroke-dasharray:none;stroke-opacity:1"
                   id="path4849"
                   inkscape:connector-curvature="0" /></g><g
                 transform="matrix(1,0,0,-1,0,293.60001)"
                 id="g4855"><path
                   d="m 196.906,202.801 v -10.668 l -18.453,-10.668 9.281,-5.332 v -10.668 l 18.454,10.668 9.277,-5.332 v 21.332 z"
                   style="fill:#80ff80;fill-opacity:1;fill-rule:nonzero;stroke:#000000;stroke-width:0.533333;stroke-linecap:butt;stroke-linejoin:miter;stroke-miterlimit:4;stroke-dasharray:none;stroke-opacity:1"
                   id="path4853"
                   inkscape:connector-curvature="0" /></g><g
                 transform="matrix(1,0,0,-1,0,293.60001)"
                 id="g4859"><path
                   d="m 215.465,170.801 -9.277,5.332 -18.454,-10.668 v -21.332 l 18.454,10.668 9.277,-5.336 z"
                   style="fill:#80ffc0;fill-opacity:1;fill-rule:nonzero;stroke:#000000;stroke-width:0.533333;stroke-linecap:butt;stroke-linejoin:miter;stroke-miterlimit:4;stroke-dasharray:none;stroke-opacity:1"
                   id="path4857"
                   inkscape:connector-curvature="0" /></g><g
                 transform="matrix(1,0,0,-1,0,293.60001)"
                 id="g4863"><path
                   d="m 215.465,149.465 -9.277,5.336 -18.454,-10.668 v -21.332 l 9.172,-5.336 18.559,10.668 z"
                   style="fill:#80ffff;fill-opacity:1;fill-rule:nonzero;stroke:#000000;stroke-width:0.533333;stroke-linecap:butt;stroke-linejoin:miter;stroke-miterlimit:4;stroke-dasharray:none;stroke-opacity:1"
                   id="path4861"
                   inkscape:connector-curvature="0" /></g><g
                 transform="matrix(1,0,0,-1,0,293.60001)"
                 id="g4867"><path
                   d="m 196.906,117.465 -9.172,5.336 v 21.332 l -18.453,-10.668 v -21.332 l 9.172,-5.332 z"
                   style="fill:#80c0ff;fill-opacity:1;fill-rule:nonzero;stroke:#000000;stroke-width:0.533333;stroke-linecap:butt;stroke-linejoin:miter;stroke-miterlimit:4;stroke-dasharray:none;stroke-opacity:1"
                   id="path4865"
                   inkscape:connector-curvature="0" /></g><g
                 transform="matrix(1,0,0,-1,0,293.60001)"
                 id="g4871"><path
                   d="m 178.453,106.801 -9.172,5.332 v 21.332 l -9.281,-5.332 -9.281,5.332 V 112.133 L 141.547,106.801 160,96.133 Z"
                   style="fill:#8080ff;fill-opacity:1;fill-rule:nonzero;stroke:#000000;stroke-width:0.533333;stroke-linecap:butt;stroke-linejoin:miter;stroke-miterlimit:4;stroke-dasharray:none;stroke-opacity:1"
                   id="path4869"
                   inkscape:connector-curvature="0" /></g><g
                 transform="matrix(1,0,0,-1,0,293.60001)"
                 id="g4875"><path
                   d="m 141.547,106.801 9.172,5.332 v 21.332 l -18.453,10.668 v -21.332 l -9.172,-5.336 z"
                   style="fill:#c080ff;fill-opacity:1;fill-rule:nonzero;stroke:#000000;stroke-width:0.533333;stroke-linecap:butt;stroke-linejoin:miter;stroke-miterlimit:4;stroke-dasharray:none;stroke-opacity:1"
                   id="path4873"
                   inkscape:connector-curvature="0" /></g><g
                 transform="matrix(1,0,0,-1,0,293.60001)"
                 id="g4879"><path
                   d="m 123.094,117.465 9.172,5.336 v 21.332 l -18.454,10.668 -9.277,-5.336 v -21.332 z"
                   style="fill:#ff80ff;fill-opacity:1;fill-rule:nonzero;stroke:#000000;stroke-width:0.533333;stroke-linecap:butt;stroke-linejoin:miter;stroke-miterlimit:4;stroke-dasharray:none;stroke-opacity:1"
                   id="path4877"
                   inkscape:connector-curvature="0" /></g><g
                 transform="matrix(1,0,0,-1,0,293.60001)"
                 id="g4883"><path
                   d="m 104.535,149.465 9.277,5.336 18.454,-10.668 v 21.332 l -18.454,10.668 -9.277,-5.332 z"
                   style="fill:#ff80c0;fill-opacity:1;fill-rule:nonzero;stroke:#000000;stroke-width:0.533333;stroke-linecap:butt;stroke-linejoin:miter;stroke-miterlimit:4;stroke-dasharray:none;stroke-opacity:1"
                   id="path4881"
                   inkscape:connector-curvature="0" /></g><g
                 transform="matrix(1,0,0,-1,0,293.60001)"
                 id="g4887"><path
                   d="m 132.266,165.465 18.453,-10.664 v 10.664 l 9.281,5.336 -18.453,10.664 -9.281,-5.332 z"
                   style="fill:#c08080;fill-opacity:1;fill-rule:nonzero;stroke:#000000;stroke-width:0.533333;stroke-linecap:butt;stroke-linejoin:miter;stroke-miterlimit:4;stroke-dasharray:none;stroke-opacity:1"
                   id="path4885"
                   inkscape:connector-curvature="0" /></g><g
                 transform="matrix(1,0,0,-1,0,293.60001)"
                 id="g4891"><path
                   d="M 141.547,181.465 160,170.801 178.453,181.465 160,192.133 Z"
                   style="fill:#c0c080;fill-opacity:1;fill-rule:nonzero;stroke:#000000;stroke-width:0.533333;stroke-linecap:butt;stroke-linejoin:miter;stroke-miterlimit:4;stroke-dasharray:none;stroke-opacity:1"
                   id="path4889"
                   inkscape:connector-curvature="0" /></g><g
                 transform="matrix(1,0,0,-1,0,293.60001)"
                 id="g4895"><path
                   d="M 178.453,181.465 160,170.801 l 9.281,-5.336 v -10.664 l 18.453,10.664 v 10.668 z"
                   style="fill:#80c080;fill-opacity:1;fill-rule:nonzero;stroke:#000000;stroke-width:0.533333;stroke-linecap:butt;stroke-linejoin:miter;stroke-miterlimit:4;stroke-dasharray:none;stroke-opacity:1"
                   id="path4893"
                   inkscape:connector-curvature="0" /></g><g
                 transform="matrix(1,0,0,-1,0,293.60001)"
                 id="g4899"><path
                   d="m 187.734,165.465 -18.453,-10.664 v -21.336 l 18.453,10.668 z"
                   style="fill:#80c0c0;fill-opacity:1;fill-rule:nonzero;stroke:#000000;stroke-width:0.533333;stroke-linecap:butt;stroke-linejoin:miter;stroke-miterlimit:4;stroke-dasharray:none;stroke-opacity:1"
                   id="path4897"
                   inkscape:connector-curvature="0" /></g><g
                 transform="matrix(1,0,0,-1,0,293.60001)"
                 id="g4903"><path
                   d="m 169.281,133.465 v 21.336 l -9.281,-5.336 -9.281,5.336 V 133.465 L 160,128.133 Z"
                   style="fill:#8080c0;fill-opacity:1;fill-rule:nonzero;stroke:#000000;stroke-width:0.533333;stroke-linecap:butt;stroke-linejoin:miter;stroke-miterlimit:4;stroke-dasharray:none;stroke-opacity:1"
                   id="path4901"
                   inkscape:connector-curvature="0" /></g><g
                 transform="matrix(1,0,0,-1,0,293.60001)"
                 id="g4907"><path
                   d="m 150.719,133.465 v 21.336 l -18.453,10.664 v -21.332 z"
                   style="fill:#c080c0;fill-opacity:1;fill-rule:nonzero;stroke:#000000;stroke-width:0.533333;stroke-linecap:butt;stroke-linejoin:miter;stroke-miterlimit:4;stroke-dasharray:none;stroke-opacity:1"
                   id="path4905"
                   inkscape:connector-curvature="0" /></g><g
                 transform="matrix(1,0,0,-1,0,293.60001)"
                 id="g4911"><path
                   d="m 160,170.801 9.281,-5.336 v -10.664 l -9.281,-5.336 -9.281,5.336 v 10.664 z"
                   style="fill:#808080;fill-opacity:1;fill-rule:nonzero;stroke:#000000;stroke-width:0.533333;stroke-linecap:butt;stroke-linejoin:miter;stroke-miterlimit:4;stroke-dasharray:none;stroke-opacity:1"
                   id="path4909"
                   inkscape:connector-curvature="0" /></g><g
                 transform="matrix(1,0,0,-1,0,293.60001)"
                 id="g4915"><path
                   d="M 67.625,213.465 160,266.801 252.375,213.465 V 106.801 L 160,53.465 67.625,106.801 v 106.664"
                   style="fill:none;stroke:#000000;stroke-width:1.06666696;stroke-linecap:butt;stroke-linejoin:miter;stroke-miterlimit:4;stroke-dasharray:none;stroke-opacity:1"
                   id="path4913"
                   inkscape:connector-curvature="0" /></g><g
                 transform="matrix(1,0,0,-1,0,293.60001)"
                 id="g4919"><path
                   d="M 160,266.801 V 213.465"
                   style="fill:none;stroke:#000000;stroke-width:1.06666696;stroke-linecap:butt;stroke-linejoin:miter;stroke-miterlimit:4;stroke-dasharray:none;stroke-opacity:1"
                   id="path4917"
                   inkscape:connector-curvature="0" /></g><g
                 transform="matrix(1,0,0,-1,0,293.60001)"
                 id="g4923"><path
                   d="m 252.375,106.801 -46.187,26.664"
                   style="fill:none;stroke:#000000;stroke-width:1.06666696;stroke-linecap:butt;stroke-linejoin:miter;stroke-miterlimit:4;stroke-dasharray:none;stroke-opacity:1"
                   id="path4921"
                   inkscape:connector-curvature="0" /></g><g
                 transform="matrix(1,0,0,-1,0,293.60001)"
                 id="g4927"><path
                   d="m 67.625,106.801 46.187,26.664"
                   style="fill:none;stroke:#000000;stroke-width:1.06666696;stroke-linecap:butt;stroke-linejoin:miter;stroke-miterlimit:4;stroke-dasharray:none;stroke-opacity:1"
                   id="path4925"
                   inkscape:connector-curvature="0" /></g><g
                 transform="matrix(1,0,0,-1,0,293.60001)"
                 id="g4931"><path
                   d="m 160,213.465 46.188,-26.664"
                   style="fill:none;stroke:#000000;stroke-width:1.06666696;stroke-linecap:butt;stroke-linejoin:miter;stroke-miterlimit:4;stroke-dasharray:5.333333, 2.666667;stroke-dashoffset:0;stroke-opacity:1"
                   id="path4929"
                   inkscape:connector-curvature="0" /></g><g
                 transform="matrix(1,0,0,-1,0,293.60001)"
                 id="g4935"><path
                   d="M 206.188,186.801 V 133.465"
                   style="fill:none;stroke:#000000;stroke-width:1.06666696;stroke-linecap:butt;stroke-linejoin:miter;stroke-miterlimit:4;stroke-dasharray:5.333333, 2.666667;stroke-dashoffset:0;stroke-opacity:1"
                   id="path4933"
                   inkscape:connector-curvature="0" /></g><g
                 transform="matrix(1,0,0,-1,0,293.60001)"
                 id="g4939"><path
                   d="M 206.188,133.465 160,106.801"
                   style="fill:none;stroke:#000000;stroke-width:1.06666696;stroke-linecap:butt;stroke-linejoin:miter;stroke-miterlimit:4;stroke-dasharray:5.333333, 2.666667;stroke-dashoffset:0;stroke-opacity:1"
                   id="path4937"
                   inkscape:connector-curvature="0" /></g><g
                 transform="matrix(1,0,0,-1,0,293.60001)"
                 id="g4943"><path
                   d="m 160,106.801 -46.188,26.664"
                   style="fill:none;stroke:#000000;stroke-width:1.06666696;stroke-linecap:butt;stroke-linejoin:miter;stroke-miterlimit:4;stroke-dasharray:5.333333, 2.666667;stroke-dashoffset:0;stroke-opacity:1"
                   id="path4941"
                   inkscape:connector-curvature="0" /></g><g
                 transform="matrix(1,0,0,-1,0,293.60001)"
                 id="g4947"><path
                   d="m 113.812,133.465 v 53.336"
                   style="fill:none;stroke:#000000;stroke-width:1.06666696;stroke-linecap:butt;stroke-linejoin:miter;stroke-miterlimit:4;stroke-dasharray:5.333333, 2.666667;stroke-dashoffset:0;stroke-opacity:1"
                   id="path4945"
                   inkscape:connector-curvature="0" /></g><g
                 transform="matrix(1,0,0,-1,0,293.60001)"
                 id="g4951"><path
                   d="M 113.812,186.801 160,213.465"
                   style="fill:none;stroke:#000000;stroke-width:1.06666696;stroke-linecap:butt;stroke-linejoin:miter;stroke-miterlimit:4;stroke-dasharray:5.333333, 2.666667;stroke-dashoffset:0;stroke-opacity:1"
                   id="path4949"
                   inkscape:connector-curvature="0" /></g><g
                 transform="matrix(1,0,0,-1,0,293.60001)"
                 id="g4955"><path
                   d="M 113.812,186.801 160,160.133"
                   style="fill:none;stroke:#000000;stroke-width:1.06666696;stroke-linecap:butt;stroke-linejoin:miter;stroke-miterlimit:4;stroke-dasharray:5.333333, 2.666667;stroke-dashoffset:0;stroke-opacity:1"
                   id="path4953"
                   inkscape:connector-curvature="0" /></g><g
                 transform="matrix(1,0,0,-1,0,293.60001)"
                 id="g4959"><path
                   d="M 206.188,186.801 160,160.133"
                   style="fill:none;stroke:#000000;stroke-width:1.06666696;stroke-linecap:butt;stroke-linejoin:miter;stroke-miterlimit:4;stroke-dasharray:5.333333, 2.666667;stroke-dashoffset:0;stroke-opacity:1"
                   id="path4957"
                   inkscape:connector-curvature="0" /></g><g
                 transform="matrix(1,0,0,-1,0,293.60001)"
                 id="g4963"><path
                   d="m 160,106.801 v 53.332"
                   style="fill:none;stroke:#000000;stroke-width:1.06666696;stroke-linecap:butt;stroke-linejoin:miter;stroke-miterlimit:4;stroke-dasharray:5.333333, 2.666667;stroke-dashoffset:0;stroke-opacity:1"
                   id="path4961"
                   inkscape:connector-curvature="0" /></g><path
                 d="M 76.906,74.799 58.348,64.135 63.039,61.467 H 44.48 v 10.668 l 4.692,-2.668 18.453,10.668 z"
                 style="fill:#000000;fill-opacity:1;fill-rule:nonzero;stroke:none"
                 id="path4965"
                 inkscape:connector-curvature="0" /><path
                 d="m 160,240.135 v 21.332 l -4.586,2.668 9.172,5.332 9.281,-16 -4.586,2.668 v -21.336 z"
                 style="fill:#000000;fill-opacity:1;fill-rule:nonzero;stroke:none"
                 id="path4967"
                 inkscape:connector-curvature="0" /><path
                 d="m 252.375,80.135 18.453,-10.668 4.692,2.668 V 61.467 h -18.559 l 4.691,2.668 -18.558,10.664 z"
                 style="fill:#000000;fill-opacity:1;fill-rule:nonzero;stroke:none"
                 id="path4969"
                 inkscape:connector-curvature="0" /></g></g></g></g></g><g
       id="g4985"><text
         transform="matrix(1,0,0,-1,376.053,39.699)"
         style="font-variant:normal;font-weight:normal;font-size:10.99870014px;font-family:Utopia;-inkscape-font-specification:Utopia-Regular;writing-mode:lr-tb;fill:#ff0000;fill-opacity:1;fill-rule:nonzero;stroke:none"
         id="text4989"><tspan
           x="0 6.8631887 12.516521"
           y="0"
           sodipodi:role="line"
           id="tspan4987">Red</tspan></text>
<g
         id="g4991"
         transform="translate(376.053,39.699)" /></g><g
       id="g5001"><text
         transform="matrix(1,0,0,-1,431.108,153.085)"
         style="font-variant:normal;font-weight:normal;font-size:10.99870014px;font-family:Utopia;-inkscape-font-specification:Utopia-Regular;writing-mode:lr-tb;fill:#0000ff;fill-opacity:1;fill-rule:nonzero;stroke:none"
         id="text5005"><tspan
           x="0 6.973176 10.041813 16.718023"
           y="0"
           sodipodi:role="line"
           id="tspan5003">Blue</tspan></text>
<g
         id="g5007"
         transform="translate(431.108,153.085)" /></g><g
       id="g5017"><text
         transform="matrix(1,0,0,-1,483.892,39.989)"
         style="font-variant:normal;font-weight:normal;font-size:10.99870014px;font-family:Utopia;-inkscape-font-specification:Utopia-Regular;writing-mode:lr-tb;fill:#008000;fill-opacity:1;fill-rule:nonzero;stroke:none"
         id="text5021"><tspan
           x="0 8.0070534 12.076572 17.729904 23.383236"
           y="0"
           sodipodi:role="line"
           id="tspan5019">Green</tspan></text>
<g
         id="g5023"
         transform="translate(483.892,39.989)" /></g><path
       inkscape:connector-curvature="0"
       id="path5031"
       style="fill:none;stroke:#000000;stroke-width:2.83466005;stroke-linecap:butt;stroke-linejoin:miter;stroke-miterlimit:10;stroke-dasharray:none;stroke-opacity:1"
       d="m 300.56266,77.786 c 38.29374,22.10884 75.0935,22.10884 111.66632,0.99353" /><g
       id="g5035"
       transform="matrix(0.86877,-0.50157,0.50157,0.86877,412.22898,78.77955)"><path
         d="M -3.38806,4.51741 C -3.10571,2.82338 0,0.28232 0.847,0 0,-0.28232 -3.10571,-2.82338 -3.38806,-4.51741"
         style="fill:none;stroke:#000000;stroke-width:2.26773;stroke-linecap:round;stroke-linejoin:round;stroke-miterlimit:10;stroke-dasharray:none;stroke-opacity:1"
         id="path5037"
         inkscape:connector-curvature="0" /></g><path
       d="M 173.002,120.3062 V 37.24668"
       style="fill:none;stroke:#000000;stroke-width:2.83466005;stroke-linecap:round;stroke-linejoin:miter;stroke-miterlimit:10;stroke-dasharray:none;stroke-opacity:1"
       id="path5089"
       inkscape:connector-curvature="0" /><path
       d="m 177.51941,40.63474 c -1.69403,-0.28235 -4.23509,-3.38806 -4.51741,-4.23506 -0.28232,0.847 -2.82338,3.95271 -4.51741,4.23506"
       style="fill:none;stroke:#000000;stroke-width:2.26773;stroke-linecap:round;stroke-linejoin:round;stroke-miterlimit:10;stroke-dasharray:none;stroke-opacity:1"
       id="path5095"
       inkscape:connector-curvature="0" /><path
       d="M 173.002,120.3062 H 312.75518"
       style="fill:none;stroke:#000000;stroke-width:2.83466005;stroke-linecap:round;stroke-linejoin:miter;stroke-miterlimit:10;stroke-dasharray:none;stroke-opacity:1"
       id="path5099"
       inkscape:connector-curvature="0" /><path
       d="m 309.36712,124.82361 c 0.28235,-1.69403 3.38806,-4.23509 4.23506,-4.51741 -0.847,-0.28232 -3.95271,-2.82338 -4.23506,-4.51741"
       style="fill:none;stroke:#000000;stroke-width:2.26773;stroke-linecap:round;stroke-linejoin:round;stroke-miterlimit:10;stroke-dasharray:none;stroke-opacity:1"
       id="path5105"
       inkscape:connector-curvature="0" /><g
       id="g5113"><text
         transform="matrix(1,0,0,-1,170.215,28.195)"
         style="font-variant:normal;font-weight:normal;font-size:10.99870014px;font-family:Utopia;-inkscape-font-specification:Utopia-Regular;writing-mode:lr-tb;fill:#000000;fill-opacity:1;fill-rule:nonzero;stroke:none"
         id="text5117"><tspan
           x="0"
           y="0"
           id="tspan5115">y</tspan></text>
<g
         id="g5119"
         transform="translate(170.215,28.195)" /></g><g
       id="g5129"><text
         transform="matrix(1,0,0,-1,317.73,117.55)"
         style="font-variant:normal;font-weight:normal;font-size:10.99870014px;font-family:Utopia;-inkscape-font-specification:Utopia-Regular;writing-mode:lr-tb;fill:#ffffff;fill-opacity:1;fill-rule:nonzero;stroke:none"
         id="text5133"><tspan
           x="0"
           y="0"
           id="tspan5131">x</tspan></text>
<g
         id="g5135"
         transform="translate(317.73,117.55)" /></g></g></svg>