<?xml version="1.0" encoding="UTF-8" standalone="no"?>
<!-- Created with Inkscape (http://www.inkscape.org/) -->

<svg
   xmlns:dc="http://purl.org/dc/elements/1.1/"
   xmlns:cc="http://creativecommons.org/ns#"
   xmlns:rdf="http://www.w3.org/1999/02/22-rdf-syntax-ns#"
   xmlns:svg="http://www.w3.org/2000/svg"
   xmlns="http://www.w3.org/2000/svg"
   xmlns:sodipodi="http://sodipodi.sourceforge.net/DTD/sodipodi-0.dtd"
   xmlns:inkscape="http://www.inkscape.org/namespaces/inkscape"
   width="27.251272mm"
   height="63.741863mm"
   viewBox="0 0 27.251272 63.741863"
   version="1.1"
   id="svg8"
   inkscape:version="0.92.1 r"
   sodipodi:docname="interactive_arrow_curve.svg">
  <defs
     id="defs2" />
  <sodipodi:namedview
     id="base"
     pagecolor="#ffffff"
     bordercolor="#666666"
     borderopacity="1.0"
     inkscape:pageopacity="0.0"
     inkscape:pageshadow="2"
     inkscape:zoom="2"
     inkscape:cx="52.243569"
     inkscape:cy="113.84269"
     inkscape:document-units="mm"
     inkscape:current-layer="layer1"
     showgrid="false"
     inkscape:snap-bbox="true"
     inkscape:bbox-paths="true"
     inkscape:bbox-nodes="true"
     inkscape:snap-bbox-edge-midpoints="true"
     inkscape:snap-bbox-midpoints="true"
     inkscape:object-paths="true"
     inkscape:snap-intersection-paths="true"
     inkscape:object-nodes="true"
     inkscape:snap-smooth-nodes="true"
     inkscape:snap-midpoints="true"
     fit-margin-top="0"
     fit-margin-left="0"
     fit-margin-right="0"
     fit-margin-bottom="0"
     inkscape:window-width="1366"
     inkscape:window-height="743"
     inkscape:window-x="0"
     inkscape:window-y="0"
     inkscape:window-maximized="0" />
  <metadata
     id="metadata5">
    <rdf:RDF>
      <cc:Work
         rdf:about="">
        <dc:format>image/svg+xml</dc:format>
        <dc:type
           rdf:resource="http://purl.org/dc/dcmitype/StillImage" />
        <dc:title></dc:title>
      </cc:Work>
    </rdf:RDF>
  </metadata>
  <g
     inkscape:label="Camada 1"
     inkscape:groupmode="layer"
     id="layer1"
     transform="translate(-9.904252,-67.043969)">
    <path
       style="color:#000000;font-style:normal;font-variant:normal;font-weight:normal;font-stretch:normal;font-size:medium;line-height:normal;font-family:sans-serif;font-variant-ligatures:normal;font-variant-position:normal;font-variant-caps:normal;font-variant-numeric:normal;font-variant-alternates:normal;font-feature-settings:normal;text-indent:0;text-align:start;text-decoration:none;text-decoration-line:none;text-decoration-style:solid;text-decoration-color:#000000;letter-spacing:normal;word-spacing:normal;text-transform:none;writing-mode:lr-tb;direction:ltr;text-orientation:mixed;dominant-baseline:auto;baseline-shift:baseline;text-anchor:start;white-space:normal;shape-padding:0;clip-rule:nonzero;display:inline;overflow:visible;visibility:visible;opacity:1;isolation:auto;mix-blend-mode:normal;color-interpolation:sRGB;color-interpolation-filters:linearRGB;solid-color:#000000;solid-opacity:1;vector-effect:none;fill:#000000;fill-opacity:1;fill-rule:nonzero;stroke:none;stroke-width:8.5;stroke-linecap:round;stroke-linejoin:bevel;stroke-miterlimit:4;stroke-dasharray:none;stroke-dashoffset:0;stroke-opacity:1;color-rendering:auto;image-rendering:auto;shape-rendering:auto;text-rendering:auto;enable-background:accumulate"
       d="m 123.02344,253.39453 c -0.75893,0 -1.47405,0.31193 -2.00977,0.84766 l -1.67383,1.67383 c -0.53571,0.51339 -0.84765,1.25083 -0.84765,2.00976 0,0.75893 0.31193,1.49442 0.84765,2.00781 l 6.54102,6.5625 -15.98633,0.0274 c -0.0875,1.5e-4 0.10535,-0.008 0.0215,0 -0.003,3e-4 -0.007,-3.1e-4 -0.01,0 -0.004,-10e-6 -0.008,-10e-6 -0.0117,0 -40.071699,0 -72.460936,32.38923 -72.460936,72.46094 v 82.85546 c 0,40.07169 32.389237,72.46875 72.460936,72.46875 h 26.27149 c 5.68601,0.0168 5.68601,-8.52067 0,-8.5039 h -26.27149 c -35.509726,0 -63.964842,-28.45513 -63.964842,-63.96485 v -82.85546 c 0,-35.45798 28.37315,-63.87817 63.810542,-63.96094 0.13829,0.0221 -0.14897,-4.1e-4 0,0 l 16.14063,0.0449 -6.54102,6.53906 c -0.53571,0.53572 -0.84765,1.27232 -0.84765,2.03125 0,0.75893 0.31193,1.49554 0.84765,2.03125 l 1.67383,1.67383 c 0.53572,0.51339 1.25084,0.82617 2.00977,0.82617 0.75893,0 1.49553,-0.31277 2.03125,-0.82617 l 14.53125,-14.53125 c 0.53571,-0.53571 0.82617,-1.27232 0.82617,-2.03125 0,-0.75893 -0.29047,-1.49442 -0.82617,-2.00781 l -14.53125,-14.53125 c -0.53572,-0.53572 -1.27232,-0.84766 -2.03125,-0.84766 z"
       transform="scale(0.26458333)"
       id="rect4513"
       inkscape:connector-curvature="0"
       sodipodi:nodetypes="cccsccscccsssccssscsccsccscsscssc" />
  </g>
</svg>
