<?xml version="1.0" encoding="UTF-8" standalone="no"?>
<svg
   xmlns:dc="http://purl.org/dc/elements/1.1/"
   xmlns:cc="http://creativecommons.org/ns#"
   xmlns:rdf="http://www.w3.org/1999/02/22-rdf-syntax-ns#"
   xmlns:svg="http://www.w3.org/2000/svg"
   xmlns="http://www.w3.org/2000/svg"
   xmlns:sodipodi="http://sodipodi.sourceforge.net/DTD/sodipodi-0.dtd"
   xmlns:inkscape="http://www.inkscape.org/namespaces/inkscape"
   viewBox="0 0 166.29601 151.71201"
   height="151.71201"
   width="166.29601"
   xml:space="preserve"
   id="svg2"
   version="1.1"
   sodipodi:docname="ncoh_noift1.svg"
   inkscape:version="0.92.1 r"><sodipodi:namedview
     pagecolor="#ffffff"
     bordercolor="#666666"
     borderopacity="1"
     objecttolerance="10"
     gridtolerance="10"
     guidetolerance="10"
     inkscape:pageopacity="0"
     inkscape:pageshadow="2"
     inkscape:window-width="1366"
     inkscape:window-height="768"
     id="namedview235"
     showgrid="false"
     inkscape:zoom="1.5555789"
     inkscape:cx="83.148003"
     inkscape:cy="75.856003"
     inkscape:window-x="0"
     inkscape:window-y="0"
     inkscape:window-maximized="0"
     inkscape:current-layer="svg2" /><metadata
     id="metadata8"><rdf:RDF><cc:Work
         rdf:about=""><dc:format>image/svg+xml</dc:format><dc:type
           rdf:resource="http://purl.org/dc/dcmitype/StillImage" /></cc:Work></rdf:RDF></metadata><defs
     id="defs6" /><g
     transform="matrix(1.3333333,0,0,-1.3333333,0,151.712)"
     id="g10"><g
       transform="translate(60.743,42.719)"
       id="g12"><g
         id="g14"><g
           id="g16"><g
             id="g18"><path
               id="path20"
               style="fill:#ffffff;fill-opacity:1;fill-rule:nonzero;stroke:#000000;stroke-width:0.3985;stroke-linecap:butt;stroke-linejoin:miter;stroke-miterlimit:10;stroke-dasharray:none;stroke-opacity:1"
               d="m 31.18167,39.68535 c 0,14.09004 -13.9603,25.51196 -31.18167,25.51196 -17.22137,0 -31.18167,-11.42192 -31.18167,-25.51196 0,-14.09005 13.9603,-25.51196 31.18167,-25.51196 17.22137,0 31.18167,11.42191 31.18167,25.51196 z" /></g><g
             id="g22"><path
               id="path24"
               style="fill:#b3ff4c;fill-opacity:1;fill-rule:nonzero;stroke:#008000;stroke-width:0.3985;stroke-linecap:butt;stroke-linejoin:miter;stroke-miterlimit:10;stroke-dasharray:none;stroke-opacity:1"
               d="M 56.69363,0 C 56.69363,18.78679 31.31142,34.0161 0,34.0161 -31.31142,34.0161 -56.69363,18.78679 -56.69363,0 c 0,-18.78679 25.38221,-34.0161 56.69363,-34.0161 31.31142,0 56.69363,15.22931 56.69363,34.0161 z" /></g><g
             id="g26"><path
               id="path28"
               style="fill:#ffffff;fill-opacity:1;fill-rule:nonzero;stroke:#000000;stroke-width:0.3985;stroke-linecap:butt;stroke-linejoin:miter;stroke-miterlimit:10;stroke-dasharray:none;stroke-opacity:1"
               d="m -11.33855,0 c 0,9.39351 -7.61475,17.00826 -17.00825,17.00826 -9.39351,0 -17.00827,-7.61475 -17.00827,-17.00826 0,-9.39351 7.61476,-17.00826 17.00827,-17.00826 9.3935,0 17.00825,7.61475 17.00825,17.00826 z" /></g><path
             id="path30"
             style="fill:none;stroke:#000000;stroke-width:0.3985;stroke-linecap:butt;stroke-linejoin:miter;stroke-miterlimit:10;stroke-dasharray:none;stroke-opacity:1"
             d="M -45.35506,39.68535 H -55.94191" /><g
             transform="rotate(180,-27.970955,19.842675)"
             id="g32"><g
               id="g34"><path
                 id="path36"
                 style="fill:#000000;fill-opacity:1;fill-rule:nonzero;stroke:none"
                 d="M 3.58653,0 C 2.52383,0.19925 0.797,0.797 -0.3985,1.49438 V -1.49438 C 0.797,-0.797 2.52383,-0.19925 3.58653,0" /></g></g><g
             id="g38"><g
               transform="translate(-57.422,45.227)"
               id="g40"><g
                 id="g42"><g
                   transform="translate(-3.321,-87.946)"
                   id="g44"><text
                     id="text48"
                     style="font-variant:normal;font-size:9.96259975px;font-family:'Montserrat';-inkscape-font-specification:URWPalladioL-Roma;writing-mode:lr-tb;fill:#000000;fill-opacity:1;fill-rule:nonzero;stroke:none"
                     transform="matrix(1,0,0,-1,3.321,87.946)"><tspan
                       id="tspan46"
                       y="0"
                       x="0 4.9812999">11</tspan></text>
<g
                     transform="translate(3.321,87.946)"
                     id="g50" /></g></g><g
                 transform="translate(57.422,-45.227)"
                 id="g52" /></g></g><path
             id="path54"
             style="fill:none;stroke:#000000;stroke-width:0.3985;stroke-linecap:butt;stroke-linejoin:miter;stroke-miterlimit:10;stroke-dasharray:none;stroke-opacity:1"
             d="M -59.52846,42.5202 H -48.9416" /><g
             transform="translate(-48.9416,42.5202)"
             id="g56"><g
               id="g58"><path
                 id="path60"
                 style="fill:#000000;fill-opacity:1;fill-rule:nonzero;stroke:none"
                 d="M 3.58653,0 C 2.52383,0.19925 0.797,0.797 -0.3985,1.49438 V -1.49438 C 0.797,-0.797 2.52383,-0.19925 3.58653,0" /></g></g><g
             id="g62"><g
               transform="translate(-57.422,30.103)"
               id="g64"><g
                 id="g66"><g
                   transform="translate(-3.321,-72.822)"
                   id="g68"><text
                     id="text72"
                     style="font-variant:normal;font-size:9.96259975px;font-family:'Montserrat';-inkscape-font-specification:URWPalladioL-Roma;writing-mode:lr-tb;fill:#000000;fill-opacity:1;fill-rule:nonzero;stroke:none"
                     transform="matrix(1,0,0,-1,3.321,72.822)"><tspan
                       id="tspan70"
                       y="0"
                       x="0 4.9812999">11</tspan></text>
<g
                     transform="translate(3.321,72.822)"
                     id="g74" /></g></g><g
                 transform="translate(57.422,-30.103)"
                 id="g76" /></g></g><path
             id="path78"
             style="fill:none;stroke:#000000;stroke-width:0.3985;stroke-linecap:butt;stroke-linejoin:miter;stroke-miterlimit:10;stroke-dasharray:none;stroke-opacity:1"
             d="M 45.35506,-14.17339 H 34.76819" /><g
             transform="rotate(180,17.384095,-7.086695)"
             id="g80"><g
               id="g82"><path
                 id="path84"
                 style="fill:#000000;fill-opacity:1;fill-rule:nonzero;stroke:none"
                 d="M 3.58653,0 C 2.52383,0.19925 0.797,0.797 -0.3985,1.49438 V -1.49438 C 0.797,-0.797 2.52383,-0.19925 3.58653,0" /></g></g><g
             id="g86"><g
               transform="translate(33.287,-8.631)"
               id="g88"><g
                 id="g90"><g
                   transform="translate(-94.03,-34.088)"
                   id="g92"><text
                     id="text96"
                     style="font-variant:normal;font-size:9.96259975px;font-family:'Montserrat';-inkscape-font-specification:URWPalladioL-Roma;writing-mode:lr-tb;fill:#000000;fill-opacity:1;fill-rule:nonzero;stroke:none"
                     transform="matrix(1,0,0,-1,94.03,34.088)"><tspan
                       id="tspan94"
                       y="0"
                       x="0 4.9812999">11</tspan></text>
<g
                     transform="translate(94.03,34.088)"
                     id="g98" /></g></g><g
                 transform="translate(-33.287,8.631)"
                 id="g100" /></g></g><path
             id="path102"
             style="fill:none;stroke:#000000;stroke-width:0.3985;stroke-linecap:butt;stroke-linejoin:miter;stroke-miterlimit:10;stroke-dasharray:none;stroke-opacity:1"
             d="M 31.18166,-11.33855 H 41.76851" /><g
             transform="translate(41.76851,-11.33855)"
             id="g104"><g
               id="g106"><path
                 id="path108"
                 style="fill:#000000;fill-opacity:1;fill-rule:nonzero;stroke:none"
                 d="M 3.58653,0 C 2.52383,0.19925 0.797,0.797 -0.3985,1.49438 V -1.49438 C 0.797,-0.797 2.52383,-0.19925 3.58653,0" /></g></g><g
             id="g110"><g
               transform="translate(33.287,-23.755)"
               id="g112"><g
                 id="g114"><g
                   transform="translate(-94.03,-18.964)"
                   id="g116"><text
                     id="text120"
                     style="font-variant:normal;font-size:9.96259975px;font-family:'Montserrat';-inkscape-font-specification:URWPalladioL-Roma;writing-mode:lr-tb;fill:#000000;fill-opacity:1;fill-rule:nonzero;stroke:none"
                     transform="matrix(1,0,0,-1,94.03,18.964)"><tspan
                       id="tspan118"
                       y="0"
                       x="0 4.9812999">11</tspan></text>
<g
                     transform="translate(94.03,18.964)"
                     id="g122" /></g></g><g
                 transform="translate(-33.287,23.755)"
                 id="g124" /></g></g><path
             id="path126"
             style="fill:none;stroke:#000000;stroke-width:0.3985;stroke-linecap:butt;stroke-linejoin:miter;stroke-miterlimit:10;stroke-dasharray:none;stroke-opacity:1"
             d="M -28.3468,0 H -38.93365" /><g
             transform="rotate(180,-19.466825,0)"
             id="g128"><g
               id="g130"><path
                 id="path132"
                 style="fill:#000000;fill-opacity:1;fill-rule:nonzero;stroke:none"
                 d="M 3.58653,0 C 2.52383,0.19925 0.797,0.797 -0.3985,1.49438 V -1.49438 C 0.797,-0.797 2.52383,-0.19925 3.58653,0" /></g></g><g
             id="g134"><g
               transform="translate(-40.414,5.542)"
               id="g136"><g
                 id="g138"><g
                   transform="translate(-20.329,-48.261)"
                   id="g140"><text
                     id="text144"
                     style="font-variant:normal;font-size:9.96259975px;font-family:'Montserrat';-inkscape-font-specification:URWPalladioL-Roma;writing-mode:lr-tb;fill:#000000;fill-opacity:1;fill-rule:nonzero;stroke:none"
                     transform="matrix(1,0,0,-1,20.329,48.261)"><tspan
                       id="tspan142"
                       y="0"
                       x="0 4.9812999">11</tspan></text>
<g
                     transform="translate(20.329,48.261)"
                     id="g146" /></g></g><g
                 transform="translate(40.414,-5.542)"
                 id="g148" /></g></g><path
             id="path150"
             style="fill:none;stroke:#000000;stroke-width:0.3985;stroke-linecap:butt;stroke-linejoin:miter;stroke-miterlimit:10;stroke-dasharray:none;stroke-opacity:1"
             d="m -42.5202,2.83484 h 10.58685" /><g
             transform="translate(-31.93335,2.83484)"
             id="g152"><g
               id="g154"><path
                 id="path156"
                 style="fill:#000000;fill-opacity:1;fill-rule:nonzero;stroke:none"
                 d="M 3.58653,0 C 2.52383,0.19925 0.797,0.797 -0.3985,1.49438 V -1.49438 C 0.797,-0.797 2.52383,-0.19925 3.58653,0" /></g></g><g
             id="g158"><g
               transform="translate(-40.414,-9.582)"
               id="g160"><g
                 id="g162"><g
                   transform="translate(-20.329,-33.137)"
                   id="g164"><text
                     id="text168"
                     style="font-variant:normal;font-size:9.96259975px;font-family:'Montserrat';-inkscape-font-specification:URWPalladioL-Roma;writing-mode:lr-tb;fill:#000000;fill-opacity:1;fill-rule:nonzero;stroke:none"
                     transform="matrix(1,0,0,-1,20.329,33.137)"><tspan
                       id="tspan166"
                       y="0"
                       x="0 4.9812999">11</tspan></text>
<g
                     transform="translate(20.329,33.137)"
                     id="g170" /></g></g><g
                 transform="translate(40.414,9.582)"
                 id="g172" /></g></g><path
             id="path174"
             style="fill:none;stroke:#000000;stroke-width:0.3985;stroke-linecap:butt;stroke-linejoin:miter;stroke-miterlimit:10;stroke-dasharray:none;stroke-opacity:1"
             d="M -14.17339,41.10277 H -24.76024" /><g
             transform="rotate(180,-12.38012,20.551385)"
             id="g176"><g
               id="g178"><path
                 id="path180"
                 style="fill:#000000;fill-opacity:1;fill-rule:nonzero;stroke:none"
                 d="M 3.58653,0 C 2.52383,0.19925 0.797,0.797 -0.3985,1.49438 V -1.49438 C 0.797,-0.797 2.52383,-0.19925 3.58653,0" /></g></g><g
             id="g182"><g
               transform="translate(-26.241,46.644)"
               id="g184"><g
                 id="g186"><g
                   transform="translate(-34.502,-89.363)"
                   id="g188"><text
                     id="text192"
                     style="font-variant:normal;font-size:9.96259975px;font-family:'Montserrat';-inkscape-font-specification:URWPalladioL-Roma;writing-mode:lr-tb;fill:#000000;fill-opacity:1;fill-rule:nonzero;stroke:none"
                     transform="matrix(1,0,0,-1,34.502,89.363)"><tspan
                       id="tspan190"
                       y="0"
                       x="0 4.9812999">11</tspan></text>
<g
                     transform="translate(34.502,89.363)"
                     id="g194" /></g></g><g
                 transform="translate(26.241,-46.644)"
                 id="g196" /></g></g><path
             id="path198"
             style="fill:none;stroke:#000000;stroke-width:0.3985;stroke-linecap:butt;stroke-linejoin:miter;stroke-miterlimit:10;stroke-dasharray:none;stroke-opacity:1"
             d="m -28.3468,43.93764 h 10.58685" /><g
             transform="translate(-17.75995,43.93764)"
             id="g200"><g
               id="g202"><path
                 id="path204"
                 style="fill:#000000;fill-opacity:1;fill-rule:nonzero;stroke:none"
                 d="M 3.58653,0 C 2.52383,0.19925 0.797,0.797 -0.3985,1.49438 V -1.49438 C 0.797,-0.797 2.52383,-0.19925 3.58653,0" /></g></g><g
             id="g206"><g
               transform="translate(-26.241,31.521)"
               id="g208"><g
                 id="g210"><g
                   transform="translate(-34.502,-74.24)"
                   id="g212"><text
                     id="text216"
                     style="font-variant:normal;font-size:9.96259975px;font-family:'Montserrat';-inkscape-font-specification:URWPalladioL-Roma;writing-mode:lr-tb;fill:#000000;fill-opacity:1;fill-rule:nonzero;stroke:none"
                     transform="matrix(1,0,0,-1,34.502,74.24)"><tspan
                       id="tspan214"
                       y="0"
                       x="0 4.9812999">11</tspan></text>
<g
                     transform="translate(34.502,74.24)"
                     id="g218" /></g></g><g
                 transform="translate(26.241,-31.521)"
                 id="g220" /></g></g><path
             id="path222"
             style="fill:none;stroke:#000000;stroke-width:0.3985;stroke-linecap:butt;stroke-linejoin:miter;stroke-miterlimit:10;stroke-dasharray:none;stroke-opacity:1"
             d="M 0,28.3468 V 38.93365" /><g
             transform="rotate(90,-19.466825,19.466825)"
             id="g224"><g
               id="g226"><path
                 id="path228"
                 style="fill:#000000;fill-opacity:1;fill-rule:nonzero;stroke:none"
                 d="M 3.58653,0 C 2.52383,0.19925 0.797,0.797 -0.3985,1.49438 V -1.49438 C 0.797,-0.797 2.52383,-0.19925 3.58653,0" /></g></g><g
             id="g230"><g
               transform="translate(-6.509,24.026)"
               id="g232"><g
                 id="g234"><g
                   transform="translate(-54.234,-66.745)"
                   id="g236"><text
                     id="text240"
                     style="font-variant:normal;font-size:9.96259975px;font-family:'Montserrat';-inkscape-font-specification:URWPalladioL-Roma;writing-mode:lr-tb;fill:#000000;fill-opacity:1;fill-rule:nonzero;stroke:none"
                     transform="matrix(1,0,0,-1,54.234,66.745)"><tspan
                       id="tspan238"
                       y="0"
                       x="0">2</tspan></text>
<g
                     transform="translate(54.234,66.745)"
                     id="g242" /></g></g><g
                 transform="translate(6.509,-24.026)"
                 id="g244" /></g></g><path
             id="path246"
             style="fill:none;stroke:#000000;stroke-width:0.3985;stroke-linecap:butt;stroke-linejoin:miter;stroke-miterlimit:10;stroke-dasharray:none;stroke-opacity:1"
             d="M 2.83484,42.5202 V 31.93335" /><g
             transform="rotate(-90,17.384095,14.549255)"
             id="g248"><g
               id="g250"><path
                 id="path252"
                 style="fill:#000000;fill-opacity:1;fill-rule:nonzero;stroke:none"
                 d="M 3.58653,0 C 2.52383,0.19925 0.797,0.797 -0.3985,1.49438 V -1.49438 C 0.797,-0.797 2.52383,-0.19925 3.58653,0" /></g></g><g
             id="g254"><g
               transform="translate(4.362,24.026)"
               id="g256"><g
                 id="g258"><g
                   transform="translate(-65.105,-66.745)"
                   id="g260"><text
                     id="text264"
                     style="font-variant:normal;font-size:9.96259975px;font-family:'Montserrat';-inkscape-font-specification:URWPalladioL-Roma;writing-mode:lr-tb;fill:#000000;fill-opacity:1;fill-rule:nonzero;stroke:none"
                     transform="matrix(1,0,0,-1,65.105,66.745)"><tspan
                       id="tspan262"
                       y="0"
                       x="0">4</tspan></text>
<g
                     transform="translate(65.105,66.745)"
                     id="g266" /></g></g><g
                 transform="translate(-4.362,-24.026)"
                 id="g268" /></g></g><path
             id="path270"
             style="fill:none;stroke:#000000;stroke-width:0.3985;stroke-linecap:butt;stroke-linejoin:miter;stroke-miterlimit:10;stroke-dasharray:none;stroke-opacity:1"
             d="m 38.26836,17.00824 6.34173,8.45556" /><g
             transform="matrix(0.60292,0.80383,-0.80383,0.60292,44.61008,25.4638)"
             id="g272"><g
               id="g274"><path
                 id="path276"
                 style="fill:#000000;fill-opacity:1;fill-rule:nonzero;stroke:none"
                 d="M 3.58653,0 C 2.52383,0.19925 0.797,0.797 -0.3985,1.49438 V -1.49438 C 0.797,-0.797 2.52383,-0.19925 3.58653,0" /></g></g><g
             id="g278"><g
               transform="translate(27.045,19.24)"
               id="g280"><g
                 id="g282"><g
                   transform="translate(-87.788,-61.959)"
                   id="g284"><text
                     id="text288"
                     style="font-variant:normal;font-size:9.96259975px;font-family:'Montserrat';-inkscape-font-specification:URWPalladioL-Roma;writing-mode:lr-tb;fill:#000000;fill-opacity:1;fill-rule:nonzero;stroke:none"
                     transform="matrix(1,0,0,-1,87.788,61.959)"><tspan
                       id="tspan286"
                       y="0"
                       x="0">1</tspan></text>
<g
                     transform="translate(87.788,61.959)"
                     id="g290" /></g></g><g
                 transform="translate(-27.045,-19.24)"
                 id="g292" /></g></g><path
             id="path294"
             style="fill:none;stroke:#000000;stroke-width:0.3985;stroke-linecap:butt;stroke-linejoin:miter;stroke-miterlimit:10;stroke-dasharray:none;stroke-opacity:1"
             d="M 42.5202,28.3468 36.17847,19.89124" /><g
             transform="matrix(-0.60292,-0.80383,0.80383,-0.60292,36.17848,19.89124)"
             id="g296"><g
               id="g298"><path
                 id="path300"
                 style="fill:#000000;fill-opacity:1;fill-rule:nonzero;stroke:none"
                 d="M 3.58653,0 C 2.52383,0.19925 0.797,0.797 -0.3985,1.49438 V -1.49438 C 0.797,-0.797 2.52383,-0.19925 3.58653,0" /></g></g><g
             id="g302"><g
               transform="translate(39.795,11.362)"
               id="g304"><g
                 id="g306"><g
                   transform="translate(-100.538,-54.081)"
                   id="g308"><text
                     id="text312"
                     style="font-variant:normal;font-size:9.96259975px;font-family:'Montserrat';-inkscape-font-specification:URWPalladioL-Roma;writing-mode:lr-tb;fill:#000000;fill-opacity:1;fill-rule:nonzero;stroke:none"
                     transform="matrix(1,0,0,-1,100.538,54.081)"><tspan
                       id="tspan310"
                       y="0"
                       x="0">3</tspan></text>
<g
                     transform="translate(100.538,54.081)"
                     id="g314" /></g></g><g
                 transform="translate(-39.795,-11.362)"
                 id="g316" /></g></g><path
             id="path318"
             style="fill:none;stroke:#000000;stroke-width:0.3985;stroke-linecap:butt;stroke-linejoin:miter;stroke-miterlimit:10;stroke-dasharray:none;stroke-opacity:1"
             d="m 21.2601,51.02432 6.34172,8.45557" /><g
             transform="matrix(0.60292,0.80383,-0.80383,0.60292,27.6018,59.47989)"
             id="g320"><g
               id="g322"><path
                 id="path324"
                 style="fill:#000000;fill-opacity:1;fill-rule:nonzero;stroke:none"
                 d="M 3.58653,0 C 2.52383,0.19925 0.797,0.797 -0.3985,1.49438 V -1.49438 C 0.797,-0.797 2.52383,-0.19925 3.58653,0" /></g></g><g
             id="g326"><g
               transform="translate(10.037,53.348)"
               id="g328"><g
                 id="g330"><g
                   transform="translate(-70.78,-96.067)"
                   id="g332"><text
                     id="text336"
                     style="font-variant:normal;font-size:9.96259975px;font-family:'Montserrat';-inkscape-font-specification:URWPalladioL-Roma;writing-mode:lr-tb;fill:#000000;fill-opacity:1;fill-rule:nonzero;stroke:none"
                     transform="matrix(1,0,0,-1,70.78,96.067)"><tspan
                       id="tspan334"
                       y="0"
                       x="0">3</tspan></text>
<g
                     transform="translate(70.78,96.067)"
                     id="g338" /></g></g><g
                 transform="translate(-10.037,-53.348)"
                 id="g340" /></g></g><path
             id="path342"
             style="fill:none;stroke:#000000;stroke-width:0.3985;stroke-linecap:butt;stroke-linejoin:miter;stroke-miterlimit:10;stroke-dasharray:none;stroke-opacity:1"
             d="M 25.51193,62.36288 19.1702,53.90732" /><g
             transform="matrix(-0.60292,-0.80383,0.80383,-0.60292,19.17021,53.90732)"
             id="g344"><g
               id="g346"><path
                 id="path348"
                 style="fill:#000000;fill-opacity:1;fill-rule:nonzero;stroke:none"
                 d="M 3.58653,0 C 2.52383,0.19925 0.797,0.797 -0.3985,1.49438 V -1.49438 C 0.797,-0.797 2.52383,-0.19925 3.58653,0" /></g></g><g
             id="g350"><g
               transform="translate(22.787,45.286)"
               id="g352"><g
                 id="g354"><g
                   transform="translate(-83.53,-88.005)"
                   id="g356"><text
                     id="text360"
                     style="font-variant:normal;font-size:9.96259975px;font-family:'Montserrat';-inkscape-font-specification:URWPalladioL-Roma;writing-mode:lr-tb;fill:#000000;fill-opacity:1;fill-rule:nonzero;stroke:none"
                     transform="matrix(1,0,0,-1,83.53,88.005)"><tspan
                       id="tspan358"
                       y="0"
                       x="0">1</tspan></text>
<g
                     transform="translate(83.53,88.005)"
                     id="g362" /></g></g><g
                 transform="translate(-22.787,-45.286)"
                 id="g364" /></g></g><path
             id="path366"
             style="fill:none;stroke:#000000;stroke-width:0.3985;stroke-linecap:butt;stroke-linejoin:miter;stroke-miterlimit:10;stroke-dasharray:none;stroke-opacity:1"
             d="M -5.66927,0 H -16.25612" /><g
             transform="rotate(180,-8.12806,0)"
             id="g368"><g
               id="g370"><path
                 id="path372"
                 style="fill:#000000;fill-opacity:1;fill-rule:nonzero;stroke:none"
                 d="M 3.58653,0 C 2.52383,0.19925 0.797,0.797 -0.3985,1.49438 V -1.49438 C 0.797,-0.797 2.52383,-0.19925 3.58653,0" /></g></g><g
             id="g374"><g
               transform="translate(-11.76,5.726)"
               id="g376"><g
                 id="g378"><g
                   transform="translate(-48.983,-48.445)"
                   id="g380"><text
                     id="text384"
                     style="font-variant:normal;font-size:9.96259975px;font-family:'Montserrat';-inkscape-font-specification:URWPalladioL-Roma;writing-mode:lr-tb;fill:#000000;fill-opacity:1;fill-rule:nonzero;stroke:none"
                     transform="matrix(1,0,0,-1,48.983,48.445)"><tspan
                       id="tspan382"
                       y="0"
                       x="0 4.9812999">10</tspan></text>
<g
                     transform="translate(48.983,48.445)"
                     id="g386" /></g></g><g
                 transform="translate(11.76,-5.726)"
                 id="g388" /></g></g><path
             id="path390"
             style="fill:none;stroke:#000000;stroke-width:0.3985;stroke-linecap:butt;stroke-linejoin:miter;stroke-miterlimit:10;stroke-dasharray:none;stroke-opacity:1"
             d="M -19.84267,2.83484 H -9.25581" /><g
             transform="translate(-9.25581,2.83484)"
             id="g392"><g
               id="g394"><path
                 id="path396"
                 style="fill:#000000;fill-opacity:1;fill-rule:nonzero;stroke:none"
                 d="M 3.58653,0 C 2.52383,0.19925 0.797,0.797 -0.3985,1.49438 V -1.49438 C 0.797,-0.797 2.52383,-0.19925 3.58653,0" /></g></g><g
             id="g398"><g
               transform="translate(-9.269,-9.582)"
               id="g400"><g
                 id="g402"><g
                   transform="translate(-51.474,-33.137)"
                   id="g404"><text
                     id="text408"
                     style="font-variant:normal;font-size:9.96259975px;font-family:'Montserrat';-inkscape-font-specification:URWPalladioL-Roma;writing-mode:lr-tb;fill:#000000;fill-opacity:1;fill-rule:nonzero;stroke:none"
                     transform="matrix(1,0,0,-1,51.474,33.137)"><tspan
                       id="tspan406"
                       y="0"
                       x="0">1</tspan></text>
<g
                     transform="translate(51.474,33.137)"
                     id="g410" /></g></g><g
                 transform="translate(9.269,9.582)"
                 id="g412" /></g></g><g
             id="g414"><g
               transform="translate(44.17,35.36)"
               id="g416"><g
                 id="g418"><g
                   transform="translate(-104.913,-78.079)"
                   id="g420"><text
                     id="text424"
                     style="font-variant:normal;font-size:20.66250038px;font-family:'Montserrat';-inkscape-font-specification:URWPalladioL-Roma;writing-mode:lr-tb;fill:#cc0000;fill-opacity:1;fill-rule:nonzero;stroke:none"
                     transform="matrix(1,0,0,-1,104.913,78.079)"><tspan
                       id="tspan422"
                       y="0"
                       x="0">*</tspan></text>
<g
                     transform="translate(104.913,78.079)"
                     id="g426" /></g></g><g
                 transform="translate(-44.17,-35.36)"
                 id="g428" /></g></g><g
             id="g430"><g
               transform="translate(8.184,-3.737)"
               id="g432"><g
                 id="g434"><g
                   transform="translate(-68.927,-38.982)"
                   id="g436"><text
                     id="text440"
                     style="font-variant:normal;font-weight:normal;font-size:14.94869995px;font-family:Arial;-inkscape-font-specification:Arial;writing-mode:lr-tb;fill:#0000cc;fill-opacity:1;fill-rule:nonzero;stroke:none"
                     transform="matrix(1,0,0,-1,69.106,38.982)"><tspan
                       id="tspan438"
                       y="0"
                       x="0">x</tspan></text>
<g
                     transform="translate(68.927,38.982)"
                     id="g442" /></g></g><g
                 transform="translate(-8.184,3.737)"
                 id="g444" /></g></g><g
             id="g446"><g
               transform="translate(17.691,-2.558)"
               id="g448"><g
                 id="g450"><g
                   transform="translate(-78.434,-40.161)"
                   id="g452"><text
                     id="text456"
                     style="font-variant:normal;font-size:9.96259975px;font-family:'Montserrat';-inkscape-font-specification:URWPalladioL-Ital;writing-mode:lr-tb;fill:#0000cc;fill-opacity:1;fill-rule:nonzero;stroke:none"
                     transform="matrix(1,0,0,-1,78.558,40.161)"><tspan
                       id="tspan454"
                       y="0"
                       x="0">S</tspan></text>
<text
                     id="text460"
                     style="font-variant:normal;font-size:7.57159996px;font-family:'Montserrat';-inkscape-font-specification:URWPalladioL-Roma;writing-mode:lr-tb;fill:#0000cc;fill-opacity:1;fill-rule:nonzero;stroke:none"
                     transform="matrix(1,0,0,-1,84.123,38.303)"><tspan
                       id="tspan458"
                       y="0"
                       x="0">1</tspan></text>
<g
                     transform="translate(78.434,40.161)"
                     id="g462" /></g></g><g
                 transform="translate(-17.691,2.558)"
                 id="g464" /></g></g><g
             id="g466" /></g></g></g></g></svg>