<?xml version="1.0" encoding="UTF-8" standalone="no"?>
<svg
   xmlns:dc="http://purl.org/dc/elements/1.1/"
   xmlns:cc="http://creativecommons.org/ns#"
   xmlns:rdf="http://www.w3.org/1999/02/22-rdf-syntax-ns#"
   xmlns:svg="http://www.w3.org/2000/svg"
   xmlns="http://www.w3.org/2000/svg"
   viewBox="0 0 166.36667 130.92532"
   height="130.92532"
   width="166.36667"
   xml:space="preserve"
   id="svg2"
   version="1.1"><metadata
     id="metadata8"><rdf:RDF><cc:Work
         rdf:about=""><dc:format>image/svg+xml</dc:format><dc:type
           rdf:resource="http://purl.org/dc/dcmitype/StillImage" /></cc:Work></rdf:RDF></metadata><defs
     id="defs6" /><g
     transform="matrix(1.3333333,0,0,-1.3333333,0,130.92533)"
     id="g10"><g
       transform="translate(60.743,49.806)"
       id="g12"><g
         id="g14"><g
           id="g16"><g
             id="g18"><path
               id="path20"
               style="fill:#99d9f2;fill-opacity:1;fill-rule:nonzero;stroke:#00004c;stroke-width:0.3985;stroke-linecap:butt;stroke-linejoin:miter;stroke-miterlimit:10;stroke-dasharray:none;stroke-opacity:1"
               d="M 51.02435,0 C 51.02435,23.48355 28.18033,42.52022 0,42.52022 -28.18033,42.52022 -51.02435,23.48355 -51.02435,0 c 0,-23.48355 22.84402,-42.52022 51.02435,-42.52022 28.18033,0 51.02435,19.03667 51.02435,42.52022 z" /></g><g
             id="g22"><path
               id="path24"
               style="fill:#99d9f2;fill-opacity:1;fill-rule:nonzero;stroke:#00004c;stroke-width:0.3985;stroke-linecap:butt;stroke-linejoin:miter;stroke-miterlimit:10;stroke-dasharray:none;stroke-opacity:1"
               d="M 28.3468,0 C 28.3468,12.5246 15.6557,22.67754 0,22.67754 -15.6557,22.67754 -28.3468,12.5246 -28.3468,0 c 0,-12.5246 12.6911,-22.67754 28.3468,-22.67754 15.6557,0 28.3468,10.15294 28.3468,22.67754 z" /></g><path
             id="path26"
             style="fill:none;stroke:#000000;stroke-width:0.3985;stroke-linecap:butt;stroke-linejoin:miter;stroke-miterlimit:10;stroke-dasharray:none;stroke-opacity:1"
             d="M -11.33855,0 H -21.9254" /><g
             transform="rotate(180,-10.9627,0)"
             id="g28"><g
               id="g30"><path
                 id="path32"
                 style="fill:#000000;fill-opacity:1;fill-rule:nonzero;stroke:none"
                 d="M 3.58653,0 C 2.52383,0.19925 0.797,0.797 -0.3985,1.49438 V -1.49438 C 0.797,-0.797 2.52383,-0.19925 3.58653,0" /></g></g><path
             id="path34"
             style="fill:none;stroke:#000000;stroke-width:0.3985;stroke-linecap:butt;stroke-linejoin:miter;stroke-miterlimit:10;stroke-dasharray:none;stroke-opacity:1"
             d="m -25.51193,2.83484 h 10.58685" /><g
             transform="translate(-14.92508,2.83484)"
             id="g36"><g
               id="g38"><path
                 id="path40"
                 style="fill:#000000;fill-opacity:1;fill-rule:nonzero;stroke:none"
                 d="M 3.58653,0 C 2.52383,0.19925 0.797,0.797 -0.3985,1.49438 V -1.49438 C 0.797,-0.797 2.52383,-0.19925 3.58653,0" /></g></g><g
             id="g42"><g
               transform="translate(-23.406,-9.107)"
               id="g44"><g
                 id="g46"><g
                   transform="translate(-37.337,-40.699)"
                   id="g48"><text
                     id="text52"
                     style="font-variant:normal;font-size:9.96259975px;font-family:'Montserrat';-inkscape-font-specification:URWPalladioL-Roma;writing-mode:lr-tb;fill:#000000;fill-opacity:1;fill-rule:nonzero;stroke:none"
                     transform="matrix(1,0,0,-1,37.337,40.699)"><tspan
                       id="tspan50"
                       y="0"
                       x="0 4.9812999">11</tspan></text>
<g
                     transform="translate(37.337,40.699)"
                     id="g54" /></g></g><g
                 transform="translate(23.406,9.107)"
                 id="g56" /></g></g><g
             id="g58"><g
               transform="translate(-23.406,5.066)"
               id="g60"><g
                 id="g62"><g
                   transform="translate(-37.337,-54.872)"
                   id="g64"><text
                     id="text68"
                     style="font-variant:normal;font-size:9.96259975px;font-family:'Montserrat';-inkscape-font-specification:URWPalladioL-Roma;writing-mode:lr-tb;fill:#000000;fill-opacity:1;fill-rule:nonzero;stroke:none"
                     transform="matrix(1,0,0,-1,37.337,54.872)"><tspan
                       id="tspan66"
                       y="0"
                       x="0 4.9812999">11</tspan></text>
<g
                     transform="translate(37.337,54.872)"
                     id="g70" /></g></g><g
                 transform="translate(23.406,-5.066)"
                 id="g72" /></g></g><path
             id="path74"
             style="fill:none;stroke:#000000;stroke-width:0.3985;stroke-linecap:butt;stroke-linejoin:miter;stroke-miterlimit:10;stroke-dasharray:none;stroke-opacity:1"
             d="M -45.35506,-31.18166 H -55.94191" /><g
             transform="rotate(180,-27.970955,-15.59083)"
             id="g76"><g
               id="g78"><path
                 id="path80"
                 style="fill:#000000;fill-opacity:1;fill-rule:nonzero;stroke:none"
                 d="M 3.58653,0 C 2.52383,0.19925 0.797,0.797 -0.3985,1.49438 V -1.49438 C 0.797,-0.797 2.52383,-0.19925 3.58653,0" /></g></g><g
             id="g82"><g
               transform="translate(-57.422,-25.64)"
               id="g84"><g
                 id="g86"><g
                   transform="translate(-3.321,-24.166)"
                   id="g88"><text
                     id="text92"
                     style="font-variant:normal;font-size:9.96259975px;font-family:'Montserrat';-inkscape-font-specification:URWPalladioL-Roma;writing-mode:lr-tb;fill:#000000;fill-opacity:1;fill-rule:nonzero;stroke:none"
                     transform="matrix(1,0,0,-1,3.321,24.166)"><tspan
                       id="tspan90"
                       y="0"
                       x="0 4.9812999">11</tspan></text>
<g
                     transform="translate(3.321,24.166)"
                     id="g94" /></g></g><g
                 transform="translate(57.422,25.64)"
                 id="g96" /></g></g><path
             id="path98"
             style="fill:none;stroke:#000000;stroke-width:0.3985;stroke-linecap:butt;stroke-linejoin:miter;stroke-miterlimit:10;stroke-dasharray:none;stroke-opacity:1"
             d="M -59.52846,-28.3468 H -48.9416" /><g
             transform="translate(-48.9416,-28.3468)"
             id="g100"><g
               id="g102"><path
                 id="path104"
                 style="fill:#000000;fill-opacity:1;fill-rule:nonzero;stroke:none"
                 d="M 3.58653,0 C 2.52383,0.19925 0.797,0.797 -0.3985,1.49438 V -1.49438 C 0.797,-0.797 2.52383,-0.19925 3.58653,0" /></g></g><g
             id="g106"><g
               transform="translate(-57.422,-40.763)"
               id="g108"><g
                 id="g110"><g
                   transform="translate(-3.321,-9.043)"
                   id="g112"><text
                     id="text116"
                     style="font-variant:normal;font-size:9.96259975px;font-family:'Montserrat';-inkscape-font-specification:URWPalladioL-Roma;writing-mode:lr-tb;fill:#000000;fill-opacity:1;fill-rule:nonzero;stroke:none"
                     transform="matrix(1,0,0,-1,3.321,9.043)"><tspan
                       id="tspan114"
                       y="0"
                       x="0 4.9812999">11</tspan></text>
<g
                     transform="translate(3.321,9.043)"
                     id="g118" /></g></g><g
                 transform="translate(57.422,40.763)"
                 id="g120" /></g></g><path
             id="path122"
             style="fill:none;stroke:#000000;stroke-width:0.3985;stroke-linecap:butt;stroke-linejoin:miter;stroke-miterlimit:10;stroke-dasharray:none;stroke-opacity:1"
             d="M -35.43349,0 H -46.02037" /><g
             transform="rotate(180,-23.010185,0)"
             id="g124"><g
               id="g126"><path
                 id="path128"
                 style="fill:#000000;fill-opacity:1;fill-rule:nonzero;stroke:none"
                 d="M 3.58653,0 C 2.52383,0.19925 0.797,0.797 -0.3985,1.49438 V -1.49438 C 0.797,-0.797 2.52383,-0.19925 3.58653,0" /></g></g><path
             id="path130"
             style="fill:none;stroke:#000000;stroke-width:0.3985;stroke-linecap:butt;stroke-linejoin:miter;stroke-miterlimit:10;stroke-dasharray:none;stroke-opacity:1"
             d="m -49.6069,2.83484 h 10.58687" /><g
             transform="translate(-39.02003,2.83484)"
             id="g132"><g
               id="g134"><path
                 id="path136"
                 style="fill:#000000;fill-opacity:1;fill-rule:nonzero;stroke:none"
                 d="M 3.58653,0 C 2.52383,0.19925 0.797,0.797 -0.3985,1.49438 V -1.49438 C 0.797,-0.797 2.52383,-0.19925 3.58653,0" /></g></g><g
             id="g138"><g
               transform="translate(-47.501,-9.107)"
               id="g140"><g
                 id="g142"><g
                   transform="translate(-13.242,-40.699)"
                   id="g144"><text
                     id="text148"
                     style="font-variant:normal;font-size:9.96259975px;font-family:'Montserrat';-inkscape-font-specification:URWPalladioL-Roma;writing-mode:lr-tb;fill:#000000;fill-opacity:1;fill-rule:nonzero;stroke:none"
                     transform="matrix(1,0,0,-1,13.242,40.699)"><tspan
                       id="tspan146"
                       y="0"
                       x="0 4.9812999">11</tspan></text>
<g
                     transform="translate(13.242,40.699)"
                     id="g150" /></g></g><g
                 transform="translate(47.501,9.107)"
                 id="g152" /></g></g><g
             id="g154"><g
               transform="translate(-47.501,5.066)"
               id="g156"><g
                 id="g158"><g
                   transform="translate(-13.242,-54.872)"
                   id="g160"><text
                     id="text164"
                     style="font-variant:normal;font-size:9.96259975px;font-family:'Montserrat';-inkscape-font-specification:URWPalladioL-Roma;writing-mode:lr-tb;fill:#000000;fill-opacity:1;fill-rule:nonzero;stroke:none"
                     transform="matrix(1,0,0,-1,13.242,54.872)"><tspan
                       id="tspan162"
                       y="0"
                       x="0 4.9812999">11</tspan></text>
<g
                     transform="translate(13.242,54.872)"
                     id="g166" /></g></g><g
                 transform="translate(47.501,-5.066)"
                 id="g168" /></g></g><path
             id="path170"
             style="fill:none;stroke:#000000;stroke-width:0.3985;stroke-linecap:butt;stroke-linejoin:miter;stroke-miterlimit:10;stroke-dasharray:none;stroke-opacity:1"
             d="M 45.35506,25.51193 39.84428,21.83824" /><g
             transform="matrix(-0.83461,-0.55641,0.55641,-0.83461,39.84428,21.83826)"
             id="g172"><g
               id="g174"><path
                 id="path176"
                 style="fill:#000000;fill-opacity:1;fill-rule:nonzero;stroke:none"
                 d="M 3.58653,0 C 2.52383,0.19925 0.797,0.797 -0.3985,1.49438 V -1.49438 C 0.797,-0.797 2.52383,-0.19925 3.58653,0" /></g></g><path
             id="path178"
             style="fill:none;stroke:#000000;stroke-width:0.3985;stroke-linecap:butt;stroke-linejoin:miter;stroke-miterlimit:10;stroke-dasharray:none;stroke-opacity:1"
             d="m 39.68535,17.00824 5.51075,3.67369" /><g
             transform="matrix(0.83461,0.55641,-0.55641,0.83461,45.1961,20.68192)"
             id="g180"><g
               id="g182"><path
                 id="path184"
                 style="fill:#000000;fill-opacity:1;fill-rule:nonzero;stroke:none"
                 d="M 3.58653,0 C 2.52383,0.19925 0.797,0.797 -0.3985,1.49438 V -1.49438 C 0.797,-0.797 2.52383,-0.19925 3.58653,0" /></g></g><g
             id="g186"><g
               transform="translate(31.525,22.074)"
               id="g188"><g
                 id="g190"><g
                   transform="translate(-92.268,-71.88)"
                   id="g192"><text
                     id="text196"
                     style="font-variant:normal;font-size:9.96259975px;font-family:'Montserrat';-inkscape-font-specification:URWPalladioL-Roma;writing-mode:lr-tb;fill:#000000;fill-opacity:1;fill-rule:nonzero;stroke:none"
                     transform="matrix(1,0,0,-1,92.268,71.88)"><tspan
                       id="tspan194"
                       y="0"
                       x="0">1</tspan></text>
<g
                     transform="translate(92.268,71.88)"
                     id="g198" /></g></g><g
                 transform="translate(-31.525,-22.074)"
                 id="g200" /></g></g><g
             id="g202"><g
               transform="translate(38.612,9.318)"
               id="g204"><g
                 id="g206"><g
                   transform="translate(-99.355,-59.124)"
                   id="g208"><text
                     id="text212"
                     style="font-variant:normal;font-size:9.96259975px;font-family:'Montserrat';-inkscape-font-specification:URWPalladioL-Roma;writing-mode:lr-tb;fill:#000000;fill-opacity:1;fill-rule:nonzero;stroke:none"
                     transform="matrix(1,0,0,-1,99.355,59.124)"><tspan
                       id="tspan210"
                       y="0"
                       x="0">2</tspan></text>
<g
                     transform="translate(99.355,59.124)"
                     id="g214" /></g></g><g
                 transform="translate(-38.612,-9.318)"
                 id="g216" /></g></g><path
             id="path218"
             style="fill:none;stroke:#000000;stroke-width:0.3985;stroke-linecap:butt;stroke-linejoin:miter;stroke-miterlimit:10;stroke-dasharray:none;stroke-opacity:1"
             d="M 26.92937,15.59082 21.41861,11.91713" /><g
             transform="matrix(-0.83461,-0.55641,0.55641,-0.83461,21.41861,11.91714)"
             id="g220"><g
               id="g222"><path
                 id="path224"
                 style="fill:#000000;fill-opacity:1;fill-rule:nonzero;stroke:none"
                 d="M 3.58653,0 C 2.52383,0.19925 0.797,0.797 -0.3985,1.49438 V -1.49438 C 0.797,-0.797 2.52383,-0.19925 3.58653,0" /></g></g><path
             id="path226"
             style="fill:none;stroke:#000000;stroke-width:0.3985;stroke-linecap:butt;stroke-linejoin:miter;stroke-miterlimit:10;stroke-dasharray:none;stroke-opacity:1"
             d="m 21.2601,7.08669 5.51076,3.67369" /><g
             transform="matrix(0.83461,0.55641,-0.55641,0.83461,26.77086,10.76036)"
             id="g228"><g
               id="g230"><path
                 id="path232"
                 style="fill:#000000;fill-opacity:1;fill-rule:nonzero;stroke:none"
                 d="M 3.58653,0 C 2.52383,0.19925 0.797,0.797 -0.3985,1.49438 V -1.49438 C 0.797,-0.797 2.52383,-0.19925 3.58653,0" /></g></g><g
             id="g234"><g
               transform="translate(10.265,9.41)"
               id="g236"><g
                 id="g238"><g
                   transform="translate(-71.008,-59.216)"
                   id="g240"><text
                     id="text244"
                     style="font-variant:normal;font-size:9.96259975px;font-family:'Montserrat';-inkscape-font-specification:URWPalladioL-Roma;writing-mode:lr-tb;fill:#000000;fill-opacity:1;fill-rule:nonzero;stroke:none"
                     transform="matrix(1,0,0,-1,71.008,59.216)"><tspan
                       id="tspan242"
                       y="0"
                       x="0">0</tspan></text>
<g
                     transform="translate(71.008,59.216)"
                     id="g246" /></g></g><g
                 transform="translate(-10.265,-9.41)"
                 id="g248" /></g></g><g
             id="g250"><g
               transform="translate(17.696,-0.511)"
               id="g252"><g
                 id="g254"><g
                   transform="translate(-78.439,-49.295)"
                   id="g256"><text
                     id="text260"
                     style="font-variant:normal;font-size:9.96259975px;font-family:'Montserrat';-inkscape-font-specification:URWPalladioL-Roma;writing-mode:lr-tb;fill:#000000;fill-opacity:1;fill-rule:nonzero;stroke:none"
                     transform="matrix(1,0,0,-1,78.439,49.295)"><tspan
                       id="tspan258"
                       y="0"
                       x="0 4.9812999">10</tspan></text>
<g
                     transform="translate(78.439,49.295)"
                     id="g262" /></g></g><g
                 transform="translate(-17.696,0.511)"
                 id="g264" /></g></g><g
             id="g266"><g
               transform="translate(52.674,21.186)"
               id="g268"><g
                 id="g270"><g
                   transform="translate(-113.417,-70.992)"
                   id="g272"><text
                     id="text276"
                     style="font-variant:normal;font-size:20.66250038px;font-family:'Montserrat';-inkscape-font-specification:URWPalladioL-Roma;writing-mode:lr-tb;fill:#cc0000;fill-opacity:1;fill-rule:nonzero;stroke:none"
                     transform="matrix(1,0,0,-1,113.417,70.992)"><tspan
                       id="tspan274"
                       y="0"
                       x="0">*</tspan></text>
<g
                     transform="translate(113.417,70.992)"
                     id="g278" /></g></g><g
                 transform="translate(-52.674,-21.186)"
                 id="g280" /></g></g><g
             id="g282"><g
               transform="translate(-14.493,30.278)"
               id="g284"><g
                 id="g286"><g
                   transform="translate(-46.25,-80.084)"
                   id="g288"><text
                     id="text292"
                     style="font-variant:normal;font-weight:normal;font-size:14.94869995px;font-family:Arial;-inkscape-font-specification:Arial;writing-mode:lr-tb;fill:#0000cc;fill-opacity:1;fill-rule:nonzero;stroke:none"
                     transform="matrix(1,0,0,-1,46.429,80.084)"><tspan
                       id="tspan290"
                       y="0"
                       x="0">x</tspan></text>
<g
                     transform="translate(46.25,80.084)"
                     id="g294" /></g></g><g
                 transform="translate(14.493,-30.278)"
                 id="g296" /></g></g><g
             id="g298"><g
               transform="translate(-4.986,31.457)"
               id="g300"><g
                 id="g302"><g
                   transform="translate(-55.757,-81.263)"
                   id="g304"><text
                     id="text308"
                     style="font-variant:normal;font-size:9.96259975px;font-family:'Montserrat';-inkscape-font-specification:URWPalladioL-Ital;writing-mode:lr-tb;fill:#0000cc;fill-opacity:1;fill-rule:nonzero;stroke:none"
                     transform="matrix(1,0,0,-1,55.881,81.263)"><tspan
                       id="tspan306"
                       y="0"
                       x="0">S</tspan></text>
<text
                     id="text312"
                     style="font-variant:normal;font-size:7.57159996px;font-family:'Montserrat';-inkscape-font-specification:URWPalladioL-Roma;writing-mode:lr-tb;fill:#0000cc;fill-opacity:1;fill-rule:nonzero;stroke:none"
                     transform="matrix(1,0,0,-1,61.445,79.406)"><tspan
                       id="tspan310"
                       y="0"
                       x="0">1</tspan></text>
<g
                     transform="translate(55.757,81.263)"
                     id="g314" /></g></g><g
                 transform="translate(4.986,-31.457)"
                 id="g316" /></g></g><g
             id="g318"><path
               id="path320"
               style="fill:none;stroke:#ffffff;stroke-width:0.3985;stroke-linecap:butt;stroke-linejoin:miter;stroke-miterlimit:10;stroke-dasharray:none;stroke-opacity:1"
               d="M 63.7803,-49.6069 V 48.18947" /></g></g></g></g></g></svg>