<?xml version="1.0" encoding="UTF-8" standalone="no"?>
<svg
   xmlns:dc="http://purl.org/dc/elements/1.1/"
   xmlns:cc="http://creativecommons.org/ns#"
   xmlns:rdf="http://www.w3.org/1999/02/22-rdf-syntax-ns#"
   xmlns:svg="http://www.w3.org/2000/svg"
   xmlns="http://www.w3.org/2000/svg"
   viewBox="0 0 156.13333 170.60933"
   height="170.60933"
   width="156.13333"
   xml:space="preserve"
   id="svg2"
   version="1.1"><metadata
     id="metadata8"><rdf:RDF><cc:Work
         rdf:about=""><dc:format>image/svg+xml</dc:format><dc:type
           rdf:resource="http://purl.org/dc/dcmitype/StillImage" /></cc:Work></rdf:RDF></metadata><defs
     id="defs6" /><g
     transform="matrix(1.3333333,0,0,-1.3333333,0,170.60933)"
     id="g10"><g
       transform="translate(68.756,63.979)"
       id="g12"><g
         id="g14"><g
           id="g16"><g
             id="g18"><path
               id="path20"
               style="fill:#ffffff;fill-opacity:1;fill-rule:nonzero;stroke:#000000;stroke-width:0.3985;stroke-linecap:butt;stroke-linejoin:miter;stroke-miterlimit:10;stroke-dasharray:none;stroke-opacity:1"
               d="M 0,0 V 36.1421 H -36.1421 V 0 Z" /></g><g
             id="g22"><path
               id="path24"
               style="fill:#ffcccc;fill-opacity:1;fill-rule:nonzero;stroke:#000000;stroke-width:0.3985;stroke-linecap:butt;stroke-linejoin:miter;stroke-miterlimit:10;stroke-dasharray:none;stroke-opacity:1"
               d="M -36.1421,0 C -14.88199,0 -21.2601,0 0,0 c 42.5202,0 40.39407,-21.2601 -2.12613,-21.2601 -21.2601,0 -12.75586,0 -34.01597,0 0,21.2601 0,0 0,21.2601" /></g><path
             id="path26"
             style="fill:none;stroke:#000000;stroke-width:0.3985;stroke-linecap:butt;stroke-linejoin:miter;stroke-miterlimit:10;stroke-dasharray:none;stroke-opacity:1"
             d="m 0,0 c 42.5202,21.2601 42.5202,63.7803 0,63.7803 -42.5202,0 -63.7803,-21.2601 -63.7803,-63.7803 0,-21.2601 10.63006,-63.7803 31.89016,-63.7803 C -10.63004,-63.7803 0,-21.2601 0,0" /><path
             id="path28"
             style="fill:none;stroke:#000000;stroke-width:0.3985;stroke-linecap:butt;stroke-linejoin:miter;stroke-miterlimit:10;stroke-dasharray:none;stroke-opacity:1"
             d="M -21.2601,29.764 V 41.05948" /><g
             transform="rotate(90,-31.15979,9.89969)"
             id="g30"><g
               id="g32"><path
                 id="path34"
                 style="fill:#000000;fill-opacity:1;fill-rule:nonzero;stroke:none"
                 d="M 3.58653,0 C 2.52383,0.19925 0.797,0.797 -0.3985,1.49438 V -1.49438 C 0.797,-0.797 2.52383,-0.19925 3.58653,0" /></g></g><g
             id="g36"><g
               transform="translate(-23.75,49.442)"
               id="g38"><g
                 id="g40"><g
                   transform="translate(-45.006,-113.421)"
                   id="g42"><text
                     id="text46"
                     style="font-variant:normal;font-size:9.96259975px;font-family:'URW Gothic';-inkscape-font-specification:URWPalladioL-Roma;writing-mode:lr-tb;fill:#000000;fill-opacity:1;fill-rule:nonzero;stroke:none"
                     transform="matrix(1,0,0,-1,45.006,113.421)"><tspan
                       id="tspan44"
                       y="0"
                       x="0">6</tspan></text>
<g
                     transform="translate(45.006,113.421)"
                     id="g48" /></g></g><g
                 transform="translate(23.75,-49.442)"
                 id="g50" /></g></g><path
             id="path52"
             style="fill:none;stroke:#000000;stroke-width:0.3985;stroke-linecap:butt;stroke-linejoin:miter;stroke-miterlimit:10;stroke-dasharray:none;stroke-opacity:1"
             d="M -12.75616,44.64633 V 33.35088" /><g
             transform="rotate(-90,10.29736,23.05352)"
             id="g54"><g
               id="g56"><path
                 id="path58"
                 style="fill:#000000;fill-opacity:1;fill-rule:nonzero;stroke:none"
                 d="M 3.58653,0 C 2.52383,0.19925 0.797,0.797 -0.3985,1.49438 V -1.49438 C 0.797,-0.797 2.52383,-0.19925 3.58653,0" /></g></g><g
             id="g60"><g
               transform="translate(-15.247,49.443)"
               id="g62"><g
                 id="g64"><g
                   transform="translate(-53.509,-113.422)"
                   id="g66"><text
                     id="text70"
                     style="font-variant:normal;font-size:9.96259975px;font-family:'URW Gothic';-inkscape-font-specification:URWPalladioL-Roma;writing-mode:lr-tb;fill:#000000;fill-opacity:1;fill-rule:nonzero;stroke:none"
                     transform="matrix(1,0,0,-1,53.509,113.422)"><tspan
                       id="tspan68"
                       y="0"
                       x="0">6</tspan></text>
<g
                     transform="translate(53.509,113.422)"
                     id="g72" /></g></g><g
                 transform="translate(15.247,-49.443)"
                 id="g74" /></g></g><path
             id="path76"
             style="fill:none;stroke:#000000;stroke-width:0.3985;stroke-linecap:butt;stroke-linejoin:miter;stroke-miterlimit:10;stroke-dasharray:none;stroke-opacity:1"
             d="M -21.2601,-8.5039 V 2.79153" /><g
             transform="rotate(90,-12.025815,-9.234285)"
             id="g78"><g
               id="g80"><path
                 id="path82"
                 style="fill:#000000;fill-opacity:1;fill-rule:nonzero;stroke:none"
                 d="M 3.58653,0 C 2.52383,0.19925 0.797,0.797 -0.3985,1.49438 V -1.49438 C 0.797,-0.797 2.52383,-0.19925 3.58653,0" /></g></g><g
             id="g84"><g
               transform="translate(-23.75,11.175)"
               id="g86"><g
                 id="g88"><g
                   transform="translate(-45.006,-75.154)"
                   id="g90"><text
                     id="text94"
                     style="font-variant:normal;font-size:9.96259975px;font-family:'URW Gothic';-inkscape-font-specification:URWPalladioL-Roma;writing-mode:lr-tb;fill:#000000;fill-opacity:1;fill-rule:nonzero;stroke:none"
                     transform="matrix(1,0,0,-1,45.006,75.154)"><tspan
                       id="tspan92"
                       y="0"
                       x="0">6</tspan></text>
<g
                     transform="translate(45.006,75.154)"
                     id="g96" /></g></g><g
                 transform="translate(23.75,-11.175)"
                 id="g98" /></g></g><path
             id="path100"
             style="fill:none;stroke:#000000;stroke-width:0.3985;stroke-linecap:butt;stroke-linejoin:miter;stroke-miterlimit:10;stroke-dasharray:none;stroke-opacity:1"
             d="M -12.75616,6.37807 V -4.91736" /><g
             transform="rotate(-90,-8.83676,3.9194)"
             id="g102"><g
               id="g104"><path
                 id="path106"
                 style="fill:#000000;fill-opacity:1;fill-rule:nonzero;stroke:none"
                 d="M 3.58653,0 C 2.52383,0.19925 0.797,0.797 -0.3985,1.49438 V -1.49438 C 0.797,-0.797 2.52383,-0.19925 3.58653,0" /></g></g><g
             id="g108"><g
               transform="translate(-15.247,11.175)"
               id="g110"><g
                 id="g112"><g
                   transform="translate(-53.509,-75.154)"
                   id="g114"><text
                     id="text118"
                     style="font-variant:normal;font-size:9.96259975px;font-family:'URW Gothic';-inkscape-font-specification:URWPalladioL-Roma;writing-mode:lr-tb;fill:#000000;fill-opacity:1;fill-rule:nonzero;stroke:none"
                     transform="matrix(1,0,0,-1,53.509,75.154)"><tspan
                       id="tspan116"
                       y="0"
                       x="0">6</tspan></text>
<g
                     transform="translate(53.509,75.154)"
                     id="g120" /></g></g><g
                 transform="translate(15.247,-11.175)"
                 id="g122" /></g></g><path
             id="path124"
             style="fill:none;stroke:#000000;stroke-width:0.3985;stroke-linecap:butt;stroke-linejoin:miter;stroke-miterlimit:10;stroke-dasharray:none;stroke-opacity:1"
             d="m -42.5202,-14.88199 h 11.29547" /><g
             transform="translate(-31.22473,-14.88199)"
             id="g126"><g
               id="g128"><path
                 id="path130"
                 style="fill:#000000;fill-opacity:1;fill-rule:nonzero;stroke:none"
                 d="M 3.58653,0 C 2.52383,0.19925 0.797,0.797 -0.3985,1.49438 V -1.49438 C 0.797,-0.797 2.52383,-0.19925 3.58653,0" /></g></g><g
             id="g132"><g
               transform="translate(-52.084,-18.319)"
               id="g134"><g
                 id="g136"><g
                   transform="translate(-16.672,-45.66)"
                   id="g138"><text
                     id="text142"
                     style="font-variant:normal;font-size:9.96259975px;font-family:'URW Gothic';-inkscape-font-specification:URWPalladioL-Roma;writing-mode:lr-tb;fill:#000000;fill-opacity:1;fill-rule:nonzero;stroke:none"
                     transform="matrix(1,0,0,-1,16.672,45.66)"><tspan
                       id="tspan140"
                       y="0"
                       x="0">2</tspan></text>
<g
                     transform="translate(16.672,45.66)"
                     id="g144" /></g></g><g
                 transform="translate(52.084,18.319)"
                 id="g146" /></g></g><path
             id="path148"
             style="fill:none;stroke:#000000;stroke-width:0.3985;stroke-linecap:butt;stroke-linejoin:miter;stroke-miterlimit:10;stroke-dasharray:none;stroke-opacity:1"
             d="M -27.6382,-6.37807 H -38.93364" /><g
             transform="rotate(180,-19.46682,-3.189035)"
             id="g150"><g
               id="g152"><path
                 id="path154"
                 style="fill:#000000;fill-opacity:1;fill-rule:nonzero;stroke:none"
                 d="M 3.58653,0 C 2.52383,0.19925 0.797,0.797 -0.3985,1.49438 V -1.49438 C 0.797,-0.797 2.52383,-0.19925 3.58653,0" /></g></g><g
             id="g156"><g
               transform="translate(-52.084,-9.723)"
               id="g158"><g
                 id="g160"><g
                   transform="translate(-16.672,-54.256)"
                   id="g162"><text
                     id="text166"
                     style="font-variant:normal;font-size:9.96259975px;font-family:'URW Gothic';-inkscape-font-specification:URWPalladioL-Roma;writing-mode:lr-tb;fill:#000000;fill-opacity:1;fill-rule:nonzero;stroke:none"
                     transform="matrix(1,0,0,-1,16.672,54.256)"><tspan
                       id="tspan164"
                       y="0"
                       x="0">6</tspan></text>
<g
                     transform="translate(16.672,54.256)"
                     id="g168" /></g></g><g
                 transform="translate(52.084,9.723)"
                 id="g170" /></g></g><path
             id="path172"
             style="fill:none;stroke:#000000;stroke-width:0.3985;stroke-linecap:butt;stroke-linejoin:miter;stroke-miterlimit:10;stroke-dasharray:none;stroke-opacity:1"
             d="M -8.5039,-14.88199 H 2.79153" /><g
             transform="translate(2.79153,-14.88199)"
             id="g174"><g
               id="g176"><path
                 id="path178"
                 style="fill:#000000;fill-opacity:1;fill-rule:nonzero;stroke:none"
                 d="M 3.58653,0 C 2.52383,0.19925 0.797,0.797 -0.3985,1.49438 V -1.49438 C 0.797,-0.797 2.52383,-0.19925 3.58653,0" /></g></g><g
             id="g180"><g
               transform="translate(10.278,-18.319)"
               id="g182"><g
                 id="g184"><g
                   transform="translate(-79.034,-45.66)"
                   id="g186"><text
                     id="text190"
                     style="font-variant:normal;font-size:9.96259975px;font-family:'URW Gothic';-inkscape-font-specification:URWPalladioL-Roma;writing-mode:lr-tb;fill:#000000;fill-opacity:1;fill-rule:nonzero;stroke:none"
                     transform="matrix(1,0,0,-1,79.034,45.66)"><tspan
                       id="tspan188"
                       y="0"
                       x="0">7</tspan></text>
<g
                     transform="translate(79.034,45.66)"
                     id="g192" /></g></g><g
                 transform="translate(-10.278,18.319)"
                 id="g194" /></g></g><path
             id="path196"
             style="fill:none;stroke:#000000;stroke-width:0.3985;stroke-linecap:butt;stroke-linejoin:miter;stroke-miterlimit:10;stroke-dasharray:none;stroke-opacity:1"
             d="M 6.37807,-6.37807 H -4.91736" /><g
             transform="rotate(180,-2.45868,-3.189035)"
             id="g198"><g
               id="g200"><path
                 id="path202"
                 style="fill:#000000;fill-opacity:1;fill-rule:nonzero;stroke:none"
                 d="M 3.58653,0 C 2.52383,0.19925 0.797,0.797 -0.3985,1.49438 V -1.49438 C 0.797,-0.797 2.52383,-0.19925 3.58653,0" /></g></g><g
             id="g204"><g
               transform="translate(10.278,-9.723)"
               id="g206"><g
                 id="g208"><g
                   transform="translate(-79.034,-54.256)"
                   id="g210"><text
                     id="text214"
                     style="font-variant:normal;font-size:9.96259975px;font-family:'URW Gothic';-inkscape-font-specification:URWPalladioL-Roma;writing-mode:lr-tb;fill:#000000;fill-opacity:1;fill-rule:nonzero;stroke:none"
                     transform="matrix(1,0,0,-1,79.034,54.256)"><tspan
                       id="tspan212"
                       y="0"
                       x="0">6</tspan></text>
<g
                     transform="translate(79.034,54.256)"
                     id="g216" /></g></g><g
                 transform="translate(-10.278,9.723)"
                 id="g218" /></g></g><path
             id="path220"
             style="fill:none;stroke:#000000;stroke-width:0.3985;stroke-linecap:butt;stroke-linejoin:miter;stroke-miterlimit:10;stroke-dasharray:none;stroke-opacity:1"
             d="M 21.2601,-14.88199 H 32.55556" /><g
             transform="translate(32.55556,-14.88199)"
             id="g222"><g
               id="g224"><path
                 id="path226"
                 style="fill:#000000;fill-opacity:1;fill-rule:nonzero;stroke:none"
                 d="M 3.58653,0 C 2.52383,0.19925 0.797,0.797 -0.3985,1.49438 V -1.49438 C 0.797,-0.797 2.52383,-0.19925 3.58653,0" /></g></g><g
             id="g228"><g
               transform="translate(40.042,-18.227)"
               id="g230"><g
                 id="g232"><g
                   transform="translate(-108.798,-45.752)"
                   id="g234"><text
                     id="text238"
                     style="font-variant:normal;font-size:9.96259975px;font-family:'URW Gothic';-inkscape-font-specification:URWPalladioL-Roma;writing-mode:lr-tb;fill:#000000;fill-opacity:1;fill-rule:nonzero;stroke:none"
                     transform="matrix(1,0,0,-1,108.798,45.752)"><tspan
                       id="tspan236"
                       y="0"
                       x="0">6</tspan></text>
<g
                     transform="translate(108.798,45.752)"
                     id="g240" /></g></g><g
                 transform="translate(-40.042,18.227)"
                 id="g242" /></g></g><path
             id="path244"
             style="fill:none;stroke:#000000;stroke-width:0.3985;stroke-linecap:butt;stroke-linejoin:miter;stroke-miterlimit:10;stroke-dasharray:none;stroke-opacity:1"
             d="M 36.1421,-6.37807 H 24.84663" /><g
             transform="rotate(180,12.423315,-3.189035)"
             id="g246"><g
               id="g248"><path
                 id="path250"
                 style="fill:#000000;fill-opacity:1;fill-rule:nonzero;stroke:none"
                 d="M 3.58653,0 C 2.52383,0.19925 0.797,0.797 -0.3985,1.49438 V -1.49438 C 0.797,-0.797 2.52383,-0.19925 3.58653,0" /></g></g><g
             id="g252"><g
               transform="translate(40.042,-9.815)"
               id="g254"><g
                 id="g256"><g
                   transform="translate(-108.798,-54.164)"
                   id="g258"><text
                     id="text262"
                     style="font-variant:normal;font-size:9.96259975px;font-family:'URW Gothic';-inkscape-font-specification:URWPalladioL-Roma;writing-mode:lr-tb;fill:#000000;fill-opacity:1;fill-rule:nonzero;stroke:none"
                     transform="matrix(1,0,0,-1,108.798,54.164)"><tspan
                       id="tspan260"
                       y="0"
                       x="0">7</tspan></text>
<g
                     transform="translate(108.798,54.164)"
                     id="g264" /></g></g><g
                 transform="translate(-40.042,9.815)"
                 id="g266" /></g></g><path
             id="path268"
             style="fill:none;stroke:#000000;stroke-width:0.3985;stroke-linecap:butt;stroke-linejoin:miter;stroke-miterlimit:10;stroke-dasharray:none;stroke-opacity:1"
             d="m -57.4022,46.77216 11.57528,-4.96091" /><g
             transform="matrix(0.92198,-0.39514,0.39514,0.92198,-45.82693,41.81125)"
             id="g270"><g
               id="g272"><path
                 id="path274"
                 style="fill:#000000;fill-opacity:1;fill-rule:nonzero;stroke:none"
                 d="M 3.58653,0 C 2.52383,0.19925 0.797,0.797 -0.3985,1.49438 V -1.49438 C 0.797,-0.797 2.52383,-0.19925 3.58653,0" /></g></g><g
             id="g276"><g
               transform="translate(-41.459,35.256)"
               id="g278"><g
                 id="g280"><g
                   transform="translate(-27.297,-99.235)"
                   id="g282"><text
                     id="text286"
                     style="font-variant:normal;font-size:9.96259975px;font-family:'URW Gothic';-inkscape-font-specification:URWPalladioL-Roma;writing-mode:lr-tb;fill:#000000;fill-opacity:1;fill-rule:nonzero;stroke:none"
                     transform="matrix(1,0,0,-1,27.297,99.235)"><tspan
                       id="tspan284"
                       y="0"
                       x="0">3</tspan></text>
<g
                     transform="translate(27.297,99.235)"
                     id="g288" /></g></g><g
                 transform="translate(41.459,-35.256)"
                 id="g290" /></g></g><path
             id="path292"
             style="fill:none;stroke:#000000;stroke-width:0.3985;stroke-linecap:butt;stroke-linejoin:miter;stroke-miterlimit:10;stroke-dasharray:none;stroke-opacity:1"
             d="m -42.5202,46.77216 -11.57529,4.96089" /><g
             transform="matrix(-0.92198,0.39514,-0.39514,-0.92198,-54.09547,51.73305)"
             id="g294"><g
               id="g296"><path
                 id="path298"
                 style="fill:#000000;fill-opacity:1;fill-rule:nonzero;stroke:none"
                 d="M 3.58653,0 C 2.52383,0.19925 0.797,0.797 -0.3985,1.49438 V -1.49438 C 0.797,-0.797 2.52383,-0.19925 3.58653,0" /></g></g><g
             id="g300"><g
               transform="translate(-65.435,51.505)"
               id="g302"><g
                 id="g304"><g
                   transform="translate(-3.321,-115.484)"
                   id="g306"><text
                     id="text310"
                     style="font-variant:normal;font-size:9.96259975px;font-family:'URW Gothic';-inkscape-font-specification:URWPalladioL-Roma;writing-mode:lr-tb;fill:#000000;fill-opacity:1;fill-rule:nonzero;stroke:none"
                     transform="matrix(1,0,0,-1,3.321,115.484)"><tspan
                       id="tspan308"
                       y="0"
                       x="0">1</tspan></text>
<g
                     transform="translate(3.321,115.484)"
                     id="g312" /></g></g><g
                 transform="translate(65.435,-51.505)"
                 id="g314" /></g></g><g
             id="g316"><g
               id="g318" /><g
               transform="translate(-27.249,-14.367)"
               id="g320"><g
                 id="g322"><g
                   transform="translate(-41.507,-49.612)"
                   id="g324"><text
                     id="text328"
                     style="font-variant:normal;font-weight:normal;font-size:14.94869995px;font-family:Arial;-inkscape-font-specification:Arial;writing-mode:lr-tb;fill:#ff0000;fill-opacity:1;fill-rule:nonzero;stroke:none"
                     transform="matrix(1,0,0,-1,41.686,49.612)"><tspan
                       id="tspan326"
                       y="0"
                       x="0"></tspan></text>
<g
                     transform="translate(41.507,49.612)"
                     id="g330" /></g></g><g
                 transform="translate(27.249,14.367)"
                 id="g332" /></g></g><g
             id="g334"><path
               id="path336"
               style="fill:#000080;fill-opacity:1;fill-rule:nonzero;stroke:none"
               d="m 24.4491,-42.5202 c 0,1.76126 -1.42775,3.189 -3.189,3.189 -1.76126,0 -3.189,-1.42774 -3.189,-3.189 0,-1.76125 1.42774,-3.189 3.189,-3.189 1.76125,0 3.189,1.42775 3.189,3.189 z" /></g></g></g></g></g></svg>