<?xml version="1.0" encoding="UTF-8" standalone="no"?>
<svg
   xmlns:dc="http://purl.org/dc/elements/1.1/"
   xmlns:cc="http://creativecommons.org/ns#"
   xmlns:rdf="http://www.w3.org/1999/02/22-rdf-syntax-ns#"
   xmlns:svg="http://www.w3.org/2000/svg"
   xmlns="http://www.w3.org/2000/svg"
   viewBox="0 0 156.13333 170.60933"
   height="170.60933"
   width="156.13333"
   xml:space="preserve"
   id="svg2"
   version="1.1"><metadata
     id="metadata8"><rdf:RDF><cc:Work
         rdf:about=""><dc:format>image/svg+xml</dc:format><dc:type
           rdf:resource="http://purl.org/dc/dcmitype/StillImage" /></cc:Work></rdf:RDF></metadata><defs
     id="defs6" /><g
     transform="matrix(1.3333333,0,0,-1.3333333,0,170.60933)"
     id="g10"><g
       transform="translate(68.756,63.979)"
       id="g12"><g
         id="g14"><g
           id="g16"><g
             id="g18"><path
               id="path20"
               style="fill:#ffcccc;fill-opacity:1;fill-rule:nonzero;stroke:none"
               d="m 0,0 c 42.5202,21.2601 42.5202,63.7803 0,63.7803 -42.5202,0 -63.7803,-21.2601 -63.7803,-63.7803 0,-21.2601 10.63006,-63.7803 31.89016,-63.7803 C -10.63004,-63.7803 0,-21.2601 0,0" /></g><g
             id="g22"><path
               id="path24"
               style="fill:#ffcccc;fill-opacity:1;fill-rule:nonzero;stroke:#000000;stroke-width:0.3985;stroke-linecap:butt;stroke-linejoin:miter;stroke-miterlimit:10;stroke-dasharray:none;stroke-opacity:1"
               d="M 0,0 V 36.1421 H -36.1421 V 0 Z" /></g><g
             id="g26"><path
               id="path28"
               style="fill:#ffcccc;fill-opacity:1;fill-rule:nonzero;stroke:#000000;stroke-width:0.3985;stroke-linecap:butt;stroke-linejoin:miter;stroke-miterlimit:10;stroke-dasharray:none;stroke-opacity:1"
               d="M -36.1421,0 C -14.88199,0 -21.2601,0 0,0 c 42.5202,0 40.39407,-21.2601 -2.12613,-21.2601 -21.2601,0 -12.75586,0 -34.01597,0 0,21.2601 0,0 0,21.2601" /></g><path
             id="path30"
             style="fill:none;stroke:#000000;stroke-width:0.3985;stroke-linecap:butt;stroke-linejoin:miter;stroke-miterlimit:10;stroke-dasharray:none;stroke-opacity:1"
             d="m 0,0 c 42.5202,21.2601 42.5202,63.7803 0,63.7803 -42.5202,0 -63.7803,-21.2601 -63.7803,-63.7803 0,-21.2601 10.63006,-63.7803 31.89016,-63.7803 C -10.63004,-63.7803 0,-21.2601 0,0" /><path
             id="path32"
             style="fill:none;stroke:#000000;stroke-width:0.3985;stroke-linecap:butt;stroke-linejoin:miter;stroke-miterlimit:10;stroke-dasharray:none;stroke-opacity:1"
             d="M -21.2601,29.764 V 41.05948" /><g
             transform="rotate(90,-31.15979,9.89969)"
             id="g34"><g
               id="g36"><path
                 id="path38"
                 style="fill:#000000;fill-opacity:1;fill-rule:nonzero;stroke:none"
                 d="M 3.58653,0 C 2.52383,0.19925 0.797,0.797 -0.3985,1.49438 V -1.49438 C 0.797,-0.797 2.52383,-0.19925 3.58653,0" /></g></g><g
             id="g40"><g
               transform="translate(-23.75,49.442)"
               id="g42"><g
                 id="g44"><g
                   transform="translate(-45.006,-113.421)"
                   id="g46"><text
                     id="text50"
                     style="font-variant:normal;font-size:9.96259975px;font-family:'Montserrat';-inkscape-font-specification:URWPalladioL-Roma;writing-mode:lr-tb;fill:#000000;fill-opacity:1;fill-rule:nonzero;stroke:none"
                     transform="matrix(1,0,0,-1,45.006,113.421)"><tspan
                       id="tspan48"
                       y="0"
                       x="0">6</tspan></text>
<g
                     transform="translate(45.006,113.421)"
                     id="g52" /></g></g><g
                 transform="translate(23.75,-49.442)"
                 id="g54" /></g></g><path
             id="path56"
             style="fill:none;stroke:#000000;stroke-width:0.3985;stroke-linecap:butt;stroke-linejoin:miter;stroke-miterlimit:10;stroke-dasharray:none;stroke-opacity:1"
             d="M -12.75616,44.64633 V 33.35088" /><g
             transform="rotate(-90,10.29736,23.05352)"
             id="g58"><g
               id="g60"><path
                 id="path62"
                 style="fill:#000000;fill-opacity:1;fill-rule:nonzero;stroke:none"
                 d="M 3.58653,0 C 2.52383,0.19925 0.797,0.797 -0.3985,1.49438 V -1.49438 C 0.797,-0.797 2.52383,-0.19925 3.58653,0" /></g></g><g
             id="g64"><g
               transform="translate(-15.247,49.443)"
               id="g66"><g
                 id="g68"><g
                   transform="translate(-53.509,-113.422)"
                   id="g70"><text
                     id="text74"
                     style="font-variant:normal;font-size:9.96259975px;font-family:'Montserrat';-inkscape-font-specification:URWPalladioL-Roma;writing-mode:lr-tb;fill:#000000;fill-opacity:1;fill-rule:nonzero;stroke:none"
                     transform="matrix(1,0,0,-1,53.509,113.422)"><tspan
                       id="tspan72"
                       y="0"
                       x="0">6</tspan></text>
<g
                     transform="translate(53.509,113.422)"
                     id="g76" /></g></g><g
                 transform="translate(15.247,-49.443)"
                 id="g78" /></g></g><path
             id="path80"
             style="fill:none;stroke:#000000;stroke-width:0.3985;stroke-linecap:butt;stroke-linejoin:miter;stroke-miterlimit:10;stroke-dasharray:none;stroke-opacity:1"
             d="M -21.2601,-8.5039 V 2.79153" /><g
             transform="rotate(90,-12.025815,-9.234285)"
             id="g82"><g
               id="g84"><path
                 id="path86"
                 style="fill:#000000;fill-opacity:1;fill-rule:nonzero;stroke:none"
                 d="M 3.58653,0 C 2.52383,0.19925 0.797,0.797 -0.3985,1.49438 V -1.49438 C 0.797,-0.797 2.52383,-0.19925 3.58653,0" /></g></g><g
             id="g88"><g
               transform="translate(-23.75,11.175)"
               id="g90"><g
                 id="g92"><g
                   transform="translate(-45.006,-75.154)"
                   id="g94"><text
                     id="text98"
                     style="font-variant:normal;font-size:9.96259975px;font-family:'Montserrat';-inkscape-font-specification:URWPalladioL-Roma;writing-mode:lr-tb;fill:#000000;fill-opacity:1;fill-rule:nonzero;stroke:none"
                     transform="matrix(1,0,0,-1,45.006,75.154)"><tspan
                       id="tspan96"
                       y="0"
                       x="0">6</tspan></text>
<g
                     transform="translate(45.006,75.154)"
                     id="g100" /></g></g><g
                 transform="translate(23.75,-11.175)"
                 id="g102" /></g></g><path
             id="path104"
             style="fill:none;stroke:#000000;stroke-width:0.3985;stroke-linecap:butt;stroke-linejoin:miter;stroke-miterlimit:10;stroke-dasharray:none;stroke-opacity:1"
             d="M -12.75616,6.37807 V -4.91736" /><g
             transform="rotate(-90,-8.83676,3.9194)"
             id="g106"><g
               id="g108"><path
                 id="path110"
                 style="fill:#000000;fill-opacity:1;fill-rule:nonzero;stroke:none"
                 d="M 3.58653,0 C 2.52383,0.19925 0.797,0.797 -0.3985,1.49438 V -1.49438 C 0.797,-0.797 2.52383,-0.19925 3.58653,0" /></g></g><g
             id="g112"><g
               transform="translate(-15.247,11.175)"
               id="g114"><g
                 id="g116"><g
                   transform="translate(-53.509,-75.154)"
                   id="g118"><text
                     id="text122"
                     style="font-variant:normal;font-size:9.96259975px;font-family:'Montserrat';-inkscape-font-specification:URWPalladioL-Roma;writing-mode:lr-tb;fill:#000000;fill-opacity:1;fill-rule:nonzero;stroke:none"
                     transform="matrix(1,0,0,-1,53.509,75.154)"><tspan
                       id="tspan120"
                       y="0"
                       x="0">6</tspan></text>
<g
                     transform="translate(53.509,75.154)"
                     id="g124" /></g></g><g
                 transform="translate(15.247,-11.175)"
                 id="g126" /></g></g><path
             id="path128"
             style="fill:none;stroke:#000000;stroke-width:0.3985;stroke-linecap:butt;stroke-linejoin:miter;stroke-miterlimit:10;stroke-dasharray:none;stroke-opacity:1"
             d="m -42.5202,-14.88199 h 11.29547" /><g
             transform="translate(-31.22473,-14.88199)"
             id="g130"><g
               id="g132"><path
                 id="path134"
                 style="fill:#000000;fill-opacity:1;fill-rule:nonzero;stroke:none"
                 d="M 3.58653,0 C 2.52383,0.19925 0.797,0.797 -0.3985,1.49438 V -1.49438 C 0.797,-0.797 2.52383,-0.19925 3.58653,0" /></g></g><g
             id="g136"><g
               transform="translate(-52.084,-18.319)"
               id="g138"><g
                 id="g140"><g
                   transform="translate(-16.672,-45.66)"
                   id="g142"><text
                     id="text146"
                     style="font-variant:normal;font-size:9.96259975px;font-family:'Montserrat';-inkscape-font-specification:URWPalladioL-Roma;writing-mode:lr-tb;fill:#000000;fill-opacity:1;fill-rule:nonzero;stroke:none"
                     transform="matrix(1,0,0,-1,16.672,45.66)"><tspan
                       id="tspan144"
                       y="0"
                       x="0">2</tspan></text>
<g
                     transform="translate(16.672,45.66)"
                     id="g148" /></g></g><g
                 transform="translate(52.084,18.319)"
                 id="g150" /></g></g><path
             id="path152"
             style="fill:none;stroke:#000000;stroke-width:0.3985;stroke-linecap:butt;stroke-linejoin:miter;stroke-miterlimit:10;stroke-dasharray:none;stroke-opacity:1"
             d="M -27.6382,-6.37807 H -38.93364" /><g
             transform="rotate(180,-19.46682,-3.189035)"
             id="g154"><g
               id="g156"><path
                 id="path158"
                 style="fill:#000000;fill-opacity:1;fill-rule:nonzero;stroke:none"
                 d="M 3.58653,0 C 2.52383,0.19925 0.797,0.797 -0.3985,1.49438 V -1.49438 C 0.797,-0.797 2.52383,-0.19925 3.58653,0" /></g></g><g
             id="g160"><g
               transform="translate(-52.084,-9.723)"
               id="g162"><g
                 id="g164"><g
                   transform="translate(-16.672,-54.256)"
                   id="g166"><text
                     id="text170"
                     style="font-variant:normal;font-size:9.96259975px;font-family:'Montserrat';-inkscape-font-specification:URWPalladioL-Roma;writing-mode:lr-tb;fill:#000000;fill-opacity:1;fill-rule:nonzero;stroke:none"
                     transform="matrix(1,0,0,-1,16.672,54.256)"><tspan
                       id="tspan168"
                       y="0"
                       x="0">6</tspan></text>
<g
                     transform="translate(16.672,54.256)"
                     id="g172" /></g></g><g
                 transform="translate(52.084,9.723)"
                 id="g174" /></g></g><path
             id="path176"
             style="fill:none;stroke:#000000;stroke-width:0.3985;stroke-linecap:butt;stroke-linejoin:miter;stroke-miterlimit:10;stroke-dasharray:none;stroke-opacity:1"
             d="M -8.5039,-14.88199 H 2.79153" /><g
             transform="translate(2.79153,-14.88199)"
             id="g178"><g
               id="g180"><path
                 id="path182"
                 style="fill:#000000;fill-opacity:1;fill-rule:nonzero;stroke:none"
                 d="M 3.58653,0 C 2.52383,0.19925 0.797,0.797 -0.3985,1.49438 V -1.49438 C 0.797,-0.797 2.52383,-0.19925 3.58653,0" /></g></g><g
             id="g184"><g
               transform="translate(10.278,-18.319)"
               id="g186"><g
                 id="g188"><g
                   transform="translate(-79.034,-45.66)"
                   id="g190"><text
                     id="text194"
                     style="font-variant:normal;font-size:9.96259975px;font-family:'Montserrat';-inkscape-font-specification:URWPalladioL-Roma;writing-mode:lr-tb;fill:#000000;fill-opacity:1;fill-rule:nonzero;stroke:none"
                     transform="matrix(1,0,0,-1,79.034,45.66)"><tspan
                       id="tspan192"
                       y="0"
                       x="0">7</tspan></text>
<g
                     transform="translate(79.034,45.66)"
                     id="g196" /></g></g><g
                 transform="translate(-10.278,18.319)"
                 id="g198" /></g></g><path
             id="path200"
             style="fill:none;stroke:#000000;stroke-width:0.3985;stroke-linecap:butt;stroke-linejoin:miter;stroke-miterlimit:10;stroke-dasharray:none;stroke-opacity:1"
             d="M 6.37807,-6.37807 H -4.91736" /><g
             transform="rotate(180,-2.45868,-3.189035)"
             id="g202"><g
               id="g204"><path
                 id="path206"
                 style="fill:#000000;fill-opacity:1;fill-rule:nonzero;stroke:none"
                 d="M 3.58653,0 C 2.52383,0.19925 0.797,0.797 -0.3985,1.49438 V -1.49438 C 0.797,-0.797 2.52383,-0.19925 3.58653,0" /></g></g><g
             id="g208"><g
               transform="translate(10.278,-9.723)"
               id="g210"><g
                 id="g212"><g
                   transform="translate(-79.034,-54.256)"
                   id="g214"><text
                     id="text218"
                     style="font-variant:normal;font-size:9.96259975px;font-family:'Montserrat';-inkscape-font-specification:URWPalladioL-Roma;writing-mode:lr-tb;fill:#000000;fill-opacity:1;fill-rule:nonzero;stroke:none"
                     transform="matrix(1,0,0,-1,79.034,54.256)"><tspan
                       id="tspan216"
                       y="0"
                       x="0">6</tspan></text>
<g
                     transform="translate(79.034,54.256)"
                     id="g220" /></g></g><g
                 transform="translate(-10.278,9.723)"
                 id="g222" /></g></g><path
             id="path224"
             style="fill:none;stroke:#000000;stroke-width:0.3985;stroke-linecap:butt;stroke-linejoin:miter;stroke-miterlimit:10;stroke-dasharray:none;stroke-opacity:1"
             d="M 21.2601,-14.88199 H 32.55556" /><g
             transform="translate(32.55556,-14.88199)"
             id="g226"><g
               id="g228"><path
                 id="path230"
                 style="fill:#000000;fill-opacity:1;fill-rule:nonzero;stroke:none"
                 d="M 3.58653,0 C 2.52383,0.19925 0.797,0.797 -0.3985,1.49438 V -1.49438 C 0.797,-0.797 2.52383,-0.19925 3.58653,0" /></g></g><g
             id="g232"><g
               transform="translate(40.042,-18.227)"
               id="g234"><g
                 id="g236"><g
                   transform="translate(-108.798,-45.752)"
                   id="g238"><text
                     id="text242"
                     style="font-variant:normal;font-size:9.96259975px;font-family:'Montserrat';-inkscape-font-specification:URWPalladioL-Roma;writing-mode:lr-tb;fill:#000000;fill-opacity:1;fill-rule:nonzero;stroke:none"
                     transform="matrix(1,0,0,-1,108.798,45.752)"><tspan
                       id="tspan240"
                       y="0"
                       x="0">6</tspan></text>
<g
                     transform="translate(108.798,45.752)"
                     id="g244" /></g></g><g
                 transform="translate(-40.042,18.227)"
                 id="g246" /></g></g><path
             id="path248"
             style="fill:none;stroke:#000000;stroke-width:0.3985;stroke-linecap:butt;stroke-linejoin:miter;stroke-miterlimit:10;stroke-dasharray:none;stroke-opacity:1"
             d="M 36.1421,-6.37807 H 24.84663" /><g
             transform="rotate(180,12.423315,-3.189035)"
             id="g250"><g
               id="g252"><path
                 id="path254"
                 style="fill:#000000;fill-opacity:1;fill-rule:nonzero;stroke:none"
                 d="M 3.58653,0 C 2.52383,0.19925 0.797,0.797 -0.3985,1.49438 V -1.49438 C 0.797,-0.797 2.52383,-0.19925 3.58653,0" /></g></g><g
             id="g256"><g
               transform="translate(40.042,-9.815)"
               id="g258"><g
                 id="g260"><g
                   transform="translate(-108.798,-54.164)"
                   id="g262"><text
                     id="text266"
                     style="font-variant:normal;font-size:9.96259975px;font-family:'Montserrat';-inkscape-font-specification:URWPalladioL-Roma;writing-mode:lr-tb;fill:#000000;fill-opacity:1;fill-rule:nonzero;stroke:none"
                     transform="matrix(1,0,0,-1,108.798,54.164)"><tspan
                       id="tspan264"
                       y="0"
                       x="0">7</tspan></text>
<g
                     transform="translate(108.798,54.164)"
                     id="g268" /></g></g><g
                 transform="translate(-40.042,9.815)"
                 id="g270" /></g></g><path
             id="path272"
             style="fill:none;stroke:#000000;stroke-width:0.3985;stroke-linecap:butt;stroke-linejoin:miter;stroke-miterlimit:10;stroke-dasharray:none;stroke-opacity:1"
             d="m -57.4022,46.77216 11.57528,-4.96091" /><g
             transform="matrix(0.92198,-0.39514,0.39514,0.92198,-45.82693,41.81125)"
             id="g274"><g
               id="g276"><path
                 id="path278"
                 style="fill:#000000;fill-opacity:1;fill-rule:nonzero;stroke:none"
                 d="M 3.58653,0 C 2.52383,0.19925 0.797,0.797 -0.3985,1.49438 V -1.49438 C 0.797,-0.797 2.52383,-0.19925 3.58653,0" /></g></g><g
             id="g280"><g
               transform="translate(-41.459,35.256)"
               id="g282"><g
                 id="g284"><g
                   transform="translate(-27.297,-99.235)"
                   id="g286"><text
                     id="text290"
                     style="font-variant:normal;font-size:9.96259975px;font-family:'Montserrat';-inkscape-font-specification:URWPalladioL-Roma;writing-mode:lr-tb;fill:#000000;fill-opacity:1;fill-rule:nonzero;stroke:none"
                     transform="matrix(1,0,0,-1,27.297,99.235)"><tspan
                       id="tspan288"
                       y="0"
                       x="0">3</tspan></text>
<g
                     transform="translate(27.297,99.235)"
                     id="g292" /></g></g><g
                 transform="translate(41.459,-35.256)"
                 id="g294" /></g></g><path
             id="path296"
             style="fill:none;stroke:#000000;stroke-width:0.3985;stroke-linecap:butt;stroke-linejoin:miter;stroke-miterlimit:10;stroke-dasharray:none;stroke-opacity:1"
             d="m -42.5202,46.77216 -11.57529,4.96089" /><g
             transform="matrix(-0.92198,0.39514,-0.39514,-0.92198,-54.09547,51.73305)"
             id="g298"><g
               id="g300"><path
                 id="path302"
                 style="fill:#000000;fill-opacity:1;fill-rule:nonzero;stroke:none"
                 d="M 3.58653,0 C 2.52383,0.19925 0.797,0.797 -0.3985,1.49438 V -1.49438 C 0.797,-0.797 2.52383,-0.19925 3.58653,0" /></g></g><g
             id="g304"><g
               transform="translate(-65.435,51.505)"
               id="g306"><g
                 id="g308"><g
                   transform="translate(-3.321,-115.484)"
                   id="g310"><text
                     id="text314"
                     style="font-variant:normal;font-size:9.96259975px;font-family:'Montserrat';-inkscape-font-specification:URWPalladioL-Roma;writing-mode:lr-tb;fill:#000000;fill-opacity:1;fill-rule:nonzero;stroke:none"
                     transform="matrix(1,0,0,-1,3.321,115.484)"><tspan
                       id="tspan312"
                       y="0"
                       x="0">1</tspan></text>
<g
                     transform="translate(3.321,115.484)"
                     id="g316" /></g></g><g
                 transform="translate(65.435,-51.505)"
                 id="g318" /></g></g><g
             id="g320"><g
               id="g322" /><g
               transform="translate(-27.249,-14.367)"
               id="g324"><g
                 id="g326"><g
                   transform="translate(-41.507,-49.612)"
                   id="g328"><text
                     id="text332"
                     style="font-variant:normal;font-weight:normal;font-size:14.94869995px;font-family:Arial;-inkscape-font-specification:Arial;writing-mode:lr-tb;fill:#ff0000;fill-opacity:1;fill-rule:nonzero;stroke:none"
                     transform="matrix(1,0,0,-1,41.686,49.612)"><tspan
                       id="tspan330"
                       y="0"
                       x="0">x</tspan></text>
<g
                     transform="translate(41.507,49.612)"
                     id="g334" /></g></g><g
                 transform="translate(27.249,14.367)"
                 id="g336" /></g></g><g
             id="g338"><path
               id="path340"
               style="fill:#000080;fill-opacity:1;fill-rule:nonzero;stroke:none"
               d="m 24.4491,-42.5202 c 0,1.76126 -1.42775,3.189 -3.189,3.189 -1.76126,0 -3.189,-1.42774 -3.189,-3.189 0,-1.76125 1.42774,-3.189 3.189,-3.189 1.76125,0 3.189,1.42775 3.189,3.189 z" /></g></g></g></g></g></svg>