<?xml version="1.0" encoding="UTF-8" standalone="no"?>
<svg
   xmlns:dc="http://purl.org/dc/elements/1.1/"
   xmlns:cc="http://creativecommons.org/ns#"
   xmlns:rdf="http://www.w3.org/1999/02/22-rdf-syntax-ns#"
   xmlns:svg="http://www.w3.org/2000/svg"
   xmlns="http://www.w3.org/2000/svg"
   viewBox="0 0 156.13333 170.60933"
   height="170.60933"
   width="156.13333"
   xml:space="preserve"
   id="svg2"
   version="1.1"><metadata
     id="metadata8"><rdf:RDF><cc:Work
         rdf:about=""><dc:format>image/svg+xml</dc:format><dc:type
           rdf:resource="http://purl.org/dc/dcmitype/StillImage" /></cc:Work></rdf:RDF></metadata><defs
     id="defs6" /><g
     transform="matrix(1.3333333,0,0,-1.3333333,0,170.60933)"
     id="g10"><g
       transform="translate(68.756,63.979)"
       id="g12"><g
         id="g14"><g
           id="g16"><g
             id="g18"><path
               id="path20"
               style="fill:#ffcccc;fill-opacity:1;fill-rule:nonzero;stroke:none"
               d="m 0,0 c 42.5202,21.2601 42.5202,63.7803 0,63.7803 -42.5202,0 -63.7803,-21.2601 -63.7803,-63.7803 0,-21.2601 10.63006,-63.7803 31.89016,-63.7803 C -10.63004,-63.7803 0,-21.2601 0,0" /></g><g
             id="g22"><path
               id="path24"
               style="fill:#b3c9e8;fill-opacity:1;fill-rule:nonzero;stroke:#000000;stroke-width:0.3985;stroke-linecap:butt;stroke-linejoin:miter;stroke-miterlimit:10;stroke-dasharray:none;stroke-opacity:1"
               d="M 0,0 V 36.1421 H -36.1421 V 0 Z" /></g><g
             id="g26"><path
               id="path28"
               style="fill:#80ff80;fill-opacity:1;fill-rule:nonzero;stroke:#000000;stroke-width:0.3985;stroke-linecap:butt;stroke-linejoin:miter;stroke-miterlimit:10;stroke-dasharray:none;stroke-opacity:1"
               d="M -36.1421,0 C -14.88199,0 -21.2601,0 0,0 c 42.5202,0 40.39407,-21.2601 -2.12613,-21.2601 -21.2601,0 -12.75586,0 -34.01597,0 0,21.2601 0,0 0,21.2601" /></g><g
             id="g30"><path
               id="path32"
               style="fill:#f2d64a;fill-opacity:1;fill-rule:nonzero;stroke:#000000;stroke-width:0.3985;stroke-linecap:butt;stroke-linejoin:miter;stroke-miterlimit:10;stroke-dasharray:none;stroke-opacity:1"
               d="M 0,0 C 42.5202,0 40.1816,-21.2601 -2.33861,-21.2601 -2.33861,-19.13396 0,-12.75616 0,0" /></g><path
             id="path34"
             style="fill:none;stroke:#000000;stroke-width:0.3985;stroke-linecap:butt;stroke-linejoin:miter;stroke-miterlimit:10;stroke-dasharray:none;stroke-opacity:1"
             d="m 0,0 c 42.5202,21.2601 42.5202,63.7803 0,63.7803 -42.5202,0 -63.7803,-21.2601 -63.7803,-63.7803 0,-21.2601 10.63006,-63.7803 31.89016,-63.7803 C -10.63004,-63.7803 0,-21.2601 0,0" /><path
             id="path36"
             style="fill:none;stroke:#000000;stroke-width:0.3985;stroke-linecap:butt;stroke-linejoin:miter;stroke-miterlimit:10;stroke-dasharray:none;stroke-opacity:1"
             d="M -21.2601,29.764 V 41.05948" /><g
             transform="rotate(90,-31.15979,9.89969)"
             id="g38"><g
               id="g40"><path
                 id="path42"
                 style="fill:#000000;fill-opacity:1;fill-rule:nonzero;stroke:none"
                 d="M 3.58653,0 C 2.52383,0.19925 0.797,0.797 -0.3985,1.49438 V -1.49438 C 0.797,-0.797 2.52383,-0.19925 3.58653,0" /></g></g><g
             id="g44"><g
               transform="translate(-23.75,49.442)"
               id="g46"><g
                 id="g48"><g
                   transform="translate(-45.006,-113.421)"
                   id="g50"><text
                     id="text54"
                     style="font-variant:normal;font-size:9.96259975px;font-family:'Montserrat';-inkscape-font-specification:URWPalladioL-Roma;writing-mode:lr-tb;fill:#000000;fill-opacity:1;fill-rule:nonzero;stroke:none"
                     transform="matrix(1,0,0,-1,45.006,113.421)"><tspan
                       id="tspan52"
                       y="0"
                       x="0">6</tspan></text>
<g
                     transform="translate(45.006,113.421)"
                     id="g56" /></g></g><g
                 transform="translate(23.75,-49.442)"
                 id="g58" /></g></g><path
             id="path60"
             style="fill:none;stroke:#000000;stroke-width:0.3985;stroke-linecap:butt;stroke-linejoin:miter;stroke-miterlimit:10;stroke-dasharray:none;stroke-opacity:1"
             d="M -12.75616,44.64633 V 33.35088" /><g
             transform="rotate(-90,10.29736,23.05352)"
             id="g62"><g
               id="g64"><path
                 id="path66"
                 style="fill:#000000;fill-opacity:1;fill-rule:nonzero;stroke:none"
                 d="M 3.58653,0 C 2.52383,0.19925 0.797,0.797 -0.3985,1.49438 V -1.49438 C 0.797,-0.797 2.52383,-0.19925 3.58653,0" /></g></g><g
             id="g68"><g
               transform="translate(-15.247,49.443)"
               id="g70"><g
                 id="g72"><g
                   transform="translate(-53.509,-113.422)"
                   id="g74"><text
                     id="text78"
                     style="font-variant:normal;font-size:9.96259975px;font-family:'Montserrat';-inkscape-font-specification:URWPalladioL-Roma;writing-mode:lr-tb;fill:#000000;fill-opacity:1;fill-rule:nonzero;stroke:none"
                     transform="matrix(1,0,0,-1,53.509,113.422)"><tspan
                       id="tspan76"
                       y="0"
                       x="0">6</tspan></text>
<g
                     transform="translate(53.509,113.422)"
                     id="g80" /></g></g><g
                 transform="translate(15.247,-49.443)"
                 id="g82" /></g></g><path
             id="path84"
             style="fill:none;stroke:#000000;stroke-width:0.3985;stroke-linecap:butt;stroke-linejoin:miter;stroke-miterlimit:10;stroke-dasharray:none;stroke-opacity:1"
             d="M -21.2601,-8.5039 V 2.79153" /><g
             transform="rotate(90,-12.025815,-9.234285)"
             id="g86"><g
               id="g88"><path
                 id="path90"
                 style="fill:#000000;fill-opacity:1;fill-rule:nonzero;stroke:none"
                 d="M 3.58653,0 C 2.52383,0.19925 0.797,0.797 -0.3985,1.49438 V -1.49438 C 0.797,-0.797 2.52383,-0.19925 3.58653,0" /></g></g><g
             id="g92"><g
               transform="translate(-23.75,11.175)"
               id="g94"><g
                 id="g96"><g
                   transform="translate(-45.006,-75.154)"
                   id="g98"><text
                     id="text102"
                     style="font-variant:normal;font-size:9.96259975px;font-family:'Montserrat';-inkscape-font-specification:URWPalladioL-Roma;writing-mode:lr-tb;fill:#000000;fill-opacity:1;fill-rule:nonzero;stroke:none"
                     transform="matrix(1,0,0,-1,45.006,75.154)"><tspan
                       id="tspan100"
                       y="0"
                       x="0">6</tspan></text>
<g
                     transform="translate(45.006,75.154)"
                     id="g104" /></g></g><g
                 transform="translate(23.75,-11.175)"
                 id="g106" /></g></g><path
             id="path108"
             style="fill:none;stroke:#000000;stroke-width:0.3985;stroke-linecap:butt;stroke-linejoin:miter;stroke-miterlimit:10;stroke-dasharray:none;stroke-opacity:1"
             d="M -12.75616,6.37807 V -4.91736" /><g
             transform="rotate(-90,-8.83676,3.9194)"
             id="g110"><g
               id="g112"><path
                 id="path114"
                 style="fill:#000000;fill-opacity:1;fill-rule:nonzero;stroke:none"
                 d="M 3.58653,0 C 2.52383,0.19925 0.797,0.797 -0.3985,1.49438 V -1.49438 C 0.797,-0.797 2.52383,-0.19925 3.58653,0" /></g></g><g
             id="g116"><g
               transform="translate(-15.247,11.175)"
               id="g118"><g
                 id="g120"><g
                   transform="translate(-53.509,-75.154)"
                   id="g122"><text
                     id="text126"
                     style="font-variant:normal;font-size:9.96259975px;font-family:'Montserrat';-inkscape-font-specification:URWPalladioL-Roma;writing-mode:lr-tb;fill:#000000;fill-opacity:1;fill-rule:nonzero;stroke:none"
                     transform="matrix(1,0,0,-1,53.509,75.154)"><tspan
                       id="tspan124"
                       y="0"
                       x="0">6</tspan></text>
<g
                     transform="translate(53.509,75.154)"
                     id="g128" /></g></g><g
                 transform="translate(15.247,-11.175)"
                 id="g130" /></g></g><path
             id="path132"
             style="fill:none;stroke:#000000;stroke-width:0.3985;stroke-linecap:butt;stroke-linejoin:miter;stroke-miterlimit:10;stroke-dasharray:none;stroke-opacity:1"
             d="m -42.5202,-14.88199 h 11.29547" /><g
             transform="translate(-31.22473,-14.88199)"
             id="g134"><g
               id="g136"><path
                 id="path138"
                 style="fill:#000000;fill-opacity:1;fill-rule:nonzero;stroke:none"
                 d="M 3.58653,0 C 2.52383,0.19925 0.797,0.797 -0.3985,1.49438 V -1.49438 C 0.797,-0.797 2.52383,-0.19925 3.58653,0" /></g></g><g
             id="g140"><g
               transform="translate(-52.084,-18.319)"
               id="g142"><g
                 id="g144"><g
                   transform="translate(-16.672,-45.66)"
                   id="g146"><text
                     id="text150"
                     style="font-variant:normal;font-size:9.96259975px;font-family:'Montserrat';-inkscape-font-specification:URWPalladioL-Roma;writing-mode:lr-tb;fill:#000000;fill-opacity:1;fill-rule:nonzero;stroke:none"
                     transform="matrix(1,0,0,-1,16.672,45.66)"><tspan
                       id="tspan148"
                       y="0"
                       x="0">2</tspan></text>
<g
                     transform="translate(16.672,45.66)"
                     id="g152" /></g></g><g
                 transform="translate(52.084,18.319)"
                 id="g154" /></g></g><path
             id="path156"
             style="fill:none;stroke:#000000;stroke-width:0.3985;stroke-linecap:butt;stroke-linejoin:miter;stroke-miterlimit:10;stroke-dasharray:none;stroke-opacity:1"
             d="M -27.6382,-6.37807 H -38.93364" /><g
             transform="rotate(180,-19.46682,-3.189035)"
             id="g158"><g
               id="g160"><path
                 id="path162"
                 style="fill:#000000;fill-opacity:1;fill-rule:nonzero;stroke:none"
                 d="M 3.58653,0 C 2.52383,0.19925 0.797,0.797 -0.3985,1.49438 V -1.49438 C 0.797,-0.797 2.52383,-0.19925 3.58653,0" /></g></g><g
             id="g164"><g
               transform="translate(-52.084,-9.723)"
               id="g166"><g
                 id="g168"><g
                   transform="translate(-16.672,-54.256)"
                   id="g170"><text
                     id="text174"
                     style="font-variant:normal;font-size:9.96259975px;font-family:'Montserrat';-inkscape-font-specification:URWPalladioL-Roma;writing-mode:lr-tb;fill:#000000;fill-opacity:1;fill-rule:nonzero;stroke:none"
                     transform="matrix(1,0,0,-1,16.672,54.256)"><tspan
                       id="tspan172"
                       y="0"
                       x="0">6</tspan></text>
<g
                     transform="translate(16.672,54.256)"
                     id="g176" /></g></g><g
                 transform="translate(52.084,9.723)"
                 id="g178" /></g></g><path
             id="path180"
             style="fill:none;stroke:#000000;stroke-width:0.3985;stroke-linecap:butt;stroke-linejoin:miter;stroke-miterlimit:10;stroke-dasharray:none;stroke-opacity:1"
             d="M -8.5039,-14.88199 H 2.79153" /><g
             transform="translate(2.79153,-14.88199)"
             id="g182"><g
               id="g184"><path
                 id="path186"
                 style="fill:#000000;fill-opacity:1;fill-rule:nonzero;stroke:none"
                 d="M 3.58653,0 C 2.52383,0.19925 0.797,0.797 -0.3985,1.49438 V -1.49438 C 0.797,-0.797 2.52383,-0.19925 3.58653,0" /></g></g><g
             id="g188"><g
               transform="translate(10.278,-18.319)"
               id="g190"><g
                 id="g192"><g
                   transform="translate(-79.034,-45.66)"
                   id="g194"><text
                     id="text198"
                     style="font-variant:normal;font-size:9.96259975px;font-family:'Montserrat';-inkscape-font-specification:URWPalladioL-Roma;writing-mode:lr-tb;fill:#000000;fill-opacity:1;fill-rule:nonzero;stroke:none"
                     transform="matrix(1,0,0,-1,79.034,45.66)"><tspan
                       id="tspan196"
                       y="0"
                       x="0">7</tspan></text>
<g
                     transform="translate(79.034,45.66)"
                     id="g200" /></g></g><g
                 transform="translate(-10.278,18.319)"
                 id="g202" /></g></g><path
             id="path204"
             style="fill:none;stroke:#000000;stroke-width:0.3985;stroke-linecap:butt;stroke-linejoin:miter;stroke-miterlimit:10;stroke-dasharray:none;stroke-opacity:1"
             d="M 6.37807,-6.37807 H -4.91736" /><g
             transform="rotate(180,-2.45868,-3.189035)"
             id="g206"><g
               id="g208"><path
                 id="path210"
                 style="fill:#000000;fill-opacity:1;fill-rule:nonzero;stroke:none"
                 d="M 3.58653,0 C 2.52383,0.19925 0.797,0.797 -0.3985,1.49438 V -1.49438 C 0.797,-0.797 2.52383,-0.19925 3.58653,0" /></g></g><g
             id="g212"><g
               transform="translate(10.278,-9.723)"
               id="g214"><g
                 id="g216"><g
                   transform="translate(-79.034,-54.256)"
                   id="g218"><text
                     id="text222"
                     style="font-variant:normal;font-size:9.96259975px;font-family:'Montserrat';-inkscape-font-specification:URWPalladioL-Roma;writing-mode:lr-tb;fill:#000000;fill-opacity:1;fill-rule:nonzero;stroke:none"
                     transform="matrix(1,0,0,-1,79.034,54.256)"><tspan
                       id="tspan220"
                       y="0"
                       x="0">6</tspan></text>
<g
                     transform="translate(79.034,54.256)"
                     id="g224" /></g></g><g
                 transform="translate(-10.278,9.723)"
                 id="g226" /></g></g><path
             id="path228"
             style="fill:none;stroke:#000000;stroke-width:0.3985;stroke-linecap:butt;stroke-linejoin:miter;stroke-miterlimit:10;stroke-dasharray:none;stroke-opacity:1"
             d="M 21.2601,-14.88199 H 32.55556" /><g
             transform="translate(32.55556,-14.88199)"
             id="g230"><g
               id="g232"><path
                 id="path234"
                 style="fill:#000000;fill-opacity:1;fill-rule:nonzero;stroke:none"
                 d="M 3.58653,0 C 2.52383,0.19925 0.797,0.797 -0.3985,1.49438 V -1.49438 C 0.797,-0.797 2.52383,-0.19925 3.58653,0" /></g></g><g
             id="g236"><g
               transform="translate(40.042,-18.227)"
               id="g238"><g
                 id="g240"><g
                   transform="translate(-108.798,-45.752)"
                   id="g242"><text
                     id="text246"
                     style="font-variant:normal;font-size:9.96259975px;font-family:'Montserrat';-inkscape-font-specification:URWPalladioL-Roma;writing-mode:lr-tb;fill:#000000;fill-opacity:1;fill-rule:nonzero;stroke:none"
                     transform="matrix(1,0,0,-1,108.798,45.752)"><tspan
                       id="tspan244"
                       y="0"
                       x="0">6</tspan></text>
<g
                     transform="translate(108.798,45.752)"
                     id="g248" /></g></g><g
                 transform="translate(-40.042,18.227)"
                 id="g250" /></g></g><path
             id="path252"
             style="fill:none;stroke:#000000;stroke-width:0.3985;stroke-linecap:butt;stroke-linejoin:miter;stroke-miterlimit:10;stroke-dasharray:none;stroke-opacity:1"
             d="M 36.1421,-6.37807 H 24.84663" /><g
             transform="rotate(180,12.423315,-3.189035)"
             id="g254"><g
               id="g256"><path
                 id="path258"
                 style="fill:#000000;fill-opacity:1;fill-rule:nonzero;stroke:none"
                 d="M 3.58653,0 C 2.52383,0.19925 0.797,0.797 -0.3985,1.49438 V -1.49438 C 0.797,-0.797 2.52383,-0.19925 3.58653,0" /></g></g><g
             id="g260"><g
               transform="translate(40.042,-9.815)"
               id="g262"><g
                 id="g264"><g
                   transform="translate(-108.798,-54.164)"
                   id="g266"><text
                     id="text270"
                     style="font-variant:normal;font-size:9.96259975px;font-family:'Montserrat';-inkscape-font-specification:URWPalladioL-Roma;writing-mode:lr-tb;fill:#000000;fill-opacity:1;fill-rule:nonzero;stroke:none"
                     transform="matrix(1,0,0,-1,108.798,54.164)"><tspan
                       id="tspan268"
                       y="0"
                       x="0">7</tspan></text>
<g
                     transform="translate(108.798,54.164)"
                     id="g272" /></g></g><g
                 transform="translate(-40.042,9.815)"
                 id="g274" /></g></g><path
             id="path276"
             style="fill:none;stroke:#000000;stroke-width:0.3985;stroke-linecap:butt;stroke-linejoin:miter;stroke-miterlimit:10;stroke-dasharray:none;stroke-opacity:1"
             d="m -57.4022,46.77216 11.57528,-4.96091" /><g
             transform="matrix(0.92198,-0.39514,0.39514,0.92198,-45.82693,41.81125)"
             id="g278"><g
               id="g280"><path
                 id="path282"
                 style="fill:#000000;fill-opacity:1;fill-rule:nonzero;stroke:none"
                 d="M 3.58653,0 C 2.52383,0.19925 0.797,0.797 -0.3985,1.49438 V -1.49438 C 0.797,-0.797 2.52383,-0.19925 3.58653,0" /></g></g><g
             id="g284"><g
               transform="translate(-41.459,35.256)"
               id="g286"><g
                 id="g288"><g
                   transform="translate(-27.297,-99.235)"
                   id="g290"><text
                     id="text294"
                     style="font-variant:normal;font-size:9.96259975px;font-family:'Montserrat';-inkscape-font-specification:URWPalladioL-Roma;writing-mode:lr-tb;fill:#000000;fill-opacity:1;fill-rule:nonzero;stroke:none"
                     transform="matrix(1,0,0,-1,27.297,99.235)"><tspan
                       id="tspan292"
                       y="0"
                       x="0">3</tspan></text>
<g
                     transform="translate(27.297,99.235)"
                     id="g296" /></g></g><g
                 transform="translate(41.459,-35.256)"
                 id="g298" /></g></g><path
             id="path300"
             style="fill:none;stroke:#000000;stroke-width:0.3985;stroke-linecap:butt;stroke-linejoin:miter;stroke-miterlimit:10;stroke-dasharray:none;stroke-opacity:1"
             d="m -42.5202,46.77216 -11.57529,4.96089" /><g
             transform="matrix(-0.92198,0.39514,-0.39514,-0.92198,-54.09547,51.73305)"
             id="g302"><g
               id="g304"><path
                 id="path306"
                 style="fill:#000000;fill-opacity:1;fill-rule:nonzero;stroke:none"
                 d="M 3.58653,0 C 2.52383,0.19925 0.797,0.797 -0.3985,1.49438 V -1.49438 C 0.797,-0.797 2.52383,-0.19925 3.58653,0" /></g></g><g
             id="g308"><g
               transform="translate(-65.435,51.505)"
               id="g310"><g
                 id="g312"><g
                   transform="translate(-3.321,-115.484)"
                   id="g314"><text
                     id="text318"
                     style="font-variant:normal;font-size:9.96259975px;font-family:'Montserrat';-inkscape-font-specification:URWPalladioL-Roma;writing-mode:lr-tb;fill:#000000;fill-opacity:1;fill-rule:nonzero;stroke:none"
                     transform="matrix(1,0,0,-1,3.321,115.484)"><tspan
                       id="tspan316"
                       y="0"
                       x="0">1</tspan></text>
<g
                     transform="translate(3.321,115.484)"
                     id="g320" /></g></g><g
                 transform="translate(65.435,-51.505)"
                 id="g322" /></g></g><g
             id="g324"><g
               id="g326" /><g
               transform="translate(11.018,-14.367)"
               id="g328"><g
                 id="g330"><g
                   transform="translate(-79.774,-49.612)"
                   id="g332"><text
                     id="text336"
                     style="font-variant:normal;font-weight:normal;font-size:14.94869995px;font-family:Arial;-inkscape-font-specification:Arial;writing-mode:lr-tb;fill:#ff0000;fill-opacity:1;fill-rule:nonzero;stroke:none"
                     transform="matrix(1,0,0,-1,79.954,49.612)"><tspan
                       id="tspan334"
                       y="0"
                       x="0">x</tspan></text>
<g
                     transform="translate(79.774,49.612)"
                     id="g338" /></g></g><g
                 transform="translate(-11.018,14.367)"
                 id="g340" /></g></g><g
             id="g342"><path
               id="path344"
               style="fill:#000080;fill-opacity:1;fill-rule:nonzero;stroke:none"
               d="m 24.4491,-42.5202 c 0,1.76126 -1.42775,3.189 -3.189,3.189 -1.76126,0 -3.189,-1.42774 -3.189,-3.189 0,-1.76125 1.42774,-3.189 3.189,-3.189 1.76125,0 3.189,1.42775 3.189,3.189 z" /></g></g></g></g></g></svg>