<?xml version="1.0" encoding="UTF-8" standalone="no"?>
<!-- Created with Inkscape (http://www.inkscape.org/) -->

<svg
   xmlns:dc="http://purl.org/dc/elements/1.1/"
   xmlns:cc="http://creativecommons.org/ns#"
   xmlns:rdf="http://www.w3.org/1999/02/22-rdf-syntax-ns#"
   xmlns:svg="http://www.w3.org/2000/svg"
   xmlns="http://www.w3.org/2000/svg"
   xmlns:sodipodi="http://sodipodi.sourceforge.net/DTD/sodipodi-0.dtd"
   xmlns:inkscape="http://www.inkscape.org/namespaces/inkscape"
   version="1.1"
   id="svg2"
   xml:space="preserve"
   width="171.52667"
   height="164.224"
   viewBox="0 0 171.52667 164.224"
   sodipodi:docname="predecessor_map.svg"
   inkscape:version="0.92.1 r"><metadata
     id="metadata8"><rdf:RDF><cc:Work
         rdf:about=""><dc:format>image/svg+xml</dc:format><dc:type
           rdf:resource="http://purl.org/dc/dcmitype/StillImage" /><dc:title></dc:title></cc:Work></rdf:RDF></metadata><defs
     id="defs6" /><sodipodi:namedview
     pagecolor="#ffffff"
     bordercolor="#666666"
     borderopacity="1"
     objecttolerance="10"
     gridtolerance="10"
     guidetolerance="10"
     inkscape:pageopacity="0"
     inkscape:pageshadow="2"
     inkscape:window-width="453"
     inkscape:window-height="743"
     id="namedview4"
     showgrid="false"
     inkscape:zoom="1.4988103"
     inkscape:cx="82.093759"
     inkscape:cy="82.112"
     inkscape:window-x="456"
     inkscape:window-y="0"
     inkscape:window-maximized="0"
     inkscape:current-layer="g10" /><g
     id="g10"
     inkscape:groupmode="layer"
     inkscape:label="predecessor_map"
     transform="matrix(1.3333333,0,0,-1.3333333,0,164.224)"><g
       id="g12"
       transform="translate(15.639,10.959)"><g
         id="g14"><g
           id="g16" /><g
           id="g18"><g
             id="g20"><g
               id="g22"><path
                 d="m 9.96277,102.04868 c 0,5.50235 -4.46042,9.96276 -9.96277,9.96276 -5.50235,0 -9.96277,-4.46041 -9.96277,-9.96276 0,-5.50237 4.46042,-9.96278 9.96277,-9.96278 5.50235,0 9.96277,4.46041 9.96277,9.96278 z"
                 style="fill:none;stroke:#595959;stroke-width:0.3985;stroke-linecap:butt;stroke-linejoin:miter;stroke-miterlimit:10;stroke-dasharray:none;stroke-opacity:1"
                 id="path24"
                 inkscape:connector-curvature="0" /></g><g
               id="g26"
               transform="translate(-2.929,99.821)"><g
                 id="g28"><g
                   id="g30"
                   transform="translate(-12.71,-110.78)"><text
                     transform="matrix(1,0,0,-1,12.909,110.78)"
                     style="font-style:italic;font-variant:normal;font-size:9.16559982px;font-family:Utopia;-inkscape-font-specification:Utopia-Italic;writing-mode:lr-tb;fill:#000000;fill-opacity:1;fill-rule:nonzero;stroke:none"
                     id="text34"><tspan
                       x="0"
                       y="0"
                       id="tspan32">a</tspan></text>
<g
                     id="g36"
                     transform="translate(12.71,110.78)" /></g></g><g
                 id="g38"
                 transform="translate(2.929,-99.821)" /></g></g><g
             id="g40"><g
               id="g42"><path
                 d="m 60.98709,102.04868 c 0,5.50235 -4.46042,9.96276 -9.96277,9.96276 -5.50235,0 -9.96277,-4.46041 -9.96277,-9.96276 0,-5.50237 4.46042,-9.96278 9.96277,-9.96278 5.50235,0 9.96277,4.46041 9.96277,9.96278 z"
                 style="fill:none;stroke:#595959;stroke-width:0.3985;stroke-linecap:butt;stroke-linejoin:miter;stroke-miterlimit:10;stroke-dasharray:none;stroke-opacity:1"
                 id="path44"
                 inkscape:connector-curvature="0" /></g><g
               id="g46"
               transform="translate(48.214,98.662)"><g
                 id="g48"><g
                   id="g50"
                   transform="translate(-63.853,-109.621)"><text
                     transform="matrix(1,0,0,-1,63.853,109.621)"
                     style="font-style:italic;font-variant:normal;font-size:9.16559982px;font-family:Utopia;-inkscape-font-specification:Utopia-Italic;writing-mode:lr-tb;fill:#000000;fill-opacity:1;fill-rule:nonzero;stroke:none"
                     id="text54"><tspan
                       x="0"
                       y="0"
                       id="tspan52">b</tspan></text>
<g
                     id="g56"
                     transform="translate(63.853,109.621)" /></g></g><g
                 id="g58"
                 transform="translate(-48.214,-98.662)" /></g></g><g
             id="g60"><g
               id="g62"><path
                 d="m 112.01144,102.04868 c 0,5.50235 -4.46041,9.96276 -9.96276,9.96276 -5.50237,0 -9.96278,-4.46041 -9.96278,-9.96276 0,-5.50237 4.46041,-9.96278 9.96278,-9.96278 5.50235,0 9.96276,4.46041 9.96276,9.96278 z"
                 style="fill:none;stroke:#595959;stroke-width:0.3985;stroke-linecap:butt;stroke-linejoin:miter;stroke-miterlimit:10;stroke-dasharray:none;stroke-opacity:1"
                 id="path64"
                 inkscape:connector-curvature="0" /></g><g
               id="g66"
               transform="translate(99.666,99.821)"><g
                 id="g68"><g
                   id="g70"
                   transform="translate(-115.305,-110.78)"><text
                     transform="matrix(1,0,0,-1,115.305,110.78)"
                     style="font-style:italic;font-variant:normal;font-size:9.16559982px;font-family:Utopia;-inkscape-font-specification:Utopia-Italic;writing-mode:lr-tb;fill:#000000;fill-opacity:1;fill-rule:nonzero;stroke:none"
                     id="text74"><tspan
                       x="0"
                       y="0"
                       id="tspan72">c</tspan></text>
<g
                     id="g76"
                     transform="translate(115.305,110.78)" /></g></g><g
                 id="g78"
                 transform="translate(-99.666,-99.821)" /></g></g><g
             id="g80"><g
               id="g82"><path
                 d="m 9.96277,51.02432 c 0,5.50235 -4.46042,9.96277 -9.96277,9.96277 -5.50235,0 -9.96277,-4.46042 -9.96277,-9.96277 0,-5.50235 4.46042,-9.96277 9.96277,-9.96277 5.50235,0 9.96277,4.46042 9.96277,9.96277 z"
                 style="fill:none;stroke:#595959;stroke-width:0.3985;stroke-linecap:butt;stroke-linejoin:miter;stroke-miterlimit:10;stroke-dasharray:none;stroke-opacity:1"
                 id="path84"
                 inkscape:connector-curvature="0" /></g><g
               id="g86"
               transform="translate(-3.154,47.639)"><g
                 id="g88"><g
                   id="g90"
                   transform="translate(-12.485,-58.598)"><text
                     transform="matrix(1,0,0,-1,12.485,58.598)"
                     style="font-style:italic;font-variant:normal;font-size:9.16559982px;font-family:Utopia;-inkscape-font-specification:Utopia-Italic;writing-mode:lr-tb;fill:#000000;fill-opacity:1;fill-rule:nonzero;stroke:none"
                     id="text94"><tspan
                       x="0"
                       y="0"
                       id="tspan92">d</tspan></text>
<g
                     id="g96"
                     transform="translate(12.485,58.598)" /></g></g><g
                 id="g98"
                 transform="translate(3.154,-47.639)" /></g></g><g
             id="g100"><g
               id="g102"><path
                 d="m 60.98709,51.02432 c 0,5.50235 -4.46042,9.96277 -9.96277,9.96277 -5.50235,0 -9.96277,-4.46042 -9.96277,-9.96277 0,-5.50235 4.46042,-9.96277 9.96277,-9.96277 5.50235,0 9.96277,4.46042 9.96277,9.96277 z"
                 style="fill:none;stroke:#595959;stroke-width:0.3985;stroke-linecap:butt;stroke-linejoin:miter;stroke-miterlimit:10;stroke-dasharray:none;stroke-opacity:1"
                 id="path104"
                 inkscape:connector-curvature="0" /></g><g
               id="g106"
               transform="translate(48.612,48.797)"><g
                 id="g108"><g
                   id="g110"
                   transform="translate(-64.251,-59.756)"><text
                     transform="matrix(1,0,0,-1,64.251,59.756)"
                     style="font-style:italic;font-variant:normal;font-size:9.16559982px;font-family:Utopia;-inkscape-font-specification:Utopia-Italic;writing-mode:lr-tb;fill:#000000;fill-opacity:1;fill-rule:nonzero;stroke:none"
                     id="text114"><tspan
                       x="0"
                       y="0"
                       id="tspan112">e</tspan></text>
<g
                     id="g116"
                     transform="translate(64.251,59.756)" /></g></g><g
                 id="g118"
                 transform="translate(-48.612,-48.797)" /></g></g><g
             id="g120"><g
               id="g122"><path
                 d="m 112.01144,51.02432 c 0,5.50235 -4.46041,9.96277 -9.96276,9.96277 -5.50237,0 -9.96278,-4.46042 -9.96278,-9.96277 0,-5.50235 4.46041,-9.96277 9.96278,-9.96277 5.50235,0 9.96276,4.46042 9.96276,9.96277 z"
                 style="fill:none;stroke:#595959;stroke-width:0.3985;stroke-linecap:butt;stroke-linejoin:miter;stroke-miterlimit:10;stroke-dasharray:none;stroke-opacity:1"
                 id="path124"
                 inkscape:connector-curvature="0" /></g><g
               id="g126"
               transform="translate(98.988,48.725)"><g
                 id="g128"><g
                   id="g130"
                   transform="translate(-114.627,-59.684)"><text
                     transform="matrix(1,0,0,-1,115.624,59.684)"
                     style="font-style:italic;font-variant:normal;font-size:9.16559982px;font-family:Utopia;-inkscape-font-specification:Utopia-Italic;writing-mode:lr-tb;fill:#000000;fill-opacity:1;fill-rule:nonzero;stroke:none"
                     id="text134"><tspan
                       x="0"
                       y="0"
                       id="tspan132">f</tspan></text>
<g
                     id="g136"
                     transform="translate(114.627,59.684)" /></g></g><g
                 id="g138"
                 transform="translate(-98.988,-48.725)" /></g></g><g
             id="g140"><g
               id="g142"><path
                 d="M 9.96277,0 C 9.96277,5.50235 5.50235,9.96277 0,9.96277 -5.50235,9.96277 -9.96277,5.50235 -9.96277,0 c 0,-5.50235 4.46042,-9.96277 9.96277,-9.96277 5.50235,0 9.96277,4.46042 9.96277,9.96277 z"
                 style="fill:none;stroke:#595959;stroke-width:0.3985;stroke-linecap:butt;stroke-linejoin:miter;stroke-miterlimit:10;stroke-dasharray:none;stroke-opacity:1"
                 id="path144"
                 inkscape:connector-curvature="0" /></g><g
               id="g146"
               transform="translate(-2.974,-1.213)"><g
                 id="g148"><g
                   id="g150"
                   transform="translate(-12.665,-9.746)"><text
                     transform="matrix(1,0,0,-1,12.864,9.746)"
                     style="font-style:italic;font-variant:normal;font-size:9.16559982px;font-family:Utopia;-inkscape-font-specification:Utopia-Italic;writing-mode:lr-tb;fill:#000000;fill-opacity:1;fill-rule:nonzero;stroke:none"
                     id="text154"><tspan
                       x="0"
                       y="0"
                       id="tspan152">g</tspan></text>
<g
                     id="g156"
                     transform="translate(12.665,9.746)" /></g></g><g
                 id="g158"
                 transform="translate(2.974,1.213)" /></g></g><g
             id="g160"><g
               id="g162"><path
                 d="m 9.56262,105.54659 c 11.69218,4.25566 20.21408,4.25611 31.24071,0.24267"
                 style="fill:none;stroke:#000000;stroke-width:0.79701;stroke-linecap:butt;stroke-linejoin:miter;stroke-miterlimit:10;stroke-dasharray:none;stroke-opacity:1"
                 id="path164"
                 inkscape:connector-curvature="0" /><g
                 id="g166"
                 transform="matrix(0.94089,-0.34244,0.34244,0.94089,40.80331,105.78928)"><g
                   id="g168"><path
                     d="M -1.55415,2.0722 C -1.42464,1.29512 0,0.1295 0.38852,0 0,-0.1295 -1.42464,-1.29512 -1.55415,-2.0722"
                     style="fill:none;stroke:#000000;stroke-width:0.6376;stroke-linecap:round;stroke-linejoin:round;stroke-miterlimit:10;stroke-dasharray:none;stroke-opacity:1"
                     id="path170"
                     inkscape:connector-curvature="0" /></g></g><g
                 id="g172"><g
                   id="g174"
                   transform="translate(23.327,102.317)"><g
                     id="g176"><g
                       id="g178"
                       transform="translate(-38.966,-113.276)"><text
                         transform="matrix(1,0,0,-1,38.966,113.276)"
                         style="font-variant:normal;font-weight:normal;font-size:8.24909973px;font-family:Utopia;-inkscape-font-specification:Utopia-Regular;writing-mode:lr-tb;fill:#000000;fill-opacity:1;fill-rule:nonzero;stroke:none"
                         id="text182"><tspan
                           x="0"
                           y="0"
                           id="tspan180">4</tspan></text>
<g
                         id="g184"
                         transform="translate(38.966,113.276)" /></g></g><g
                     id="g186"
                     transform="translate(-23.327,-102.317)" /></g></g></g></g><g
             id="g188"><g
               id="g190"><path
                 d="M 41.46887,98.58513 C 29.7767,94.32948 21.2548,94.3298 10.22816,98.34323"
                 style="fill:none;stroke:#000000;stroke-width:0.79701;stroke-linecap:butt;stroke-linejoin:miter;stroke-miterlimit:10;stroke-dasharray:none;stroke-opacity:1"
                 id="path192"
                 inkscape:connector-curvature="0" /><g
                 id="g194"
                 transform="matrix(-0.94089,0.34244,-0.34244,-0.94089,10.22818,98.34322)"><g
                   id="g196"><path
                     d="M -1.55415,2.0722 C -1.42464,1.29512 0,0.1295 0.38852,0 0,-0.1295 -1.42464,-1.29512 -1.55415,-2.0722"
                     style="fill:none;stroke:#000000;stroke-width:0.6376;stroke-linecap:round;stroke-linejoin:round;stroke-miterlimit:10;stroke-dasharray:none;stroke-opacity:1"
                     id="path198"
                     inkscape:connector-curvature="0" /></g></g><g
                 id="g200"><g
                   id="g202"
                   transform="translate(23.327,89.393)"><g
                     id="g204"><g
                       id="g206"
                       transform="translate(-38.966,-100.352)"><text
                         transform="matrix(1,0,0,-1,38.966,100.352)"
                         style="font-variant:normal;font-weight:normal;font-size:8.24909973px;font-family:Utopia;-inkscape-font-specification:Utopia-Regular;writing-mode:lr-tb;fill:#000000;fill-opacity:1;fill-rule:nonzero;stroke:none"
                         id="text210"><tspan
                           x="0"
                           y="0"
                           id="tspan208">7</tspan></text>
<g
                         id="g212"
                         transform="translate(38.966,100.352)" /></g></g><g
                     id="g214"
                     transform="translate(-23.327,-89.393)" /></g></g></g></g><g
             id="g216"><g
               id="g218"><path
                 d="M 3.4814,92.50047 C 7.7367,80.8082 7.7357,72.2863 3.72197,61.25977"
                 style="fill:none;stroke:#000000;stroke-width:0.79701;stroke-linecap:butt;stroke-linejoin:miter;stroke-miterlimit:10;stroke-dasharray:none;stroke-opacity:1"
                 id="path220"
                 inkscape:connector-curvature="0" /><g
                 id="g222"
                 transform="matrix(-0.3425,-0.94089,0.94089,-0.3425,3.72198,61.25978)"><g
                   id="g224"><path
                     d="M -1.55415,2.0722 C -1.42464,1.29512 0,0.1295 0.38852,0 0,-0.1295 -1.42464,-1.29512 -1.55415,-2.0722"
                     style="fill:none;stroke:#000000;stroke-width:0.6376;stroke-linecap:round;stroke-linejoin:round;stroke-miterlimit:10;stroke-dasharray:none;stroke-opacity:1"
                     id="path226"
                     inkscape:connector-curvature="0" /></g></g><g
                 id="g228"><g
                   id="g230"
                   transform="translate(1.399,73.807)"><g
                     id="g232"><g
                       id="g234"
                       transform="translate(-17.038,-84.766)"><text
                         transform="matrix(1,0,0,-1,17.038,84.766)"
                         style="font-variant:normal;font-weight:normal;font-size:8.24909973px;font-family:Utopia;-inkscape-font-specification:Utopia-Regular;writing-mode:lr-tb;fill:#000000;fill-opacity:1;fill-rule:nonzero;stroke:none"
                         id="text238"><tspan
                           x="0"
                           y="0"
                           id="tspan236">3</tspan></text>
<g
                         id="g240"
                         transform="translate(17.038,84.766)" /></g></g><g
                     id="g242"
                     transform="translate(-1.399,-73.807)" /></g></g></g></g><g
             id="g244"><g
               id="g246"><path
                 d="M -3.4797,60.59422 C -7.7357,72.2863 -7.7367,80.8082 -3.72362,91.83493"
                 style="fill:none;stroke:#000000;stroke-width:0.79701;stroke-linecap:butt;stroke-linejoin:miter;stroke-miterlimit:10;stroke-dasharray:none;stroke-opacity:1"
                 id="path248"
                 inkscape:connector-curvature="0" /><g
                 id="g250"
                 transform="matrix(0.34242,0.94089,-0.94089,0.34242,-3.72363,91.83492)"><g
                   id="g252"><path
                     d="M -1.55415,2.0722 C -1.42464,1.29512 0,0.1295 0.38852,0 0,-0.1295 -1.42464,-1.29512 -1.55415,-2.0722"
                     style="fill:none;stroke:#000000;stroke-width:0.6376;stroke-linecap:round;stroke-linejoin:round;stroke-miterlimit:10;stroke-dasharray:none;stroke-opacity:1"
                     id="path254"
                     inkscape:connector-curvature="0" /></g></g><g
                 id="g256"><g
                   id="g258"
                   transform="translate(-12.717,73.807)"><g
                     id="g260"><g
                       id="g262"
                       transform="translate(-2.922,-84.766)"><text
                         transform="matrix(1,0,0,-1,2.922,84.766)"
                         style="font-variant:normal;font-weight:normal;font-size:8.24909973px;font-family:Utopia;-inkscape-font-specification:Utopia-Regular;writing-mode:lr-tb;fill:#000000;fill-opacity:1;fill-rule:nonzero;stroke:none"
                         id="text266"><tspan
                           x="0"
                           y="0"
                           id="tspan264">8</tspan></text>
<g
                         id="g268"
                         transform="translate(2.922,84.766)" /></g></g><g
                     id="g270"
                     transform="translate(12.717,-73.807)" /></g></g></g></g><g
             id="g272"><g
               id="g274"><path
                 d="m 60.59422,105.54582 c 11.69208,4.25601 20.21398,4.25698 31.24071,0.2439"
                 style="fill:none;stroke:#000000;stroke-width:0.79701;stroke-linecap:butt;stroke-linejoin:miter;stroke-miterlimit:10;stroke-dasharray:none;stroke-opacity:1"
                 id="path276"
                 inkscape:connector-curvature="0" /><g
                 id="g278"
                 transform="matrix(0.94089,-0.3424,0.3424,0.94089,91.83492,105.78973)"><g
                   id="g280"><path
                     d="M -1.55415,2.0722 C -1.42464,1.29512 0,0.1295 0.38852,0 0,-0.1295 -1.42464,-1.29512 -1.55415,-2.0722"
                     style="fill:none;stroke:#000000;stroke-width:0.6376;stroke-linecap:round;stroke-linejoin:round;stroke-miterlimit:10;stroke-dasharray:none;stroke-opacity:1"
                     id="path282"
                     inkscape:connector-curvature="0" /></g></g><g
                 id="g284"><g
                   id="g286"
                   transform="translate(74.358,102.317)"><g
                     id="g288"><g
                       id="g290"
                       transform="translate(-89.997,-113.276)"><text
                         transform="matrix(1,0,0,-1,89.997,113.276)"
                         style="font-variant:normal;font-weight:normal;font-size:8.24909973px;font-family:Utopia;-inkscape-font-specification:Utopia-Regular;writing-mode:lr-tb;fill:#000000;fill-opacity:1;fill-rule:nonzero;stroke:none"
                         id="text294"><tspan
                           x="0"
                           y="0"
                           id="tspan292">6</tspan></text>
<g
                         id="g296"
                         transform="translate(89.997,113.276)" /></g></g><g
                     id="g298"
                     transform="translate(-74.358,-102.317)" /></g></g></g></g><g
             id="g300"><g
               id="g302"><path
                 d="M 92.50047,98.58466 C 80.8082,94.32938 72.2863,94.33038 61.25977,98.34413"
                 style="fill:none;stroke:#000000;stroke-width:0.79701;stroke-linecap:butt;stroke-linejoin:miter;stroke-miterlimit:10;stroke-dasharray:none;stroke-opacity:1"
                 id="path304"
                 inkscape:connector-curvature="0" /><g
                 id="g306"
                 transform="matrix(-0.94089,0.3425,-0.3425,-0.94089,61.25978,98.34412)"><g
                   id="g308"><path
                     d="M -1.55415,2.0722 C -1.42464,1.29512 0,0.1295 0.38852,0 0,-0.1295 -1.42464,-1.29512 -1.55415,-2.0722"
                     style="fill:none;stroke:#000000;stroke-width:0.6376;stroke-linecap:round;stroke-linejoin:round;stroke-miterlimit:10;stroke-dasharray:none;stroke-opacity:1"
                     id="path310"
                     inkscape:connector-curvature="0" /></g></g><g
                 id="g312"><g
                   id="g314"
                   transform="translate(74.358,89.393)"><g
                     id="g316"><g
                       id="g318"
                       transform="translate(-89.997,-100.352)"><text
                         transform="matrix(1,0,0,-1,89.997,100.352)"
                         style="font-variant:normal;font-weight:normal;font-size:8.24909973px;font-family:Utopia;-inkscape-font-specification:Utopia-Regular;writing-mode:lr-tb;fill:#000000;fill-opacity:1;fill-rule:nonzero;stroke:none"
                         id="text322"><tspan
                           x="0"
                           y="0"
                           id="tspan320">5</tspan></text>
<g
                         id="g324"
                         transform="translate(89.997,100.352)" /></g></g><g
                     id="g326"
                     transform="translate(-74.358,-89.393)" /></g></g></g></g><g
             id="g328"><g
               id="g330"><path
                 d="M 54.51436,92.50047 C 58.76965,80.8082 58.76866,72.2863 54.75493,61.25977"
                 style="fill:none;stroke:#000000;stroke-width:0.79701;stroke-linecap:butt;stroke-linejoin:miter;stroke-miterlimit:10;stroke-dasharray:none;stroke-opacity:1"
                 id="path332"
                 inkscape:connector-curvature="0" /><g
                 id="g334"
                 transform="matrix(-0.3425,-0.94089,0.94089,-0.3425,54.75494,61.25978)"><g
                   id="g336"><path
                     d="M -1.55415,2.0722 C -1.42464,1.29512 0,0.1295 0.38852,0 0,-0.1295 -1.42464,-1.29512 -1.55415,-2.0722"
                     style="fill:none;stroke:#000000;stroke-width:0.6376;stroke-linecap:round;stroke-linejoin:round;stroke-miterlimit:10;stroke-dasharray:none;stroke-opacity:1"
                     id="path338"
                     inkscape:connector-curvature="0" /></g></g><g
                 id="g340"><g
                   id="g342"
                   transform="translate(52.432,73.785)"><g
                     id="g344"><g
                       id="g346"
                       transform="translate(-68.071,-84.744)"><text
                         transform="matrix(1,0,0,-1,68.071,84.744)"
                         style="font-variant:normal;font-weight:normal;font-size:8.24909973px;font-family:Utopia;-inkscape-font-specification:Utopia-Regular;writing-mode:lr-tb;fill:#000000;fill-opacity:1;fill-rule:nonzero;stroke:none"
                         id="text350"><tspan
                           x="0"
                           y="0"
                           id="tspan348">4</tspan></text>
<g
                         id="g352"
                         transform="translate(68.071,84.744)" /></g></g><g
                     id="g354"
                     transform="translate(-52.432,-73.785)" /></g></g></g></g><g
             id="g356"><g
               id="g358"><path
                 d="M 47.55336,60.59422 C 43.29736,72.2863 43.29625,80.8082 47.30933,91.83493"
                 style="fill:none;stroke:#000000;stroke-width:0.79701;stroke-linecap:butt;stroke-linejoin:miter;stroke-miterlimit:10;stroke-dasharray:none;stroke-opacity:1"
                 id="path360"
                 inkscape:connector-curvature="0" /><g
                 id="g362"
                 transform="matrix(0.34242,0.94089,-0.94089,0.34242,47.30931,91.83492)"><g
                   id="g364"><path
                     d="M -1.55415,2.0722 C -1.42464,1.29512 0,0.1295 0.38852,0 0,-0.1295 -1.42464,-1.29512 -1.55415,-2.0722"
                     style="fill:none;stroke:#000000;stroke-width:0.6376;stroke-linecap:round;stroke-linejoin:round;stroke-miterlimit:10;stroke-dasharray:none;stroke-opacity:1"
                     id="path366"
                     inkscape:connector-curvature="0" /></g></g><g
                 id="g368"><g
                   id="g370"
                   transform="translate(38.315,73.807)"><g
                     id="g372"><g
                       id="g374"
                       transform="translate(-53.954,-84.766)"><text
                         transform="matrix(1,0,0,-1,53.954,84.766)"
                         style="font-variant:normal;font-weight:normal;font-size:8.24909973px;font-family:Utopia;-inkscape-font-specification:Utopia-Regular;writing-mode:lr-tb;fill:#000000;fill-opacity:1;fill-rule:nonzero;stroke:none"
                         id="text378"><tspan
                           x="0"
                           y="0"
                           id="tspan376">9</tspan></text>
<g
                         id="g380"
                         transform="translate(53.954,84.766)" /></g></g><g
                     id="g382"
                     transform="translate(-38.315,-73.807)" /></g></g></g></g><g
             id="g384"><g
               id="g386"><path
                 d="M 41.46887,47.55196 C 29.7767,43.29633 21.2548,43.29683 10.22816,47.31026"
                 style="fill:none;stroke:#000000;stroke-width:0.79701;stroke-linecap:butt;stroke-linejoin:miter;stroke-miterlimit:10;stroke-dasharray:none;stroke-opacity:1"
                 id="path388"
                 inkscape:connector-curvature="0" /><g
                 id="g390"
                 transform="matrix(-0.94089,0.34244,-0.34244,-0.94089,10.22818,47.31024)"><g
                   id="g392"><path
                     d="M -1.55415,2.0722 C -1.42464,1.29512 0,0.1295 0.38852,0 0,-0.1295 -1.42464,-1.29512 -1.55415,-2.0722"
                     style="fill:none;stroke:#000000;stroke-width:0.6376;stroke-linecap:round;stroke-linejoin:round;stroke-miterlimit:10;stroke-dasharray:none;stroke-opacity:1"
                     id="path394"
                     inkscape:connector-curvature="0" /></g></g><g
                 id="g396"><g
                   id="g398"
                   transform="translate(23.327,45.301)"><g
                     id="g400"><g
                       id="g402"
                       transform="translate(-38.966,-56.26)"><text
                         transform="matrix(1,0,0,-1,38.966,56.26)"
                         style="font-variant:normal;font-weight:normal;font-size:8.24909973px;font-family:Utopia;-inkscape-font-specification:Utopia-Regular;writing-mode:lr-tb;fill:#000000;fill-opacity:1;fill-rule:nonzero;stroke:none"
                         id="text406"><tspan
                           x="0"
                           y="0"
                           id="tspan404">7</tspan></text>
<g
                         id="g408"
                         transform="translate(38.966,56.26)" /></g></g><g
                     id="g410"
                     transform="translate(-23.327,-45.301)" /></g></g></g></g><g
             id="g412"><g
               id="g414"><path
                 d="M -3.48047,9.56262 C -7.73611,21.2548 -7.73659,29.7767 -3.72316,40.80333"
                 style="fill:none;stroke:#000000;stroke-width:0.79701;stroke-linecap:butt;stroke-linejoin:miter;stroke-miterlimit:10;stroke-dasharray:none;stroke-opacity:1"
                 id="path416"
                 inkscape:connector-curvature="0" /><g
                 id="g418"
                 transform="matrix(0.34244,0.94089,-0.94089,0.34244,-3.72318,40.80331)"><g
                   id="g420"><path
                     d="M -1.55415,2.0722 C -1.42464,1.29512 0,0.1295 0.38852,0 0,-0.1295 -1.42464,-1.29512 -1.55415,-2.0722"
                     style="fill:none;stroke:#000000;stroke-width:0.6376;stroke-linecap:round;stroke-linejoin:round;stroke-miterlimit:10;stroke-dasharray:none;stroke-opacity:1"
                     id="path422"
                     inkscape:connector-curvature="0" /></g></g><g
                 id="g424"><g
                   id="g426"
                   transform="translate(-5.776,22.754)"><g
                     id="g428"><g
                       id="g430"
                       transform="translate(-9.863,-33.713)"><text
                         transform="matrix(1,0,0,-1,9.863,33.713)"
                         style="font-variant:normal;font-weight:normal;font-size:8.24909973px;font-family:Utopia;-inkscape-font-specification:Utopia-Regular;writing-mode:lr-tb;fill:#000000;fill-opacity:1;fill-rule:nonzero;stroke:none"
                         id="text434"><tspan
                           x="0"
                           y="0"
                           id="tspan432">1</tspan></text>
<g
                         id="g436"
                         transform="translate(9.863,33.713)" /></g></g><g
                     id="g438"
                     transform="translate(5.776,-22.754)" /></g></g></g></g><g
             id="g440"><g
               id="g442"><path
                 d="M 92.50047,47.55154 C 80.8082,43.29625 72.2863,43.29736 61.25977,47.3111"
                 style="fill:none;stroke:#000000;stroke-width:0.79701;stroke-linecap:butt;stroke-linejoin:miter;stroke-miterlimit:10;stroke-dasharray:none;stroke-opacity:1"
                 id="path444"
                 inkscape:connector-curvature="0" /><g
                 id="g446"
                 transform="matrix(-0.94089,0.3425,-0.3425,-0.94089,61.25978,47.31108)"><g
                   id="g448"><path
                     d="M -1.55415,2.0722 C -1.42464,1.29512 0,0.1295 0.38852,0 0,-0.1295 -1.42464,-1.29512 -1.55415,-2.0722"
                     style="fill:none;stroke:#000000;stroke-width:0.6376;stroke-linecap:round;stroke-linejoin:round;stroke-miterlimit:10;stroke-dasharray:none;stroke-opacity:1"
                     id="path450"
                     inkscape:connector-curvature="0" /></g></g><g
                 id="g452"><g
                   id="g454"
                   transform="translate(72.17,45.302)"><g
                     id="g456"><g
                       id="g458"
                       transform="translate(-87.809,-56.261)"><text
                         transform="matrix(1,0,0,-1,87.809,56.261)"
                         style="font-variant:normal;font-weight:normal;font-size:8.24909973px;font-family:Utopia;-inkscape-font-specification:Utopia-Regular;writing-mode:lr-tb;fill:#000000;fill-opacity:1;fill-rule:nonzero;stroke:none"
                         id="text462"><tspan
                           x="0 4.3720231"
                           y="0"
                           sodipodi:role="line"
                           id="tspan460">15</tspan></text>
<g
                         id="g464"
                         transform="translate(87.809,56.261)" /></g></g><g
                     id="g466"
                     transform="translate(-72.17,-45.302)" /></g></g></g></g><g
             id="g468"><g
               id="g470"><path
                 d="m 10.95905,96.07101 c 0,2.75118 -2.23021,4.98139 -4.98139,4.98139 -2.75119,0 -4.98138,-2.23021 -4.98138,-4.98139 0,-2.75119 2.23019,-4.98138 4.98138,-4.98138 2.75118,0 4.98139,2.23019 4.98139,4.98138 z"
                 style="fill:#80ff80;fill-opacity:1;fill-rule:nonzero;stroke:none"
                 id="path472"
                 inkscape:connector-curvature="0" /></g><g
               id="g474"
               transform="translate(3.833,93.768)"><g
                 id="g476"><g
                   id="g478"
                   transform="translate(-19.472,-104.727)"><text
                     transform="matrix(1,0,0,-1,19.472,104.727)"
                     style="font-style:italic;font-variant:normal;font-size:6.23260021px;font-family:Utopia;-inkscape-font-specification:Utopia-Italic;writing-mode:lr-tb;fill:#000000;fill-opacity:1;fill-rule:nonzero;stroke:none"
                     id="text482"><tspan
                       x="0"
                       y="0"
                       id="tspan480">d</tspan></text>
<g
                     id="g484"
                     transform="translate(19.472,104.727)" /></g></g><g
                 id="g486"
                 transform="translate(-3.833,-93.768)" /></g></g><g
             id="g488"><g
               id="g490"><path
                 d="m 61.98337,96.07101 c 0,2.75118 -2.23021,4.98139 -4.98139,4.98139 -2.75117,0 -4.98138,-2.23021 -4.98138,-4.98139 0,-2.75119 2.23021,-4.98138 4.98138,-4.98138 2.75118,0 4.98139,2.23019 4.98139,4.98138 z"
                 style="fill:#80ff80;fill-opacity:1;fill-rule:nonzero;stroke:none"
                 id="path492"
                 inkscape:connector-curvature="0" /></g><g
               id="g494"
               transform="translate(55.009,94.556)"><g
                 id="g496"><g
                   id="g498"
                   transform="translate(-70.648,-105.515)"><text
                     transform="matrix(1,0,0,-1,70.784,105.515)"
                     style="font-style:italic;font-variant:normal;font-size:6.23260021px;font-family:Utopia;-inkscape-font-specification:Utopia-Italic;writing-mode:lr-tb;fill:#000000;fill-opacity:1;fill-rule:nonzero;stroke:none"
                     id="text502"><tspan
                       x="0"
                       y="0"
                       id="tspan500">a</tspan></text>
<g
                     id="g504"
                     transform="translate(70.648,105.515)" /></g></g><g
                 id="g506"
                 transform="translate(-55.009,-94.556)" /></g></g><g
             id="g508"><g
               id="g510"><path
                 d="m 113.00772,96.07101 c 0,2.75118 -2.23021,4.98139 -4.98138,4.98139 -2.75119,0 -4.98139,-2.23021 -4.98139,-4.98139 0,-2.75119 2.2302,-4.98138 4.98139,-4.98138 2.75117,0 4.98138,2.23019 4.98138,4.98138 z"
                 style="fill:#80ff80;fill-opacity:1;fill-rule:nonzero;stroke:none"
                 id="path512"
                 inkscape:connector-curvature="0" /></g><g
               id="g514"
               transform="translate(106.114,93.768)"><g
                 id="g516"><g
                   id="g518"
                   transform="translate(-121.753,-104.727)"><text
                     transform="matrix(1,0,0,-1,121.753,104.727)"
                     style="font-style:italic;font-variant:normal;font-size:6.23260021px;font-family:Utopia;-inkscape-font-specification:Utopia-Italic;writing-mode:lr-tb;fill:#000000;fill-opacity:1;fill-rule:nonzero;stroke:none"
                     id="text522"><tspan
                       x="0"
                       y="0"
                       id="tspan520">b</tspan></text>
<g
                     id="g524"
                     transform="translate(121.753,104.727)" /></g></g><g
                 id="g526"
                 transform="translate(-106.114,-93.768)" /></g></g><g
             id="g528"><g
               id="g530"><path
                 d="m 10.95905,45.04666 c 0,2.75118 -2.23021,4.98139 -4.98139,4.98139 -2.75119,0 -4.98138,-2.23021 -4.98138,-4.98139 0,-2.75117 2.23019,-4.98138 4.98138,-4.98138 2.75118,0 4.98139,2.23021 4.98139,4.98138 z"
                 style="fill:#80ff80;fill-opacity:1;fill-rule:nonzero;stroke:none"
                 id="path532"
                 inkscape:connector-curvature="0" /></g><g
               id="g534"
               transform="translate(4.338,43.532)"><g
                 id="g536"><g
                   id="g538"
                   transform="translate(-19.977,-54.491)"><text
                     transform="matrix(1,0,0,-1,19.977,54.491)"
                     style="font-style:italic;font-variant:normal;font-size:6.23260021px;font-family:Utopia;-inkscape-font-specification:Utopia-Italic;writing-mode:lr-tb;fill:#000000;fill-opacity:1;fill-rule:nonzero;stroke:none"
                     id="text542"><tspan
                       x="0"
                       y="0"
                       id="tspan540">e</tspan></text>
<g
                     id="g544"
                     transform="translate(19.977,54.491)" /></g></g><g
                 id="g546"
                 transform="translate(-4.338,-43.532)" /></g></g><g
             id="g548"><g
               id="g550"><path
                 d="m 61.98337,45.04666 c 0,2.75118 -2.23021,4.98139 -4.98139,4.98139 -2.75117,0 -4.98138,-2.23021 -4.98138,-4.98139 0,-2.75117 2.23021,-4.98138 4.98138,-4.98138 2.75118,0 4.98139,2.23021 4.98139,4.98138 z"
                 style="fill:#80ff80;fill-opacity:1;fill-rule:nonzero;stroke:none"
                 id="path552"
                 inkscape:connector-curvature="0" /></g><g
               id="g554"
               transform="translate(55.09,42.744)"><g
                 id="g556"><g
                   id="g558"
                   transform="translate(-70.729,-53.703)"><text
                     transform="matrix(1,0,0,-1,70.729,53.703)"
                     style="font-style:italic;font-variant:normal;font-size:6.23260021px;font-family:Utopia;-inkscape-font-specification:Utopia-Italic;writing-mode:lr-tb;fill:#000000;fill-opacity:1;fill-rule:nonzero;stroke:none"
                     id="text562"><tspan
                       x="0"
                       y="0"
                       id="tspan560">b</tspan></text>
<g
                     id="g564"
                     transform="translate(70.729,53.703)" /></g></g><g
                 id="g566"
                 transform="translate(-55.09,-42.744)" /></g></g><g
             id="g568"><g
               id="g570"><path
                 d="m 113.00772,45.04666 c 0,2.75118 -2.23021,4.98139 -4.98138,4.98139 -2.75119,0 -4.98139,-2.23021 -4.98139,-4.98139 0,-2.75117 2.2302,-4.98138 4.98139,-4.98138 2.75117,0 4.98138,2.23021 4.98138,4.98138 z"
                 style="fill:#80ff80;fill-opacity:1;fill-rule:nonzero;stroke:none"
                 id="path572"
                 inkscape:connector-curvature="0" /></g><g
               id="g574"
               transform="translate(105.3,43.337)"><g
                 id="g576"><g
                   id="g578"
                   transform="translate(-120.939,-54.296)"><text
                     transform="matrix(1,0,0,-1,120.939,54.296)"
                     style="font-variant:normal;font-weight:normal;font-size:4.58279991px;font-family:Utopia;-inkscape-font-specification:Utopia-Regular;writing-mode:lr-tb;fill:#000000;fill-opacity:1;fill-rule:nonzero;stroke:none"
                     id="text582"><tspan
                       x="0 2.8321705 4.1703482"
                       y="0"
                       sodipodi:role="line"
                       id="tspan580">nil</tspan></text>
<g
                     id="g584"
                     transform="translate(120.939,54.296)" /></g></g><g
                 id="g586"
                 transform="translate(-105.3,-43.337)" /></g></g><g
             id="g588"><g
               id="g590"><path
                 d="m 10.95905,-5.97766 c 0,2.75119 -2.23021,4.98138 -4.98139,4.98138 -2.75119,0 -4.98138,-2.23019 -4.98138,-4.98138 0,-2.75118 2.23019,-4.98139 4.98138,-4.98139 2.75118,0 4.98139,2.23021 4.98139,4.98139 z"
                 style="fill:#80ff80;fill-opacity:1;fill-rule:nonzero;stroke:none"
                 id="path592"
                 inkscape:connector-curvature="0" /></g><g
               id="g594"
               transform="translate(3.252,-7.686)"><g
                 id="g596"><g
                   id="g598"
                   transform="translate(-18.891,-3.273)"><text
                     transform="matrix(1,0,0,-1,18.891,3.273)"
                     style="font-variant:normal;font-weight:normal;font-size:4.58279991px;font-family:Utopia;-inkscape-font-specification:Utopia-Regular;writing-mode:lr-tb;fill:#000000;fill-opacity:1;fill-rule:nonzero;stroke:none"
                     id="text602"><tspan
                       x="0 2.8367531 4.1703482"
                       y="0"
                       sodipodi:role="line"
                       id="tspan600">nil</tspan></text>
<g
                     id="g604"
                     transform="translate(18.891,3.273)" /></g></g><g
                 id="g606"
                 transform="translate(-3.252,7.686)" /></g></g></g></g></g></g></svg>