<?xml version="1.0" encoding="UTF-8" standalone="no"?>
<!-- Created with Inkscape (http://www.inkscape.org/) -->

<svg
   xmlns:dc="http://purl.org/dc/elements/1.1/"
   xmlns:cc="http://creativecommons.org/ns#"
   xmlns:rdf="http://www.w3.org/1999/02/22-rdf-syntax-ns#"
   xmlns:svg="http://www.w3.org/2000/svg"
   xmlns="http://www.w3.org/2000/svg"
   xmlns:sodipodi="http://sodipodi.sourceforge.net/DTD/sodipodi-0.dtd"
   xmlns:inkscape="http://www.inkscape.org/namespaces/inkscape"
   version="1.1"
   id="svg2"
   xml:space="preserve"
   width="171.52667"
   height="164.224"
   viewBox="0 0 171.52667 164.224"
   sodipodi:docname="predecessor_map.svg"
   inkscape:version="0.92.1 r"><metadata
     id="metadata8"><rdf:RDF><cc:Work
         rdf:about=""><dc:format>image/svg+xml</dc:format><dc:type
           rdf:resource="http://purl.org/dc/dcmitype/StillImage" /><dc:title /></cc:Work></rdf:RDF></metadata><defs
     id="defs6" /><sodipodi:namedview
     pagecolor="#ffffff"
     bordercolor="#666666"
     borderopacity="1"
     objecttolerance="10"
     gridtolerance="10"
     guidetolerance="10"
     inkscape:pageopacity="0"
     inkscape:pageshadow="2"
     inkscape:window-width="1366"
     inkscape:window-height="768"
     id="namedview4"
     showgrid="false"
     inkscape:zoom="2.1196379"
     inkscape:cx="18.676407"
     inkscape:cy="98.156716"
     inkscape:window-x="0"
     inkscape:window-y="0"
     inkscape:window-maximized="0"
     inkscape:current-layer="g10" /><g
     id="g10"
     inkscape:groupmode="layer"
     inkscape:label="predecessor_map"
     transform="matrix(1.3333333,0,0,-1.3333333,0,164.224)"><path
       inkscape:connector-curvature="0"
       id="path24"
       style="fill:none;stroke:#595959;stroke-width:0.3985;stroke-linecap:butt;stroke-linejoin:miter;stroke-miterlimit:10;stroke-dasharray:none;stroke-opacity:1"
       d="m 25.60177,113.00768 c 0,5.50235 -4.46042,9.96276 -9.96277,9.96276 -5.50235,0 -9.96277,-4.46041 -9.96277,-9.96276 0,-5.50237 4.46042,-9.96278 9.96277,-9.96278 5.50235,0 9.96277,4.46041 9.96277,9.96278 z" /><g
       id="g28"
       transform="translate(12.71,110.78)"><g
         transform="translate(-12.71,-110.78)"
         id="g30"><text
           id="text34"
           style="font-style:italic;font-variant:normal;font-size:9.16559982px;font-family:Utopia;-inkscape-font-specification:Utopia-Italic;writing-mode:lr-tb;fill:#000000;fill-opacity:1;fill-rule:nonzero;stroke:none"
           transform="matrix(1,0,0,-1,12.909,110.78)"><tspan
             id="tspan32"
             y="0"
             x="0">a</tspan></text>
<g
           transform="translate(12.71,110.78)"
           id="g36" /></g></g><g
       transform="translate(15.639,10.959)"
       id="g38" /><path
       inkscape:connector-curvature="0"
       id="path44"
       style="fill:none;stroke:#595959;stroke-width:0.3985;stroke-linecap:butt;stroke-linejoin:miter;stroke-miterlimit:10;stroke-dasharray:none;stroke-opacity:1"
       d="m 76.62609,113.00768 c 0,5.50235 -4.46042,9.96276 -9.96277,9.96276 -5.50235,0 -9.96277,-4.46041 -9.96277,-9.96276 0,-5.50237 4.46042,-9.96278 9.96277,-9.96278 5.50235,0 9.96277,4.46041 9.96277,9.96278 z" /><g
       id="g48"
       transform="translate(63.853,109.621)"><g
         transform="translate(-63.853,-109.621)"
         id="g50"><text
           id="text54"
           style="font-style:italic;font-variant:normal;font-size:9.16559982px;font-family:Utopia;-inkscape-font-specification:Utopia-Italic;writing-mode:lr-tb;fill:#000000;fill-opacity:1;fill-rule:nonzero;stroke:none"
           transform="matrix(1,0,0,-1,63.853,109.621)"><tspan
             id="tspan52"
             y="0"
             x="0">b</tspan></text>
<g
           transform="translate(63.853,109.621)"
           id="g56" /></g></g><g
       transform="translate(15.639,10.959)"
       id="g58" /><path
       inkscape:connector-curvature="0"
       id="path64"
       style="fill:none;stroke:#595959;stroke-width:0.3985;stroke-linecap:butt;stroke-linejoin:miter;stroke-miterlimit:10;stroke-dasharray:none;stroke-opacity:1"
       d="m 127.65044,113.00768 c 0,5.50235 -4.46041,9.96276 -9.96276,9.96276 -5.50237,0 -9.96278,-4.46041 -9.96278,-9.96276 0,-5.50237 4.46041,-9.96278 9.96278,-9.96278 5.50235,0 9.96276,4.46041 9.96276,9.96278 z" /><g
       id="g68"
       transform="translate(115.305,110.78)"><g
         transform="translate(-115.305,-110.78)"
         id="g70"><text
           id="text74"
           style="font-style:italic;font-variant:normal;font-size:9.16559982px;font-family:Utopia;-inkscape-font-specification:Utopia-Italic;writing-mode:lr-tb;fill:#000000;fill-opacity:1;fill-rule:nonzero;stroke:none"
           transform="matrix(1,0,0,-1,115.305,110.78)"><tspan
             id="tspan72"
             y="0"
             x="0">c</tspan></text>
<g
           transform="translate(115.305,110.78)"
           id="g76" /></g></g><g
       transform="translate(15.639,10.959)"
       id="g78" /><path
       inkscape:connector-curvature="0"
       id="path84"
       style="fill:none;stroke:#595959;stroke-width:0.3985;stroke-linecap:butt;stroke-linejoin:miter;stroke-miterlimit:10;stroke-dasharray:none;stroke-opacity:1"
       d="m 25.60177,61.98332 c 0,5.50235 -4.46042,9.96277 -9.96277,9.96277 -5.50235,0 -9.96277,-4.46042 -9.96277,-9.96277 0,-5.50235 4.46042,-9.96277 9.96277,-9.96277 5.50235,0 9.96277,4.46042 9.96277,9.96277 z" /><g
       id="g88"
       transform="translate(12.485,58.598)"><g
         transform="translate(-12.485,-58.598)"
         id="g90"><text
           id="text94"
           style="font-style:italic;font-variant:normal;font-size:9.16559982px;font-family:Utopia;-inkscape-font-specification:Utopia-Italic;writing-mode:lr-tb;fill:#000000;fill-opacity:1;fill-rule:nonzero;stroke:none"
           transform="matrix(1,0,0,-1,12.485,58.598)"><tspan
             id="tspan92"
             y="0"
             x="0">d</tspan></text>
<g
           transform="translate(12.485,58.598)"
           id="g96" /></g></g><g
       transform="translate(15.639,10.959)"
       id="g98" /><path
       inkscape:connector-curvature="0"
       id="path104"
       style="fill:none;stroke:#595959;stroke-width:0.3985;stroke-linecap:butt;stroke-linejoin:miter;stroke-miterlimit:10;stroke-dasharray:none;stroke-opacity:1"
       d="m 76.62609,61.98332 c 0,5.50235 -4.46042,9.96277 -9.96277,9.96277 -5.50235,0 -9.96277,-4.46042 -9.96277,-9.96277 0,-5.50235 4.46042,-9.96277 9.96277,-9.96277 5.50235,0 9.96277,4.46042 9.96277,9.96277 z" /><g
       id="g108"
       transform="translate(64.251,59.756)"><g
         transform="translate(-64.251,-59.756)"
         id="g110"><text
           id="text114"
           style="font-style:italic;font-variant:normal;font-size:9.16559982px;font-family:Utopia;-inkscape-font-specification:Utopia-Italic;writing-mode:lr-tb;fill:#000000;fill-opacity:1;fill-rule:nonzero;stroke:none"
           transform="matrix(1,0,0,-1,64.251,59.756)"><tspan
             id="tspan112"
             y="0"
             x="0">e</tspan></text>
<g
           transform="translate(64.251,59.756)"
           id="g116" /></g></g><g
       transform="translate(15.639,10.959)"
       id="g118" /><path
       inkscape:connector-curvature="0"
       id="path124"
       style="fill:none;stroke:#595959;stroke-width:0.3985;stroke-linecap:butt;stroke-linejoin:miter;stroke-miterlimit:10;stroke-dasharray:none;stroke-opacity:1"
       d="m 127.65044,61.98332 c 0,5.50235 -4.46041,9.96277 -9.96276,9.96277 -5.50237,0 -9.96278,-4.46042 -9.96278,-9.96277 0,-5.50235 4.46041,-9.96277 9.96278,-9.96277 5.50235,0 9.96276,4.46042 9.96276,9.96277 z" /><g
       id="g128"
       transform="translate(114.627,59.684)"><g
         transform="translate(-114.627,-59.684)"
         id="g130"><text
           id="text134"
           style="font-style:italic;font-variant:normal;font-size:9.16559982px;font-family:Utopia;-inkscape-font-specification:Utopia-Italic;writing-mode:lr-tb;fill:#000000;fill-opacity:1;fill-rule:nonzero;stroke:none"
           transform="matrix(1,0,0,-1,115.624,59.684)"><tspan
             id="tspan132"
             y="0"
             x="0">f</tspan></text>
<g
           transform="translate(114.627,59.684)"
           id="g136" /></g></g><g
       transform="translate(15.639,10.959)"
       id="g138" /><path
       inkscape:connector-curvature="0"
       id="path144"
       style="fill:none;stroke:#595959;stroke-width:0.3985;stroke-linecap:butt;stroke-linejoin:miter;stroke-miterlimit:10;stroke-dasharray:none;stroke-opacity:1"
       d="m 25.60177,10.959 c 0,5.50235 -4.46042,9.96277 -9.96277,9.96277 -5.50235,0 -9.96277,-4.46042 -9.96277,-9.96277 0,-5.50235 4.46042,-9.96277 9.96277,-9.96277 5.50235,0 9.96277,4.46042 9.96277,9.96277 z" /><g
       id="g148"
       transform="translate(12.665,9.746)"><g
         transform="translate(-12.665,-9.746)"
         id="g150"><text
           id="text154"
           style="font-style:italic;font-variant:normal;font-size:9.16559982px;font-family:Utopia;-inkscape-font-specification:Utopia-Italic;writing-mode:lr-tb;fill:#000000;fill-opacity:1;fill-rule:nonzero;stroke:none"
           transform="matrix(1,0,0,-1,12.864,9.746)"><tspan
             id="tspan152"
             y="0"
             x="0">g</tspan></text>
<g
           transform="translate(12.665,9.746)"
           id="g156" /></g></g><g
       transform="translate(15.639,10.959)"
       id="g158" /><g
       transform="translate(15.639,10.959)"
       id="g486" /><g
       transform="translate(15.639,10.959)"
       id="g506" /><g
       transform="translate(15.639,10.959)"
       id="g526" /><g
       transform="translate(15.639,10.959)"
       id="g546" /><g
       transform="translate(15.639,10.959)"
       id="g566" /><g
       transform="translate(15.639,10.959)"
       id="g586" /><g
       transform="translate(15.639,10.959)"
       id="g606" /><g
       id="g2100"><g
         style="stroke:#ff0000"
         id="g166"
         transform="matrix(-1.0012661,-0.00231256,-0.00231256,1.0012661,26.18939,112.90414)"><g
           style="stroke:#ff0000"
           id="g168"><path
             d="M -1.55415,2.0722 C -1.42464,1.29512 0,0.1295 0.38852,0 0,-0.1295 -1.42464,-1.29512 -1.55415,-2.0722"
             style="fill:none;stroke:#ff0000;stroke-width:0.6376;stroke-linecap:round;stroke-linejoin:round;stroke-miterlimit:10;stroke-dasharray:none;stroke-opacity:1"
             id="path170"
             inkscape:connector-curvature="0" /></g></g><path
         sodipodi:nodetypes="cc"
         inkscape:connector-curvature="0"
         id="path2094"
         d="M 25.349162,112.90112 H 56.663475"
         style="fill:none;stroke:#ff0000;stroke-width:0.75px;stroke-linecap:butt;stroke-linejoin:miter;stroke-opacity:1" /></g><g
       id="g2110"
       transform="matrix(-1,0,0,1,82.012637,-51)"><g
         transform="matrix(-1.0012661,-0.00231256,-0.00231256,1.0012661,26.18939,112.90414)"
         id="g2106"
         style="stroke:#ff0000"><g
           id="g2104"
           style="stroke:#ff0000"><path
             inkscape:connector-curvature="0"
             id="path2102"
             style="fill:none;stroke:#ff0000;stroke-width:0.6376;stroke-linecap:round;stroke-linejoin:round;stroke-miterlimit:10;stroke-dasharray:none;stroke-opacity:1"
             d="M -1.55415,2.0722 C -1.42464,1.29512 0,0.1295 0.38852,0 0,-0.1295 -1.42464,-1.29512 -1.55415,-2.0722" /></g></g><path
         style="fill:none;stroke:#ff0000;stroke-width:0.75px;stroke-linecap:butt;stroke-linejoin:miter;stroke-opacity:1"
         d="M 25.349162,112.90112 H 56.663475"
         id="path2108"
         inkscape:connector-curvature="0"
         sodipodi:nodetypes="cc" /></g><g
       transform="matrix(0,-1,-1,0,179.41405,128.41405)"
       id="g2120"><g
         style="stroke:#ff0000"
         id="g2116"
         transform="matrix(-1.0012661,-0.00231256,-0.00231256,1.0012661,26.18939,112.90414)"><g
           style="stroke:#ff0000"
           id="g2114"><path
             d="M -1.55415,2.0722 C -1.42464,1.29512 0,0.1295 0.38852,0 0,-0.1295 -1.42464,-1.29512 -1.55415,-2.0722"
             style="fill:none;stroke:#ff0000;stroke-width:0.6376;stroke-linecap:round;stroke-linejoin:round;stroke-miterlimit:10;stroke-dasharray:none;stroke-opacity:1"
             id="path2112"
             inkscape:connector-curvature="0" /></g></g><path
         sodipodi:nodetypes="cc"
         inkscape:connector-curvature="0"
         id="path2118"
         d="M 25.349162,112.90112 H 56.663475"
         style="fill:none;stroke:#ff0000;stroke-width:0.75px;stroke-linecap:butt;stroke-linejoin:miter;stroke-opacity:1" /></g><g
       id="g2130"
       transform="rotate(90,41.006319,87.407731)"><g
         transform="matrix(-1.0012661,-0.00231256,-0.00231256,1.0012661,26.18939,112.90414)"
         id="g2126"
         style="stroke:#ff0000"><g
           id="g2124"
           style="stroke:#ff0000"><path
             inkscape:connector-curvature="0"
             id="path2122"
             style="fill:none;stroke:#ff0000;stroke-width:0.6376;stroke-linecap:round;stroke-linejoin:round;stroke-miterlimit:10;stroke-dasharray:none;stroke-opacity:1"
             d="M -1.55415,2.0722 C -1.42464,1.29512 0,0.1295 0.38852,0 0,-0.1295 -1.42464,-1.29512 -1.55415,-2.0722" /></g></g><path
         style="fill:none;stroke:#ff0000;stroke-width:0.75px;stroke-linecap:butt;stroke-linejoin:miter;stroke-opacity:1"
         d="M 25.349162,112.90112 H 56.663475"
         id="path2128"
         inkscape:connector-curvature="0"
         sodipodi:nodetypes="cc" /></g><g
       id="g4942"
       transform="rotate(90,92.006319,138.40773)"><g
         transform="matrix(-1.0012661,-0.00231256,-0.00231256,1.0012661,26.18939,112.90414)"
         id="g4938"
         style="stroke:#ff0000"><g
           id="g4936"
           style="stroke:#ff0000"><path
             inkscape:connector-curvature="0"
             id="path4934"
             style="fill:none;stroke:#ff0000;stroke-width:0.6376;stroke-linecap:round;stroke-linejoin:round;stroke-miterlimit:10;stroke-dasharray:none;stroke-opacity:1"
             d="M -1.55415,2.0722 C -1.42464,1.29512 0,0.1295 0.38852,0 0,-0.1295 -1.42464,-1.29512 -1.55415,-2.0722" /></g></g><path
         style="fill:none;stroke:#ff0000;stroke-width:0.75px;stroke-linecap:butt;stroke-linejoin:miter;stroke-opacity:1"
         d="M 25.349162,112.90112 H 56.663475"
         id="path4940"
         inkscape:connector-curvature="0"
         sodipodi:nodetypes="cc" /></g></g></svg>