<?xml version="1.0" encoding="UTF-8" standalone="no"?>
<svg
   xmlns:dc="http://purl.org/dc/elements/1.1/"
   xmlns:cc="http://creativecommons.org/ns#"
   xmlns:rdf="http://www.w3.org/1999/02/22-rdf-syntax-ns#"
   xmlns:svg="http://www.w3.org/2000/svg"
   xmlns="http://www.w3.org/2000/svg"
   viewBox="0 0 136.56267 103.764"
   height="103.764"
   width="136.56267"
   xml:space="preserve"
   id="svg2"
   version="1.1"><metadata
     id="metadata8"><rdf:RDF><cc:Work
         rdf:about=""><dc:format>image/svg+xml</dc:format><dc:type
           rdf:resource="http://purl.org/dc/dcmitype/StillImage" /></cc:Work></rdf:RDF></metadata><defs
     id="defs6" /><g
     transform="matrix(1.3333333,0,0,-1.3333333,0,103.764)"
     id="g10"><g
       transform="translate(37.05,40.773)"
       id="g12"><g
         id="g14"><g
           id="g16"><g
             id="g18"><path
               id="path20"
               style="fill:#b3b3ff;fill-opacity:1;fill-rule:nonzero;stroke:none"
               d="M 36.85094,0 C 36.85094,20.35246 20.35246,36.85094 0,36.85094 -20.35246,36.85094 -36.85094,20.35246 -36.85094,0 c 0,-20.35246 16.49848,-36.85094 36.85094,-36.85094 20.35246,0 36.85094,16.49848 36.85094,36.85094 z" /></g><g
             id="g22"><path
               id="path24"
               style="fill:#66ff66;fill-opacity:1;fill-rule:nonzero;stroke:none"
               d="m 62.36288,0 c 0,11.74178 -12.6911,21.2601 -28.3468,21.2601 C 18.36037,21.2601 5.66927,11.74178 5.66927,0 c 0,-11.74178 12.6911,-21.2601 28.34681,-21.2601 15.6557,0 28.3468,9.51832 28.3468,21.2601 z" /></g><path
             id="path26"
             style="fill:none;stroke:#000000;stroke-width:0.3985;stroke-linecap:butt;stroke-linejoin:miter;stroke-miterlimit:10;stroke-dasharray:none;stroke-opacity:1"
             d="M 36.85094,0 C 36.85094,20.35246 20.35246,36.85094 0,36.85094 -20.35246,36.85094 -36.85094,20.35246 -36.85094,0 c 0,-20.35246 16.49848,-36.85094 36.85094,-36.85094 20.35246,0 36.85094,16.49848 36.85094,36.85094 z" /><path
             id="path28"
             style="fill:none;stroke:#000000;stroke-width:0.3985;stroke-linecap:butt;stroke-linejoin:miter;stroke-miterlimit:10;stroke-dasharray:none;stroke-opacity:1"
             d="m 62.36288,0 c 0,11.74178 -12.6911,21.2601 -28.3468,21.2601 C 18.36037,21.2601 5.66927,11.74178 5.66927,0 c 0,-11.74178 12.6911,-21.2601 28.34681,-21.2601 15.6557,0 28.3468,9.51832 28.3468,21.2601 z" /><path
             id="path30"
             style="fill:none;stroke:#000000;stroke-width:0.3985;stroke-linecap:butt;stroke-linejoin:miter;stroke-miterlimit:10;stroke-dasharray:none;stroke-opacity:1"
             d="M 36.85094,0 C 36.85094,20.35246 20.35246,36.85094 0,36.85094 -20.35246,36.85094 -36.85094,20.35246 -36.85094,0 c 0,-20.35246 16.49848,-36.85094 36.85094,-36.85094 20.35246,0 36.85094,16.49848 36.85094,36.85094 z" /><path
             id="path32"
             style="fill:none;stroke:#000000;stroke-width:0.3985;stroke-linecap:butt;stroke-linejoin:miter;stroke-miterlimit:10;stroke-dasharray:none;stroke-opacity:1"
             d="m 62.36288,0 c 0,11.74178 -12.6911,21.2601 -28.3468,21.2601 C 18.36037,21.2601 5.66927,11.74178 5.66927,0 c 0,-11.74178 12.6911,-21.2601 28.34681,-21.2601 15.6557,0 28.3468,9.51832 28.3468,21.2601 z" /><g
             id="g34"><path
               id="path36"
               style="fill:none;stroke:#000000;stroke-width:0.3985;stroke-linecap:butt;stroke-linejoin:miter;stroke-miterlimit:10;stroke-dasharray:none;stroke-opacity:1"
               d="m -30.58987,-30.25536 6.79469,8.09757" /><g
               transform="matrix(0.6457,0.76949,-0.76949,0.6457,-23.7952,-22.15779)"
               id="g38"><g
                 id="g40"><path
                   id="path42"
                   style="fill:#000000;fill-opacity:1;fill-rule:nonzero;stroke:none"
                   d="M 3.58653,0 C 2.52383,0.19925 0.797,0.797 -0.3985,1.49438 V -1.49438 C 0.797,-0.797 2.52383,-0.19925 3.58653,0" /></g></g><g
               id="g44"><g
                 transform="translate(-22.548,-19.205)"
                 id="g46"><g
                   id="g48"><g
                     transform="translate(-14.502,-21.568)"
                     id="g50"><text
                       id="text54"
                       style="font-variant:normal;font-size:9.96259975px;font-family:'URW Gothic';-inkscape-font-specification:URWPalladioL-Roma;writing-mode:lr-tb;fill:#000000;fill-opacity:1;fill-rule:nonzero;stroke:none"
                       transform="matrix(1,0,0,-1,14.502,21.568)"><tspan
                         id="tspan52"
                         y="0"
                         x="0">3</tspan></text>
<g
                       transform="translate(14.502,21.568)"
                       id="g56" /></g></g><g
                   transform="translate(22.548,19.205)"
                   id="g58" /></g></g></g><g
             id="g60"><path
               id="path62"
               style="fill:none;stroke:#000000;stroke-width:0.3985;stroke-linecap:butt;stroke-linejoin:miter;stroke-miterlimit:10;stroke-dasharray:none;stroke-opacity:1"
               d="M -15.51881,-24.69395 -22.3135,-32.7915" /><g
               transform="matrix(-0.6457,-0.76949,0.76949,-0.6457,-22.31349,-32.7915)"
               id="g64"><g
                 id="g66"><path
                   id="path68"
                   style="fill:#000000;fill-opacity:1;fill-rule:nonzero;stroke:none"
                   d="M 3.58653,0 C 2.52383,0.19925 0.797,0.797 -0.3985,1.49438 V -1.49438 C 0.797,-0.797 2.52383,-0.19925 3.58653,0" /></g></g><g
               id="g70"><g
                 transform="translate(-16.587,-24.501)"
                 id="g72"><g
                   id="g74"><g
                     transform="translate(-20.463,-16.272)"
                     id="g76"><text
                       id="text80"
                       style="font-variant:normal;font-size:9.96259975px;font-family:'URW Gothic';-inkscape-font-specification:URWPalladioL-Roma;writing-mode:lr-tb;fill:#000000;fill-opacity:1;fill-rule:nonzero;stroke:none"
                       transform="matrix(1,0,0,-1,20.463,16.272)"><tspan
                         id="tspan78"
                         y="0"
                         x="0">3</tspan></text>
<g
                       transform="translate(20.463,16.272)"
                       id="g82" /></g></g><g
                   transform="translate(16.587,24.501)"
                   id="g84" /></g></g></g><g
             id="g86"><path
               id="path88"
               style="fill:none;stroke:#000000;stroke-width:0.3985;stroke-linecap:butt;stroke-linejoin:miter;stroke-miterlimit:10;stroke-dasharray:none;stroke-opacity:1"
               d="M 0,3.9851 H 10.58685" /><g
               transform="translate(10.58685,3.9851)"
               id="g90"><g
                 id="g92"><path
                   id="path94"
                   style="fill:#000000;fill-opacity:1;fill-rule:nonzero;stroke:none"
                   d="M 3.58653,0 C 2.52383,0.19925 0.797,0.797 -0.3985,1.49438 V -1.49438 C 0.797,-0.797 2.52383,-0.19925 3.58653,0" /></g></g><g
               id="g96"><g
                 transform="translate(-8.356,0.548)"
                 id="g98"><g
                   id="g100"><g
                     transform="translate(-28.694,-41.321)"
                     id="g102"><text
                       id="text106"
                       style="font-variant:normal;font-size:9.96259975px;font-family:'URW Gothic';-inkscape-font-specification:URWPalladioL-Roma;writing-mode:lr-tb;fill:#000000;fill-opacity:1;fill-rule:nonzero;stroke:none"
                       transform="matrix(1,0,0,-1,28.694,41.321)"><tspan
                         id="tspan104"
                         y="0"
                         x="0">4</tspan></text>
<g
                       transform="translate(28.694,41.321)"
                       id="g108" /></g></g><g
                   transform="translate(8.356,-0.548)"
                   id="g110" /></g></g></g><g
             id="g112"><path
               id="path114"
               style="fill:none;stroke:#000000;stroke-width:0.3985;stroke-linecap:butt;stroke-linejoin:miter;stroke-miterlimit:10;stroke-dasharray:none;stroke-opacity:1"
               d="M 13.94788,-3.9851 H 3.36101" /><g
               transform="rotate(180,1.680505,-1.99255)"
               id="g116"><g
                 id="g118"><path
                   id="path120"
                   style="fill:#000000;fill-opacity:1;fill-rule:nonzero;stroke:none"
                   d="M 3.58653,0 C 2.52383,0.19925 0.797,0.797 -0.3985,1.49438 V -1.49438 C 0.797,-0.797 2.52383,-0.19925 3.58653,0" /></g></g><g
               id="g122"><g
                 transform="translate(-8.581,-7.422)"
                 id="g124"><g
                   id="g126"><g
                     transform="translate(-28.469,-33.351)"
                     id="g128"><text
                       id="text132"
                       style="font-variant:normal;font-size:9.96259975px;font-family:'URW Gothic';-inkscape-font-specification:URWPalladioL-Roma;writing-mode:lr-tb;fill:#000000;fill-opacity:1;fill-rule:nonzero;stroke:none"
                       transform="matrix(1,0,0,-1,28.469,33.351)"><tspan
                         id="tspan130"
                         y="0"
                         x="0">1</tspan></text>
<g
                       transform="translate(28.469,33.351)"
                       id="g134" /></g></g><g
                   transform="translate(8.581,7.422)"
                   id="g136" /></g></g></g><g
             id="g138"><path
               id="path140"
               style="fill:none;stroke:#000000;stroke-width:0.3985;stroke-linecap:butt;stroke-linejoin:miter;stroke-miterlimit:10;stroke-dasharray:none;stroke-opacity:1"
               d="M 31.88086,3.9851 H 42.46771" /><g
               transform="translate(42.46771,3.9851)"
               id="g142"><g
                 id="g144"><path
                   id="path146"
                   style="fill:#000000;fill-opacity:1;fill-rule:nonzero;stroke:none"
                   d="M 3.58653,0 C 2.52383,0.19925 0.797,0.797 -0.3985,1.49438 V -1.49438 C 0.797,-0.797 2.52383,-0.19925 3.58653,0" /></g></g><g
               id="g148"><g
                 transform="translate(23.525,0.548)"
                 id="g150"><g
                   id="g152"><g
                     transform="translate(-60.575,-41.321)"
                     id="g154"><text
                       id="text158"
                       style="font-variant:normal;font-size:9.96259975px;font-family:'URW Gothic';-inkscape-font-specification:URWPalladioL-Roma;writing-mode:lr-tb;fill:#000000;fill-opacity:1;fill-rule:nonzero;stroke:none"
                       transform="matrix(1,0,0,-1,60.575,41.321)"><tspan
                         id="tspan156"
                         y="0"
                         x="0">2</tspan></text>
<g
                       transform="translate(60.575,41.321)"
                       id="g160" /></g></g><g
                   transform="translate(-23.525,-0.548)"
                   id="g162" /></g></g></g><g
             id="g164"><path
               id="path166"
               style="fill:none;stroke:#000000;stroke-width:0.3985;stroke-linecap:butt;stroke-linejoin:miter;stroke-miterlimit:10;stroke-dasharray:none;stroke-opacity:1"
               d="M 45.82874,-3.9851 H 35.24187" /><g
               transform="rotate(180,17.620935,-1.99255)"
               id="g168"><g
                 id="g170"><path
                   id="path172"
                   style="fill:#000000;fill-opacity:1;fill-rule:nonzero;stroke:none"
                   d="M 3.58653,0 C 2.52383,0.19925 0.797,0.797 -0.3985,1.49438 V -1.49438 C 0.797,-0.797 2.52383,-0.19925 3.58653,0" /></g></g><g
               id="g174"><g
                 transform="translate(23.299,-7.422)"
                 id="g176"><g
                   id="g178"><g
                     transform="translate(-60.349,-33.351)"
                     id="g180"><text
                       id="text184"
                       style="font-variant:normal;font-size:9.96259975px;font-family:'URW Gothic';-inkscape-font-specification:URWPalladioL-Roma;writing-mode:lr-tb;fill:#000000;fill-opacity:1;fill-rule:nonzero;stroke:none"
                       transform="matrix(1,0,0,-1,60.349,33.351)"><tspan
                         id="tspan182"
                         y="0"
                         x="0">7</tspan></text>
<g
                       transform="translate(60.349,33.351)"
                       id="g186" /></g></g><g
                   transform="translate(-23.299,7.422)"
                   id="g188" /></g></g></g><g
             id="g190"><path
               id="path192"
               style="fill:none;stroke:#000000;stroke-width:0.3985;stroke-linecap:butt;stroke-linejoin:miter;stroke-miterlimit:10;stroke-dasharray:none;stroke-opacity:1"
               d="m 37.85852,-27.89575 v 10.58687" /><g
               transform="rotate(90,27.5837,10.27482)"
               id="g194"><g
                 id="g196"><path
                   id="path198"
                   style="fill:#000000;fill-opacity:1;fill-rule:nonzero;stroke:none"
                   d="M 3.58653,0 C 2.52383,0.19925 0.797,0.797 -0.3985,1.49438 V -1.49438 C 0.797,-0.797 2.52383,-0.19925 3.58653,0" /></g></g><g
               id="g200"><g
                 transform="translate(43.337,-37.197)"
                 id="g202"><g
                   id="g204"><g
                     transform="translate(-80.387,-3.576)"
                     id="g206"><text
                       id="text210"
                       style="font-variant:normal;font-size:9.96259975px;font-family:'URW Gothic';-inkscape-font-specification:URWPalladioL-Roma;writing-mode:lr-tb;fill:#000000;fill-opacity:1;fill-rule:nonzero;stroke:none"
                       transform="matrix(1,0,0,-1,80.387,3.576)"><tspan
                         id="tspan208"
                         y="0"
                         x="0">1</tspan></text>
<g
                       transform="translate(80.387,3.576)"
                       id="g212" /></g></g><g
                   transform="translate(-43.337,37.197)"
                   id="g214" /></g></g></g><g
             id="g216"><path
               id="path218"
               style="fill:none;stroke:#000000;stroke-width:0.3985;stroke-linecap:butt;stroke-linejoin:miter;stroke-miterlimit:10;stroke-dasharray:none;stroke-opacity:1"
               d="M 44.83246,-14.94415 V -25.531" /><g
               transform="rotate(-90,9.65073,-35.18173)"
               id="g220"><g
                 id="g222"><path
                   id="path224"
                   style="fill:#000000;fill-opacity:1;fill-rule:nonzero;stroke:none"
                   d="M 3.58653,0 C 2.52383,0.19925 0.797,0.797 -0.3985,1.49438 V -1.49438 C 0.797,-0.797 2.52383,-0.19925 3.58653,0" /></g></g><g
               id="g226"><g
                 transform="translate(35.367,-37.423)"
                 id="g228"><g
                   id="g230"><g
                     transform="translate(-72.417,-3.35)"
                     id="g232"><text
                       id="text236"
                       style="font-variant:normal;font-size:9.96259975px;font-family:'URW Gothic';-inkscape-font-specification:URWPalladioL-Roma;writing-mode:lr-tb;fill:#000000;fill-opacity:1;fill-rule:nonzero;stroke:none"
                       transform="matrix(1,0,0,-1,72.417,3.35)"><tspan
                         id="tspan234"
                         y="0"
                         x="0">7</tspan></text>
<g
                       transform="translate(72.417,3.35)"
                       id="g238" /></g></g><g
                   transform="translate(-35.367,37.423)"
                   id="g240" /></g></g></g><g
             id="g242"><g
               transform="translate(56.693,-34.015)"
               id="g244"><g
                 id="g246" /><g
                 transform="translate(-56.693,34.015)"
                 id="g248" /></g><g
               id="g250"><path
                 id="path252"
                 style="fill:none;stroke:#0000ff;stroke-width:0.99628001;stroke-linecap:butt;stroke-linejoin:miter;stroke-miterlimit:10;stroke-dasharray:none;stroke-opacity:1"
                 d="m 54.70107,-36.00864 3.9851,3.98511 m -3.9851,0 3.9851,-3.98511" /></g></g><g
             id="g254"><g
               id="g256" /><g
               transform="translate(51.333,-27.972)"
               id="g258"><g
                 id="g260"><g
                   transform="translate(-88.383,-12.801)"
                   id="g262"><text
                     id="text266"
                     style="font-variant:normal;font-weight:normal;font-size:10.3810997px;font-family:CMSY10;-inkscape-font-specification:CMSY10;writing-mode:lr-tb;fill:#0000ff;fill-opacity:1;fill-rule:nonzero;stroke:none"
                     transform="matrix(1,0,0,-1,88.508,12.801)"><tspan
                       id="tspan264"
                       y="0"
                       x="0">S</tspan></text>
<text
                     id="text270"
                     style="font-variant:normal;font-size:7.57159996px;font-family:'URW Gothic';-inkscape-font-specification:URWPalladioL-Ital;writing-mode:lr-tb;fill:#0000ff;fill-opacity:1;fill-rule:nonzero;stroke:none"
                     transform="matrix(1,0,0,-1,95.003,10.716)"><tspan
                       id="tspan268"
                       y="0"
                       x="0">b</tspan></text>
<g
                     transform="translate(88.383,12.801)"
                     id="g272" /></g></g><g
                 transform="translate(-51.333,27.972)"
                 id="g274" /></g></g><g
             id="g276"><g
               id="g278" /><g
               transform="translate(21.051,11.444)"
               id="g280"><g
                 id="g282"><g
                   transform="translate(-58.101,-52.217)"
                   id="g284"><text
                     id="text288"
                     style="font-style:italic;font-variant:normal;font-size:9.96259975px;font-family:PazoMath;-inkscape-font-specification:PazoMath-Italic;writing-mode:lr-tb;fill:#008000;fill-opacity:1;fill-rule:nonzero;stroke:none"
                     transform="matrix(1,0,0,-1,58.226,52.217)"><tspan
                       id="tspan286"
                       y="0"
                       x="0">ε</tspan></text>
<text
                     id="text292"
                     style="font-variant:normal;font-weight:normal;font-size:7.57159996px;font-family:PazoMath;-inkscape-font-specification:PazoMath;writing-mode:lr-tb;fill:#008000;fill-opacity:1;fill-rule:nonzero;stroke:none"
                     transform="matrix(1,0,0,-1,62.639,50.722)"><tspan
                       id="tspan290"
                       y="0"
                       x="0">∞</tspan></text>
<text
                     id="text296"
                     style="font-variant:normal;font-weight:normal;font-size:10.3810997px;font-family:CMR10;-inkscape-font-specification:CMR10;writing-mode:lr-tb;fill:#008000;fill-opacity:1;fill-rule:nonzero;stroke:none"
                     transform="matrix(1,0,0,-1,71.752,52.217)"><tspan
                       id="tspan294"
                       y="0"
                       x="0">=</tspan></text>
<text
                     id="text300"
                     style="font-variant:normal;font-size:9.96259975px;font-family:'URW Gothic';-inkscape-font-specification:URWPalladioL-Roma;writing-mode:lr-tb;fill:#008000;fill-opacity:1;fill-rule:nonzero;stroke:none"
                     transform="matrix(1,0,0,-1,81.883,52.217)"><tspan
                       id="tspan298"
                       y="0"
                       x="0">1</tspan></text>
<g
                     transform="translate(58.101,52.217)"
                     id="g302" /></g></g><g
                 transform="translate(-21.051,-11.444)"
                 id="g304" /></g></g><g
             id="g306"><g
               id="g308" /><g
               transform="translate(-14.382,20.022)"
               id="g310"><g
                 id="g312"><g
                   transform="translate(-22.668,-60.795)"
                   id="g314"><text
                     id="text318"
                     style="font-style:italic;font-variant:normal;font-size:9.96259975px;font-family:PazoMath;-inkscape-font-specification:PazoMath-Italic;writing-mode:lr-tb;fill:#0000cc;fill-opacity:1;fill-rule:nonzero;stroke:none"
                     transform="matrix(1,0,0,-1,22.792,60.795)"><tspan
                       id="tspan316"
                       y="0"
                       x="0">ε</tspan></text>
<text
                     id="text322"
                     style="font-variant:normal;font-weight:normal;font-size:7.57159996px;font-family:PazoMath;-inkscape-font-specification:PazoMath;writing-mode:lr-tb;fill:#0000cc;fill-opacity:1;fill-rule:nonzero;stroke:none"
                     transform="matrix(1,0,0,-1,27.206,59.301)"><tspan
                       id="tspan320"
                       y="0"
                       x="0">∞</tspan></text>
<text
                     id="text326"
                     style="font-variant:normal;font-weight:normal;font-size:10.3810997px;font-family:CMR10;-inkscape-font-specification:CMR10;writing-mode:lr-tb;fill:#0000cc;fill-opacity:1;fill-rule:nonzero;stroke:none"
                     transform="matrix(1,0,0,-1,36.319,60.795)"><tspan
                       id="tspan324"
                       y="0"
                       x="0">=</tspan></text>
<text
                     id="text330"
                     style="font-variant:normal;font-size:9.96259975px;font-family:'URW Gothic';-inkscape-font-specification:URWPalladioL-Roma;writing-mode:lr-tb;fill:#0000cc;fill-opacity:1;fill-rule:nonzero;stroke:none"
                     transform="matrix(1,0,0,-1,46.45,60.795)"><tspan
                       id="tspan328"
                       y="0"
                       x="0">3</tspan></text>
<g
                     transform="translate(22.668,60.795)"
                     id="g332" /></g></g><g
                 transform="translate(14.382,-20.022)"
                 id="g334" /></g></g></g></g></g></g></svg>