<?xml version="1.0" encoding="UTF-8" standalone="no"?>
<svg
   xmlns:dc="http://purl.org/dc/elements/1.1/"
   xmlns:cc="http://creativecommons.org/ns#"
   xmlns:rdf="http://www.w3.org/1999/02/22-rdf-syntax-ns#"
   xmlns:svg="http://www.w3.org/2000/svg"
   xmlns="http://www.w3.org/2000/svg"
   viewBox="0 0 136.56267 103.764"
   height="103.764"
   width="136.56267"
   xml:space="preserve"
   id="svg2"
   version="1.1"><metadata
     id="metadata8"><rdf:RDF><cc:Work
         rdf:about=""><dc:format>image/svg+xml</dc:format><dc:type
           rdf:resource="http://purl.org/dc/dcmitype/StillImage" /></cc:Work></rdf:RDF></metadata><defs
     id="defs6" /><g
     transform="matrix(1.3333333,0,0,-1.3333333,0,103.764)"
     id="g10"><g
       transform="translate(37.05,40.773)"
       id="g12"><g
         id="g14"><g
           id="g16"><g
             id="g18"><path
               id="path20"
               style="fill:#ffb3b3;fill-opacity:1;fill-rule:nonzero;stroke:none"
               d="m 62.36288,0 c 0,11.74178 -12.6911,21.2601 -28.3468,21.2601 C 18.36037,21.2601 5.66927,11.74178 5.66927,0 c 0,-11.74178 12.6911,-21.2601 28.34681,-21.2601 15.6557,0 28.3468,9.51832 28.3468,21.2601 z" /></g><path
             id="path22"
             style="fill:none;stroke:#000000;stroke-width:0.3985;stroke-linecap:butt;stroke-linejoin:miter;stroke-miterlimit:10;stroke-dasharray:none;stroke-opacity:1"
             d="M 36.85094,0 C 36.85094,20.35246 20.35246,36.85094 0,36.85094 -20.35246,36.85094 -36.85094,20.35246 -36.85094,0 c 0,-20.35246 16.49848,-36.85094 36.85094,-36.85094 20.35246,0 36.85094,16.49848 36.85094,36.85094 z" /><path
             id="path24"
             style="fill:none;stroke:#000000;stroke-width:0.3985;stroke-linecap:butt;stroke-linejoin:miter;stroke-miterlimit:10;stroke-dasharray:none;stroke-opacity:1"
             d="m 62.36288,0 c 0,11.74178 -12.6911,21.2601 -28.3468,21.2601 C 18.36037,21.2601 5.66927,11.74178 5.66927,0 c 0,-11.74178 12.6911,-21.2601 28.34681,-21.2601 15.6557,0 28.3468,9.51832 28.3468,21.2601 z" /><path
             id="path26"
             style="fill:none;stroke:#000000;stroke-width:0.3985;stroke-linecap:butt;stroke-linejoin:miter;stroke-miterlimit:10;stroke-dasharray:none;stroke-opacity:1"
             d="M 36.85094,0 C 36.85094,20.35246 20.35246,36.85094 0,36.85094 -20.35246,36.85094 -36.85094,20.35246 -36.85094,0 c 0,-20.35246 16.49848,-36.85094 36.85094,-36.85094 20.35246,0 36.85094,16.49848 36.85094,36.85094 z" /><path
             id="path28"
             style="fill:none;stroke:#000000;stroke-width:0.3985;stroke-linecap:butt;stroke-linejoin:miter;stroke-miterlimit:10;stroke-dasharray:none;stroke-opacity:1"
             d="m 62.36288,0 c 0,11.74178 -12.6911,21.2601 -28.3468,21.2601 C 18.36037,21.2601 5.66927,11.74178 5.66927,0 c 0,-11.74178 12.6911,-21.2601 28.34681,-21.2601 15.6557,0 28.3468,9.51832 28.3468,21.2601 z" /><g
             id="g30"><path
               id="path32"
               style="fill:none;stroke:#000000;stroke-width:0.3985;stroke-linecap:butt;stroke-linejoin:miter;stroke-miterlimit:10;stroke-dasharray:none;stroke-opacity:1"
               d="m -30.58987,-30.25536 6.79469,8.09757" /><g
               transform="matrix(0.6457,0.76949,-0.76949,0.6457,-23.7952,-22.15779)"
               id="g34"><g
                 id="g36"><path
                   id="path38"
                   style="fill:#000000;fill-opacity:1;fill-rule:nonzero;stroke:none"
                   d="M 3.58653,0 C 2.52383,0.19925 0.797,0.797 -0.3985,1.49438 V -1.49438 C 0.797,-0.797 2.52383,-0.19925 3.58653,0" /></g></g><g
               id="g40"><g
                 transform="translate(-22.548,-19.205)"
                 id="g42"><g
                   id="g44"><g
                     transform="translate(-14.502,-21.568)"
                     id="g46"><text
                       id="text50"
                       style="font-variant:normal;font-size:9.96259975px;font-family:'URW Gothic';-inkscape-font-specification:URWPalladioL-Roma;writing-mode:lr-tb;fill:#000000;fill-opacity:1;fill-rule:nonzero;stroke:none"
                       transform="matrix(1,0,0,-1,14.502,21.568)"><tspan
                         id="tspan48"
                         y="0"
                         x="0">3</tspan></text>
<g
                       transform="translate(14.502,21.568)"
                       id="g52" /></g></g><g
                   transform="translate(22.548,19.205)"
                   id="g54" /></g></g></g><g
             id="g56"><path
               id="path58"
               style="fill:none;stroke:#000000;stroke-width:0.3985;stroke-linecap:butt;stroke-linejoin:miter;stroke-miterlimit:10;stroke-dasharray:none;stroke-opacity:1"
               d="M -15.51881,-24.69395 -22.3135,-32.7915" /><g
               transform="matrix(-0.6457,-0.76949,0.76949,-0.6457,-22.31349,-32.7915)"
               id="g60"><g
                 id="g62"><path
                   id="path64"
                   style="fill:#000000;fill-opacity:1;fill-rule:nonzero;stroke:none"
                   d="M 3.58653,0 C 2.52383,0.19925 0.797,0.797 -0.3985,1.49438 V -1.49438 C 0.797,-0.797 2.52383,-0.19925 3.58653,0" /></g></g><g
               id="g66"><g
                 transform="translate(-16.587,-24.501)"
                 id="g68"><g
                   id="g70"><g
                     transform="translate(-20.463,-16.272)"
                     id="g72"><text
                       id="text76"
                       style="font-variant:normal;font-size:9.96259975px;font-family:'URW Gothic';-inkscape-font-specification:URWPalladioL-Roma;writing-mode:lr-tb;fill:#000000;fill-opacity:1;fill-rule:nonzero;stroke:none"
                       transform="matrix(1,0,0,-1,20.463,16.272)"><tspan
                         id="tspan74"
                         y="0"
                         x="0">3</tspan></text>
<g
                       transform="translate(20.463,16.272)"
                       id="g78" /></g></g><g
                   transform="translate(16.587,24.501)"
                   id="g80" /></g></g></g><g
             id="g82"><path
               id="path84"
               style="fill:none;stroke:#000000;stroke-width:0.3985;stroke-linecap:butt;stroke-linejoin:miter;stroke-miterlimit:10;stroke-dasharray:none;stroke-opacity:1"
               d="M 0,3.9851 H 10.58685" /><g
               transform="translate(10.58685,3.9851)"
               id="g86"><g
                 id="g88"><path
                   id="path90"
                   style="fill:#000000;fill-opacity:1;fill-rule:nonzero;stroke:none"
                   d="M 3.58653,0 C 2.52383,0.19925 0.797,0.797 -0.3985,1.49438 V -1.49438 C 0.797,-0.797 2.52383,-0.19925 3.58653,0" /></g></g><g
               id="g92"><g
                 transform="translate(-8.356,0.548)"
                 id="g94"><g
                   id="g96"><g
                     transform="translate(-28.694,-41.321)"
                     id="g98"><text
                       id="text102"
                       style="font-variant:normal;font-size:9.96259975px;font-family:'URW Gothic';-inkscape-font-specification:URWPalladioL-Roma;writing-mode:lr-tb;fill:#000000;fill-opacity:1;fill-rule:nonzero;stroke:none"
                       transform="matrix(1,0,0,-1,28.694,41.321)"><tspan
                         id="tspan100"
                         y="0"
                         x="0">4</tspan></text>
<g
                       transform="translate(28.694,41.321)"
                       id="g104" /></g></g><g
                   transform="translate(8.356,-0.548)"
                   id="g106" /></g></g></g><g
             id="g108"><path
               id="path110"
               style="fill:none;stroke:#000000;stroke-width:0.3985;stroke-linecap:butt;stroke-linejoin:miter;stroke-miterlimit:10;stroke-dasharray:none;stroke-opacity:1"
               d="M 13.94788,-3.9851 H 3.36101" /><g
               transform="rotate(180,1.680505,-1.99255)"
               id="g112"><g
                 id="g114"><path
                   id="path116"
                   style="fill:#000000;fill-opacity:1;fill-rule:nonzero;stroke:none"
                   d="M 3.58653,0 C 2.52383,0.19925 0.797,0.797 -0.3985,1.49438 V -1.49438 C 0.797,-0.797 2.52383,-0.19925 3.58653,0" /></g></g><g
               id="g118"><g
                 transform="translate(-8.581,-7.422)"
                 id="g120"><g
                   id="g122"><g
                     transform="translate(-28.469,-33.351)"
                     id="g124"><text
                       id="text128"
                       style="font-variant:normal;font-size:9.96259975px;font-family:'URW Gothic';-inkscape-font-specification:URWPalladioL-Roma;writing-mode:lr-tb;fill:#000000;fill-opacity:1;fill-rule:nonzero;stroke:none"
                       transform="matrix(1,0,0,-1,28.469,33.351)"><tspan
                         id="tspan126"
                         y="0"
                         x="0">1</tspan></text>
<g
                       transform="translate(28.469,33.351)"
                       id="g130" /></g></g><g
                   transform="translate(8.581,7.422)"
                   id="g132" /></g></g></g><g
             id="g134"><path
               id="path136"
               style="fill:none;stroke:#000000;stroke-width:0.3985;stroke-linecap:butt;stroke-linejoin:miter;stroke-miterlimit:10;stroke-dasharray:none;stroke-opacity:1"
               d="M 31.88086,3.9851 H 42.46771" /><g
               transform="translate(42.46771,3.9851)"
               id="g138"><g
                 id="g140"><path
                   id="path142"
                   style="fill:#000000;fill-opacity:1;fill-rule:nonzero;stroke:none"
                   d="M 3.58653,0 C 2.52383,0.19925 0.797,0.797 -0.3985,1.49438 V -1.49438 C 0.797,-0.797 2.52383,-0.19925 3.58653,0" /></g></g><g
               id="g144"><g
                 transform="translate(23.525,0.548)"
                 id="g146"><g
                   id="g148"><g
                     transform="translate(-60.575,-41.321)"
                     id="g150"><text
                       id="text154"
                       style="font-variant:normal;font-size:9.96259975px;font-family:'URW Gothic';-inkscape-font-specification:URWPalladioL-Roma;writing-mode:lr-tb;fill:#000000;fill-opacity:1;fill-rule:nonzero;stroke:none"
                       transform="matrix(1,0,0,-1,60.575,41.321)"><tspan
                         id="tspan152"
                         y="0"
                         x="0">2</tspan></text>
<g
                       transform="translate(60.575,41.321)"
                       id="g156" /></g></g><g
                   transform="translate(-23.525,-0.548)"
                   id="g158" /></g></g></g><g
             id="g160"><path
               id="path162"
               style="fill:none;stroke:#000000;stroke-width:0.3985;stroke-linecap:butt;stroke-linejoin:miter;stroke-miterlimit:10;stroke-dasharray:none;stroke-opacity:1"
               d="M 45.82874,-3.9851 H 35.24187" /><g
               transform="rotate(180,17.620935,-1.99255)"
               id="g164"><g
                 id="g166"><path
                   id="path168"
                   style="fill:#000000;fill-opacity:1;fill-rule:nonzero;stroke:none"
                   d="M 3.58653,0 C 2.52383,0.19925 0.797,0.797 -0.3985,1.49438 V -1.49438 C 0.797,-0.797 2.52383,-0.19925 3.58653,0" /></g></g><g
               id="g170"><g
                 transform="translate(23.299,-7.422)"
                 id="g172"><g
                   id="g174"><g
                     transform="translate(-60.349,-33.351)"
                     id="g176"><text
                       id="text180"
                       style="font-variant:normal;font-size:9.96259975px;font-family:'URW Gothic';-inkscape-font-specification:URWPalladioL-Roma;writing-mode:lr-tb;fill:#000000;fill-opacity:1;fill-rule:nonzero;stroke:none"
                       transform="matrix(1,0,0,-1,60.349,33.351)"><tspan
                         id="tspan178"
                         y="0"
                         x="0">7</tspan></text>
<g
                       transform="translate(60.349,33.351)"
                       id="g182" /></g></g><g
                   transform="translate(-23.299,7.422)"
                   id="g184" /></g></g></g><g
             id="g186"><path
               id="path188"
               style="fill:none;stroke:#000000;stroke-width:0.3985;stroke-linecap:butt;stroke-linejoin:miter;stroke-miterlimit:10;stroke-dasharray:none;stroke-opacity:1"
               d="m 37.85852,-27.89575 v 10.58687" /><g
               transform="rotate(90,27.5837,10.27482)"
               id="g190"><g
                 id="g192"><path
                   id="path194"
                   style="fill:#000000;fill-opacity:1;fill-rule:nonzero;stroke:none"
                   d="M 3.58653,0 C 2.52383,0.19925 0.797,0.797 -0.3985,1.49438 V -1.49438 C 0.797,-0.797 2.52383,-0.19925 3.58653,0" /></g></g><g
               id="g196"><g
                 transform="translate(43.337,-37.197)"
                 id="g198"><g
                   id="g200"><g
                     transform="translate(-80.387,-3.576)"
                     id="g202"><text
                       id="text206"
                       style="font-variant:normal;font-size:9.96259975px;font-family:'URW Gothic';-inkscape-font-specification:URWPalladioL-Roma;writing-mode:lr-tb;fill:#000000;fill-opacity:1;fill-rule:nonzero;stroke:none"
                       transform="matrix(1,0,0,-1,80.387,3.576)"><tspan
                         id="tspan204"
                         y="0"
                         x="0">1</tspan></text>
<g
                       transform="translate(80.387,3.576)"
                       id="g208" /></g></g><g
                   transform="translate(-43.337,37.197)"
                   id="g210" /></g></g></g><g
             id="g212"><path
               id="path214"
               style="fill:none;stroke:#000000;stroke-width:0.3985;stroke-linecap:butt;stroke-linejoin:miter;stroke-miterlimit:10;stroke-dasharray:none;stroke-opacity:1"
               d="M 44.83246,-14.94415 V -25.531" /><g
               transform="rotate(-90,9.65073,-35.18173)"
               id="g216"><g
                 id="g218"><path
                   id="path220"
                   style="fill:#000000;fill-opacity:1;fill-rule:nonzero;stroke:none"
                   d="M 3.58653,0 C 2.52383,0.19925 0.797,0.797 -0.3985,1.49438 V -1.49438 C 0.797,-0.797 2.52383,-0.19925 3.58653,0" /></g></g><g
               id="g222"><g
                 transform="translate(35.367,-37.423)"
                 id="g224"><g
                   id="g226"><g
                     transform="translate(-72.417,-3.35)"
                     id="g228"><text
                       id="text232"
                       style="font-variant:normal;font-size:9.96259975px;font-family:'URW Gothic';-inkscape-font-specification:URWPalladioL-Roma;writing-mode:lr-tb;fill:#000000;fill-opacity:1;fill-rule:nonzero;stroke:none"
                       transform="matrix(1,0,0,-1,72.417,3.35)"><tspan
                         id="tspan230"
                         y="0"
                         x="0">7</tspan></text>
<g
                       transform="translate(72.417,3.35)"
                       id="g234" /></g></g><g
                   transform="translate(-35.367,37.423)"
                   id="g236" /></g></g></g><g
             id="g238"><g
               transform="translate(56.693,-34.015)"
               id="g240"><g
                 id="g242" /><g
                 transform="translate(-56.693,34.015)"
                 id="g244" /></g><g
               id="g246"><path
                 id="path248"
                 style="fill:none;stroke:#0000ff;stroke-width:0.99628001;stroke-linecap:butt;stroke-linejoin:miter;stroke-miterlimit:10;stroke-dasharray:none;stroke-opacity:1"
                 d="m 54.70107,-36.00864 3.9851,3.98511 m -3.9851,0 3.9851,-3.98511" /></g></g><g
             id="g250"><g
               id="g252" /><g
               transform="translate(51.333,-27.972)"
               id="g254"><g
                 id="g256"><g
                   transform="translate(-88.383,-12.801)"
                   id="g258"><text
                     id="text262"
                     style="font-variant:normal;font-weight:normal;font-size:10.3810997px;font-family:CMSY10;-inkscape-font-specification:CMSY10;writing-mode:lr-tb;fill:#0000ff;fill-opacity:1;fill-rule:nonzero;stroke:none"
                     transform="matrix(1,0,0,-1,88.508,12.801)"><tspan
                       id="tspan260"
                       y="0"
                       x="0">S</tspan></text>
<text
                     id="text266"
                     style="font-variant:normal;font-size:7.57159996px;font-family:'URW Gothic';-inkscape-font-specification:URWPalladioL-Ital;writing-mode:lr-tb;fill:#0000ff;fill-opacity:1;fill-rule:nonzero;stroke:none"
                     transform="matrix(1,0,0,-1,95.003,10.716)"><tspan
                       id="tspan264"
                       y="0"
                       x="0">b</tspan></text>
<g
                     transform="translate(88.383,12.801)"
                     id="g268" /></g></g><g
                 transform="translate(-51.333,27.972)"
                 id="g270" /></g></g><g
             id="g272"><g
               id="g274" /><g
               transform="translate(30.972,25.617)"
               id="g276"><g
                 id="g278"><g
                   transform="translate(-68.022,-66.39)"
                   id="g280"><text
                     id="text284"
                     style="font-style:italic;font-variant:normal;font-size:9.96259975px;font-family:PazoMath;-inkscape-font-specification:PazoMath-Italic;writing-mode:lr-tb;fill:#ff0000;fill-opacity:1;fill-rule:nonzero;stroke:none"
                     transform="matrix(1,0,0,-1,68.147,66.39)"><tspan
                       id="tspan282"
                       y="0"
                       x="0">ε</tspan></text>
<text
                     id="text288"
                     style="font-variant:normal;font-weight:normal;font-size:7.57159996px;font-family:PazoMath;-inkscape-font-specification:PazoMath;writing-mode:lr-tb;fill:#ff0000;fill-opacity:1;fill-rule:nonzero;stroke:none"
                     transform="matrix(1,0,0,-1,72.56,64.895)"><tspan
                       id="tspan286"
                       y="0"
                       x="0">∞</tspan></text>
<text
                     id="text292"
                     style="font-variant:normal;font-weight:normal;font-size:10.3810997px;font-family:CMR10;-inkscape-font-specification:CMR10;writing-mode:lr-tb;fill:#ff0000;fill-opacity:1;fill-rule:nonzero;stroke:none"
                     transform="matrix(1,0,0,-1,81.673,66.39)"><tspan
                       id="tspan290"
                       y="0"
                       x="0">=</tspan></text>
<text
                     id="text296"
                     style="font-variant:normal;font-size:9.96259975px;font-family:'URW Gothic';-inkscape-font-specification:URWPalladioL-Roma;writing-mode:lr-tb;fill:#ff0000;fill-opacity:1;fill-rule:nonzero;stroke:none"
                     transform="matrix(1,0,0,-1,91.805,66.39)"><tspan
                       id="tspan294"
                       y="0"
                       x="0">1</tspan></text>
<g
                     transform="translate(68.022,66.39)"
                     id="g298" /></g></g><g
                 transform="translate(-30.972,-25.617)"
                 id="g300" /></g></g><g
             id="g302"><path
               id="path304"
               style="fill:#ff0000;fill-opacity:1;fill-rule:nonzero;stroke:none"
               d="m 29.76413,14.17339 c 0,0.78277 -0.63457,1.41732 -1.41733,1.41732 -0.78276,0 -1.41733,-0.63455 -1.41733,-1.41732 0,-0.78276 0.63457,-1.41733 1.41733,-1.41733 0.78276,0 1.41733,0.63457 1.41733,1.41733 z" /></g><g
             id="g306"><g
               id="g308" /><g
               transform="translate(17.906,12.66)"
               id="g310"><g
                 id="g312"><g
                   transform="translate(-54.956,-53.433)"
                   id="g314"><text
                     id="text318"
                     style="font-variant:normal;font-size:9.96259975px;font-family:'URW Gothic';-inkscape-font-specification:URWPalladioL-Ital;writing-mode:lr-tb;fill:#ff0000;fill-opacity:1;fill-rule:nonzero;stroke:none"
                     transform="matrix(1,0,0,-1,55.08,53.433)"><tspan
                       id="tspan316"
                       y="0"
                       x="0">s</tspan></text>
<text
                     id="text322"
                     style="font-variant:normal;font-size:7.57159996px;font-family:'URW Gothic';-inkscape-font-specification:URWPalladioL-Roma;writing-mode:lr-tb;fill:#ff0000;fill-opacity:1;fill-rule:nonzero;stroke:none"
                     transform="matrix(1,0,0,-1,59.08,51.689)"><tspan
                       id="tspan320"
                       y="0"
                       x="0">2</tspan></text>
<g
                     transform="translate(54.956,53.433)"
                     id="g324" /></g></g><g
                 transform="translate(-17.906,-12.66)"
                 id="g326" /></g></g></g></g></g></g></svg>