<?xml version="1.0" encoding="UTF-8" standalone="no"?>
<!-- Created with Inkscape (http://www.inkscape.org/) -->

<svg
   xmlns:dc="http://purl.org/dc/elements/1.1/"
   xmlns:cc="http://creativecommons.org/ns#"
   xmlns:rdf="http://www.w3.org/1999/02/22-rdf-syntax-ns#"
   xmlns:svg="http://www.w3.org/2000/svg"
   xmlns="http://www.w3.org/2000/svg"
   xmlns:sodipodi="http://sodipodi.sourceforge.net/DTD/sodipodi-0.dtd"
   xmlns:inkscape="http://www.inkscape.org/namespaces/inkscape"
   width="108.36023mm"
   height="81.430138mm"
   viewBox="0 0 108.36023 81.430138"
   version="1.1"
   id="svg6473"
   inkscape:version="0.92.1 r"
   sodipodi:docname="redundancy.svg">
  <defs
     id="defs6467" />
  <sodipodi:namedview
     id="base"
     pagecolor="#ffffff"
     bordercolor="#666666"
     borderopacity="1.0"
     inkscape:pageopacity="0.0"
     inkscape:pageshadow="2"
     inkscape:zoom="1.6378906"
     inkscape:cx="204.28754"
     inkscape:cy="181.49431"
     inkscape:document-units="mm"
     inkscape:current-layer="layer1"
     showgrid="false"
     fit-margin-top="1"
     fit-margin-left="1"
     fit-margin-right="1"
     fit-margin-bottom="1"
     inkscape:window-width="1366"
     inkscape:window-height="768"
     inkscape:window-x="0"
     inkscape:window-y="0"
     inkscape:window-maximized="0"
     inkscape:snap-bbox="true"
     inkscape:bbox-paths="true"
     inkscape:bbox-nodes="true"
     inkscape:snap-bbox-edge-midpoints="true"
     inkscape:snap-bbox-midpoints="true"
     inkscape:object-paths="true"
     inkscape:snap-intersection-paths="true"
     inkscape:snap-smooth-nodes="true" />
  <metadata
     id="metadata6470">
    <rdf:RDF>
      <cc:Work
         rdf:about="">
        <dc:format>image/svg+xml</dc:format>
        <dc:type
           rdf:resource="http://purl.org/dc/dcmitype/StillImage" />
        <dc:title></dc:title>
      </cc:Work>
    </rdf:RDF>
  </metadata>
  <g
     inkscape:label="Camada 1"
     inkscape:groupmode="layer"
     id="layer1"
     transform="translate(-28.519936,-48.211294)">
    <path
       sodipodi:nodetypes="ssssccs"
       inkscape:connector-curvature="0"
       id="path7021"
       d="m 134.43862,100.3852 c -7.78702,12.43261 -15.8654,8.91495 -24.4414,21.69556 -6.33572,9.44197 -25.910766,7.02792 -42.475469,0.84115 C 50.205471,116.45444 47.651754,98.886865 46.312766,82.407399 45.852919,76.747885 45.609684,50.074366 59.206061,49.476445 c 22.402479,2.191838 35.794315,25.562251 51.934989,30.984883 17.33944,5.354417 28.19576,12.103523 23.29757,19.923872 z"
       style="opacity:1;vector-effect:none;fill:none;fill-opacity:0.22564103;stroke:#333333;stroke-width:0.52916664;stroke-linecap:square;stroke-linejoin:miter;stroke-miterlimit:10;stroke-dasharray:none;stroke-dashoffset:0;stroke-opacity:1" />
    <text
       id="text7049"
       y="100.65931"
       x="33.410294"
       style="font-style:normal;font-variant:normal;font-weight:normal;font-stretch:normal;font-size:5.72580051px;line-height:1.25;font-family:'Open Sans';-inkscape-font-specification:'Open Sans';font-variant-ligatures:normal;font-variant-position:normal;font-variant-caps:normal;font-variant-numeric:normal;font-variant-alternates:normal;font-feature-settings:normal;text-indent:0;text-align:start;text-decoration:none;text-decoration-line:none;text-decoration-style:solid;text-decoration-color:#000000;letter-spacing:0px;word-spacing:0px;text-transform:none;writing-mode:lr-tb;direction:ltr;text-orientation:mixed;dominant-baseline:auto;baseline-shift:baseline;text-anchor:start;white-space:normal;shape-padding:0;opacity:1;vector-effect:none;fill:#000080;fill-opacity:1;stroke:none;stroke-width:0.26458332;stroke-linecap:butt;stroke-linejoin:miter;stroke-miterlimit:4;stroke-dasharray:none;stroke-dashoffset:0;stroke-opacity:1"
       xml:space="preserve"><tspan
         style="font-style:normal;font-variant:normal;font-weight:normal;font-stretch:normal;font-family:Montserrat;-inkscape-font-specification:Montserrat;fill:#000080;stroke-width:0.26458332"
         y="100.65931"
         x="33.410294"
         id="tspan7047"
         sodipodi:role="line">s<tspan
   id="tspan7045"
   style="font-style:normal;font-variant:normal;font-weight:normal;font-stretch:normal;font-size:1.47821474px;font-family:Montserrat;-inkscape-font-specification:Montserrat;baseline-shift:sub;fill:#000080;stroke-width:0.26458332" /></tspan></text>
    <text
       xml:space="preserve"
       style="font-style:normal;font-variant:normal;font-weight:normal;font-stretch:normal;font-size:5.72580051px;line-height:1.25;font-family:'Open Sans';-inkscape-font-specification:'Open Sans';font-variant-ligatures:normal;font-variant-position:normal;font-variant-caps:normal;font-variant-numeric:normal;font-variant-alternates:normal;font-feature-settings:normal;text-indent:0;text-align:start;text-decoration:none;text-decoration-line:none;text-decoration-style:solid;text-decoration-color:#000000;letter-spacing:0px;word-spacing:0px;text-transform:none;writing-mode:lr-tb;direction:ltr;text-orientation:mixed;dominant-baseline:auto;baseline-shift:baseline;text-anchor:start;white-space:normal;shape-padding:0;opacity:1;vector-effect:none;fill:#000080;fill-opacity:1;stroke:none;stroke-width:0.26458332;stroke-linecap:butt;stroke-linejoin:miter;stroke-miterlimit:4;stroke-dasharray:none;stroke-dashoffset:0;stroke-opacity:1"
       x="36.056129"
       y="102.2468"
       id="text7057"><tspan
         sodipodi:role="line"
         id="tspan7055"
         x="36.056129"
         y="102.2468"
         style="font-style:normal;font-variant:normal;font-weight:normal;font-stretch:normal;font-size:3.70416665px;font-family:Montserrat;-inkscape-font-specification:Montserrat;fill:#000080;stroke-width:0.26458332">b</tspan></text>
    <circle
       style="opacity:1;vector-effect:none;fill:#000080;fill-opacity:1;stroke:none;stroke-width:0.52916664;stroke-linecap:square;stroke-linejoin:miter;stroke-miterlimit:10;stroke-dasharray:none;stroke-dashoffset:0;stroke-opacity:1"
       id="path7059"
       cx="31.409817"
       cy="95.23632"
       r="1.8898809" />
    <text
       id="text7049-6"
       y="100.65931"
       x="33.410294"
       style="font-style:normal;font-variant:normal;font-weight:normal;font-stretch:normal;font-size:5.72580051px;line-height:1.25;font-family:'Open Sans';-inkscape-font-specification:'Open Sans';font-variant-ligatures:normal;font-variant-position:normal;font-variant-caps:normal;font-variant-numeric:normal;font-variant-alternates:normal;font-feature-settings:normal;text-indent:0;text-align:start;text-decoration:none;text-decoration-line:none;text-decoration-style:solid;text-decoration-color:#000000;letter-spacing:0px;word-spacing:0px;text-transform:none;writing-mode:lr-tb;direction:ltr;text-orientation:mixed;dominant-baseline:auto;baseline-shift:baseline;text-anchor:start;white-space:normal;shape-padding:0;opacity:1;vector-effect:none;fill:#000080;fill-opacity:1;stroke:none;stroke-width:0.26458332;stroke-linecap:butt;stroke-linejoin:miter;stroke-miterlimit:4;stroke-dasharray:none;stroke-dashoffset:0;stroke-opacity:1"
       xml:space="preserve"><tspan
         style="font-style:normal;font-variant:normal;font-weight:normal;font-stretch:normal;font-family:Montserrat;-inkscape-font-specification:Montserrat;fill:#000080;stroke-width:0.26458332"
         y="100.65931"
         x="33.410294"
         id="tspan7047-7"
         sodipodi:role="line">s<tspan
   id="tspan7045-5"
   style="font-style:normal;font-variant:normal;font-weight:normal;font-stretch:normal;font-size:1.47821486px;font-family:Montserrat;-inkscape-font-specification:Montserrat;baseline-shift:sub;fill:#000080;stroke-width:0.26458332" /></tspan></text>
    <text
       xml:space="preserve"
       style="font-style:normal;font-variant:normal;font-weight:normal;font-stretch:normal;font-size:5.72580051px;line-height:1.25;font-family:'Open Sans';-inkscape-font-specification:'Open Sans';font-variant-ligatures:normal;font-variant-position:normal;font-variant-caps:normal;font-variant-numeric:normal;font-variant-alternates:normal;font-feature-settings:normal;text-indent:0;text-align:start;text-decoration:none;text-decoration-line:none;text-decoration-style:solid;text-decoration-color:#000000;letter-spacing:0px;word-spacing:0px;text-transform:none;writing-mode:lr-tb;direction:ltr;text-orientation:mixed;dominant-baseline:auto;baseline-shift:baseline;text-anchor:start;white-space:normal;shape-padding:0;opacity:1;vector-effect:none;fill:#000080;fill-opacity:1;stroke:none;stroke-width:0.26458332;stroke-linecap:butt;stroke-linejoin:miter;stroke-miterlimit:4;stroke-dasharray:none;stroke-dashoffset:0;stroke-opacity:1"
       x="36.056129"
       y="102.2468"
       id="text7057-3"><tspan
         sodipodi:role="line"
         id="tspan7055-5"
         x="36.056129"
         y="102.2468"
         style="font-style:normal;font-variant:normal;font-weight:normal;font-stretch:normal;font-size:3.70416665px;font-family:Montserrat;-inkscape-font-specification:Montserrat;fill:#000080;stroke-width:0.26458332">b</tspan></text>
    <circle
       style="opacity:1;vector-effect:none;fill:#000080;fill-opacity:1;stroke:none;stroke-width:0.52916664;stroke-linecap:square;stroke-linejoin:miter;stroke-miterlimit:10;stroke-dasharray:none;stroke-dashoffset:0;stroke-opacity:1"
       id="path7059-6"
       cx="31.409817"
       cy="95.23632"
       r="1.8898809" />
    <path
       style="fill:none;stroke:#16164f;stroke-width:0.26458332px;stroke-linecap:butt;stroke-linejoin:miter;stroke-opacity:1"
       d="m 46.694264,67.367633 c 0,0 4.925032,12.553916 10.331348,16.402469 5.406316,3.84855 13.242126,4.070874 19.900947,4.629872 6.65882,0.558998 9.754709,-2.559857 19.62439,-1.200068 2.373474,0.327004 5.796491,1.259255 9.626991,2.486739"
       id="path7073"
       inkscape:connector-curvature="0"
       sodipodi:nodetypes="czzsc" />
    <path
       style="fill:#99d9f2;fill-opacity:1;stroke:none;stroke-width:0.99999996px;stroke-linecap:butt;stroke-linejoin:miter;stroke-opacity:1;font-variant-east_asian:normal;opacity:1;vector-effect:none;stroke-miterlimit:4;stroke-dasharray:none;stroke-dashoffset:0"
       d="M 68.689453 72.402344 C 60.343602 137.93081 77.674396 222.57126 97.984375 243.11719 C 97.984375 243.11719 133.59799 205.13476 159.44531 200.30078 L 159.69922 200.05469 C 159.65206 192.16896 159.3737 185.02852 158.75977 179.37305 C 157.52244 167.97506 154.60255 158.21057 151.38672 148.99805 C 151.37824 148.99693 151.36981 148.99526 151.36133 148.99414 C 135.47945 146.89587 119.96504 143.0983 107.73828 134.39453 C 87.304965 119.84883 68.689453 72.402344 68.689453 72.402344 z "
       transform="matrix(0.26458333,0,0,0.26458333,28.519936,48.211294)"
       id="path7075" />
    <path
       sodipodi:nodetypes="csscccccssccscc"
       inkscape:connector-curvature="0"
       id="path19818"
       d="m 70.706403,101.20777 c 0.470293,-0.088 0.928366,-0.13431 1.370316,-0.13331 6.868571,0.0174 10.224556,8.94433 16.864987,11.08518 5.160646,1.66377 11.785684,1.59585 17.277404,1.24901 l 0.003,0.0211 c -0.53019,-3.44092 -0.97759,-7.10748 -1.04029,-9.97705 -0.0758,-3.473324 0.43834,-8.910254 1.01492,-13.763855 l -0.0188,-0.0022 c -3.8305,-1.227484 -7.253517,-2.159734 -9.626991,-2.486738 -9.869681,-1.359791 -12.96557,1.759066 -19.624391,1.200068 -2.674358,-0.224508 -5.538569,-0.39471 -8.358991,-0.767337 l -0.01521,-0.06345 c 0.859689,2.456299 1.642459,5.058997 1.972707,8.101176 0.162438,1.496343 0.236344,3.38546 0.248822,5.471891 z"
       style="fill:#99d9f2;fill-opacity:1;stroke:none;stroke-width:0.26458332px;stroke-linecap:butt;stroke-linejoin:miter;stroke-opacity:1" />
    <text
       id="text7043"
       y="111.0021"
       x="99.345207"
       style="font-style:normal;font-variant:normal;font-weight:normal;font-stretch:normal;font-size:5.72580051px;line-height:1.25;font-family:'Open Sans';-inkscape-font-specification:'Open Sans';font-variant-ligatures:normal;font-variant-position:normal;font-variant-caps:normal;font-variant-numeric:normal;font-variant-alternates:normal;font-feature-settings:normal;text-indent:0;text-align:start;text-decoration:none;text-decoration-line:none;text-decoration-style:solid;text-decoration-color:#000000;letter-spacing:0px;word-spacing:0px;text-transform:none;writing-mode:lr-tb;direction:ltr;text-orientation:mixed;dominant-baseline:auto;baseline-shift:baseline;text-anchor:start;white-space:normal;shape-padding:0;opacity:1;vector-effect:none;fill:#800000;fill-opacity:1;stroke:none;stroke-width:0.26458332;stroke-linecap:butt;stroke-linejoin:miter;stroke-miterlimit:4;stroke-dasharray:none;stroke-dashoffset:0;stroke-opacity:1"
       xml:space="preserve"><tspan
         style="font-style:normal;font-variant:normal;font-weight:normal;font-stretch:normal;font-size:3.70416665px;font-family:Montserrat;-inkscape-font-specification:Montserrat;fill:#800000;stroke-width:0.26458332"
         y="116.07544"
         x="99.345207"
         id="tspan7041"
         sodipodi:role="line" /></text>
    <path
       sodipodi:nodetypes="csscccccssccscccc"
       inkscape:connector-curvature="0"
       id="path20064"
       d="m 70.706403,101.20777 c 0.470293,-0.088 0.928366,-0.13431 1.370316,-0.13331 6.868571,0.0174 10.224556,8.94433 16.864987,11.08518 5.160646,1.66377 11.785684,1.59585 17.277404,1.24901 l 0.003,0.0211 c -0.53019,-3.44092 -0.97759,-7.10748 -1.04029,-9.97705 -0.0758,-3.473324 0.43834,-8.910254 1.01492,-13.763855 l -0.0188,-0.0022 c -3.8305,-1.227484 -7.253517,-2.159734 -9.626991,-2.486738 -9.869681,-1.359791 -12.96557,1.759066 -19.624391,1.200068 -2.674358,-0.224508 -5.538569,-0.39471 -8.358991,-0.767337 m 0,0 C 64.365487,87.07747 60.260607,86.072972 57.025611,83.770101 51.619296,79.92155 46.694264,67.367633 46.694264,67.367633 c -2.208173,17.337739 2.377134,39.732437 7.750816,45.168547 0,0 9.422582,-10.04941 16.261353,-11.3284 l -3e-5,-1e-5"
       style="fill:none;fill-opacity:0.23762375;stroke:#528e00;stroke-width:0.26458332px;stroke-linecap:butt;stroke-linejoin:miter;stroke-opacity:1" />
    <text
       id="text7493"
       y="103.48373"
       x="89.818718"
       style="font-style:italic;font-variant:normal;font-weight:500;font-stretch:normal;font-size:7.17944622px;line-height:1.25;font-family:Utopia;-inkscape-font-specification:'Utopia Medium Italic';letter-spacing:0px;word-spacing:0px;fill:#000000;fill-opacity:1;stroke:none;stroke-width:0.26458332"
       xml:space="preserve"><tspan
         style="font-style:italic;font-variant:normal;font-weight:500;font-stretch:normal;font-family:Utopia;-inkscape-font-specification:'Utopia Medium Italic';stroke-width:0.26458332"
         y="103.48373"
         x="89.818718"
         id="tspan7491"
         sodipodi:role="line">1</tspan></text>
    <g
       transform="matrix(2.9384346,0,0,2.9384346,-248.8425,-166.74832)"
       style="fill:#000000;fill-opacity:1;stroke-width:0.12005636"
       id="g5954">
      <g
         id="use5952"
         transform="matrix(0.26458333,0,0,0.26458333,113.01293,91.203295)"
         style="fill:#000000;stroke-width:0.12005636">
        <path
           inkscape:connector-curvature="0"
           id="path9177"
           d="m 6.53125,-1.953125 c 0.046875,0.25 0.078125,0.5 0.078125,0.75 0,0.390625 -0.078125,0.765625 -0.21875,1.140625 0,0.015625 0,0.03125 0,0.046875 0,0.109375 0.125,0.140625 0.21875,0.140625 0.0625,0 0.109375,-0.015625 0.15625,-0.0625 0.0625,-0.109375 0.109375,-0.296875 0.15625,-0.40625 0.109375,-0.3125 0.234375,-0.625 0.359375,-0.9375 C 7.6875,-2.25 8.171875,-3.1875 8.703125,-4.109375 9.09375,-4.78125 9.65625,-5.5 10.359375,-5.921875 c 0.171875,-0.109375 0.375,-0.171875 0.53125,-0.28125 C 10.96875,-6.25 10.96875,-6.296875 10.96875,-6.375 v -0.015625 c 0,-0.078125 -0.01563,-0.25 -0.15625,-0.25 h -0.04687 c -1.125,0.453125 -1.84375,1.4375 -2.40625,2.40625 -0.375,0.640625 -0.734375,1.3125 -1.0625,1.984375 V -2.375 L 6.78125,-5.46875 c 0,-0.3125 0.15625,-0.703125 0.28125,-0.984375 C 7.078125,-6.46875 7.078125,-6.484375 7.078125,-6.5 c 0,-0.125 -0.109375,-0.140625 -0.234375,-0.140625 -0.0625,0 -0.09375,0 -0.125,0.046875 -0.125,0.125 -0.171875,0.296875 -0.265625,0.4375 L 4.03125,-1.984375 c -0.421875,0.703125 -1.25,1.796875 -2.25,1.796875 -0.421875,0 -1.234375,-0.09375 -1.234375,-0.59375 0,-0.046875 0.015625,-0.09375 0.015625,-0.140625 0.09375,0.0625 0.265625,0.109375 0.375,0.109375 0.234375,0 0.515625,-0.21875 0.515625,-0.390625 0,-0.21875 -0.25,-0.40625 -0.484375,-0.40625 -0.5,0 -0.75,0.375 -0.75,0.84375 0,0.671875 0.96875,0.875 1.5625,0.875 1.140625,0 2.078125,-1.140625 2.59375,-1.96875 C 4.96875,-2.78125 5.515625,-3.75 6.078125,-4.703125 Z m 0,0"
           style="fill:#000000;stroke:none;stroke-width:0.12005636" />
      </g>
    </g>
    <text
       xml:space="preserve"
       style="font-style:italic;font-variant:normal;font-weight:500;font-stretch:normal;font-size:7.17944622px;line-height:1.25;font-family:Utopia;-inkscape-font-specification:'Utopia Medium Italic';letter-spacing:0px;word-spacing:0px;fill:#000000;fill-opacity:1;stroke:none;stroke-width:0.26458332"
       x="57.539558"
       y="99.779556"
       id="text9183"><tspan
         sodipodi:role="line"
         id="tspan9181"
         x="57.539558"
         y="99.779556"
         style="font-style:italic;font-variant:normal;font-weight:500;font-stretch:normal;font-family:Utopia;-inkscape-font-specification:'Utopia Medium Italic';stroke-width:0.26458332">2</tspan></text>
    <g
       id="g9189"
       style="fill:#000000;fill-opacity:1;stroke-width:0.12005636"
       transform="matrix(2.9384346,0,0,2.9384346,-281.12169,-170.45251)">
      <g
         style="fill:#000000;stroke-width:0.12005636"
         transform="matrix(0.26458333,0,0,0.26458333,113.01293,91.203295)"
         id="g9187">
        <path
           style="fill:#000000;stroke:none;stroke-width:0.12005636"
           d="m 6.53125,-1.953125 c 0.046875,0.25 0.078125,0.5 0.078125,0.75 0,0.390625 -0.078125,0.765625 -0.21875,1.140625 0,0.015625 0,0.03125 0,0.046875 0,0.109375 0.125,0.140625 0.21875,0.140625 0.0625,0 0.109375,-0.015625 0.15625,-0.0625 0.0625,-0.109375 0.109375,-0.296875 0.15625,-0.40625 0.109375,-0.3125 0.234375,-0.625 0.359375,-0.9375 C 7.6875,-2.25 8.171875,-3.1875 8.703125,-4.109375 9.09375,-4.78125 9.65625,-5.5 10.359375,-5.921875 c 0.171875,-0.109375 0.375,-0.171875 0.53125,-0.28125 C 10.96875,-6.25 10.96875,-6.296875 10.96875,-6.375 v -0.015625 c 0,-0.078125 -0.01563,-0.25 -0.15625,-0.25 h -0.04687 c -1.125,0.453125 -1.84375,1.4375 -2.40625,2.40625 -0.375,0.640625 -0.734375,1.3125 -1.0625,1.984375 V -2.375 L 6.78125,-5.46875 c 0,-0.3125 0.15625,-0.703125 0.28125,-0.984375 C 7.078125,-6.46875 7.078125,-6.484375 7.078125,-6.5 c 0,-0.125 -0.109375,-0.140625 -0.234375,-0.140625 -0.0625,0 -0.09375,0 -0.125,0.046875 -0.125,0.125 -0.171875,0.296875 -0.265625,0.4375 L 4.03125,-1.984375 c -0.421875,0.703125 -1.25,1.796875 -2.25,1.796875 -0.421875,0 -1.234375,-0.09375 -1.234375,-0.59375 0,-0.046875 0.015625,-0.09375 0.015625,-0.140625 0.09375,0.0625 0.265625,0.109375 0.375,0.109375 0.234375,0 0.515625,-0.21875 0.515625,-0.390625 0,-0.21875 -0.25,-0.40625 -0.484375,-0.40625 -0.5,0 -0.75,0.375 -0.75,0.84375 0,0.671875 0.96875,0.875 1.5625,0.875 1.140625,0 2.078125,-1.140625 2.59375,-1.96875 C 4.96875,-2.78125 5.515625,-3.75 6.078125,-4.703125 Z m 0,0"
           id="path9185"
           inkscape:connector-curvature="0" />
      </g>
    </g>
    <path
       style="fill:none;stroke:#528e00;stroke-width:0.26458332px;stroke-linecap:butt;stroke-linejoin:miter;stroke-opacity:1;font-variant-east_asian:normal;opacity:1;vector-effect:none;fill-opacity:0.23762375;stroke-miterlimit:4;stroke-dasharray:none;stroke-dashoffset:0"
       d="m 68.470283,87.6197 c 1.576388,3.824466 2.4666,8.230966 2.236118,13.58807"
       id="path9205"
       inkscape:connector-curvature="0"
       sodipodi:nodetypes="cc" />
  </g>
</svg>
