<?xml version="1.0" encoding="UTF-8" standalone="no"?>
<svg
   xmlns:dc="http://purl.org/dc/elements/1.1/"
   xmlns:cc="http://creativecommons.org/ns#"
   xmlns:rdf="http://www.w3.org/1999/02/22-rdf-syntax-ns#"
   xmlns:svg="http://www.w3.org/2000/svg"
   xmlns="http://www.w3.org/2000/svg"
   viewBox="0 0 136.56267 103.764"
   height="103.764"
   width="136.56267"
   xml:space="preserve"
   id="svg2"
   version="1.1"><metadata
     id="metadata8"><rdf:RDF><cc:Work
         rdf:about=""><dc:format>image/svg+xml</dc:format><dc:type
           rdf:resource="http://purl.org/dc/dcmitype/StillImage" /></cc:Work></rdf:RDF></metadata><defs
     id="defs6" /><g
     transform="matrix(1.3333333,0,0,-1.3333333,0,103.764)"
     id="g10"><g
       transform="translate(37.05,40.773)"
       id="g12"><g
         id="g14"><g
           id="g16"><g
             id="g18"><path
               id="path20"
               style="fill:#ffb3b3;fill-opacity:1;fill-rule:nonzero;stroke:none"
               d="M 36.85094,0 C 36.85094,20.35246 20.35246,36.85094 0,36.85094 -20.35246,36.85094 -36.85094,20.35246 -36.85094,0 c 0,-20.35246 16.49848,-36.85094 36.85094,-36.85094 20.35246,0 36.85094,16.49848 36.85094,36.85094 z" /></g><path
             id="path22"
             style="fill:none;stroke:#000000;stroke-width:0.3985;stroke-linecap:butt;stroke-linejoin:miter;stroke-miterlimit:10;stroke-dasharray:none;stroke-opacity:1"
             d="M 36.85094,0 C 36.85094,20.35246 20.35246,36.85094 0,36.85094 -20.35246,36.85094 -36.85094,20.35246 -36.85094,0 c 0,-20.35246 16.49848,-36.85094 36.85094,-36.85094 20.35246,0 36.85094,16.49848 36.85094,36.85094 z" /><path
             id="path24"
             style="fill:none;stroke:#000000;stroke-width:0.3985;stroke-linecap:butt;stroke-linejoin:miter;stroke-miterlimit:10;stroke-dasharray:none;stroke-opacity:1"
             d="m 62.36288,0 c 0,11.74178 -12.6911,21.2601 -28.3468,21.2601 C 18.36037,21.2601 5.66927,11.74178 5.66927,0 c 0,-11.74178 12.6911,-21.2601 28.34681,-21.2601 15.6557,0 28.3468,9.51832 28.3468,21.2601 z" /><g
             id="g26"><path
               id="path28"
               style="fill:none;stroke:#000000;stroke-width:0.3985;stroke-linecap:butt;stroke-linejoin:miter;stroke-miterlimit:10;stroke-dasharray:none;stroke-opacity:1"
               d="m -30.58987,-30.25536 6.79469,8.09757" /><g
               transform="matrix(0.6457,0.76949,-0.76949,0.6457,-23.7952,-22.15779)"
               id="g30"><g
                 id="g32"><path
                   id="path34"
                   style="fill:#000000;fill-opacity:1;fill-rule:nonzero;stroke:none"
                   d="M 3.58653,0 C 2.52383,0.19925 0.797,0.797 -0.3985,1.49438 V -1.49438 C 0.797,-0.797 2.52383,-0.19925 3.58653,0" /></g></g><g
               id="g36"><g
                 transform="translate(-22.548,-19.205)"
                 id="g38"><g
                   id="g40"><g
                     transform="translate(-14.502,-21.568)"
                     id="g42"><text
                       id="text46"
                       style="font-variant:normal;font-size:9.96259975px;font-family:'URW Gothic';-inkscape-font-specification:URWPalladioL-Roma;writing-mode:lr-tb;fill:#000000;fill-opacity:1;fill-rule:nonzero;stroke:none"
                       transform="matrix(1,0,0,-1,14.502,21.568)"><tspan
                         id="tspan44"
                         y="0"
                         x="0">3</tspan></text>
<g
                       transform="translate(14.502,21.568)"
                       id="g48" /></g></g><g
                   transform="translate(22.548,19.205)"
                   id="g50" /></g></g></g><g
             id="g52"><path
               id="path54"
               style="fill:none;stroke:#000000;stroke-width:0.3985;stroke-linecap:butt;stroke-linejoin:miter;stroke-miterlimit:10;stroke-dasharray:none;stroke-opacity:1"
               d="M -15.51881,-24.69395 -22.3135,-32.7915" /><g
               transform="matrix(-0.6457,-0.76949,0.76949,-0.6457,-22.31349,-32.7915)"
               id="g56"><g
                 id="g58"><path
                   id="path60"
                   style="fill:#000000;fill-opacity:1;fill-rule:nonzero;stroke:none"
                   d="M 3.58653,0 C 2.52383,0.19925 0.797,0.797 -0.3985,1.49438 V -1.49438 C 0.797,-0.797 2.52383,-0.19925 3.58653,0" /></g></g><g
               id="g62"><g
                 transform="translate(-16.587,-24.501)"
                 id="g64"><g
                   id="g66"><g
                     transform="translate(-20.463,-16.272)"
                     id="g68"><text
                       id="text72"
                       style="font-variant:normal;font-size:9.96259975px;font-family:'URW Gothic';-inkscape-font-specification:URWPalladioL-Roma;writing-mode:lr-tb;fill:#000000;fill-opacity:1;fill-rule:nonzero;stroke:none"
                       transform="matrix(1,0,0,-1,20.463,16.272)"><tspan
                         id="tspan70"
                         y="0"
                         x="0">3</tspan></text>
<g
                       transform="translate(20.463,16.272)"
                       id="g74" /></g></g><g
                   transform="translate(16.587,24.501)"
                   id="g76" /></g></g></g><g
             id="g78"><path
               id="path80"
               style="fill:none;stroke:#000000;stroke-width:0.3985;stroke-linecap:butt;stroke-linejoin:miter;stroke-miterlimit:10;stroke-dasharray:none;stroke-opacity:1"
               d="M 0,3.9851 H 10.58685" /><g
               transform="translate(10.58685,3.9851)"
               id="g82"><g
                 id="g84"><path
                   id="path86"
                   style="fill:#000000;fill-opacity:1;fill-rule:nonzero;stroke:none"
                   d="M 3.58653,0 C 2.52383,0.19925 0.797,0.797 -0.3985,1.49438 V -1.49438 C 0.797,-0.797 2.52383,-0.19925 3.58653,0" /></g></g><g
               id="g88"><g
                 transform="translate(-8.356,0.548)"
                 id="g90"><g
                   id="g92"><g
                     transform="translate(-28.694,-41.321)"
                     id="g94"><text
                       id="text98"
                       style="font-variant:normal;font-size:9.96259975px;font-family:'URW Gothic';-inkscape-font-specification:URWPalladioL-Roma;writing-mode:lr-tb;fill:#000000;fill-opacity:1;fill-rule:nonzero;stroke:none"
                       transform="matrix(1,0,0,-1,28.694,41.321)"><tspan
                         id="tspan96"
                         y="0"
                         x="0">4</tspan></text>
<g
                       transform="translate(28.694,41.321)"
                       id="g100" /></g></g><g
                   transform="translate(8.356,-0.548)"
                   id="g102" /></g></g></g><g
             id="g104"><path
               id="path106"
               style="fill:none;stroke:#000000;stroke-width:0.3985;stroke-linecap:butt;stroke-linejoin:miter;stroke-miterlimit:10;stroke-dasharray:none;stroke-opacity:1"
               d="M 13.94788,-3.9851 H 3.36101" /><g
               transform="rotate(180,1.680505,-1.99255)"
               id="g108"><g
                 id="g110"><path
                   id="path112"
                   style="fill:#000000;fill-opacity:1;fill-rule:nonzero;stroke:none"
                   d="M 3.58653,0 C 2.52383,0.19925 0.797,0.797 -0.3985,1.49438 V -1.49438 C 0.797,-0.797 2.52383,-0.19925 3.58653,0" /></g></g><g
               id="g114"><g
                 transform="translate(-8.581,-7.422)"
                 id="g116"><g
                   id="g118"><g
                     transform="translate(-28.469,-33.351)"
                     id="g120"><text
                       id="text124"
                       style="font-variant:normal;font-size:9.96259975px;font-family:'URW Gothic';-inkscape-font-specification:URWPalladioL-Roma;writing-mode:lr-tb;fill:#000000;fill-opacity:1;fill-rule:nonzero;stroke:none"
                       transform="matrix(1,0,0,-1,28.469,33.351)"><tspan
                         id="tspan122"
                         y="0"
                         x="0">1</tspan></text>
<g
                       transform="translate(28.469,33.351)"
                       id="g126" /></g></g><g
                   transform="translate(8.581,7.422)"
                   id="g128" /></g></g></g><g
             id="g130"><path
               id="path132"
               style="fill:none;stroke:#000000;stroke-width:0.3985;stroke-linecap:butt;stroke-linejoin:miter;stroke-miterlimit:10;stroke-dasharray:none;stroke-opacity:1"
               d="M 31.88086,3.9851 H 42.46771" /><g
               transform="translate(42.46771,3.9851)"
               id="g134"><g
                 id="g136"><path
                   id="path138"
                   style="fill:#000000;fill-opacity:1;fill-rule:nonzero;stroke:none"
                   d="M 3.58653,0 C 2.52383,0.19925 0.797,0.797 -0.3985,1.49438 V -1.49438 C 0.797,-0.797 2.52383,-0.19925 3.58653,0" /></g></g><g
               id="g140"><g
                 transform="translate(23.525,0.548)"
                 id="g142"><g
                   id="g144"><g
                     transform="translate(-60.575,-41.321)"
                     id="g146"><text
                       id="text150"
                       style="font-variant:normal;font-size:9.96259975px;font-family:'URW Gothic';-inkscape-font-specification:URWPalladioL-Roma;writing-mode:lr-tb;fill:#000000;fill-opacity:1;fill-rule:nonzero;stroke:none"
                       transform="matrix(1,0,0,-1,60.575,41.321)"><tspan
                         id="tspan148"
                         y="0"
                         x="0">2</tspan></text>
<g
                       transform="translate(60.575,41.321)"
                       id="g152" /></g></g><g
                   transform="translate(-23.525,-0.548)"
                   id="g154" /></g></g></g><g
             id="g156"><path
               id="path158"
               style="fill:none;stroke:#000000;stroke-width:0.3985;stroke-linecap:butt;stroke-linejoin:miter;stroke-miterlimit:10;stroke-dasharray:none;stroke-opacity:1"
               d="M 45.82874,-3.9851 H 35.24187" /><g
               transform="rotate(180,17.620935,-1.99255)"
               id="g160"><g
                 id="g162"><path
                   id="path164"
                   style="fill:#000000;fill-opacity:1;fill-rule:nonzero;stroke:none"
                   d="M 3.58653,0 C 2.52383,0.19925 0.797,0.797 -0.3985,1.49438 V -1.49438 C 0.797,-0.797 2.52383,-0.19925 3.58653,0" /></g></g><g
               id="g166"><g
                 transform="translate(23.299,-7.422)"
                 id="g168"><g
                   id="g170"><g
                     transform="translate(-60.349,-33.351)"
                     id="g172"><text
                       id="text176"
                       style="font-variant:normal;font-size:9.96259975px;font-family:'URW Gothic';-inkscape-font-specification:URWPalladioL-Roma;writing-mode:lr-tb;fill:#000000;fill-opacity:1;fill-rule:nonzero;stroke:none"
                       transform="matrix(1,0,0,-1,60.349,33.351)"><tspan
                         id="tspan174"
                         y="0"
                         x="0">7</tspan></text>
<g
                       transform="translate(60.349,33.351)"
                       id="g178" /></g></g><g
                   transform="translate(-23.299,7.422)"
                   id="g180" /></g></g></g><g
             id="g182"><path
               id="path184"
               style="fill:none;stroke:#000000;stroke-width:0.3985;stroke-linecap:butt;stroke-linejoin:miter;stroke-miterlimit:10;stroke-dasharray:none;stroke-opacity:1"
               d="m 37.85852,-27.89575 v 10.58687" /><g
               transform="rotate(90,27.5837,10.27482)"
               id="g186"><g
                 id="g188"><path
                   id="path190"
                   style="fill:#000000;fill-opacity:1;fill-rule:nonzero;stroke:none"
                   d="M 3.58653,0 C 2.52383,0.19925 0.797,0.797 -0.3985,1.49438 V -1.49438 C 0.797,-0.797 2.52383,-0.19925 3.58653,0" /></g></g><g
               id="g192"><g
                 transform="translate(43.337,-37.197)"
                 id="g194"><g
                   id="g196"><g
                     transform="translate(-80.387,-3.576)"
                     id="g198"><text
                       id="text202"
                       style="font-variant:normal;font-size:9.96259975px;font-family:'URW Gothic';-inkscape-font-specification:URWPalladioL-Roma;writing-mode:lr-tb;fill:#000000;fill-opacity:1;fill-rule:nonzero;stroke:none"
                       transform="matrix(1,0,0,-1,80.387,3.576)"><tspan
                         id="tspan200"
                         y="0"
                         x="0">1</tspan></text>
<g
                       transform="translate(80.387,3.576)"
                       id="g204" /></g></g><g
                   transform="translate(-43.337,37.197)"
                   id="g206" /></g></g></g><g
             id="g208"><path
               id="path210"
               style="fill:none;stroke:#000000;stroke-width:0.3985;stroke-linecap:butt;stroke-linejoin:miter;stroke-miterlimit:10;stroke-dasharray:none;stroke-opacity:1"
               d="M 44.83246,-14.94415 V -25.531" /><g
               transform="rotate(-90,9.65073,-35.18173)"
               id="g212"><g
                 id="g214"><path
                   id="path216"
                   style="fill:#000000;fill-opacity:1;fill-rule:nonzero;stroke:none"
                   d="M 3.58653,0 C 2.52383,0.19925 0.797,0.797 -0.3985,1.49438 V -1.49438 C 0.797,-0.797 2.52383,-0.19925 3.58653,0" /></g></g><g
               id="g218"><g
                 transform="translate(35.367,-37.423)"
                 id="g220"><g
                   id="g222"><g
                     transform="translate(-72.417,-3.35)"
                     id="g224"><text
                       id="text228"
                       style="font-variant:normal;font-size:9.96259975px;font-family:'URW Gothic';-inkscape-font-specification:URWPalladioL-Roma;writing-mode:lr-tb;fill:#000000;fill-opacity:1;fill-rule:nonzero;stroke:none"
                       transform="matrix(1,0,0,-1,72.417,3.35)"><tspan
                         id="tspan226"
                         y="0"
                         x="0">7</tspan></text>
<g
                       transform="translate(72.417,3.35)"
                       id="g230" /></g></g><g
                   transform="translate(-35.367,37.423)"
                   id="g232" /></g></g></g><g
             id="g234"><g
               transform="translate(56.693,-34.015)"
               id="g236"><g
                 id="g238" /><g
                 transform="translate(-56.693,34.015)"
                 id="g240" /></g><g
               id="g242"><path
                 id="path244"
                 style="fill:none;stroke:#0000ff;stroke-width:0.99628001;stroke-linecap:butt;stroke-linejoin:miter;stroke-miterlimit:10;stroke-dasharray:none;stroke-opacity:1"
                 d="m 54.70107,-36.00864 3.9851,3.98511 m -3.9851,0 3.9851,-3.98511" /></g></g><g
             id="g246"><g
               id="g248" /><g
               transform="translate(51.333,-27.972)"
               id="g250"><g
                 id="g252"><g
                   transform="translate(-88.383,-12.801)"
                   id="g254"><text
                     id="text258"
                     style="font-variant:normal;font-weight:normal;font-size:10.3810997px;font-family:CMSY10;-inkscape-font-specification:CMSY10;writing-mode:lr-tb;fill:#0000ff;fill-opacity:1;fill-rule:nonzero;stroke:none"
                     transform="matrix(1,0,0,-1,88.508,12.801)"><tspan
                       id="tspan256"
                       y="0"
                       x="0">S</tspan></text>
<text
                     id="text262"
                     style="font-variant:normal;font-size:7.57159996px;font-family:'URW Gothic';-inkscape-font-specification:URWPalladioL-Ital;writing-mode:lr-tb;fill:#0000ff;fill-opacity:1;fill-rule:nonzero;stroke:none"
                     transform="matrix(1,0,0,-1,95.003,10.716)"><tspan
                       id="tspan260"
                       y="0"
                       x="0">b</tspan></text>
<g
                     transform="translate(88.383,12.801)"
                     id="g264" /></g></g><g
                 transform="translate(-51.333,27.972)"
                 id="g266" /></g></g><g
             id="g268"><g
               id="g270" /><g
               transform="translate(30.972,25.692)"
               id="g272"><g
                 id="g274"><g
                   transform="translate(-68.022,-66.465)"
                   id="g276"><text
                     id="text280"
                     style="font-style:italic;font-variant:normal;font-size:9.96259975px;font-family:PazoMath;-inkscape-font-specification:PazoMath-Italic;writing-mode:lr-tb;fill:#ff0000;fill-opacity:1;fill-rule:nonzero;stroke:none"
                     transform="matrix(1,0,0,-1,68.147,66.465)"><tspan
                       id="tspan278"
                       y="0"
                       x="0">ε</tspan></text>
<text
                     id="text284"
                     style="font-variant:normal;font-weight:normal;font-size:7.57159996px;font-family:PazoMath;-inkscape-font-specification:PazoMath;writing-mode:lr-tb;fill:#ff0000;fill-opacity:1;fill-rule:nonzero;stroke:none"
                     transform="matrix(1,0,0,-1,72.56,64.97)"><tspan
                       id="tspan282"
                       y="0"
                       x="0">∞</tspan></text>
<text
                     id="text288"
                     style="font-variant:normal;font-weight:normal;font-size:10.3810997px;font-family:CMR10;-inkscape-font-specification:CMR10;writing-mode:lr-tb;fill:#ff0000;fill-opacity:1;fill-rule:nonzero;stroke:none"
                     transform="matrix(1,0,0,-1,81.673,66.465)"><tspan
                       id="tspan286"
                       y="0"
                       x="0">=</tspan></text>
<text
                     id="text292"
                     style="font-variant:normal;font-size:9.96259975px;font-family:'URW Gothic';-inkscape-font-specification:URWPalladioL-Roma;writing-mode:lr-tb;fill:#ff0000;fill-opacity:1;fill-rule:nonzero;stroke:none"
                     transform="matrix(1,0,0,-1,91.805,66.465)"><tspan
                       id="tspan290"
                       y="0"
                       x="0">3</tspan></text>
<g
                     transform="translate(68.022,66.465)"
                     id="g294" /></g></g><g
                 transform="translate(-30.972,-25.692)"
                 id="g296" /></g></g><g
             id="g298"><path
               id="path300"
               style="fill:#ff0000;fill-opacity:1;fill-rule:nonzero;stroke:none"
               d="m 1.41731,22.67752 c 0,0.78276 -0.63455,1.41731 -1.41731,1.41731 -0.78276,0 -1.41731,-0.63455 -1.41731,-1.41731 0,-0.78278 0.63455,-1.41732 1.41731,-1.41732 0.78276,0 1.41731,0.63454 1.41731,1.41732 z" /></g><g
             id="g302"><g
               id="g304" /><g
               transform="translate(-9.874,16.968)"
               id="g306"><g
                 id="g308"><g
                   transform="translate(-27.176,-57.741)"
                   id="g310"><text
                     id="text314"
                     style="font-variant:normal;font-size:9.96259975px;font-family:'URW Gothic';-inkscape-font-specification:URWPalladioL-Ital;writing-mode:lr-tb;fill:#ff0000;fill-opacity:1;fill-rule:nonzero;stroke:none"
                     transform="matrix(1,0,0,-1,27.301,57.741)"><tspan
                       id="tspan312"
                       y="0"
                       x="0">s</tspan></text>
<text
                     id="text318"
                     style="font-variant:normal;font-size:7.57159996px;font-family:'URW Gothic';-inkscape-font-specification:URWPalladioL-Roma;writing-mode:lr-tb;fill:#ff0000;fill-opacity:1;fill-rule:nonzero;stroke:none"
                     transform="matrix(1,0,0,-1,31.301,55.884)"><tspan
                       id="tspan316"
                       y="0"
                       x="0">1</tspan></text>
<g
                     transform="translate(27.176,57.741)"
                     id="g320" /></g></g><g
                 transform="translate(9.874,-16.968)"
                 id="g322" /></g></g></g></g></g></g></svg>