<?xml version="1.0" encoding="UTF-8" standalone="no"?>
<!-- Created with Inkscape (http://www.inkscape.org/) -->

<svg
   xmlns:dc="http://purl.org/dc/elements/1.1/"
   xmlns:cc="http://creativecommons.org/ns#"
   xmlns:rdf="http://www.w3.org/1999/02/22-rdf-syntax-ns#"
   xmlns:svg="http://www.w3.org/2000/svg"
   xmlns="http://www.w3.org/2000/svg"
   xmlns:sodipodi="http://sodipodi.sourceforge.net/DTD/sodipodi-0.dtd"
   xmlns:inkscape="http://www.inkscape.org/namespaces/inkscape"
   version="1.1"
   id="svg2"
   xml:space="preserve"
   width="171.52667"
   height="165.22932"
   viewBox="0 0 171.52667 165.22932"
   sodipodi:docname="spanning_forest.svg"
   inkscape:version="0.92.1 r"><metadata
     id="metadata8"><rdf:RDF><cc:Work
         rdf:about=""><dc:format>image/svg+xml</dc:format><dc:type
           rdf:resource="http://purl.org/dc/dcmitype/StillImage" /><dc:title></dc:title></cc:Work></rdf:RDF></metadata><defs
     id="defs6" /><sodipodi:namedview
     pagecolor="#ffffff"
     bordercolor="#666666"
     borderopacity="1"
     objecttolerance="10"
     gridtolerance="10"
     guidetolerance="10"
     inkscape:pageopacity="0"
     inkscape:pageshadow="2"
     inkscape:window-width="340"
     inkscape:window-height="743"
     id="namedview4"
     showgrid="false"
     inkscape:zoom="1.4283179"
     inkscape:cx="85.763336"
     inkscape:cy="82.614662"
     inkscape:window-x="1025"
     inkscape:window-y="0"
     inkscape:window-maximized="0"
     inkscape:current-layer="g10" /><g
     id="g10"
     inkscape:groupmode="layer"
     inkscape:label="spanning_forest"
     transform="matrix(1.3333333,0,0,-1.3333333,0,165.22933)"><g
       id="g12"
       transform="translate(15.639,10.959)"><g
         id="g14"><g
           id="g16"><g
             id="g18"><g
               id="g20"><path
                 d="m 0,102.06314 c 18.03624,8.41051 32.9953,8.41051 51.03156,0"
                 style="fill:none;stroke:#ffb3b3;stroke-width:4.98137999;stroke-linecap:butt;stroke-linejoin:miter;stroke-miterlimit:10;stroke-dasharray:none;stroke-opacity:1"
                 id="path22"
                 inkscape:connector-curvature="0" /></g></g><g
             id="g24"><g
               id="g26"><path
                 d="m 51.03156,102.06314 c 8.41049,-18.03625 8.41049,-32.99533 0,-51.03158"
                 style="fill:none;stroke:#ffb3b3;stroke-width:4.98137999;stroke-linecap:butt;stroke-linejoin:miter;stroke-miterlimit:10;stroke-dasharray:none;stroke-opacity:1"
                 id="path28"
                 inkscape:connector-curvature="0" /></g></g><g
             id="g30"><g
               id="g32"><path
                 d="M 51.03156,51.03156 C 32.9953,42.62105 18.03624,42.62105 0,51.03156"
                 style="fill:none;stroke:#ffb3b3;stroke-width:4.98137999;stroke-linecap:butt;stroke-linejoin:miter;stroke-miterlimit:10;stroke-dasharray:none;stroke-opacity:1"
                 id="path34"
                 inkscape:connector-curvature="0" /></g></g><g
             id="g36"><g
               id="g38"><path
                 d="m 51.03156,102.06314 c 18.03625,8.41051 32.99533,8.41051 51.03158,0"
                 style="fill:none;stroke:#ffb3b3;stroke-width:4.98137999;stroke-linecap:butt;stroke-linejoin:miter;stroke-miterlimit:10;stroke-dasharray:none;stroke-opacity:1"
                 id="path40"
                 inkscape:connector-curvature="0" /></g></g></g><g
           id="g42"><g
             id="g44"><g
               id="g46"><path
                 d="m 9.96277,102.04868 c 0,5.50235 -4.46042,9.96276 -9.96277,9.96276 -5.50235,0 -9.96277,-4.46041 -9.96277,-9.96276 0,-5.50237 4.46042,-9.96278 9.96277,-9.96278 5.50235,0 9.96277,4.46041 9.96277,9.96278 z"
                 style="fill:#ffffff;fill-opacity:1;fill-rule:nonzero;stroke:#595959;stroke-width:0.3985;stroke-linecap:butt;stroke-linejoin:miter;stroke-miterlimit:10;stroke-dasharray:none;stroke-opacity:1"
                 id="path48"
                 inkscape:connector-curvature="0" /></g><g
               id="g50"
               transform="translate(-2.929,99.821)"><g
                 id="g52"><g
                   id="g54"
                   transform="translate(-12.71,-110.78)"><text
                     transform="matrix(1,0,0,-1,12.909,110.78)"
                     style="font-style:italic;font-variant:normal;font-size:9.16559982px;font-family:Utopia;-inkscape-font-specification:Utopia-Italic;writing-mode:lr-tb;fill:#000000;fill-opacity:1;fill-rule:nonzero;stroke:none"
                     id="text58"><tspan
                       x="0"
                       y="0"
                       id="tspan56">a</tspan></text>
<g
                     id="g60"
                     transform="translate(12.71,110.78)" /></g></g><g
                 id="g62"
                 transform="translate(2.929,-99.821)" /></g></g><g
             id="g64"><g
               id="g66"><path
                 d="m 60.98709,102.04868 c 0,5.50235 -4.46042,9.96276 -9.96277,9.96276 -5.50235,0 -9.96277,-4.46041 -9.96277,-9.96276 0,-5.50237 4.46042,-9.96278 9.96277,-9.96278 5.50235,0 9.96277,4.46041 9.96277,9.96278 z"
                 style="fill:#ffffff;fill-opacity:1;fill-rule:nonzero;stroke:#595959;stroke-width:0.3985;stroke-linecap:butt;stroke-linejoin:miter;stroke-miterlimit:10;stroke-dasharray:none;stroke-opacity:1"
                 id="path68"
                 inkscape:connector-curvature="0" /></g><g
               id="g70"
               transform="translate(48.214,98.662)"><g
                 id="g72"><g
                   id="g74"
                   transform="translate(-63.853,-109.621)"><text
                     transform="matrix(1,0,0,-1,63.853,109.621)"
                     style="font-style:italic;font-variant:normal;font-size:9.16559982px;font-family:Utopia;-inkscape-font-specification:Utopia-Italic;writing-mode:lr-tb;fill:#000000;fill-opacity:1;fill-rule:nonzero;stroke:none"
                     id="text78"><tspan
                       x="0"
                       y="0"
                       id="tspan76">b</tspan></text>
<g
                     id="g80"
                     transform="translate(63.853,109.621)" /></g></g><g
                 id="g82"
                 transform="translate(-48.214,-98.662)" /></g></g><g
             id="g84"><g
               id="g86"><path
                 d="m 112.01144,102.04868 c 0,5.50235 -4.46041,9.96276 -9.96276,9.96276 -5.50237,0 -9.96278,-4.46041 -9.96278,-9.96276 0,-5.50237 4.46041,-9.96278 9.96278,-9.96278 5.50235,0 9.96276,4.46041 9.96276,9.96278 z"
                 style="fill:#ffffff;fill-opacity:1;fill-rule:nonzero;stroke:#595959;stroke-width:0.3985;stroke-linecap:butt;stroke-linejoin:miter;stroke-miterlimit:10;stroke-dasharray:none;stroke-opacity:1"
                 id="path88"
                 inkscape:connector-curvature="0" /></g><g
               id="g90"
               transform="translate(99.666,99.821)"><g
                 id="g92"><g
                   id="g94"
                   transform="translate(-115.305,-110.78)"><text
                     transform="matrix(1,0,0,-1,115.305,110.78)"
                     style="font-style:italic;font-variant:normal;font-size:9.16559982px;font-family:Utopia;-inkscape-font-specification:Utopia-Italic;writing-mode:lr-tb;fill:#000000;fill-opacity:1;fill-rule:nonzero;stroke:none"
                     id="text98"><tspan
                       x="0"
                       y="0"
                       id="tspan96">c</tspan></text>
<g
                     id="g100"
                     transform="translate(115.305,110.78)" /></g></g><g
                 id="g102"
                 transform="translate(-99.666,-99.821)" /></g></g><g
             id="g104"><g
               id="g106"><path
                 d="m 9.96277,51.02432 c 0,5.50235 -4.46042,9.96277 -9.96277,9.96277 -5.50235,0 -9.96277,-4.46042 -9.96277,-9.96277 0,-5.50235 4.46042,-9.96277 9.96277,-9.96277 5.50235,0 9.96277,4.46042 9.96277,9.96277 z"
                 style="fill:#ffffff;fill-opacity:1;fill-rule:nonzero;stroke:#595959;stroke-width:0.3985;stroke-linecap:butt;stroke-linejoin:miter;stroke-miterlimit:10;stroke-dasharray:none;stroke-opacity:1"
                 id="path108"
                 inkscape:connector-curvature="0" /></g><g
               id="g110"
               transform="translate(-3.154,47.639)"><g
                 id="g112"><g
                   id="g114"
                   transform="translate(-12.485,-58.598)"><text
                     transform="matrix(1,0,0,-1,12.485,58.598)"
                     style="font-style:italic;font-variant:normal;font-size:9.16559982px;font-family:Utopia;-inkscape-font-specification:Utopia-Italic;writing-mode:lr-tb;fill:#000000;fill-opacity:1;fill-rule:nonzero;stroke:none"
                     id="text118"><tspan
                       x="0"
                       y="0"
                       id="tspan116">d</tspan></text>
<g
                     id="g120"
                     transform="translate(12.485,58.598)" /></g></g><g
                 id="g122"
                 transform="translate(3.154,-47.639)" /></g></g><g
             id="g124"><g
               id="g126"><path
                 d="m 60.98709,51.02432 c 0,5.50235 -4.46042,9.96277 -9.96277,9.96277 -5.50235,0 -9.96277,-4.46042 -9.96277,-9.96277 0,-5.50235 4.46042,-9.96277 9.96277,-9.96277 5.50235,0 9.96277,4.46042 9.96277,9.96277 z"
                 style="fill:#ffffff;fill-opacity:1;fill-rule:nonzero;stroke:#595959;stroke-width:0.3985;stroke-linecap:butt;stroke-linejoin:miter;stroke-miterlimit:10;stroke-dasharray:none;stroke-opacity:1"
                 id="path128"
                 inkscape:connector-curvature="0" /></g><g
               id="g130"
               transform="translate(48.612,48.797)"><g
                 id="g132"><g
                   id="g134"
                   transform="translate(-64.251,-59.756)"><text
                     transform="matrix(1,0,0,-1,64.251,59.756)"
                     style="font-style:italic;font-variant:normal;font-size:9.16559982px;font-family:Utopia;-inkscape-font-specification:Utopia-Italic;writing-mode:lr-tb;fill:#000000;fill-opacity:1;fill-rule:nonzero;stroke:none"
                     id="text138"><tspan
                       x="0"
                       y="0"
                       id="tspan136">e</tspan></text>
<g
                     id="g140"
                     transform="translate(64.251,59.756)" /></g></g><g
                 id="g142"
                 transform="translate(-48.612,-48.797)" /></g></g><g
             id="g144"><g
               id="g146"><path
                 d="m 112.01144,51.02432 c 0,5.50235 -4.46041,9.96277 -9.96276,9.96277 -5.50237,0 -9.96278,-4.46042 -9.96278,-9.96277 0,-5.50235 4.46041,-9.96277 9.96278,-9.96277 5.50235,0 9.96276,4.46042 9.96276,9.96277 z"
                 style="fill:#ffffff;fill-opacity:1;fill-rule:nonzero;stroke:#595959;stroke-width:0.3985;stroke-linecap:butt;stroke-linejoin:miter;stroke-miterlimit:10;stroke-dasharray:none;stroke-opacity:1"
                 id="path148"
                 inkscape:connector-curvature="0" /></g><g
               id="g150"
               transform="translate(98.988,48.725)"><g
                 id="g152"><g
                   id="g154"
                   transform="translate(-114.627,-59.684)"><text
                     transform="matrix(1,0,0,-1,115.624,59.684)"
                     style="font-style:italic;font-variant:normal;font-size:9.16559982px;font-family:Utopia;-inkscape-font-specification:Utopia-Italic;writing-mode:lr-tb;fill:#000000;fill-opacity:1;fill-rule:nonzero;stroke:none"
                     id="text158"><tspan
                       x="0"
                       y="0"
                       id="tspan156">f</tspan></text>
<g
                     id="g160"
                     transform="translate(114.627,59.684)" /></g></g><g
                 id="g162"
                 transform="translate(-98.988,-48.725)" /></g></g><g
             id="g164"><g
               id="g166"><path
                 d="M 9.96277,0 C 9.96277,5.50235 5.50235,9.96277 0,9.96277 -5.50235,9.96277 -9.96277,5.50235 -9.96277,0 c 0,-5.50235 4.46042,-9.96277 9.96277,-9.96277 5.50235,0 9.96277,4.46042 9.96277,9.96277 z"
                 style="fill:#ffffff;fill-opacity:1;fill-rule:nonzero;stroke:#595959;stroke-width:0.3985;stroke-linecap:butt;stroke-linejoin:miter;stroke-miterlimit:10;stroke-dasharray:none;stroke-opacity:1"
                 id="path168"
                 inkscape:connector-curvature="0" /></g><g
               id="g170"
               transform="translate(-2.974,-1.213)"><g
                 id="g172"><g
                   id="g174"
                   transform="translate(-12.665,-9.746)"><text
                     transform="matrix(1,0,0,-1,12.864,9.746)"
                     style="font-style:italic;font-variant:normal;font-size:9.16559982px;font-family:Utopia;-inkscape-font-specification:Utopia-Italic;writing-mode:lr-tb;fill:#000000;fill-opacity:1;fill-rule:nonzero;stroke:none"
                     id="text178"><tspan
                       x="0"
                       y="0"
                       id="tspan176">g</tspan></text>
<g
                     id="g180"
                     transform="translate(12.665,9.746)" /></g></g><g
                 id="g182"
                 transform="translate(2.974,1.213)" /></g></g><g
             id="g184"><g
               id="g186"><path
                 d="m 9.56262,105.54659 c 11.69218,4.25566 20.21408,4.25611 31.24071,0.24267"
                 style="fill:none;stroke:#000000;stroke-width:0.79701;stroke-linecap:butt;stroke-linejoin:miter;stroke-miterlimit:10;stroke-dasharray:none;stroke-opacity:1"
                 id="path188"
                 inkscape:connector-curvature="0" /><g
                 id="g190"
                 transform="matrix(0.94089,-0.34244,0.34244,0.94089,40.80331,105.78928)"><g
                   id="g192"><path
                     d="M -1.55415,2.0722 C -1.42464,1.29512 0,0.1295 0.38852,0 0,-0.1295 -1.42464,-1.29512 -1.55415,-2.0722"
                     style="fill:none;stroke:#000000;stroke-width:0.6376;stroke-linecap:round;stroke-linejoin:round;stroke-miterlimit:10;stroke-dasharray:none;stroke-opacity:1"
                     id="path194"
                     inkscape:connector-curvature="0" /></g></g><g
                 id="g196"><g
                   id="g198"
                   transform="translate(23.327,102.317)"><g
                     id="g200"><g
                       id="g202"
                       transform="translate(-38.966,-113.276)"><text
                         transform="matrix(1,0,0,-1,38.966,113.276)"
                         style="font-variant:normal;font-weight:normal;font-size:8.24909973px;font-family:Utopia;-inkscape-font-specification:Utopia-Regular;writing-mode:lr-tb;fill:#000000;fill-opacity:1;fill-rule:nonzero;stroke:none"
                         id="text206"><tspan
                           x="0"
                           y="0"
                           id="tspan204">4</tspan></text>
<g
                         id="g208"
                         transform="translate(38.966,113.276)" /></g></g><g
                     id="g210"
                     transform="translate(-23.327,-102.317)" /></g></g></g></g><g
             id="g212"><g
               id="g214"><path
                 d="M 41.46887,98.58513 C 29.7767,94.32948 21.2548,94.3298 10.22816,98.34323"
                 style="fill:none;stroke:#000000;stroke-width:0.79701;stroke-linecap:butt;stroke-linejoin:miter;stroke-miterlimit:10;stroke-dasharray:none;stroke-opacity:1"
                 id="path216"
                 inkscape:connector-curvature="0" /><g
                 id="g218"
                 transform="matrix(-0.94089,0.34244,-0.34244,-0.94089,10.22818,98.34322)"><g
                   id="g220"><path
                     d="M -1.55415,2.0722 C -1.42464,1.29512 0,0.1295 0.38852,0 0,-0.1295 -1.42464,-1.29512 -1.55415,-2.0722"
                     style="fill:none;stroke:#000000;stroke-width:0.6376;stroke-linecap:round;stroke-linejoin:round;stroke-miterlimit:10;stroke-dasharray:none;stroke-opacity:1"
                     id="path222"
                     inkscape:connector-curvature="0" /></g></g><g
                 id="g224"><g
                   id="g226"
                   transform="translate(23.327,89.393)"><g
                     id="g228"><g
                       id="g230"
                       transform="translate(-38.966,-100.352)"><text
                         transform="matrix(1,0,0,-1,38.966,100.352)"
                         style="font-variant:normal;font-weight:normal;font-size:8.24909973px;font-family:Utopia;-inkscape-font-specification:Utopia-Regular;writing-mode:lr-tb;fill:#000000;fill-opacity:1;fill-rule:nonzero;stroke:none"
                         id="text234"><tspan
                           x="0"
                           y="0"
                           id="tspan232">7</tspan></text>
<g
                         id="g236"
                         transform="translate(38.966,100.352)" /></g></g><g
                     id="g238"
                     transform="translate(-23.327,-89.393)" /></g></g></g></g><g
             id="g240"><g
               id="g242"><path
                 d="M 3.4814,92.50047 C 7.7367,80.8082 7.7357,72.2863 3.72197,61.25977"
                 style="fill:none;stroke:#000000;stroke-width:0.79701;stroke-linecap:butt;stroke-linejoin:miter;stroke-miterlimit:10;stroke-dasharray:none;stroke-opacity:1"
                 id="path244"
                 inkscape:connector-curvature="0" /><g
                 id="g246"
                 transform="matrix(-0.3425,-0.94089,0.94089,-0.3425,3.72198,61.25978)"><g
                   id="g248"><path
                     d="M -1.55415,2.0722 C -1.42464,1.29512 0,0.1295 0.38852,0 0,-0.1295 -1.42464,-1.29512 -1.55415,-2.0722"
                     style="fill:none;stroke:#000000;stroke-width:0.6376;stroke-linecap:round;stroke-linejoin:round;stroke-miterlimit:10;stroke-dasharray:none;stroke-opacity:1"
                     id="path250"
                     inkscape:connector-curvature="0" /></g></g><g
                 id="g252"><g
                   id="g254"
                   transform="translate(1.399,73.807)"><g
                     id="g256"><g
                       id="g258"
                       transform="translate(-17.038,-84.766)"><text
                         transform="matrix(1,0,0,-1,17.038,84.766)"
                         style="font-variant:normal;font-weight:normal;font-size:8.24909973px;font-family:Utopia;-inkscape-font-specification:Utopia-Regular;writing-mode:lr-tb;fill:#000000;fill-opacity:1;fill-rule:nonzero;stroke:none"
                         id="text262"><tspan
                           x="0"
                           y="0"
                           id="tspan260">3</tspan></text>
<g
                         id="g264"
                         transform="translate(17.038,84.766)" /></g></g><g
                     id="g266"
                     transform="translate(-1.399,-73.807)" /></g></g></g></g><g
             id="g268"><g
               id="g270"><path
                 d="M -3.4797,60.59422 C -7.7357,72.2863 -7.7367,80.8082 -3.72362,91.83493"
                 style="fill:none;stroke:#000000;stroke-width:0.79701;stroke-linecap:butt;stroke-linejoin:miter;stroke-miterlimit:10;stroke-dasharray:none;stroke-opacity:1"
                 id="path272"
                 inkscape:connector-curvature="0" /><g
                 id="g274"
                 transform="matrix(0.34242,0.94089,-0.94089,0.34242,-3.72363,91.83492)"><g
                   id="g276"><path
                     d="M -1.55415,2.0722 C -1.42464,1.29512 0,0.1295 0.38852,0 0,-0.1295 -1.42464,-1.29512 -1.55415,-2.0722"
                     style="fill:none;stroke:#000000;stroke-width:0.6376;stroke-linecap:round;stroke-linejoin:round;stroke-miterlimit:10;stroke-dasharray:none;stroke-opacity:1"
                     id="path278"
                     inkscape:connector-curvature="0" /></g></g><g
                 id="g280"><g
                   id="g282"
                   transform="translate(-12.717,73.807)"><g
                     id="g284"><g
                       id="g286"
                       transform="translate(-2.922,-84.766)"><text
                         transform="matrix(1,0,0,-1,2.922,84.766)"
                         style="font-variant:normal;font-weight:normal;font-size:8.24909973px;font-family:Utopia;-inkscape-font-specification:Utopia-Regular;writing-mode:lr-tb;fill:#000000;fill-opacity:1;fill-rule:nonzero;stroke:none"
                         id="text290"><tspan
                           x="0"
                           y="0"
                           id="tspan288">8</tspan></text>
<g
                         id="g292"
                         transform="translate(2.922,84.766)" /></g></g><g
                     id="g294"
                     transform="translate(12.717,-73.807)" /></g></g></g></g><g
             id="g296"><g
               id="g298"><path
                 d="m 60.59422,105.54582 c 11.69208,4.25601 20.21398,4.25698 31.24071,0.2439"
                 style="fill:none;stroke:#000000;stroke-width:0.79701;stroke-linecap:butt;stroke-linejoin:miter;stroke-miterlimit:10;stroke-dasharray:none;stroke-opacity:1"
                 id="path300"
                 inkscape:connector-curvature="0" /><g
                 id="g302"
                 transform="matrix(0.94089,-0.3424,0.3424,0.94089,91.83492,105.78973)"><g
                   id="g304"><path
                     d="M -1.55415,2.0722 C -1.42464,1.29512 0,0.1295 0.38852,0 0,-0.1295 -1.42464,-1.29512 -1.55415,-2.0722"
                     style="fill:none;stroke:#000000;stroke-width:0.6376;stroke-linecap:round;stroke-linejoin:round;stroke-miterlimit:10;stroke-dasharray:none;stroke-opacity:1"
                     id="path306"
                     inkscape:connector-curvature="0" /></g></g><g
                 id="g308"><g
                   id="g310"
                   transform="translate(74.358,102.317)"><g
                     id="g312"><g
                       id="g314"
                       transform="translate(-89.997,-113.276)"><text
                         transform="matrix(1,0,0,-1,89.997,113.276)"
                         style="font-variant:normal;font-weight:normal;font-size:8.24909973px;font-family:Utopia;-inkscape-font-specification:Utopia-Regular;writing-mode:lr-tb;fill:#000000;fill-opacity:1;fill-rule:nonzero;stroke:none"
                         id="text318"><tspan
                           x="0"
                           y="0"
                           id="tspan316">6</tspan></text>
<g
                         id="g320"
                         transform="translate(89.997,113.276)" /></g></g><g
                     id="g322"
                     transform="translate(-74.358,-102.317)" /></g></g></g></g><g
             id="g324"><g
               id="g326"><path
                 d="M 92.50047,98.58466 C 80.8082,94.32938 72.2863,94.33038 61.25977,98.34413"
                 style="fill:none;stroke:#000000;stroke-width:0.79701;stroke-linecap:butt;stroke-linejoin:miter;stroke-miterlimit:10;stroke-dasharray:none;stroke-opacity:1"
                 id="path328"
                 inkscape:connector-curvature="0" /><g
                 id="g330"
                 transform="matrix(-0.94089,0.3425,-0.3425,-0.94089,61.25978,98.34412)"><g
                   id="g332"><path
                     d="M -1.55415,2.0722 C -1.42464,1.29512 0,0.1295 0.38852,0 0,-0.1295 -1.42464,-1.29512 -1.55415,-2.0722"
                     style="fill:none;stroke:#000000;stroke-width:0.6376;stroke-linecap:round;stroke-linejoin:round;stroke-miterlimit:10;stroke-dasharray:none;stroke-opacity:1"
                     id="path334"
                     inkscape:connector-curvature="0" /></g></g><g
                 id="g336"><g
                   id="g338"
                   transform="translate(74.358,89.393)"><g
                     id="g340"><g
                       id="g342"
                       transform="translate(-89.997,-100.352)"><text
                         transform="matrix(1,0,0,-1,89.997,100.352)"
                         style="font-variant:normal;font-weight:normal;font-size:8.24909973px;font-family:Utopia;-inkscape-font-specification:Utopia-Regular;writing-mode:lr-tb;fill:#000000;fill-opacity:1;fill-rule:nonzero;stroke:none"
                         id="text346"><tspan
                           x="0"
                           y="0"
                           id="tspan344">5</tspan></text>
<g
                         id="g348"
                         transform="translate(89.997,100.352)" /></g></g><g
                     id="g350"
                     transform="translate(-74.358,-89.393)" /></g></g></g></g><g
             id="g352"><g
               id="g354"><path
                 d="M 54.51436,92.50047 C 58.76965,80.8082 58.76866,72.2863 54.75493,61.25977"
                 style="fill:none;stroke:#000000;stroke-width:0.79701;stroke-linecap:butt;stroke-linejoin:miter;stroke-miterlimit:10;stroke-dasharray:none;stroke-opacity:1"
                 id="path356"
                 inkscape:connector-curvature="0" /><g
                 id="g358"
                 transform="matrix(-0.3425,-0.94089,0.94089,-0.3425,54.75494,61.25978)"><g
                   id="g360"><path
                     d="M -1.55415,2.0722 C -1.42464,1.29512 0,0.1295 0.38852,0 0,-0.1295 -1.42464,-1.29512 -1.55415,-2.0722"
                     style="fill:none;stroke:#000000;stroke-width:0.6376;stroke-linecap:round;stroke-linejoin:round;stroke-miterlimit:10;stroke-dasharray:none;stroke-opacity:1"
                     id="path362"
                     inkscape:connector-curvature="0" /></g></g><g
                 id="g364"><g
                   id="g366"
                   transform="translate(52.432,73.785)"><g
                     id="g368"><g
                       id="g370"
                       transform="translate(-68.071,-84.744)"><text
                         transform="matrix(1,0,0,-1,68.071,84.744)"
                         style="font-variant:normal;font-weight:normal;font-size:8.24909973px;font-family:Utopia;-inkscape-font-specification:Utopia-Regular;writing-mode:lr-tb;fill:#000000;fill-opacity:1;fill-rule:nonzero;stroke:none"
                         id="text374"><tspan
                           x="0"
                           y="0"
                           id="tspan372">4</tspan></text>
<g
                         id="g376"
                         transform="translate(68.071,84.744)" /></g></g><g
                     id="g378"
                     transform="translate(-52.432,-73.785)" /></g></g></g></g><g
             id="g380"><g
               id="g382"><path
                 d="M 47.55336,60.59422 C 43.29736,72.2863 43.29625,80.8082 47.30933,91.83493"
                 style="fill:none;stroke:#000000;stroke-width:0.79701;stroke-linecap:butt;stroke-linejoin:miter;stroke-miterlimit:10;stroke-dasharray:none;stroke-opacity:1"
                 id="path384"
                 inkscape:connector-curvature="0" /><g
                 id="g386"
                 transform="matrix(0.34242,0.94089,-0.94089,0.34242,47.30931,91.83492)"><g
                   id="g388"><path
                     d="M -1.55415,2.0722 C -1.42464,1.29512 0,0.1295 0.38852,0 0,-0.1295 -1.42464,-1.29512 -1.55415,-2.0722"
                     style="fill:none;stroke:#000000;stroke-width:0.6376;stroke-linecap:round;stroke-linejoin:round;stroke-miterlimit:10;stroke-dasharray:none;stroke-opacity:1"
                     id="path390"
                     inkscape:connector-curvature="0" /></g></g><g
                 id="g392"><g
                   id="g394"
                   transform="translate(38.315,73.807)"><g
                     id="g396"><g
                       id="g398"
                       transform="translate(-53.954,-84.766)"><text
                         transform="matrix(1,0,0,-1,53.954,84.766)"
                         style="font-variant:normal;font-weight:normal;font-size:8.24909973px;font-family:Utopia;-inkscape-font-specification:Utopia-Regular;writing-mode:lr-tb;fill:#000000;fill-opacity:1;fill-rule:nonzero;stroke:none"
                         id="text402"><tspan
                           x="0"
                           y="0"
                           id="tspan400">9</tspan></text>
<g
                         id="g404"
                         transform="translate(53.954,84.766)" /></g></g><g
                     id="g406"
                     transform="translate(-38.315,-73.807)" /></g></g></g></g><g
             id="g408"><g
               id="g410"><path
                 d="M 41.46887,47.55196 C 29.7767,43.29633 21.2548,43.29683 10.22816,47.31026"
                 style="fill:none;stroke:#000000;stroke-width:0.79701;stroke-linecap:butt;stroke-linejoin:miter;stroke-miterlimit:10;stroke-dasharray:none;stroke-opacity:1"
                 id="path412"
                 inkscape:connector-curvature="0" /><g
                 id="g414"
                 transform="matrix(-0.94089,0.34244,-0.34244,-0.94089,10.22818,47.31024)"><g
                   id="g416"><path
                     d="M -1.55415,2.0722 C -1.42464,1.29512 0,0.1295 0.38852,0 0,-0.1295 -1.42464,-1.29512 -1.55415,-2.0722"
                     style="fill:none;stroke:#000000;stroke-width:0.6376;stroke-linecap:round;stroke-linejoin:round;stroke-miterlimit:10;stroke-dasharray:none;stroke-opacity:1"
                     id="path418"
                     inkscape:connector-curvature="0" /></g></g><g
                 id="g420"><g
                   id="g422"
                   transform="translate(23.327,45.301)"><g
                     id="g424"><g
                       id="g426"
                       transform="translate(-38.966,-56.26)"><text
                         transform="matrix(1,0,0,-1,38.966,56.26)"
                         style="font-variant:normal;font-weight:normal;font-size:8.24909973px;font-family:Utopia;-inkscape-font-specification:Utopia-Regular;writing-mode:lr-tb;fill:#000000;fill-opacity:1;fill-rule:nonzero;stroke:none"
                         id="text430"><tspan
                           x="0"
                           y="0"
                           id="tspan428">7</tspan></text>
<g
                         id="g432"
                         transform="translate(38.966,56.26)" /></g></g><g
                     id="g434"
                     transform="translate(-23.327,-45.301)" /></g></g></g></g><g
             id="g436"><g
               id="g438"><path
                 d="M -3.48047,9.56262 C -7.73611,21.2548 -7.73659,29.7767 -3.72316,40.80333"
                 style="fill:none;stroke:#000000;stroke-width:0.79701;stroke-linecap:butt;stroke-linejoin:miter;stroke-miterlimit:10;stroke-dasharray:none;stroke-opacity:1"
                 id="path440"
                 inkscape:connector-curvature="0" /><g
                 id="g442"
                 transform="matrix(0.34244,0.94089,-0.94089,0.34244,-3.72318,40.80331)"><g
                   id="g444"><path
                     d="M -1.55415,2.0722 C -1.42464,1.29512 0,0.1295 0.38852,0 0,-0.1295 -1.42464,-1.29512 -1.55415,-2.0722"
                     style="fill:none;stroke:#000000;stroke-width:0.6376;stroke-linecap:round;stroke-linejoin:round;stroke-miterlimit:10;stroke-dasharray:none;stroke-opacity:1"
                     id="path446"
                     inkscape:connector-curvature="0" /></g></g><g
                 id="g448"><g
                   id="g450"
                   transform="translate(-5.776,22.754)"><g
                     id="g452"><g
                       id="g454"
                       transform="translate(-9.863,-33.713)"><text
                         transform="matrix(1,0,0,-1,9.863,33.713)"
                         style="font-variant:normal;font-weight:normal;font-size:8.24909973px;font-family:Utopia;-inkscape-font-specification:Utopia-Regular;writing-mode:lr-tb;fill:#000000;fill-opacity:1;fill-rule:nonzero;stroke:none"
                         id="text458"><tspan
                           x="0"
                           y="0"
                           id="tspan456">1</tspan></text>
<g
                         id="g460"
                         transform="translate(9.863,33.713)" /></g></g><g
                     id="g462"
                     transform="translate(5.776,-22.754)" /></g></g></g></g><g
             id="g464"><g
               id="g466"><path
                 d="M 92.50047,47.55154 C 80.8082,43.29625 72.2863,43.29736 61.25977,47.3111"
                 style="fill:none;stroke:#000000;stroke-width:0.79701;stroke-linecap:butt;stroke-linejoin:miter;stroke-miterlimit:10;stroke-dasharray:none;stroke-opacity:1"
                 id="path468"
                 inkscape:connector-curvature="0" /><g
                 id="g470"
                 transform="matrix(-0.94089,0.3425,-0.3425,-0.94089,61.25978,47.31108)"><g
                   id="g472"><path
                     d="M -1.55415,2.0722 C -1.42464,1.29512 0,0.1295 0.38852,0 0,-0.1295 -1.42464,-1.29512 -1.55415,-2.0722"
                     style="fill:none;stroke:#000000;stroke-width:0.6376;stroke-linecap:round;stroke-linejoin:round;stroke-miterlimit:10;stroke-dasharray:none;stroke-opacity:1"
                     id="path474"
                     inkscape:connector-curvature="0" /></g></g><g
                 id="g476"><g
                   id="g478"
                   transform="translate(72.17,45.302)"><g
                     id="g480"><g
                       id="g482"
                       transform="translate(-87.809,-56.261)"><text
                         transform="matrix(1,0,0,-1,87.809,56.261)"
                         style="font-variant:normal;font-weight:normal;font-size:8.24909973px;font-family:Utopia;-inkscape-font-specification:Utopia-Regular;writing-mode:lr-tb;fill:#000000;fill-opacity:1;fill-rule:nonzero;stroke:none"
                         id="text486"><tspan
                           x="0 4.3720231"
                           y="0"
                           sodipodi:role="line"
                           id="tspan484">15</tspan></text>
<g
                         id="g488"
                         transform="translate(87.809,56.261)" /></g></g><g
                     id="g490"
                     transform="translate(-72.17,-45.302)" /></g></g></g></g><g
             id="g492"><g
               id="g494"><path
                 d="m 9.96277,102.06314 c 0,5.50235 -4.46042,9.96277 -9.96277,9.96277 -5.50235,0 -9.96277,-4.46042 -9.96277,-9.96277 0,-5.50235 4.46042,-9.96277 9.96277,-9.96277 5.50235,0 9.96277,4.46042 9.96277,9.96277 z"
                 style="fill:#8c8cff;fill-opacity:1;fill-rule:nonzero;stroke:#595959;stroke-width:0.3985;stroke-linecap:butt;stroke-linejoin:miter;stroke-miterlimit:10;stroke-dasharray:none;stroke-opacity:1"
                 id="path496"
                 inkscape:connector-curvature="0" /></g><g
               id="g498"
               transform="translate(-2.929,99.835)"><g
                 id="g500"><g
                   id="g502"
                   transform="translate(-12.71,-110.794)"><text
                     transform="matrix(1,0,0,-1,12.909,110.794)"
                     style="font-style:italic;font-variant:normal;font-size:9.16559982px;font-family:Utopia;-inkscape-font-specification:Utopia-Italic;writing-mode:lr-tb;fill:#000000;fill-opacity:1;fill-rule:nonzero;stroke:none"
                     id="text506"><tspan
                       x="0"
                       y="0"
                       id="tspan504">a</tspan></text>
<g
                     id="g508"
                     transform="translate(12.71,110.794)" /></g></g><g
                 id="g510"
                 transform="translate(2.929,-99.835)" /></g></g><g
             id="g512"><g
               id="g514"><path
                 d="m 112.02591,51.03156 c 0,5.50236 -4.46042,9.96276 -9.96277,9.96276 -5.50235,0 -9.96277,-4.4604 -9.96277,-9.96276 0,-5.50236 4.46042,-9.96277 9.96277,-9.96277 5.50235,0 9.96277,4.46041 9.96277,9.96277 z"
                 style="fill:#8c8cff;fill-opacity:1;fill-rule:nonzero;stroke:#595959;stroke-width:0.3985;stroke-linecap:butt;stroke-linejoin:miter;stroke-miterlimit:10;stroke-dasharray:none;stroke-opacity:1"
                 id="path516"
                 inkscape:connector-curvature="0" /></g><g
               id="g518"
               transform="translate(99.003,48.732)"><g
                 id="g520"><g
                   id="g522"
                   transform="translate(-114.642,-59.691)"><text
                     transform="matrix(1,0,0,-1,115.638,59.691)"
                     style="font-style:italic;font-variant:normal;font-size:9.16559982px;font-family:Utopia;-inkscape-font-specification:Utopia-Italic;writing-mode:lr-tb;fill:#000000;fill-opacity:1;fill-rule:nonzero;stroke:none"
                     id="text526"><tspan
                       x="0"
                       y="0"
                       id="tspan524">f</tspan></text>
<g
                     id="g528"
                     transform="translate(114.642,59.691)" /></g></g><g
                 id="g530"
                 transform="translate(-99.003,-48.732)" /></g></g><g
             id="g532"><g
               id="g534"><path
                 d="M 9.96277,0 C 9.96277,5.50235 5.50235,9.96277 0,9.96277 -5.50235,9.96277 -9.96277,5.50235 -9.96277,0 c 0,-5.50235 4.46042,-9.96277 9.96277,-9.96277 5.50235,0 9.96277,4.46042 9.96277,9.96277 z"
                 style="fill:#8c8cff;fill-opacity:1;fill-rule:nonzero;stroke:#595959;stroke-width:0.3985;stroke-linecap:butt;stroke-linejoin:miter;stroke-miterlimit:10;stroke-dasharray:none;stroke-opacity:1"
                 id="path536"
                 inkscape:connector-curvature="0" /></g><g
               id="g538"
               transform="translate(-2.974,-1.213)"><g
                 id="g540"><g
                   id="g542"
                   transform="translate(-12.665,-9.746)"><text
                     transform="matrix(1,0,0,-1,12.864,9.746)"
                     style="font-style:italic;font-variant:normal;font-size:9.16559982px;font-family:Utopia;-inkscape-font-specification:Utopia-Italic;writing-mode:lr-tb;fill:#000000;fill-opacity:1;fill-rule:nonzero;stroke:none"
                     id="text546"><tspan
                       x="0"
                       y="0"
                       id="tspan544">g</tspan></text>
<g
                     id="g548"
                     transform="translate(12.665,9.746)" /></g></g><g
                 id="g550"
                 transform="translate(2.974,1.213)" /></g></g><g
             id="g552"><g
               id="g554"><path
                 d="m 10.95905,96.07101 c 0,2.75118 -2.23021,4.98139 -4.98139,4.98139 -2.75119,0 -4.98138,-2.23021 -4.98138,-4.98139 0,-2.75119 2.23019,-4.98138 4.98138,-4.98138 2.75118,0 4.98139,2.23019 4.98139,4.98138 z"
                 style="fill:#80ff80;fill-opacity:1;fill-rule:nonzero;stroke:none"
                 id="path556"
                 inkscape:connector-curvature="0" /></g><g
               id="g558"
               transform="translate(3.252,94.361)"><g
                 id="g560"><g
                   id="g562"
                   transform="translate(-18.891,-105.32)"><text
                     transform="matrix(1,0,0,-1,18.891,105.32)"
                     style="font-variant:normal;font-weight:normal;font-size:4.58279991px;font-family:Utopia;-inkscape-font-specification:Utopia-Regular;writing-mode:lr-tb;fill:#000000;fill-opacity:1;fill-rule:nonzero;stroke:none"
                     id="text566"><tspan
                       x="0 2.8367531 4.1703482"
                       y="0"
                       sodipodi:role="line"
                       id="tspan564">nil</tspan></text>
<g
                     id="g568"
                     transform="translate(18.891,105.32)" /></g></g><g
                 id="g570"
                 transform="translate(-3.252,-94.361)" /></g></g><g
             id="g572"><g
               id="g574"><path
                 d="m 61.98337,96.07101 c 0,2.75118 -2.23021,4.98139 -4.98139,4.98139 -2.75117,0 -4.98138,-2.23021 -4.98138,-4.98139 0,-2.75119 2.23021,-4.98138 4.98138,-4.98138 2.75118,0 4.98139,2.23019 4.98139,4.98138 z"
                 style="fill:#80ff80;fill-opacity:1;fill-rule:nonzero;stroke:none"
                 id="path576"
                 inkscape:connector-curvature="0" /></g><g
               id="g578"
               transform="translate(55.009,94.556)"><g
                 id="g580"><g
                   id="g582"
                   transform="translate(-70.648,-105.515)"><text
                     transform="matrix(1,0,0,-1,70.784,105.515)"
                     style="font-style:italic;font-variant:normal;font-size:6.23260021px;font-family:Utopia;-inkscape-font-specification:Utopia-Italic;writing-mode:lr-tb;fill:#000000;fill-opacity:1;fill-rule:nonzero;stroke:none"
                     id="text586"><tspan
                       x="0"
                       y="0"
                       id="tspan584">a</tspan></text>
<g
                     id="g588"
                     transform="translate(70.648,105.515)" /></g></g><g
                 id="g590"
                 transform="translate(-55.009,-94.556)" /></g></g><g
             id="g592"><g
               id="g594"><path
                 d="m 113.00772,96.07101 c 0,2.75118 -2.23021,4.98139 -4.98138,4.98139 -2.75119,0 -4.98139,-2.23021 -4.98139,-4.98139 0,-2.75119 2.2302,-4.98138 4.98139,-4.98138 2.75117,0 4.98138,2.23019 4.98138,4.98138 z"
                 style="fill:#80ff80;fill-opacity:1;fill-rule:nonzero;stroke:none"
                 id="path596"
                 inkscape:connector-curvature="0" /></g><g
               id="g598"
               transform="translate(106.114,93.768)"><g
                 id="g600"><g
                   id="g602"
                   transform="translate(-121.753,-104.727)"><text
                     transform="matrix(1,0,0,-1,121.753,104.727)"
                     style="font-style:italic;font-variant:normal;font-size:6.23260021px;font-family:Utopia;-inkscape-font-specification:Utopia-Italic;writing-mode:lr-tb;fill:#000000;fill-opacity:1;fill-rule:nonzero;stroke:none"
                     id="text606"><tspan
                       x="0"
                       y="0"
                       id="tspan604">b</tspan></text>
<g
                     id="g608"
                     transform="translate(121.753,104.727)" /></g></g><g
                 id="g610"
                 transform="translate(-106.114,-93.768)" /></g></g><g
             id="g612"><g
               id="g614"><path
                 d="m 10.95905,45.04666 c 0,2.75118 -2.23021,4.98139 -4.98139,4.98139 -2.75119,0 -4.98138,-2.23021 -4.98138,-4.98139 0,-2.75117 2.23019,-4.98138 4.98138,-4.98138 2.75118,0 4.98139,2.23021 4.98139,4.98138 z"
                 style="fill:#80ff80;fill-opacity:1;fill-rule:nonzero;stroke:none"
                 id="path616"
                 inkscape:connector-curvature="0" /></g><g
               id="g618"
               transform="translate(4.338,43.532)"><g
                 id="g620"><g
                   id="g622"
                   transform="translate(-19.977,-54.491)"><text
                     transform="matrix(1,0,0,-1,19.977,54.491)"
                     style="font-style:italic;font-variant:normal;font-size:6.23260021px;font-family:Utopia;-inkscape-font-specification:Utopia-Italic;writing-mode:lr-tb;fill:#000000;fill-opacity:1;fill-rule:nonzero;stroke:none"
                     id="text626"><tspan
                       x="0"
                       y="0"
                       id="tspan624">e</tspan></text>
<g
                     id="g628"
                     transform="translate(19.977,54.491)" /></g></g><g
                 id="g630"
                 transform="translate(-4.338,-43.532)" /></g></g><g
             id="g632"><g
               id="g634"><path
                 d="m 61.98337,45.04666 c 0,2.75118 -2.23021,4.98139 -4.98139,4.98139 -2.75117,0 -4.98138,-2.23021 -4.98138,-4.98139 0,-2.75117 2.23021,-4.98138 4.98138,-4.98138 2.75118,0 4.98139,2.23021 4.98139,4.98138 z"
                 style="fill:#80ff80;fill-opacity:1;fill-rule:nonzero;stroke:none"
                 id="path636"
                 inkscape:connector-curvature="0" /></g><g
               id="g638"
               transform="translate(55.09,42.744)"><g
                 id="g640"><g
                   id="g642"
                   transform="translate(-70.729,-53.703)"><text
                     transform="matrix(1,0,0,-1,70.729,53.703)"
                     style="font-style:italic;font-variant:normal;font-size:6.23260021px;font-family:Utopia;-inkscape-font-specification:Utopia-Italic;writing-mode:lr-tb;fill:#000000;fill-opacity:1;fill-rule:nonzero;stroke:none"
                     id="text646"><tspan
                       x="0"
                       y="0"
                       id="tspan644">b</tspan></text>
<g
                     id="g648"
                     transform="translate(70.729,53.703)" /></g></g><g
                 id="g650"
                 transform="translate(-55.09,-42.744)" /></g></g><g
             id="g652"><g
               id="g654"><path
                 d="m 113.00772,45.04666 c 0,2.75118 -2.23021,4.98139 -4.98138,4.98139 -2.75119,0 -4.98139,-2.23021 -4.98139,-4.98139 0,-2.75117 2.2302,-4.98138 4.98139,-4.98138 2.75117,0 4.98138,2.23021 4.98138,4.98138 z"
                 style="fill:#80ff80;fill-opacity:1;fill-rule:nonzero;stroke:none"
                 id="path656"
                 inkscape:connector-curvature="0" /></g><g
               id="g658"
               transform="translate(105.3,43.337)"><g
                 id="g660"><g
                   id="g662"
                   transform="translate(-120.939,-54.296)"><text
                     transform="matrix(1,0,0,-1,120.939,54.296)"
                     style="font-variant:normal;font-weight:normal;font-size:4.58279991px;font-family:Utopia;-inkscape-font-specification:Utopia-Regular;writing-mode:lr-tb;fill:#000000;fill-opacity:1;fill-rule:nonzero;stroke:none"
                     id="text666"><tspan
                       x="0 2.8321705 4.1703482"
                       y="0"
                       sodipodi:role="line"
                       id="tspan664">nil</tspan></text>
<g
                     id="g668"
                     transform="translate(120.939,54.296)" /></g></g><g
                 id="g670"
                 transform="translate(-105.3,-43.337)" /></g></g><g
             id="g672"><g
               id="g674"><path
                 d="m 10.95905,-5.97766 c 0,2.75119 -2.23021,4.98138 -4.98139,4.98138 -2.75119,0 -4.98138,-2.23019 -4.98138,-4.98138 0,-2.75118 2.23019,-4.98139 4.98138,-4.98139 2.75118,0 4.98139,2.23021 4.98139,4.98139 z"
                 style="fill:#80ff80;fill-opacity:1;fill-rule:nonzero;stroke:none"
                 id="path676"
                 inkscape:connector-curvature="0" /></g><g
               id="g678"
               transform="translate(3.252,-7.686)"><g
                 id="g680"><g
                   id="g682"
                   transform="translate(-18.891,-3.273)"><text
                     transform="matrix(1,0,0,-1,18.891,3.273)"
                     style="font-variant:normal;font-weight:normal;font-size:4.58279991px;font-family:Utopia;-inkscape-font-specification:Utopia-Regular;writing-mode:lr-tb;fill:#000000;fill-opacity:1;fill-rule:nonzero;stroke:none"
                     id="text686"><tspan
                       x="0 2.8367531 4.1703482"
                       y="0"
                       sodipodi:role="line"
                       id="tspan684">nil</tspan></text>
<g
                     id="g688"
                     transform="translate(18.891,3.273)" /></g></g><g
                 id="g690"
                 transform="translate(-3.252,7.686)" /></g></g></g></g></g></g></svg>