<?xml version="1.0" encoding="UTF-8" standalone="no"?>
<!-- Created with Inkscape (http://www.inkscape.org/) -->

<svg
   xmlns:dc="http://purl.org/dc/elements/1.1/"
   xmlns:cc="http://creativecommons.org/ns#"
   xmlns:rdf="http://www.w3.org/1999/02/22-rdf-syntax-ns#"
   xmlns:svg="http://www.w3.org/2000/svg"
   xmlns="http://www.w3.org/2000/svg"
   xmlns:sodipodi="http://sodipodi.sourceforge.net/DTD/sodipodi-0.dtd"
   xmlns:inkscape="http://www.inkscape.org/namespaces/inkscape"
   version="1.1"
   id="svg2"
   xml:space="preserve"
   width="171.52667"
   height="165.22932"
   viewBox="0 0 171.52667 165.22932"
   sodipodi:docname="spanning_forest.svg"
   inkscape:version="0.92.1 r"><metadata
     id="metadata8"><rdf:RDF><cc:Work
         rdf:about=""><dc:format>image/svg+xml</dc:format><dc:type
           rdf:resource="http://purl.org/dc/dcmitype/StillImage" /><dc:title /></cc:Work></rdf:RDF></metadata><defs
     id="defs6" /><sodipodi:namedview
     pagecolor="#ffffff"
     bordercolor="#666666"
     borderopacity="1"
     objecttolerance="10"
     gridtolerance="10"
     guidetolerance="10"
     inkscape:pageopacity="0"
     inkscape:pageshadow="2"
     inkscape:window-width="1366"
     inkscape:window-height="768"
     id="namedview4"
     showgrid="false"
     inkscape:zoom="3.3420407"
     inkscape:cx="85.763337"
     inkscape:cy="82.614663"
     inkscape:window-x="0"
     inkscape:window-y="0"
     inkscape:window-maximized="0"
     inkscape:current-layer="g4884" /><g
     id="g10"
     inkscape:groupmode="layer"
     inkscape:label="spanning_forest"
     transform="matrix(1.3333333,0,0,-1.3333333,0,165.22933)"><path
       inkscape:connector-curvature="0"
       id="path48"
       style="fill:#ffffff;fill-opacity:1;fill-rule:nonzero;stroke:#595959;stroke-width:0.3985;stroke-linecap:butt;stroke-linejoin:miter;stroke-miterlimit:10;stroke-dasharray:none;stroke-opacity:1"
       d="m 25.60177,113.00768 c 0,5.50235 -4.46042,9.96276 -9.96277,9.96276 -5.50235,0 -9.96277,-4.46041 -9.96277,-9.96276 0,-5.50237 4.46042,-9.96278 9.96277,-9.96278 5.50235,0 9.96277,4.46041 9.96277,9.96278 z" /><text
       id="text58"
       style="font-style:italic;font-variant:normal;font-size:9.16559982px;font-family:Utopia;-inkscape-font-specification:Utopia-Italic;writing-mode:lr-tb;fill:#000000;fill-opacity:1;fill-rule:nonzero;stroke:none"
       transform="scale(1,-1)"
       x="12.909"
       y="-110.78"><tspan
         id="tspan56"
         y="-110.78"
         x="12.909">a</tspan></text>
<g
       transform="translate(12.71,110.78)"
       id="g60" /><path
       inkscape:connector-curvature="0"
       id="path68"
       style="fill:#ffffff;fill-opacity:1;fill-rule:nonzero;stroke:#595959;stroke-width:0.3985;stroke-linecap:butt;stroke-linejoin:miter;stroke-miterlimit:10;stroke-dasharray:none;stroke-opacity:1"
       d="m 76.62609,113.00768 c 0,5.50235 -4.46042,9.96276 -9.96277,9.96276 -5.50235,0 -9.96277,-4.46041 -9.96277,-9.96276 0,-5.50237 4.46042,-9.96278 9.96277,-9.96278 5.50235,0 9.96277,4.46041 9.96277,9.96278 z" /><text
       id="text78"
       style="font-style:italic;font-variant:normal;font-size:9.16559982px;font-family:Utopia;-inkscape-font-specification:Utopia-Italic;writing-mode:lr-tb;fill:#000000;fill-opacity:1;fill-rule:nonzero;stroke:none"
       transform="scale(1,-1)"
       x="63.853001"
       y="-109.621"><tspan
         id="tspan76"
         y="-109.621"
         x="63.853001">b</tspan></text>
<g
       transform="translate(63.853,109.621)"
       id="g80" /><path
       inkscape:connector-curvature="0"
       id="path88"
       style="fill:#ffffff;fill-opacity:1;fill-rule:nonzero;stroke:#595959;stroke-width:0.3985;stroke-linecap:butt;stroke-linejoin:miter;stroke-miterlimit:10;stroke-dasharray:none;stroke-opacity:1"
       d="m 127.65044,113.00768 c 0,5.50235 -4.46041,9.96276 -9.96276,9.96276 -5.50237,0 -9.96278,-4.46041 -9.96278,-9.96276 0,-5.50237 4.46041,-9.96278 9.96278,-9.96278 5.50235,0 9.96276,4.46041 9.96276,9.96278 z" /><text
       id="text98"
       style="font-style:italic;font-variant:normal;font-size:9.16559982px;font-family:Utopia;-inkscape-font-specification:Utopia-Italic;writing-mode:lr-tb;fill:#000000;fill-opacity:1;fill-rule:nonzero;stroke:none"
       transform="scale(1,-1)"
       x="115.305"
       y="-110.78"><tspan
         id="tspan96"
         y="-110.78"
         x="115.305">c</tspan></text>
<g
       transform="translate(115.305,110.78)"
       id="g100" /><path
       inkscape:connector-curvature="0"
       id="path108"
       style="fill:#ffffff;fill-opacity:1;fill-rule:nonzero;stroke:#595959;stroke-width:0.3985;stroke-linecap:butt;stroke-linejoin:miter;stroke-miterlimit:10;stroke-dasharray:none;stroke-opacity:1"
       d="m 25.60177,61.98332 c 0,5.50235 -4.46042,9.96277 -9.96277,9.96277 -5.50235,0 -9.96277,-4.46042 -9.96277,-9.96277 0,-5.50235 4.46042,-9.96277 9.96277,-9.96277 5.50235,0 9.96277,4.46042 9.96277,9.96277 z" /><text
       id="text118"
       style="font-style:italic;font-variant:normal;font-size:9.16559982px;font-family:Utopia;-inkscape-font-specification:Utopia-Italic;writing-mode:lr-tb;fill:#000000;fill-opacity:1;fill-rule:nonzero;stroke:none"
       transform="scale(1,-1)"
       x="12.485"
       y="-58.598"><tspan
         id="tspan116"
         y="-58.598"
         x="12.485">d</tspan></text>
<g
       transform="translate(12.485,58.598)"
       id="g120" /><path
       inkscape:connector-curvature="0"
       id="path128"
       style="fill:#ffffff;fill-opacity:1;fill-rule:nonzero;stroke:#595959;stroke-width:0.3985;stroke-linecap:butt;stroke-linejoin:miter;stroke-miterlimit:10;stroke-dasharray:none;stroke-opacity:1"
       d="m 76.62609,61.98332 c 0,5.50235 -4.46042,9.96277 -9.96277,9.96277 -5.50235,0 -9.96277,-4.46042 -9.96277,-9.96277 0,-5.50235 4.46042,-9.96277 9.96277,-9.96277 5.50235,0 9.96277,4.46042 9.96277,9.96277 z" /><text
       id="text138"
       style="font-style:italic;font-variant:normal;font-size:9.16559982px;font-family:Utopia;-inkscape-font-specification:Utopia-Italic;writing-mode:lr-tb;fill:#000000;fill-opacity:1;fill-rule:nonzero;stroke:none"
       transform="scale(1,-1)"
       x="64.250999"
       y="-59.756001"><tspan
         id="tspan136"
         y="-59.756001"
         x="64.250999">e</tspan></text>
<g
       transform="translate(64.251,59.756)"
       id="g140" /><path
       inkscape:connector-curvature="0"
       id="path148"
       style="fill:#ffffff;fill-opacity:1;fill-rule:nonzero;stroke:#595959;stroke-width:0.3985;stroke-linecap:butt;stroke-linejoin:miter;stroke-miterlimit:10;stroke-dasharray:none;stroke-opacity:1"
       d="m 127.65044,61.98332 c 0,5.50235 -4.46041,9.96277 -9.96276,9.96277 -5.50237,0 -9.96278,-4.46042 -9.96278,-9.96277 0,-5.50235 4.46041,-9.96277 9.96278,-9.96277 5.50235,0 9.96276,4.46042 9.96276,9.96277 z" /><text
       id="text158"
       style="font-style:italic;font-variant:normal;font-size:9.16559982px;font-family:Utopia;-inkscape-font-specification:Utopia-Italic;writing-mode:lr-tb;fill:#000000;fill-opacity:1;fill-rule:nonzero;stroke:none"
       transform="scale(1,-1)"
       x="115.624"
       y="-59.683998"><tspan
         id="tspan156"
         y="-59.683998"
         x="115.624">f</tspan></text>
<g
       transform="translate(114.627,59.684)"
       id="g160" /><path
       inkscape:connector-curvature="0"
       id="path168"
       style="fill:#ffffff;fill-opacity:1;fill-rule:nonzero;stroke:#595959;stroke-width:0.3985;stroke-linecap:butt;stroke-linejoin:miter;stroke-miterlimit:10;stroke-dasharray:none;stroke-opacity:1"
       d="m 25.60177,10.959 c 0,5.50235 -4.46042,9.96277 -9.96277,9.96277 -5.50235,0 -9.96277,-4.46042 -9.96277,-9.96277 0,-5.50235 4.46042,-9.96277 9.96277,-9.96277 5.50235,0 9.96277,4.46042 9.96277,9.96277 z" /><text
       id="text178"
       style="font-style:italic;font-variant:normal;font-size:9.16559982px;font-family:Utopia;-inkscape-font-specification:Utopia-Italic;writing-mode:lr-tb;fill:#000000;fill-opacity:1;fill-rule:nonzero;stroke:none"
       transform="scale(1,-1)"
       x="12.864"
       y="-9.7460003"><tspan
         id="tspan176"
         y="-9.7460003"
         x="12.864">g</tspan></text>
<g
       transform="translate(12.665,9.746)"
       id="g180" /><g
       transform="translate(15.639,10.959)"
       id="g210" /><g
       transform="translate(15.639,10.959)"
       id="g238" /><g
       transform="translate(15.639,10.959)"
       id="g266" /><g
       transform="translate(15.639,10.959)"
       id="g294" /><g
       transform="translate(15.639,10.959)"
       id="g322" /><g
       transform="translate(15.639,10.959)"
       id="g350" /><g
       transform="translate(15.639,10.959)"
       id="g378" /><g
       transform="translate(15.639,10.959)"
       id="g406" /><g
       transform="translate(15.639,10.959)"
       id="g434" /><g
       transform="translate(15.639,10.959)"
       id="g462" /><g
       transform="translate(15.639,10.959)"
       id="g490" /><path
       inkscape:connector-curvature="0"
       id="path496"
       style="fill:#8c8cff;fill-opacity:1;fill-rule:nonzero;stroke:#595959;stroke-width:0.3985;stroke-linecap:butt;stroke-linejoin:miter;stroke-miterlimit:10;stroke-dasharray:none;stroke-opacity:1"
       d="m 25.60177,113.02214 c 0,5.50235 -4.46042,9.96277 -9.96277,9.96277 -5.50235,0 -9.96277,-4.46042 -9.96277,-9.96277 0,-5.50235 4.46042,-9.96277 9.96277,-9.96277 5.50235,0 9.96277,4.46042 9.96277,9.96277 z" /><text
       id="text506"
       style="font-style:italic;font-variant:normal;font-size:9.16559982px;font-family:Utopia;-inkscape-font-specification:Utopia-Italic;writing-mode:lr-tb;fill:#000000;fill-opacity:1;fill-rule:nonzero;stroke:none"
       transform="scale(1,-1)"
       x="12.909"
       y="-110.794"><tspan
         id="tspan504"
         y="-110.794"
         x="12.909">a</tspan></text>
<g
       transform="translate(12.71,110.794)"
       id="g508" /><path
       inkscape:connector-curvature="0"
       id="path516"
       style="fill:#8c8cff;fill-opacity:1;fill-rule:nonzero;stroke:#595959;stroke-width:0.3985;stroke-linecap:butt;stroke-linejoin:miter;stroke-miterlimit:10;stroke-dasharray:none;stroke-opacity:1"
       d="m 127.66491,61.99056 c 0,5.50236 -4.46042,9.96276 -9.96277,9.96276 -5.50235,0 -9.96277,-4.4604 -9.96277,-9.96276 0,-5.50236 4.46042,-9.96277 9.96277,-9.96277 5.50235,0 9.96277,4.46041 9.96277,9.96277 z" /><text
       id="text526"
       style="font-style:italic;font-variant:normal;font-size:9.16559982px;font-family:Utopia;-inkscape-font-specification:Utopia-Italic;writing-mode:lr-tb;fill:#000000;fill-opacity:1;fill-rule:nonzero;stroke:none"
       transform="scale(1,-1)"
       x="115.638"
       y="-59.691002"><tspan
         id="tspan524"
         y="-59.691002"
         x="115.638">f</tspan></text>
<g
       transform="translate(114.642,59.691)"
       id="g528" /><path
       inkscape:connector-curvature="0"
       id="path536"
       style="fill:#8c8cff;fill-opacity:1;fill-rule:nonzero;stroke:#595959;stroke-width:0.3985;stroke-linecap:butt;stroke-linejoin:miter;stroke-miterlimit:10;stroke-dasharray:none;stroke-opacity:1"
       d="m 25.60177,10.959 c 0,5.50235 -4.46042,9.96277 -9.96277,9.96277 -5.50235,0 -9.96277,-4.46042 -9.96277,-9.96277 0,-5.50235 4.46042,-9.96277 9.96277,-9.96277 5.50235,0 9.96277,4.46042 9.96277,9.96277 z" /><text
       id="text546"
       style="font-style:italic;font-variant:normal;font-size:9.16559982px;font-family:Utopia;-inkscape-font-specification:Utopia-Italic;writing-mode:lr-tb;fill:#000000;fill-opacity:1;fill-rule:nonzero;stroke:none"
       transform="scale(1,-1)"
       x="12.864"
       y="-9.7460003"><tspan
         id="tspan544"
         y="-9.7460003"
         x="12.864">g</tspan></text>
<g
       transform="translate(12.665,9.746)"
       id="g548" /><g
       transform="translate(18.891,105.32)"
       id="g568" /><g
       transform="translate(70.648,105.515)"
       id="g588" /><g
       transform="translate(121.753,104.727)"
       id="g608" /><g
       transform="translate(19.977,54.491)"
       id="g628" /><g
       transform="translate(70.729,53.703)"
       id="g648" /><g
       transform="translate(120.939,54.296)"
       id="g668" /><g
       transform="translate(18.891,3.273)"
       id="g688" /><g
       id="g4884"
       transform="translate(22.051172,1.9488276)"><g
         id="g2100"
         transform="translate(-21.786469,-2.1304903)"><g
           transform="matrix(-1.0012661,-0.00231256,-0.00231256,1.0012661,26.18939,112.90414)"
           id="g166"
           style="stroke:#ff0000"><g
             id="g168"
             style="stroke:#ff0000"><path
               inkscape:connector-curvature="0"
               id="path170"
               style="fill:none;stroke:#ff0000;stroke-width:0.6376;stroke-linecap:round;stroke-linejoin:round;stroke-miterlimit:10;stroke-dasharray:none;stroke-opacity:1"
               d="M -1.55415,2.0722 C -1.42464,1.29512 0,0.1295 0.38852,0 0,-0.1295 -1.42464,-1.29512 -1.55415,-2.0722" /></g></g><path
           style="fill:none;stroke:#ff0000;stroke-width:0.75px;stroke-linecap:butt;stroke-linejoin:miter;stroke-opacity:1"
           d="M 25.349162,112.90112 H 56.663475"
           id="path2094"
           inkscape:connector-curvature="0"
           sodipodi:nodetypes="cc" /></g><g
         transform="matrix(-1,0,0,1,60.226168,-53.130492)"
         id="g2110"><g
           style="stroke:#ff0000"
           id="g2106"
           transform="matrix(-1.0012661,-0.00231256,-0.00231256,1.0012661,26.18939,112.90414)"><g
             style="stroke:#ff0000"
             id="g2104"><path
               d="M -1.55415,2.0722 C -1.42464,1.29512 0,0.1295 0.38852,0 0,-0.1295 -1.42464,-1.29512 -1.55415,-2.0722"
               style="fill:none;stroke:#ff0000;stroke-width:0.6376;stroke-linecap:round;stroke-linejoin:round;stroke-miterlimit:10;stroke-dasharray:none;stroke-opacity:1"
               id="path2102"
               inkscape:connector-curvature="0" /></g></g><path
           sodipodi:nodetypes="cc"
           inkscape:connector-curvature="0"
           id="path2108"
           d="M 25.349162,112.90112 H 56.663475"
           style="fill:none;stroke:#ff0000;stroke-width:0.75px;stroke-linecap:butt;stroke-linejoin:miter;stroke-opacity:1" /></g><g
         id="g2120"
         transform="matrix(0,-1,-1,0,157.62758,126.28356)"><g
           transform="matrix(-1.0012661,-0.00231256,-0.00231256,1.0012661,26.18939,112.90414)"
           id="g2116"
           style="stroke:#ff0000"><g
             id="g2114"
             style="stroke:#ff0000"><path
               inkscape:connector-curvature="0"
               id="path2112"
               style="fill:none;stroke:#ff0000;stroke-width:0.6376;stroke-linecap:round;stroke-linejoin:round;stroke-miterlimit:10;stroke-dasharray:none;stroke-opacity:1"
               d="M -1.55415,2.0722 C -1.42464,1.29512 0,0.1295 0.38852,0 0,-0.1295 -1.42464,-1.29512 -1.55415,-2.0722" /></g></g><path
           style="fill:none;stroke:#ff0000;stroke-width:0.75px;stroke-linecap:butt;stroke-linejoin:miter;stroke-opacity:1"
           d="M 25.349162,112.90112 H 56.663475"
           id="path2118"
           inkscape:connector-curvature="0"
           sodipodi:nodetypes="cc" /></g><g
         transform="rotate(90,82.178329,126.44925)"
         id="g4932"><g
           style="stroke:#ff0000"
           id="g4928"
           transform="matrix(-1.0012661,-0.00231256,-0.00231256,1.0012661,26.18939,112.90414)"><g
             style="stroke:#ff0000"
             id="g4926"><path
               d="M -1.55415,2.0722 C -1.42464,1.29512 0,0.1295 0.38852,0 0,-0.1295 -1.42464,-1.29512 -1.55415,-2.0722"
               style="fill:none;stroke:#ff0000;stroke-width:0.6376;stroke-linecap:round;stroke-linejoin:round;stroke-miterlimit:10;stroke-dasharray:none;stroke-opacity:1"
               id="path4924"
               inkscape:connector-curvature="0" /></g></g><path
           sodipodi:nodetypes="cc"
           inkscape:connector-curvature="0"
           id="path4930"
           d="M 25.349162,112.90112 H 56.663475"
           style="fill:none;stroke:#ff0000;stroke-width:0.75px;stroke-linecap:butt;stroke-linejoin:miter;stroke-opacity:1" /></g></g></g></svg>