<?xml version="1.0" encoding="UTF-8" standalone="no"?>
<!-- Created with Inkscape (http://www.inkscape.org/) -->

<svg
   xmlns:dc="http://purl.org/dc/elements/1.1/"
   xmlns:cc="http://creativecommons.org/ns#"
   xmlns:rdf="http://www.w3.org/1999/02/22-rdf-syntax-ns#"
   xmlns:svg="http://www.w3.org/2000/svg"
   xmlns="http://www.w3.org/2000/svg"
   xmlns:sodipodi="http://sodipodi.sourceforge.net/DTD/sodipodi-0.dtd"
   xmlns:inkscape="http://www.inkscape.org/namespaces/inkscape"
   version="1.1"
   id="svg2"
   xml:space="preserve"
   width="151.91333"
   height="98.678673"
   viewBox="0 0 151.91333 98.678673"
   sodipodi:docname="tarjan_step2.svg"
   inkscape:version="0.92.1 r"><metadata
     id="metadata8"><rdf:RDF><cc:Work
         rdf:about=""><dc:format>image/svg+xml</dc:format><dc:type
           rdf:resource="http://purl.org/dc/dcmitype/StillImage" /><dc:title></dc:title></cc:Work></rdf:RDF></metadata><defs
     id="defs6" /><sodipodi:namedview
     pagecolor="#ffffff"
     bordercolor="#666666"
     borderopacity="1"
     objecttolerance="10"
     gridtolerance="10"
     guidetolerance="10"
     inkscape:pageopacity="0"
     inkscape:pageshadow="2"
     inkscape:window-width="1366"
     inkscape:window-height="768"
     id="namedview4"
     showgrid="false"
     inkscape:zoom="5.3130476"
     inkscape:cx="65.968647"
     inkscape:cy="52.122358"
     inkscape:window-x="0"
     inkscape:window-y="0"
     inkscape:window-maximized="0"
     inkscape:current-layer="g10"
     fit-margin-top="8"
     fit-margin-left="8"
     fit-margin-right="8"
     fit-margin-bottom="8" /><g
     id="g10"
     inkscape:groupmode="layer"
     inkscape:label="tarjan_step2"
     transform="matrix(1.3333333,0,0,-1.3333333,4.0146934,94.66237)"><g
       id="g12"
       transform="translate(12.727514,55.811162)"><g
         id="g14"><g
           id="g16"><g
             id="g18"><g
               id="g20"><path
                 d="M 9.96277,0 C 9.96277,5.50235 5.50235,9.96277 0,9.96277 -5.50235,9.96277 -9.96277,5.50235 -9.96277,0 c 0,-5.50235 4.46042,-9.96277 9.96277,-9.96277 5.50235,0 9.96277,4.46042 9.96277,9.96277 z"
                 style="fill:none;stroke:#595959;stroke-width:0.3985;stroke-linecap:butt;stroke-linejoin:miter;stroke-miterlimit:10;stroke-dasharray:none;stroke-opacity:1"
                 id="path22"
                 inkscape:connector-curvature="0" /></g><g
               id="g24"
               transform="translate(-6.969,-3.15)"><g
                 id="g26"><g
                   id="g28"
                   transform="translate(-6.182,-52.52)"><text
                     transform="matrix(1,0,0,-1,6.182,52.52)"
                     style="font-variant:normal;font-weight:normal;font-size:9.16559982px;font-family:Utopia;-inkscape-font-specification:Utopia-Regular;writing-mode:lr-tb;fill:#000000;fill-opacity:1;fill-rule:nonzero;stroke:none"
                     id="text32"><tspan
                       x="0 4.8577681 9.0739441"
                       y="0"
                       sodipodi:role="line"
                       id="tspan30">1/1</tspan></text>
<g
                     id="g34"
                     transform="translate(6.182,52.52)" /></g></g><g
                 id="g36"
                 transform="translate(6.969,3.15)" /></g></g><g
             id="g38"><g
               id="g40"><path
                 d="m 52.48297,0 c 0,5.50235 -4.46042,9.96277 -9.96277,9.96277 -5.50236,0 -9.96277,-4.46042 -9.96277,-9.96277 0,-5.50235 4.46041,-9.96277 9.96277,-9.96277 5.50235,0 9.96277,4.46042 9.96277,9.96277 z"
                 style="fill:none;stroke:#595959;stroke-width:0.3985;stroke-linecap:butt;stroke-linejoin:miter;stroke-miterlimit:10;stroke-dasharray:none;stroke-opacity:1"
                 id="path42"
                 inkscape:connector-curvature="0" /></g><g
               id="g44"
               transform="translate(35.551,-3.15)"><g
                 id="g46"><g
                   id="g48"
                   transform="translate(-48.702,-52.52)"><text
                     transform="matrix(1,0,0,-1,48.702,52.52)"
                     style="font-variant:normal;font-weight:normal;font-size:9.16559982px;font-family:Utopia;-inkscape-font-specification:Utopia-Regular;writing-mode:lr-tb;fill:#ff0000;fill-opacity:1;fill-rule:nonzero;stroke:none"
                     id="text52"><tspan
                       x="0 4.8577681 9.0739441"
                       y="0"
                       sodipodi:role="line"
                       id="tspan50">2/2</tspan></text>
<g
                     id="g54"
                     transform="translate(48.702,52.52)" /></g></g><g
                 id="g56"
                 transform="translate(-35.551,3.15)" /></g></g><g
             id="g58"><g
               id="g60"><path
                 d="m 95.00319,0 c 0,5.50235 -4.46042,9.96277 -9.96277,9.96277 -5.50235,0 -9.96277,-4.46042 -9.96277,-9.96277 0,-5.50235 4.46042,-9.96277 9.96277,-9.96277 5.50235,0 9.96277,4.46042 9.96277,9.96277 z"
                 style="fill:none;stroke:#595959;stroke-width:0.3985;stroke-linecap:butt;stroke-linejoin:miter;stroke-miterlimit:10;stroke-dasharray:none;stroke-opacity:1"
                 id="path62"
                 inkscape:connector-curvature="0" /></g><g
               id="g64"
               transform="translate(85.039)"><g
                 id="g66" /><g
                 id="g68"
                 transform="translate(-85.039)" /></g></g><g
             id="g70"><g
               id="g72"><path
                 d="m 9.96277,-42.5202 c 0,5.50236 -4.46042,9.96277 -9.96277,9.96277 -5.50235,0 -9.96277,-4.46041 -9.96277,-9.96277 0,-5.50235 4.46042,-9.96277 9.96277,-9.96277 5.50235,0 9.96277,4.46042 9.96277,9.96277 z"
                 style="fill:none;stroke:#595959;stroke-width:0.3985;stroke-linecap:butt;stroke-linejoin:miter;stroke-miterlimit:10;stroke-dasharray:none;stroke-opacity:1"
                 id="path74"
                 inkscape:connector-curvature="0" /></g><g
               id="g76"
               transform="translate(-6.969,-45.67)"><g
                 id="g78"><g
                   id="g80"
                   transform="translate(-6.182,-10)"><text
                     transform="matrix(1,0,0,-1,6.182,10)"
                     style="font-variant:normal;font-weight:normal;font-size:9.16559982px;font-family:Utopia;-inkscape-font-specification:Utopia-Regular;writing-mode:lr-tb;fill:#ff0000;fill-opacity:1;fill-rule:nonzero;stroke:none"
                     id="text84"><tspan
                       x="0 4.8577681 9.0739441"
                       y="0"
                       sodipodi:role="line"
                       id="tspan82">3/3</tspan></text>
<g
                     id="g86"
                     transform="translate(6.182,10)" /></g></g><g
                 id="g88"
                 transform="translate(6.969,45.67)" /></g></g><g
             id="g90"><g
               id="g92"><path
                 d="m 52.48297,-42.5202 c 0,5.50236 -4.46042,9.96277 -9.96277,9.96277 -5.50236,0 -9.96277,-4.46041 -9.96277,-9.96277 0,-5.50235 4.46041,-9.96277 9.96277,-9.96277 5.50235,0 9.96277,4.46042 9.96277,9.96277 z"
                 style="fill:none;stroke:#595959;stroke-width:0.3985;stroke-linecap:butt;stroke-linejoin:miter;stroke-miterlimit:10;stroke-dasharray:none;stroke-opacity:1"
                 id="path94"
                 inkscape:connector-curvature="0" /></g><g
               id="g96"
               transform="translate(42.519,-42.519)"><g
                 id="g98" /><g
                 id="g100"
                 transform="translate(-42.519,42.519)" /></g></g><g
             id="g102"><g
               id="g104"><path
                 d="m 95.00319,-42.5202 c 0,5.50236 -4.46042,9.96277 -9.96277,9.96277 -5.50235,0 -9.96277,-4.46041 -9.96277,-9.96277 0,-5.50235 4.46042,-9.96277 9.96277,-9.96277 5.50235,0 9.96277,4.46042 9.96277,9.96277 z"
                 style="fill:none;stroke:#595959;stroke-width:0.3985;stroke-linecap:butt;stroke-linejoin:miter;stroke-miterlimit:10;stroke-dasharray:none;stroke-opacity:1"
                 id="path106"
                 inkscape:connector-curvature="0" /></g><g
               id="g108"
               transform="translate(85.039,-42.519)"><g
                 id="g110" /><g
                 id="g112"
                 transform="translate(-85.039,42.519)" /></g></g><g
             id="g114"><path
               d="M 9.96397,0 H 28.97485"
               style="fill:none;stroke:#ff0000;stroke-width:0.3985;stroke-linecap:butt;stroke-linejoin:miter;stroke-miterlimit:10;stroke-dasharray:none;stroke-opacity:1"
               id="path116"
               inkscape:connector-curvature="0" /><g
               id="g118"><g
                 id="g120"
                 transform="translate(28.97485)"><g
                   id="g122"><path
                     d="M 3.58653,0 C 2.52383,0.19925 0.797,0.797 -0.3985,1.49438 V -1.49438 C 0.797,-0.797 2.52383,-0.19925 3.58653,0"
                     style="fill:#ff0000;fill-opacity:1;fill-rule:nonzero;stroke:none"
                     id="path124"
                     inkscape:connector-curvature="0" /></g></g></g></g><g
             id="g126"><path
               d="M 35.44571,-7.08086 9.61693,-32.90909"
               style="fill:none;stroke:#ff0000;stroke-width:0.3985;stroke-linecap:butt;stroke-linejoin:miter;stroke-miterlimit:10;stroke-dasharray:none;stroke-opacity:1"
               id="path128"
               inkscape:connector-curvature="0" /><g
               id="g130"><g
                 id="g132"
                 transform="matrix(-0.7071,-0.70714,0.70714,-0.7071,9.61693,-32.90907)"><g
                   id="g134"><path
                     d="M 3.58653,0 C 2.52383,0.19925 0.797,0.797 -0.3985,1.49438 V -1.49438 C 0.797,-0.797 2.52383,-0.19925 3.58653,0"
                     style="fill:#ff0000;fill-opacity:1;fill-rule:nonzero;stroke:none"
                     id="path136"
                     inkscape:connector-curvature="0" /></g></g></g></g><g
             id="g138"><path
               d="m 52.48936,0 h 19.0109"
               style="fill:none;stroke:#000000;stroke-width:0.3985;stroke-linecap:butt;stroke-linejoin:miter;stroke-miterlimit:10;stroke-dasharray:none;stroke-opacity:1"
               id="path140"
               inkscape:connector-curvature="0" /><g
               id="g142"
               transform="translate(71.50026)"><g
                 id="g144"><path
                   d="M 3.58653,0 C 2.52383,0.19925 0.797,0.797 -0.3985,1.49438 V -1.49438 C 0.797,-0.797 2.52383,-0.19925 3.58653,0"
                   style="fill:#000000;fill-opacity:1;fill-rule:nonzero;stroke:none"
                   id="path146"
                   inkscape:connector-curvature="0" /></g></g></g><g
             id="g148"><path
               d="m 85.05458,-9.96397 -0.0014,-19.01088"
               style="fill:none;stroke:#000000;stroke-width:0.3985;stroke-linecap:butt;stroke-linejoin:miter;stroke-miterlimit:10;stroke-dasharray:none;stroke-opacity:1"
               id="path150"
               inkscape:connector-curvature="0" /><g
               id="g152"
               transform="rotate(-90.002865,28.039909,-57.011909)"><g
                 id="g154"><path
                   d="M 3.58653,0 C 2.52383,0.19925 0.797,0.797 -0.3985,1.49438 V -1.49438 C 0.797,-0.797 2.52383,-0.19925 3.58653,0"
                   style="fill:#000000;fill-opacity:1;fill-rule:nonzero;stroke:none"
                   id="path156"
                   inkscape:connector-curvature="0" /></g></g></g><g
             id="g158"><path
               d="m 0,-32.5614 v 19.01088"
               style="fill:none;stroke:#ff0000;stroke-width:0.3985;stroke-linecap:butt;stroke-linejoin:miter;stroke-miterlimit:10;stroke-dasharray:none;stroke-opacity:1"
               id="path160"
               inkscape:connector-curvature="0" /><g
               id="g162"><g
                 id="g164"
                 transform="rotate(90,6.77526,-6.77526)"><g
                   id="g166"><path
                     d="M 3.58653,0 C 2.52383,0.19925 0.797,0.797 -0.3985,1.49438 V -1.49438 C 0.797,-0.797 2.52383,-0.19925 3.58653,0"
                     style="fill:#ff0000;fill-opacity:1;fill-rule:nonzero;stroke:none"
                     id="path168"
                     inkscape:connector-curvature="0" /></g></g></g></g><g
             id="g170"><g
               id="g172"><path
                 d="m 76.39433,-37.52744 c -8.51506,4.91568 -16.69786,4.91478 -22.09663,1.79752"
                 style="fill:none;stroke:#000000;stroke-width:0.3985;stroke-linecap:butt;stroke-linejoin:miter;stroke-miterlimit:10;stroke-dasharray:none;stroke-opacity:1"
                 id="path174"
                 inkscape:connector-curvature="0" /><g
                 id="g176"
                 transform="matrix(-0.86877,-0.50165,0.50165,-0.86877,54.2977,-35.72992)"><g
                   id="g178"><path
                     d="M 3.58653,0 C 2.52383,0.19925 0.797,0.797 -0.3985,1.49438 V -1.49438 C 0.797,-0.797 2.52383,-0.19925 3.58653,0"
                     style="fill:#000000;fill-opacity:1;fill-rule:nonzero;stroke:none"
                     id="path180"
                     inkscape:connector-curvature="0" /></g></g></g></g><g
             id="g182"><g
               id="g184"><path
                 d="m 51.18181,-47.52394 c 8.51457,-4.91655 16.69737,-4.91737 22.09663,-1.80045"
                 style="fill:none;stroke:#000000;stroke-width:0.3985;stroke-linecap:butt;stroke-linejoin:miter;stroke-miterlimit:10;stroke-dasharray:none;stroke-opacity:1"
                 id="path186"
                 inkscape:connector-curvature="0" /><g
                 id="g188"
                 transform="matrix(0.86877,0.5015,-0.5015,0.86877,73.27844,-49.32439)"><g
                   id="g190"><path
                     d="M 3.58653,0 C 2.52383,0.19925 0.797,0.797 -0.3985,1.49438 V -1.49438 C 0.797,-0.797 2.52383,-0.19925 3.58653,0"
                     style="fill:#000000;fill-opacity:1;fill-rule:nonzero;stroke:none"
                     id="path192"
                     inkscape:connector-curvature="0" /></g></g></g></g></g></g></g></g></svg>