<?xml version="1.0" encoding="UTF-8" standalone="no"?>
<!-- Created with Inkscape (http://www.inkscape.org/) -->

<svg
   xmlns:dc="http://purl.org/dc/elements/1.1/"
   xmlns:cc="http://creativecommons.org/ns#"
   xmlns:rdf="http://www.w3.org/1999/02/22-rdf-syntax-ns#"
   xmlns:svg="http://www.w3.org/2000/svg"
   xmlns="http://www.w3.org/2000/svg"
   xmlns:sodipodi="http://sodipodi.sourceforge.net/DTD/sodipodi-0.dtd"
   xmlns:inkscape="http://www.inkscape.org/namespaces/inkscape"
   version="1.1"
   id="svg2"
   xml:space="preserve"
   width="151.91333"
   height="98.678665"
   viewBox="0 0 151.91333 98.678665"
   sodipodi:docname="tarjan_step3.svg"
   inkscape:version="0.92.1 r"><metadata
     id="metadata8"><rdf:RDF><cc:Work
         rdf:about=""><dc:format>image/svg+xml</dc:format><dc:type
           rdf:resource="http://purl.org/dc/dcmitype/StillImage" /><dc:title></dc:title></cc:Work></rdf:RDF></metadata><defs
     id="defs6" /><sodipodi:namedview
     pagecolor="#ffffff"
     bordercolor="#666666"
     borderopacity="1"
     objecttolerance="10"
     gridtolerance="10"
     guidetolerance="10"
     inkscape:pageopacity="0"
     inkscape:pageshadow="2"
     inkscape:window-width="1366"
     inkscape:window-height="768"
     id="namedview4"
     showgrid="false"
     inkscape:zoom="4.9596022"
     inkscape:cx="43.595199"
     inkscape:cy="49.339333"
     inkscape:window-x="0"
     inkscape:window-y="0"
     inkscape:window-maximized="0"
     inkscape:current-layer="g10" /><g
     id="g10"
     inkscape:groupmode="layer"
     inkscape:label="tarjan_step3"
     transform="matrix(1.3333333,0,0,-1.3333333,0,98.678667)"><g
       id="g12"
       transform="translate(15.745,58.264)"><g
         id="g14"><g
           id="g16"><g
             id="g18"><path
               d="M -12.75616,12.75616 H 55.2764 V -8.5039 L 8.5039,-55.2764 h -21.26006 z"
               style="fill:#ffb3b3;fill-opacity:1;fill-rule:nonzero;stroke:none"
               id="path20"
               inkscape:connector-curvature="0" /></g><g
             id="g22"><g
               id="g24"><path
                 d="M 9.96277,0 C 9.96277,5.50235 5.50235,9.96277 0,9.96277 -5.50235,9.96277 -9.96277,5.50235 -9.96277,0 c 0,-5.50235 4.46042,-9.96277 9.96277,-9.96277 5.50235,0 9.96277,4.46042 9.96277,9.96277 z"
                 style="fill:#ffffff;fill-opacity:1;fill-rule:nonzero;stroke:#595959;stroke-width:0.3985;stroke-linecap:butt;stroke-linejoin:miter;stroke-miterlimit:10;stroke-dasharray:none;stroke-opacity:1"
                 id="path26"
                 inkscape:connector-curvature="0" /></g><g
               id="g28"
               transform="translate(-6.969,-3.15)"><g
                 id="g30"><g
                   id="g32"
                   transform="translate(-8.776,-55.114)"><text
                     transform="matrix(1,0,0,-1,8.776,55.114)"
                     style="font-variant:normal;font-weight:normal;font-size:9.16559982px;font-family:Utopia;-inkscape-font-specification:Utopia-Regular;writing-mode:lr-tb;fill:#000000;fill-opacity:1;fill-rule:nonzero;stroke:none"
                     id="text36"><tspan
                       x="0 4.8577681 9.0739441"
                       y="0"
                       sodipodi:role="line"
                       id="tspan34">1/1</tspan></text>
<g
                     id="g38"
                     transform="translate(8.776,55.114)" /></g></g><g
                 id="g40"
                 transform="translate(6.969,3.151)" /></g></g><g
             id="g42"><g
               id="g44"><path
                 d="m 52.48297,0 c 0,5.50235 -4.46042,9.96277 -9.96277,9.96277 -5.50236,0 -9.96277,-4.46042 -9.96277,-9.96277 0,-5.50235 4.46041,-9.96277 9.96277,-9.96277 5.50235,0 9.96277,4.46042 9.96277,9.96277 z"
                 style="fill:#ffffff;fill-opacity:1;fill-rule:nonzero;stroke:#595959;stroke-width:0.3985;stroke-linecap:butt;stroke-linejoin:miter;stroke-miterlimit:10;stroke-dasharray:none;stroke-opacity:1"
                 id="path46"
                 inkscape:connector-curvature="0" /></g><g
               id="g48"
               transform="translate(35.551,-3.151)"><g
                 id="g50"><g
                   id="g52"
                   transform="translate(-51.296,-55.114)"><text
                     transform="matrix(1,0,0,-1,51.296,55.114)"
                     style="font-variant:normal;font-weight:normal;font-size:9.16559982px;font-family:Utopia;-inkscape-font-specification:Utopia-Regular;writing-mode:lr-tb;fill:#0000ff;fill-opacity:1;fill-rule:nonzero;stroke:none"
                     id="text58"><tspan
                       x="0 4.8577681"
                       y="0"
                       sodipodi:role="line"
                       id="tspan54">2/</tspan><tspan
                       x="9.0739441"
                       y="0"
                       id="tspan56">1</tspan></text>
<g
                     id="g60"
                     transform="translate(51.296,55.114)" /></g></g><g
                 id="g62"
                 transform="translate(-35.551,3.151)" /></g></g><g
             id="g64"><g
               id="g66"><path
                 d="m 95.00319,0 c 0,5.50235 -4.46042,9.96277 -9.96277,9.96277 -5.50235,0 -9.96277,-4.46042 -9.96277,-9.96277 0,-5.50235 4.46042,-9.96277 9.96277,-9.96277 5.50235,0 9.96277,4.46042 9.96277,9.96277 z"
                 style="fill:#ffffff;fill-opacity:1;fill-rule:nonzero;stroke:#595959;stroke-width:0.3985;stroke-linecap:butt;stroke-linejoin:miter;stroke-miterlimit:10;stroke-dasharray:none;stroke-opacity:1"
                 id="path68"
                 inkscape:connector-curvature="0" /></g><g
               id="g70"
               transform="translate(85.039)"><g
                 id="g72" /><g
                 id="g74"
                 transform="translate(-85.039)" /></g></g><g
             id="g76"><g
               id="g78"><path
                 d="m 9.96277,-42.5202 c 0,5.50236 -4.46042,9.96277 -9.96277,9.96277 -5.50235,0 -9.96277,-4.46041 -9.96277,-9.96277 0,-5.50235 4.46042,-9.96277 9.96277,-9.96277 5.50235,0 9.96277,4.46042 9.96277,9.96277 z"
                 style="fill:#ffffff;fill-opacity:1;fill-rule:nonzero;stroke:#595959;stroke-width:0.3985;stroke-linecap:butt;stroke-linejoin:miter;stroke-miterlimit:10;stroke-dasharray:none;stroke-opacity:1"
                 id="path80"
                 inkscape:connector-curvature="0" /></g><g
               id="g82"
               transform="translate(-6.969,-45.671)"><g
                 id="g84"><g
                   id="g86"
                   transform="translate(-8.776,-12.594)"><text
                     transform="matrix(1,0,0,-1,8.776,12.594)"
                     style="font-variant:normal;font-weight:normal;font-size:9.16559982px;font-family:Utopia;-inkscape-font-specification:Utopia-Regular;writing-mode:lr-tb;fill:#0000ff;fill-opacity:1;fill-rule:nonzero;stroke:none"
                     id="text92"><tspan
                       x="0 4.8577681"
                       y="0"
                       sodipodi:role="line"
                       id="tspan88">3/</tspan><tspan
                       x="9.0739441"
                       y="0"
                       id="tspan90">1</tspan></text>
<g
                     id="g94"
                     transform="translate(8.776,12.594)" /></g></g><g
                 id="g96"
                 transform="translate(6.969,45.671)" /></g></g><g
             id="g98"><g
               id="g100"><path
                 d="m 52.48297,-42.5202 c 0,5.50236 -4.46042,9.96277 -9.96277,9.96277 -5.50236,0 -9.96277,-4.46041 -9.96277,-9.96277 0,-5.50235 4.46041,-9.96277 9.96277,-9.96277 5.50235,0 9.96277,4.46042 9.96277,9.96277 z"
                 style="fill:#ffffff;fill-opacity:1;fill-rule:nonzero;stroke:#595959;stroke-width:0.3985;stroke-linecap:butt;stroke-linejoin:miter;stroke-miterlimit:10;stroke-dasharray:none;stroke-opacity:1"
                 id="path102"
                 inkscape:connector-curvature="0" /></g><g
               id="g104"
               transform="translate(42.52,-42.52)"><g
                 id="g106" /><g
                 id="g108"
                 transform="translate(-42.52,42.52)" /></g></g><g
             id="g110"><g
               id="g112"><path
                 d="m 95.00319,-42.5202 c 0,5.50236 -4.46042,9.96277 -9.96277,9.96277 -5.50235,0 -9.96277,-4.46041 -9.96277,-9.96277 0,-5.50235 4.46042,-9.96277 9.96277,-9.96277 5.50235,0 9.96277,4.46042 9.96277,9.96277 z"
                 style="fill:#ffffff;fill-opacity:1;fill-rule:nonzero;stroke:#595959;stroke-width:0.3985;stroke-linecap:butt;stroke-linejoin:miter;stroke-miterlimit:10;stroke-dasharray:none;stroke-opacity:1"
                 id="path114"
                 inkscape:connector-curvature="0" /></g><g
               id="g116"
               transform="translate(85.039,-42.52)"><g
                 id="g118" /><g
                 id="g120"
                 transform="translate(-85.039,42.52)" /></g></g><g
             id="g122"><path
               d="M 9.96397,0 H 28.97485"
               style="fill:none;stroke:#0000ff;stroke-width:0.3985;stroke-linecap:butt;stroke-linejoin:miter;stroke-miterlimit:10;stroke-dasharray:none;stroke-opacity:1"
               id="path124"
               inkscape:connector-curvature="0" /><g
               id="g126"><g
                 id="g128"
                 transform="translate(28.97485)"><g
                   id="g130"><path
                     d="M 3.58653,0 C 2.52383,0.19925 0.797,0.797 -0.3985,1.49438 V -1.49438 C 0.797,-0.797 2.52383,-0.19925 3.58653,0"
                     style="fill:#0000ff;fill-opacity:1;fill-rule:nonzero;stroke:none"
                     id="path132"
                     inkscape:connector-curvature="0" /></g></g></g></g><g
             id="g134"><path
               d="M 35.44571,-7.08086 9.61693,-32.90909"
               style="fill:none;stroke:#0000ff;stroke-width:0.3985;stroke-linecap:butt;stroke-linejoin:miter;stroke-miterlimit:10;stroke-dasharray:none;stroke-opacity:1"
               id="path136"
               inkscape:connector-curvature="0" /><g
               id="g138"><g
                 id="g140"
                 transform="matrix(-0.7071,-0.70714,0.70714,-0.7071,9.61693,-32.90907)"><g
                   id="g142"><path
                     d="M 3.58653,0 C 2.52383,0.19925 0.797,0.797 -0.3985,1.49438 V -1.49438 C 0.797,-0.797 2.52383,-0.19925 3.58653,0"
                     style="fill:#0000ff;fill-opacity:1;fill-rule:nonzero;stroke:none"
                     id="path144"
                     inkscape:connector-curvature="0" /></g></g></g></g><g
             id="g146"><path
               d="m 52.48936,0 h 19.0109"
               style="fill:none;stroke:#000000;stroke-width:0.3985;stroke-linecap:butt;stroke-linejoin:miter;stroke-miterlimit:10;stroke-dasharray:none;stroke-opacity:1"
               id="path148"
               inkscape:connector-curvature="0" /><g
               id="g150"
               transform="translate(71.50026)"><g
                 id="g152"><path
                   d="M 3.58653,0 C 2.52383,0.19925 0.797,0.797 -0.3985,1.49438 V -1.49438 C 0.797,-0.797 2.52383,-0.19925 3.58653,0"
                   style="fill:#000000;fill-opacity:1;fill-rule:nonzero;stroke:none"
                   id="path154"
                   inkscape:connector-curvature="0" /></g></g></g><g
             id="g156"><path
               d="m 85.05458,-9.96397 -0.0014,-19.01088"
               style="fill:none;stroke:#000000;stroke-width:0.3985;stroke-linecap:butt;stroke-linejoin:miter;stroke-miterlimit:10;stroke-dasharray:none;stroke-opacity:1"
               id="path158"
               inkscape:connector-curvature="0" /><g
               id="g160"
               transform="rotate(-90.002865,28.039909,-57.011909)"><g
                 id="g162"><path
                   d="M 3.58653,0 C 2.52383,0.19925 0.797,0.797 -0.3985,1.49438 V -1.49438 C 0.797,-0.797 2.52383,-0.19925 3.58653,0"
                   style="fill:#000000;fill-opacity:1;fill-rule:nonzero;stroke:none"
                   id="path164"
                   inkscape:connector-curvature="0" /></g></g></g><g
             id="g166"><path
               d="m 0,-32.5614 v 19.01088"
               style="fill:none;stroke:#0000ff;stroke-width:0.3985;stroke-linecap:butt;stroke-linejoin:miter;stroke-miterlimit:10;stroke-dasharray:none;stroke-opacity:1"
               id="path168"
               inkscape:connector-curvature="0" /><g
               id="g170"><g
                 id="g172"
                 transform="rotate(90,6.77526,-6.77526)"><g
                   id="g174"><path
                     d="M 3.58653,0 C 2.52383,0.19925 0.797,0.797 -0.3985,1.49438 V -1.49438 C 0.797,-0.797 2.52383,-0.19925 3.58653,0"
                     style="fill:#0000ff;fill-opacity:1;fill-rule:nonzero;stroke:none"
                     id="path176"
                     inkscape:connector-curvature="0" /></g></g></g></g><g
             id="g178"><g
               id="g180"><path
                 d="m 76.39433,-37.52744 c -8.51506,4.91568 -16.69786,4.91478 -22.09663,1.79752"
                 style="fill:none;stroke:#000000;stroke-width:0.3985;stroke-linecap:butt;stroke-linejoin:miter;stroke-miterlimit:10;stroke-dasharray:none;stroke-opacity:1"
                 id="path182"
                 inkscape:connector-curvature="0" /><g
                 id="g184"
                 transform="matrix(-0.86877,-0.50165,0.50165,-0.86877,54.2977,-35.72992)"><g
                   id="g186"><path
                     d="M 3.58653,0 C 2.52383,0.19925 0.797,0.797 -0.3985,1.49438 V -1.49438 C 0.797,-0.797 2.52383,-0.19925 3.58653,0"
                     style="fill:#000000;fill-opacity:1;fill-rule:nonzero;stroke:none"
                     id="path188"
                     inkscape:connector-curvature="0" /></g></g></g></g><g
             id="g190"><g
               id="g192"><path
                 d="m 51.18181,-47.52394 c 8.51457,-4.91655 16.69737,-4.91737 22.09663,-1.80045"
                 style="fill:none;stroke:#000000;stroke-width:0.3985;stroke-linecap:butt;stroke-linejoin:miter;stroke-miterlimit:10;stroke-dasharray:none;stroke-opacity:1"
                 id="path194"
                 inkscape:connector-curvature="0" /><g
                 id="g196"
                 transform="matrix(0.86877,0.5015,-0.5015,0.86877,73.27844,-49.32439)"><g
                   id="g198"><path
                     d="M 3.58653,0 C 2.52383,0.19925 0.797,0.797 -0.3985,1.49438 V -1.49438 C 0.797,-0.797 2.52383,-0.19925 3.58653,0"
                     style="fill:#000000;fill-opacity:1;fill-rule:nonzero;stroke:none"
                     id="path200"
                     inkscape:connector-curvature="0" /></g></g></g></g></g></g></g></g></svg>