<?xml version="1.0" encoding="UTF-8" standalone="no"?>
<!-- Created with Inkscape (http://www.inkscape.org/) -->

<svg
   xmlns:dc="http://purl.org/dc/elements/1.1/"
   xmlns:cc="http://creativecommons.org/ns#"
   xmlns:rdf="http://www.w3.org/1999/02/22-rdf-syntax-ns#"
   xmlns:svg="http://www.w3.org/2000/svg"
   xmlns="http://www.w3.org/2000/svg"
   xmlns:sodipodi="http://sodipodi.sourceforge.net/DTD/sodipodi-0.dtd"
   xmlns:inkscape="http://www.inkscape.org/namespaces/inkscape"
   version="1.1"
   id="svg294"
   xml:space="preserve"
   width="151.91333"
   height="98.678673"
   viewBox="0 0 151.91333 98.678673"
   sodipodi:docname="tarjan_step1.svg"
   inkscape:version="0.92.1 r"><metadata
     id="metadata300"><rdf:RDF><cc:Work
         rdf:about=""><dc:format>image/svg+xml</dc:format><dc:type
           rdf:resource="http://purl.org/dc/dcmitype/StillImage" /><dc:title></dc:title></cc:Work></rdf:RDF></metadata><defs
     id="defs298" /><sodipodi:namedview
     pagecolor="#ffffff"
     bordercolor="#666666"
     borderopacity="1"
     objecttolerance="10"
     gridtolerance="10"
     guidetolerance="10"
     inkscape:pageopacity="0"
     inkscape:pageshadow="2"
     inkscape:window-width="1366"
     inkscape:window-height="768"
     id="namedview296"
     showgrid="false"
     fit-margin-top="8"
     fit-margin-left="8"
     fit-margin-right="8"
     fit-margin-bottom="8"
     inkscape:zoom="3.907697"
     inkscape:cx="67.218596"
     inkscape:cy="33.024786"
     inkscape:window-x="0"
     inkscape:window-y="0"
     inkscape:window-maximized="0"
     inkscape:current-layer="g302" /><g
     id="g302"
     inkscape:groupmode="layer"
     inkscape:label="tarjan_step1"
     transform="matrix(1.3333333,0,0,-1.3333333,4.0146934,94.662368)"><g
       id="g304"
       transform="translate(12.767144,55.861929)"><g
         id="g306"><g
           id="g308"><g
             id="g310"><g
               id="g312"><path
                 d="M 9.96277,0 C 9.96277,5.50235 5.50235,9.96277 0,9.96277 -5.50235,9.96277 -9.96277,5.50235 -9.96277,0 c 0,-5.50235 4.46042,-9.96277 9.96277,-9.96277 5.50235,0 9.96277,4.46042 9.96277,9.96277 z"
                 style="fill:none;stroke:#595959;stroke-width:0.3985;stroke-linecap:butt;stroke-linejoin:miter;stroke-miterlimit:10;stroke-dasharray:none;stroke-opacity:1"
                 id="path314"
                 inkscape:connector-curvature="0" /></g><g
               id="g316"
               transform="translate(-6.969,-3.15)"><g
                 id="g318"><g
                   id="g320"
                   transform="translate(-6.182,-52.52)"><text
                     transform="matrix(1,0,0,-1,6.182,52.52)"
                     style="font-variant:normal;font-weight:normal;font-size:9.16559982px;font-family:Utopia;-inkscape-font-specification:Utopia-Regular;writing-mode:lr-tb;fill:#000000;fill-opacity:1;fill-rule:nonzero;stroke:none"
                     id="text324"><tspan
                       x="0 4.8577681 9.0739441"
                       y="0"
                       sodipodi:role="line"
                       id="tspan322">1/1</tspan></text>
<g
                     id="g326"
                     transform="translate(6.182,52.52)" /></g></g><g
                 id="g328"
                 transform="translate(6.969,3.15)" /></g></g><g
             id="g330"><g
               id="g332"><path
                 d="m 52.48297,0 c 0,5.50235 -4.46042,9.96277 -9.96277,9.96277 -5.50236,0 -9.96277,-4.46042 -9.96277,-9.96277 0,-5.50235 4.46041,-9.96277 9.96277,-9.96277 5.50235,0 9.96277,4.46042 9.96277,9.96277 z"
                 style="fill:none;stroke:#595959;stroke-width:0.3985;stroke-linecap:butt;stroke-linejoin:miter;stroke-miterlimit:10;stroke-dasharray:none;stroke-opacity:1"
                 id="path334"
                 inkscape:connector-curvature="0" /></g><g
               id="g336"
               transform="translate(42.519)"><g
                 id="g338" /><g
                 id="g340"
                 transform="translate(-42.519)" /></g></g><g
             id="g342"><g
               id="g344"><path
                 d="m 95.00319,0 c 0,5.50235 -4.46042,9.96277 -9.96277,9.96277 -5.50235,0 -9.96277,-4.46042 -9.96277,-9.96277 0,-5.50235 4.46042,-9.96277 9.96277,-9.96277 5.50235,0 9.96277,4.46042 9.96277,9.96277 z"
                 style="fill:none;stroke:#595959;stroke-width:0.3985;stroke-linecap:butt;stroke-linejoin:miter;stroke-miterlimit:10;stroke-dasharray:none;stroke-opacity:1"
                 id="path346"
                 inkscape:connector-curvature="0" /></g><g
               id="g348"
               transform="translate(85.039)"><g
                 id="g350" /><g
                 id="g352"
                 transform="translate(-85.039)" /></g></g><g
             id="g354"><g
               id="g356"><path
                 d="m 9.96277,-42.5202 c 0,5.50236 -4.46042,9.96277 -9.96277,9.96277 -5.50235,0 -9.96277,-4.46041 -9.96277,-9.96277 0,-5.50235 4.46042,-9.96277 9.96277,-9.96277 5.50235,0 9.96277,4.46042 9.96277,9.96277 z"
                 style="fill:none;stroke:#595959;stroke-width:0.3985;stroke-linecap:butt;stroke-linejoin:miter;stroke-miterlimit:10;stroke-dasharray:none;stroke-opacity:1"
                 id="path358"
                 inkscape:connector-curvature="0" /></g><g
               id="g360"
               transform="translate(0,-42.519)"><g
                 id="g362" /><g
                 id="g364"
                 transform="translate(0,42.519)" /></g></g><g
             id="g366"><g
               id="g368"><path
                 d="m 52.48297,-42.5202 c 0,5.50236 -4.46042,9.96277 -9.96277,9.96277 -5.50236,0 -9.96277,-4.46041 -9.96277,-9.96277 0,-5.50235 4.46041,-9.96277 9.96277,-9.96277 5.50235,0 9.96277,4.46042 9.96277,9.96277 z"
                 style="fill:none;stroke:#595959;stroke-width:0.3985;stroke-linecap:butt;stroke-linejoin:miter;stroke-miterlimit:10;stroke-dasharray:none;stroke-opacity:1"
                 id="path370"
                 inkscape:connector-curvature="0" /></g><g
               id="g372"
               transform="translate(42.519,-42.519)"><g
                 id="g374" /><g
                 id="g376"
                 transform="translate(-42.519,42.519)" /></g></g><g
             id="g378"><g
               id="g380"><path
                 d="m 95.00319,-42.5202 c 0,5.50236 -4.46042,9.96277 -9.96277,9.96277 -5.50235,0 -9.96277,-4.46041 -9.96277,-9.96277 0,-5.50235 4.46042,-9.96277 9.96277,-9.96277 5.50235,0 9.96277,4.46042 9.96277,9.96277 z"
                 style="fill:none;stroke:#595959;stroke-width:0.3985;stroke-linecap:butt;stroke-linejoin:miter;stroke-miterlimit:10;stroke-dasharray:none;stroke-opacity:1"
                 id="path382"
                 inkscape:connector-curvature="0" /></g><g
               id="g384"
               transform="translate(85.039,-42.519)"><g
                 id="g386" /><g
                 id="g388"
                 transform="translate(-85.039,42.519)" /></g></g><g
             id="g390"><path
               d="M 9.96397,0 H 28.97485"
               style="fill:none;stroke:#000000;stroke-width:0.3985;stroke-linecap:butt;stroke-linejoin:miter;stroke-miterlimit:10;stroke-dasharray:none;stroke-opacity:1"
               id="path392"
               inkscape:connector-curvature="0" /><g
               id="g394"
               transform="translate(28.97485)"><g
                 id="g396"><path
                   d="M 3.58653,0 C 2.52383,0.19925 0.797,0.797 -0.3985,1.49438 V -1.49438 C 0.797,-0.797 2.52383,-0.19925 3.58653,0"
                   style="fill:#000000;fill-opacity:1;fill-rule:nonzero;stroke:none"
                   id="path398"
                   inkscape:connector-curvature="0" /></g></g></g><g
             id="g400"><path
               d="M 35.44571,-7.08086 9.61693,-32.90909"
               style="fill:none;stroke:#000000;stroke-width:0.3985;stroke-linecap:butt;stroke-linejoin:miter;stroke-miterlimit:10;stroke-dasharray:none;stroke-opacity:1"
               id="path402"
               inkscape:connector-curvature="0" /><g
               id="g404"
               transform="matrix(-0.7071,-0.70714,0.70714,-0.7071,9.61693,-32.90907)"><g
                 id="g406"><path
                   d="M 3.58653,0 C 2.52383,0.19925 0.797,0.797 -0.3985,1.49438 V -1.49438 C 0.797,-0.797 2.52383,-0.19925 3.58653,0"
                   style="fill:#000000;fill-opacity:1;fill-rule:nonzero;stroke:none"
                   id="path408"
                   inkscape:connector-curvature="0" /></g></g></g><g
             id="g410"><path
               d="m 52.48936,0 h 19.0109"
               style="fill:none;stroke:#000000;stroke-width:0.3985;stroke-linecap:butt;stroke-linejoin:miter;stroke-miterlimit:10;stroke-dasharray:none;stroke-opacity:1"
               id="path412"
               inkscape:connector-curvature="0" /><g
               id="g414"
               transform="translate(71.50026)"><g
                 id="g416"><path
                   d="M 3.58653,0 C 2.52383,0.19925 0.797,0.797 -0.3985,1.49438 V -1.49438 C 0.797,-0.797 2.52383,-0.19925 3.58653,0"
                   style="fill:#000000;fill-opacity:1;fill-rule:nonzero;stroke:none"
                   id="path418"
                   inkscape:connector-curvature="0" /></g></g></g><g
             id="g420"><path
               d="m 85.05458,-9.96397 -0.0014,-19.01088"
               style="fill:none;stroke:#000000;stroke-width:0.3985;stroke-linecap:butt;stroke-linejoin:miter;stroke-miterlimit:10;stroke-dasharray:none;stroke-opacity:1"
               id="path422"
               inkscape:connector-curvature="0" /><g
               id="g424"
               transform="rotate(-90.002865,28.039909,-57.011909)"><g
                 id="g426"><path
                   d="M 3.58653,0 C 2.52383,0.19925 0.797,0.797 -0.3985,1.49438 V -1.49438 C 0.797,-0.797 2.52383,-0.19925 3.58653,0"
                   style="fill:#000000;fill-opacity:1;fill-rule:nonzero;stroke:none"
                   id="path428"
                   inkscape:connector-curvature="0" /></g></g></g><g
             id="g430"><path
               d="m 0,-32.5614 v 19.01088"
               style="fill:none;stroke:#000000;stroke-width:0.3985;stroke-linecap:butt;stroke-linejoin:miter;stroke-miterlimit:10;stroke-dasharray:none;stroke-opacity:1"
               id="path432"
               inkscape:connector-curvature="0" /><g
               id="g434"
               transform="rotate(90,6.77526,-6.77526)"><g
                 id="g436"><path
                   d="M 3.58653,0 C 2.52383,0.19925 0.797,0.797 -0.3985,1.49438 V -1.49438 C 0.797,-0.797 2.52383,-0.19925 3.58653,0"
                   style="fill:#000000;fill-opacity:1;fill-rule:nonzero;stroke:none"
                   id="path438"
                   inkscape:connector-curvature="0" /></g></g></g><g
             id="g440"><g
               id="g442"><path
                 d="m 76.39433,-37.52744 c -8.51506,4.91568 -16.69786,4.91478 -22.09663,1.79752"
                 style="fill:none;stroke:#000000;stroke-width:0.3985;stroke-linecap:butt;stroke-linejoin:miter;stroke-miterlimit:10;stroke-dasharray:none;stroke-opacity:1"
                 id="path444"
                 inkscape:connector-curvature="0" /><g
                 id="g446"
                 transform="matrix(-0.86877,-0.50165,0.50165,-0.86877,54.2977,-35.72992)"><g
                   id="g448"><path
                     d="M 3.58653,0 C 2.52383,0.19925 0.797,0.797 -0.3985,1.49438 V -1.49438 C 0.797,-0.797 2.52383,-0.19925 3.58653,0"
                     style="fill:#000000;fill-opacity:1;fill-rule:nonzero;stroke:none"
                     id="path450"
                     inkscape:connector-curvature="0" /></g></g></g></g><g
             id="g452"><g
               id="g454"><path
                 d="m 51.18181,-47.52394 c 8.51457,-4.91655 16.69737,-4.91737 22.09663,-1.80045"
                 style="fill:none;stroke:#000000;stroke-width:0.3985;stroke-linecap:butt;stroke-linejoin:miter;stroke-miterlimit:10;stroke-dasharray:none;stroke-opacity:1"
                 id="path456"
                 inkscape:connector-curvature="0" /><g
                 id="g458"
                 transform="matrix(0.86877,0.5015,-0.5015,0.86877,73.27844,-49.32439)"><g
                   id="g460"><path
                     d="M 3.58653,0 C 2.52383,0.19925 0.797,0.797 -0.3985,1.49438 V -1.49438 C 0.797,-0.797 2.52383,-0.19925 3.58653,0"
                     style="fill:#000000;fill-opacity:1;fill-rule:nonzero;stroke:none"
                     id="path462"
                     inkscape:connector-curvature="0" /></g></g></g></g><g
             id="g464"><path
               d="m 0,0 c 0,0 3.31679,-11.10823 12.75616,-17.00781 9.4394,-5.89959 21.26012,-4.25228 16.87317,-4.86349"
               style="fill:none;stroke:#808080;stroke-width:0.70864999;stroke-linecap:butt;stroke-linejoin:miter;stroke-miterlimit:10;stroke-dasharray:0.70865, 1.99255;stroke-dashoffset:0;stroke-opacity:1"
               id="path466"
               inkscape:connector-curvature="0" /><g
               id="g468"
               transform="matrix(0.99165,0.13817,-0.13817,0.99165,29.62933,-21.87132)"><g
                 id="g470"><path
                   d="M 4.42386,0 C 3.11305,0.24576 0.98308,0.98308 -0.49153,1.84326 V -1.84326 C 0.98308,-0.98308 3.11305,-0.24576 4.42386,0"
                   style="fill:#808080;fill-opacity:1;fill-rule:nonzero;stroke:none"
                   id="path472"
                   inkscape:connector-curvature="0" /></g></g></g><g
             id="g474"><g
               id="g476"
               transform="translate(35.145,-23.587)"><g
                 id="g478"><g
                   id="g480"
                   transform="translate(-48.296,-32.083)"><text
                     transform="matrix(1,0,0,-1,48.296,32.083)"
                     style="font-variant:normal;font-weight:normal;font-size:6.41590023px;font-family:Utopia;-inkscape-font-specification:Utopia-Regular;writing-mode:lr-tb;fill:#808080;fill-opacity:1;fill-rule:nonzero;stroke:none"
                     id="text484"><tspan
                       x="0 1.8670269 5.838469 9.6751776 12.97295 16.091078 19.035975 20.832428 24.341925 29.269337 31.059372 32.932816 36.897842"
                       y="0"
                       sodipodi:role="line"
                       id="tspan482">index/lowlink</tspan></text>
<g
                     id="g486"
                     transform="translate(48.296,32.083)" /></g></g><g
                 id="g488"
                 transform="translate(-35.145,23.587)" /></g></g></g></g></g></g></svg>